<svg width="32" height="32" viewBox="0 0 32 32" fill="none" xmlns="http://www.w3.org/2000/svg">
<mask id="mask0_816_11793" style="mask-type:alpha" maskUnits="userSpaceOnUse" x="2" y="4" width="28" height="24">
<path fill-rule="evenodd" clip-rule="evenodd" d="M22.5859 4C24.3739 4 26.0939 4.70667 27.3592 5.97467C28.6259 7.24 29.3339 8.94667 29.3339 10.7333V21.2667C29.3339 24.9867 26.3072 28 22.5859 28H9.4139C5.69257 28 2.66724 24.9867 2.66724 21.2667V10.7333C2.66724 7.01333 5.67924 4 9.4139 4H22.5859ZM24.7072 12.72L24.8139 12.6133C25.1326 12.2267 25.1326 11.6667 24.7992 11.28C24.6139 11.0813 24.3592 10.96 24.0939 10.9333C23.8139 10.9187 23.5472 11.0133 23.3459 11.2L17.3339 16C16.5606 16.6413 15.4526 16.6413 14.6672 16L8.66724 11.2C8.25257 10.8933 7.67924 10.9333 7.3339 11.2933C6.9739 11.6533 6.9339 12.2267 7.23924 12.6267L7.4139 12.8L13.4806 17.5333C14.2272 18.12 15.1326 18.44 16.0806 18.44C17.0259 18.44 17.9472 18.12 18.6926 17.5333L24.7072 12.72Z" fill="#89989D"/>
</mask>
<g mask="url(#mask0_816_11793)">
<path fill-rule="evenodd" clip-rule="evenodd" d="M2.29755 3.51823L1.58 4.84078L1.44275 4.37794L2.42166 1.67154L2.57548 2.09681L2.37329 2.6558L3.09085 1.33325L3.22809 1.79609L2.46804 3.89742L3.73981 1.34026L3.8807 1.79609L2.77424 4.85512L4.38919 1.347L4.5333 1.79609L3.081 5.81129L5.03986 1.35133L5.18591 1.79609L3.38804 6.76668L5.69116 1.35434L5.83852 1.79609L3.69525 7.72161L6.34284 1.35654L6.49112 1.79609L4.00257 8.67624L6.99475 1.35823L7.14373 1.79609L4.30995 9.63068L7.64682 1.35956L7.79634 1.79609L4.61739 10.585L8.29899 1.36064L8.44894 1.79609L4.92486 11.5392L8.95125 1.36153L9.10155 1.79609L5.23236 12.4933L9.60356 1.36227L9.75416 1.79609L5.53988 13.4474L10.2559 1.36291L10.4068 1.79609L5.84742 14.4014L10.9083 1.36346L11.0594 1.79609L6.26999 15.0373L11.5608 1.36378L11.7124 1.79492L6.66517 15.9041L12.2128 1.36522L12.3654 1.7938L7.17615 16.4525L12.865 1.36644L13.0188 1.79152L7.77754 16.9121L13.5168 1.36864L13.6714 1.79152L8.43015 16.9121L14.1694 1.36864L14.324 1.79152L9.08276 16.9121L14.822 1.36864L14.9775 1.78913L9.80178 17.0523L15.4738 1.37082L15.6309 1.78666L10.5234 17.191L16.1256 1.37307L16.2843 1.78411L11.2477 17.328L16.7774 1.3754L16.9378 1.78148L11.9746 17.4634L17.4292 1.37779L17.5908 1.78013L12.6653 17.5305L18.0814 1.37902L18.2447 1.77597L13.4361 17.7291L18.7327 1.38281L18.8982 1.77309L14.1707 17.8592L19.3845 1.38544L19.5516 1.77011L14.9078 17.9875L20.0363 1.38815L20.2051 1.76705L15.6474 18.1139L20.688 1.39095L20.8586 1.76389L16.3895 18.2382L21.3398 1.39383L21.5121 1.76063L17.134 18.3605L21.9915 1.39681L22.1655 1.75728L17.8809 18.4808L22.6432 1.39987L22.819 1.75382L18.6302 18.5988L23.295 1.40303L23.4725 1.75026L19.3818 18.7146L23.9467 1.40629L24.126 1.7466L20.1358 18.8281L24.5984 1.40964L24.7794 1.74284L20.892 18.9393L25.2502 1.4131L25.4329 1.73896L21.6504 19.0479L25.9019 1.41665L26.0864 1.73498L22.4111 19.154L26.5537 1.42032L26.7398 1.73089L23.1739 19.2576L27.2054 1.42408L27.3933 1.72668L23.9388 19.3586L27.8571 1.42796L28.0467 1.72237L24.7058 19.4567L28.5089 1.43194L28.7001 1.71794L25.3065 20.4826L29.1609 1.73557L29.3525 2.01978L26.0879 19.8833L29.7048 2.3367L29.8968 2.61892L27.3516 16.8455L30.0301 3.24394L30.2242 3.5149L27.4854 19.7402L30.3558 4.75059L30.5512 5.01402L28.4709 17.8793L30.4634 6.86178L30.6613 7.1104L29.2728 16.4674L30.4617 9.27694L30.6626 9.50666L29.2561 19.9758L30.4609 12.2895L30.6638 12.5042L29.4299 22.7388L30.4603 15.902L30.6651 16.1018L29.8412 23.9112L30.4593 19.5172L30.6665 19.695L30.1292 26.0084L30.4597 23.7244L30.6673 23.8951L30.341 28.4058L30.1277 28.2878L30.2217 26.9888L29.7915 29.962L29.5846 29.7815L30.099 23.7381L29.1393 30.5608L28.9335 30.3676L29.9081 21.1297L28.4857 30.5674L28.2821 30.3567L29.6687 18.8561L27.8325 30.5713L27.6307 30.3471L29.4236 17.002L27.179 30.5768L26.9795 30.3376L29.3497 14.3644L26.416 30.5863L26.2194 30.329L29.0179 13.0227L25.6535 30.5925L25.4588 30.3246L28.5423 12.0565L24.8915 30.5956L24.6985 30.3185L28.0579 11.5411L24.1291 30.6007L23.9375 30.3162L27.1578 12.6954L23.4765 30.6004L23.2847 30.3173L26.9961 9.79556L22.6058 30.6033L22.4154 30.3129L26.2669 9.8681L21.7348 30.6073L21.5461 30.3085L25.5362 9.94269L20.8638 30.6111L20.6768 30.3043L24.8039 10.0194L19.9928 30.6149L19.8075 30.3003L24.07 10.098L19.1218 30.6186L18.9382 30.2963L23.3345 10.1785L18.2508 30.6221L18.0689 30.2924L22.5973 10.2609L17.3797 30.6256L17.1996 30.2886L21.8584 10.3451L16.5087 30.6289L16.3304 30.285L21.1178 10.4311L15.6377 30.6322L15.4611 30.2814L20.3755 10.5187L14.7667 30.6354L14.5918 30.278L19.6314 10.608L13.8957 30.6384L13.7225 30.2746L18.8854 10.6989L13.0247 30.6414L12.8533 30.2713L18.1377 10.7914L12.1537 30.6443L11.984 30.2682L17.3881 10.8854L11.2827 30.6471L11.1147 30.2651L16.6367 10.9808L10.4117 30.6498L10.2454 30.2621L15.8834 11.0777L9.54073 30.6524L9.37615 30.2593L15.4426 10.1328L8.56056 30.6562L8.39852 30.2551L13.8921 12.6881L7.79878 30.6574L7.63757 30.2537L13.612 11.3764L6.92781 30.6598L6.76827 30.2511L12.851 11.4786L6.05686 30.6622L5.89896 30.2486L12.0881 11.5819L5.18591 30.6644L5.02965 30.2461L11.3231 11.6865L4.31497 30.6666L4.16033 30.2437L9.40159 15.1231L3.66236 30.6666L3.50772 30.2437L8.74899 15.1231L3.00976 30.6666L2.85511 30.2437L9.28745 11.687L2.35633 30.0674L2.2033 29.64L8.15112 12.8385L1.92079 29.1665L1.76863 28.7368L7.65795 12.2736L1.70271 27.6643L1.55152 27.232L6.54594 13.4239L1.48504 26.4618L1.33398 26.0292L6.20087 12.5736L1.48483 24.6581L1.33398 24.2249L5.85578 11.7234L1.48458 22.8545L1.33398 22.4206L5.51068 10.8733L1.48429 21.0509L1.33398 20.6164L5.16554 10.0232L1.48393 19.2476L1.33398 18.8121L4.82037 9.17324L1.4835 17.4444L1.33398 17.0078L4.47515 8.32341L1.48296 15.6414L1.33398 15.2036L4.12986 7.47377L1.48227 13.8388L1.33398 13.3993L3.78446 6.62443L1.48134 12.0368L1.33398 11.595L3.43889 5.77555L1.48004 10.2355L1.33398 9.79075L3.09304 4.92746L1.47809 8.43557L1.33398 7.98648L2.74664 4.08089L1.47487 6.63804L1.33398 6.18221L2.29755 3.51823Z" fill="url(#paint0_linear_816_11793)"/>
</g>
<defs>
<linearGradient id="paint0_linear_816_11793" x1="16.0007" y1="1.33325" x2="16.0007" y2="30.6666" gradientUnits="userSpaceOnUse">
<stop stop-color="white"/>
<stop offset="1" stop-color="#F2F5FA"/>
</linearGradient>
</defs>
</svg>
