<svg width="64" height="32" viewBox="0 0 64 32" fill="none" xmlns="http://www.w3.org/2000/svg">
<mask id="mask0_38_2590" style="mask-type:alpha" maskUnits="userSpaceOnUse" x="0" y="0" width="64" height="32">
<rect x="1" y="1" width="62" height="30" rx="15" stroke="#040C0F" stroke-width="2"/>
</mask>
<g mask="url(#mask0_38_2590)">
<path fill-rule="evenodd" clip-rule="evenodd" d="M-1.63489 -2.25442L-3.39615 -0.390823L-3.73302 -1.04301L-1.33025 -4.85658L-0.952685 -4.25734L-1.44897 -3.46966L0.312297 -5.33325L0.649169 -4.68106L-1.21641 -1.72011L1.90521 -5.32337L2.25102 -4.68106L-0.464817 -0.370625L3.49915 -5.31387L3.85287 -4.68106L0.288132 0.976712L5.09623 -5.30778L5.45473 -4.68106L1.04178 2.32294L6.69489 -5.30354L7.05658 -4.68106L1.79584 3.66852L8.29447 -5.30044L8.65843 -4.68106L2.55016 5.01368L9.89461 -5.29806L10.2603 -4.68106L3.30465 6.35858L11.4951 -5.29618L11.8621 -4.68106L4.05926 7.70327L13.0959 -5.29467L13.464 -4.68106L4.81397 9.04782L14.6969 -5.29341L15.0658 -4.68106L5.56874 10.3923L16.298 -5.29236L16.6677 -4.68106L6.32356 11.7366L17.8993 -5.29146L18.2696 -4.68106L7.07843 13.0809L19.5006 -5.29069L19.8714 -4.68106L8.11566 13.9771L21.1022 -5.29023L21.4743 -4.68272L9.08563 15.1984L22.7027 -5.28821L23.0771 -4.6843L10.3399 15.9711L24.3034 -5.28649L24.6809 -4.68751L11.816 16.6188L25.9032 -5.28338L26.2828 -4.68751L13.4179 16.6188L27.5051 -5.28338L27.8846 -4.68751L15.0197 16.6188L29.1069 -5.28338L29.4885 -4.69088L16.7846 16.8163L30.7068 -5.28031L31.0924 -4.69436L18.5559 17.0117L32.3067 -5.27714L32.6963 -4.69795L20.3337 17.2048L33.9065 -5.27387L34.3002 -4.70166L22.1179 17.3956L35.5064 -5.27049L35.9031 -4.70356L23.8133 17.4901L37.1072 -5.26877L37.5081 -4.70942L25.7053 17.77L38.706 -5.26342L39.1121 -4.71349L27.5084 17.9533L40.3058 -5.25972L40.716 -4.71768L29.3176 18.1341L41.9056 -5.25589L42.32 -4.722L31.133 18.3122L43.5053 -5.25195L43.924 -4.72645L32.9544 18.4874L45.1051 -5.24789L45.528 -4.73104L34.7818 18.6597L46.7048 -5.2437L47.132 -4.73576L36.6151 18.8291L48.3045 -5.23938L48.736 -4.74063L38.4543 18.9955L49.9042 -5.23493L50.34 -4.74564L40.2992 19.1586L51.504 -5.23034L51.944 -4.7508L42.1498 19.3185L53.1037 -5.22561L53.5479 -4.75611L44.0059 19.4752L54.7034 -5.22074L55.1519 -4.76157L45.8676 19.6283L56.3031 -5.21573L56.7559 -4.76718L47.7347 19.7778L57.9028 -5.21057L58.3598 -4.77295L49.607 19.9238L59.5026 -5.20526L59.9637 -4.77887L51.4845 20.0661L61.1023 -5.1998L61.5676 -4.78495L53.3672 20.2043L62.702 -5.19419L63.1714 -4.79119L54.8417 21.6499L64.3024 -4.76635L64.7728 -4.36587L56.7596 20.8054L65.6374 -3.9193L66.1087 -3.52164L59.8613 16.5249L66.4358 -2.64092L66.9122 -2.25912L60.1899 20.6038L67.2353 -0.517916L67.715 -0.146721L62.6087 17.9816L67.4994 2.45695L67.9852 2.80728L64.5771 15.9921L67.4954 5.86012L67.9885 6.18383L64.5362 20.9357L67.4932 10.1051L67.9915 10.4076L64.9627 24.8291L67.4918 15.1954L67.9945 15.477L65.9723 26.4811L67.4894 20.2895L67.9981 20.5402L66.6793 29.4362L67.4903 26.218L68 26.4584L67.1991 32.8144L66.6755 32.6482L66.9061 30.8178L65.8503 35.0073L65.3425 34.7529L66.605 26.2372L64.2494 35.851L63.7443 35.5787L66.1364 22.5617L62.6451 35.8604L62.1454 35.5634L65.5489 19.3581L61.0418 35.8659L60.5466 35.5498L64.9472 16.7454L59.4378 35.8736L58.948 35.5366L64.7659 13.0288L57.565 35.8869L57.0824 35.5245L63.9514 11.1383L55.6933 35.8956L55.2154 35.5182L62.7841 9.77675L53.823 35.9L53.3492 35.5095L61.595 9.05052L51.9516 35.9072L51.4814 35.5063L59.3857 10.677L50.3499 35.9068L49.879 35.5079L58.9888 6.5909L48.2126 35.9109L47.7452 35.5017L57.1989 6.69312L46.0747 35.9165L45.6115 35.4956L55.4054 6.79824L43.9368 35.922L43.4777 35.4896L53.6079 6.90635L41.7989 35.9273L41.344 35.4839L51.8066 7.01709L39.6609 35.9324L39.2103 35.4783L50.0012 7.13049L37.523 35.9374L37.0766 35.4728L48.1917 7.24661L35.3851 35.9423L34.9429 35.4675L46.3781 7.36532L33.2471 35.947L32.8093 35.4623L44.5603 7.48638L31.1092 35.9516L30.6756 35.4573L42.7382 7.60984L28.9712 35.9561L28.5419 35.4525L40.9117 7.73572L26.8333 35.9604L26.4083 35.4477L39.0808 7.86384L24.6954 35.9646L24.2746 35.4432L37.2455 7.99414L22.5575 35.9687L22.1409 35.4387L35.4057 8.12655L20.4196 35.9726L20.0073 35.4344L33.5612 8.26106L18.2817 35.9764L17.8736 35.4302L31.7122 8.39757L16.1438 35.9801L15.7399 35.4261L30.6303 7.06605L13.738 35.9855L13.3402 35.4203L26.8244 10.6668L11.8681 35.9872L11.4724 35.4184L26.137 8.81849L9.73031 35.9906L9.3387 35.4147L24.2691 8.96245L7.59251 35.9938L7.20495 35.4111L22.3964 9.10808L5.45473 35.997L5.07118 35.4076L20.5188 9.2554L3.31697 36.0001L2.93739 35.4042L15.8023 14.0979L1.71511 36.0001L1.33554 35.4042L14.2005 14.0979L0.113261 36.0001L-0.266316 35.4042L15.5221 9.25608L-1.49061 35.1557L-1.86621 34.5535L12.733 10.8787L-2.55965 33.8863L-2.93314 33.2808L11.5225 10.0827L-3.09496 31.7696L-3.46605 31.1605L8.79297 11.7036L-3.62922 30.0752L-4 29.4655L7.94599 10.5055L-3.62974 27.5336L-4 26.9232L7.09896 9.30746L-3.63035 24.9921L-4 24.3808L6.25188 8.10952L-3.63107 22.4508L-4 21.8384L5.40473 6.91169L-3.63194 19.9096L-4 19.296L4.55749 5.71401L-3.633 17.3688L-4 16.7536L3.71013 4.51652L-3.63433 14.8283L-4 14.2113L2.8626 3.3193L-3.63604 12.2883L-4 11.6689L2.0148 2.1225L-3.63831 9.74899L-4 9.12651L1.16659 0.926352L-3.6415 7.21084L-4 6.58413L0.317691 -0.268691L-3.64628 4.67456L-4 4.04175L-0.532568 -1.46158L-3.65419 2.14168L-4 1.49937L-1.63489 -2.25442Z" fill="#89989D"/>
<rect x="63.667" width="32" height="32" rx="16" transform="rotate(90 63.667 0)" fill="white"/>
</g>
<mask id="mask1_38_2590" style="mask-type:alpha" maskUnits="userSpaceOnUse" x="7" y="6" width="20" height="20">
<path d="M21.5831 15.9999C21.5831 18.5312 19.531 20.5832 16.9997 20.5832C14.4684 20.5832 12.4164 18.5312 12.4164 15.9999C12.4164 13.4686 14.4684 11.4166 16.9997 11.4166C19.531 11.4166 21.5831 13.4686 21.5831 15.9999Z" fill="#040C0F"/>
<path d="M16.9994 9.22456C17.2195 9.22456 17.3979 9.04611 17.3979 8.82599V7.23182C17.3979 7.0117 17.2195 6.83325 16.9994 6.83325C16.7793 6.83325 16.6008 7.0117 16.6008 7.23182V8.82603C16.6009 9.04611 16.7793 9.22456 16.9994 9.22456Z" fill="#040C0F"/>
<path d="M16.9994 22.7753C16.7793 22.7753 16.6008 22.9537 16.6008 23.1738V24.768C16.6008 24.9881 16.7793 25.1666 16.9994 25.1666C17.2195 25.1666 17.3979 24.9881 17.3979 24.768V23.1738C17.3979 22.9537 17.2195 22.7753 16.9994 22.7753Z" fill="#040C0F"/>
<path d="M25.7679 15.6014H24.1737C23.9536 15.6014 23.7752 15.7798 23.7752 15.9999C23.7752 16.2201 23.9536 16.3985 24.1737 16.3985H25.7679C25.988 16.3985 26.1665 16.2201 26.1665 15.9999C26.1665 15.7798 25.988 15.6014 25.7679 15.6014Z" fill="#040C0F"/>
<path d="M10.2244 15.9999C10.2244 15.7798 10.0459 15.6014 9.82583 15.6014H8.23169C8.01158 15.6014 7.83313 15.7798 7.83313 15.9999C7.83313 16.22 8.01158 16.3985 8.23169 16.3985H9.82587C10.0459 16.3985 10.2244 16.22 10.2244 15.9999Z" fill="#040C0F"/>
<path d="M13.0682 9.98648C13.1395 10.11 13.2715 10.186 13.4142 10.1857C13.4841 10.186 13.553 10.1676 13.6134 10.1323C13.804 10.0223 13.8693 9.77854 13.7593 9.58791L12.9622 8.20734C12.8509 8.01746 12.6067 7.95375 12.4169 8.06506C12.2287 8.17532 12.1642 8.41632 12.272 8.60587L13.0682 9.98648Z" fill="#040C0F"/>
<path d="M20.9318 22.013C20.8205 21.8231 20.5763 21.7594 20.3864 21.8708C20.1984 21.9811 20.1338 22.222 20.2415 22.4116L21.0386 23.7921C21.1099 23.9157 21.2419 23.9917 21.3846 23.9914C21.4545 23.9917 21.5234 23.9732 21.5838 23.938C21.7744 23.8279 21.8397 23.5842 21.7297 23.3936L20.9318 22.013Z" fill="#040C0F"/>
<path d="M23.2127 12.8117C23.2827 12.812 23.3515 12.7935 23.412 12.7583L24.7925 11.9612C24.9876 11.8592 25.063 11.6184 24.9609 11.4233C24.8589 11.2283 24.6181 11.1529 24.423 11.2549C24.4131 11.2601 24.4034 11.2657 24.394 11.2717L23.0134 12.0688C22.8228 12.1789 22.7575 12.4227 22.8676 12.6133C22.9387 12.7366 23.0703 12.8117 23.2127 12.8117Z" fill="#040C0F"/>
<path d="M10.5876 19.2416L9.2071 20.0387C9.01647 20.1487 8.9512 20.3925 9.06123 20.5831C9.13241 20.7064 9.26397 20.7824 9.40636 20.7824C9.47634 20.7826 9.54517 20.7642 9.60562 20.729L10.9862 19.9319C11.1812 19.8298 11.2566 19.589 11.1546 19.394C11.0525 19.1989 10.8117 19.1235 10.6167 19.2256C10.6067 19.2308 10.5971 19.2356 10.5876 19.2416Z" fill="#040C0F"/>
<path d="M9.20698 11.9609L10.5875 12.758C10.6478 12.7931 10.7163 12.8115 10.786 12.8114C11.0061 12.8114 11.1845 12.6329 11.1845 12.4128C11.1845 12.2705 11.1086 12.1389 10.9853 12.0677L9.60471 11.2706C9.41894 11.1525 9.17264 11.2074 9.05457 11.3931C8.9365 11.5789 8.99135 11.8252 9.17709 11.9433C9.18654 11.9493 9.19704 11.9557 9.20698 11.9609Z" fill="#040C0F"/>
<path d="M24.7916 20.0387L23.411 19.2416C23.2253 19.1236 22.979 19.1784 22.8609 19.3641C22.7428 19.5499 22.7977 19.7962 22.9834 19.9143C22.9929 19.9203 23.0026 19.9259 23.0125 19.9311L24.393 20.7282C24.4535 20.7634 24.5223 20.7818 24.5923 20.7816C24.8124 20.7816 24.9908 20.6031 24.9908 20.383C24.9908 20.2406 24.9149 20.1099 24.7916 20.0387Z" fill="#040C0F"/>
<path d="M20.3868 10.1326C20.4472 10.1679 20.516 10.1863 20.586 10.186C20.7287 10.1863 20.8606 10.1103 20.932 9.98676L21.729 8.60619C21.8378 8.41485 21.7708 8.17153 21.5795 8.06276C21.39 7.95504 21.149 8.01957 21.0387 8.20766L20.2417 9.58823C20.1315 9.7786 20.1964 10.0223 20.3868 10.1326Z" fill="#040C0F"/>
<path d="M13.6119 21.8676C13.4213 21.7576 13.1776 21.8229 13.0675 22.0135L12.2704 23.3941C12.1604 23.5847 12.2257 23.8284 12.4163 23.9385C12.4768 23.9737 12.5456 23.9922 12.6156 23.9919C12.7582 23.9922 12.8902 23.9162 12.9615 23.7926L13.7586 22.4121C13.8684 22.2213 13.8027 21.9775 13.6119 21.8676V21.8676Z" fill="#040C0F"/>
</mask>
<g mask="url(#mask1_38_2590)">
<path fill-rule="evenodd" clip-rule="evenodd" d="M7.5792 7.41868L7.08588 8.32793L6.99153 8.00973L7.66453 6.14907L7.77028 6.44145L7.63127 6.82576L8.12459 5.9165L8.21895 6.23471L7.69641 7.67937L8.57075 5.92132L8.66761 6.23471L7.90693 8.33779L9.0172 5.92596L9.11628 6.23471L8.11782 8.99516L9.46453 5.92893L9.56495 6.23471L8.32891 9.65198L9.91231 5.931L10.0136 6.23471L8.54012 10.3085L10.3603 5.93251L10.4623 6.23471L8.7514 10.9648L10.8085 5.93367L10.9109 6.23471L8.96272 11.621L11.2568 5.93459L11.3596 6.23471L9.17409 12.2771L11.7052 5.93533L11.8083 6.23471L9.38547 12.9331L12.1536 5.93594L12.2569 6.23471L9.59688 13.589L12.6021 5.93646L12.7056 6.23471L9.8083 14.2449L13.0506 5.93689L13.1543 6.23471L10.0197 14.9008L13.4991 5.93727L13.603 6.23471L10.3103 15.3381L13.9477 5.93749L14.0519 6.2339L10.5819 15.934L14.396 5.93848L14.5009 6.23313L10.9332 16.311L14.8443 5.93932L14.9501 6.23157L11.3467 16.627L15.2924 5.94084L15.3987 6.23157L11.7954 16.627L15.7411 5.94084L15.8474 6.23157L12.244 16.627L16.1897 5.94084L16.2966 6.22992L12.7384 16.7234L16.6379 5.94233L16.7459 6.22822L13.2345 16.8187L17.086 5.94388L17.1951 6.22647L13.7324 16.9129L17.5341 5.94548L17.6444 6.22466L14.2322 17.006L17.9822 5.94712L18.0933 6.22373L14.7071 17.0521L18.4306 5.94797L18.5429 6.22087L15.237 17.1886L18.8784 5.95057L18.9921 6.21889L15.742 17.2781L19.3265 5.95238L19.4414 6.21684L16.2488 17.3663L19.7746 5.95425L19.8906 6.21474L16.7572 17.4532L20.2226 5.95617L20.3399 6.21256L17.2674 17.5387L20.6707 5.95815L20.7892 6.21033L17.7792 17.6228L21.1188 5.9602L21.2384 6.20802L18.2927 17.7054L21.5669 5.96231L21.6877 6.20565L18.8079 17.7866L22.0149 5.96448L22.137 6.2032L19.3246 17.8662L22.463 5.96672L22.5862 6.20068L19.843 17.9442L22.9111 5.96902L23.0355 6.19809L20.3629 18.0206L23.3591 5.9714L23.4848 6.19543L20.8843 18.0953L23.8072 5.97384L23.934 6.19269L21.4073 18.1683L24.2553 5.97636L24.3833 6.18988L21.9317 18.2395L24.7033 5.97895L24.8325 6.18699L22.4576 18.3089L25.1514 5.98161L25.2817 6.18402L22.9849 18.3764L25.5995 5.98435L25.731 6.18098L23.3979 19.0817L26.0477 6.1931L26.1795 6.38849L23.9351 18.6697L26.4217 6.60638L26.5537 6.8004L24.8038 16.5812L26.6453 7.2301L26.7787 7.41638L24.8959 18.5713L26.8692 8.26592L27.0036 8.44703L25.5733 17.2919L26.9432 9.71737L27.0793 9.8883L26.1247 16.3212L26.9421 11.3778L27.0802 11.5357L26.1132 18.7332L26.9415 13.4489L27.081 13.5965L26.2327 20.6328L26.9411 15.9325L27.0819 16.0699L26.5155 21.4388L26.9404 18.4179L27.0829 18.5402L26.7135 22.8806L26.9407 21.3104L27.0834 21.4278L26.8591 24.5289L26.7124 24.4478L26.777 23.5547L26.4813 25.5988L26.3391 25.4747L26.6927 21.3198L26.0329 26.0104L25.8914 25.8776L26.5614 19.5266L25.5836 26.015L25.4436 25.8701L26.3969 17.9635L25.1345 26.0177L24.9958 25.8635L26.2284 16.6888L24.6852 26.0214L24.548 25.857L26.1776 14.8754L24.1606 26.0279L24.0255 25.8511L25.9494 13.953L23.6364 26.0322L23.5025 25.8481L25.6225 13.2887L23.1125 26.0343L22.9798 25.8438L25.2894 12.9344L22.5884 26.0378L22.4567 25.8423L24.6706 13.728L22.1398 26.0376L22.0079 25.843L24.5594 11.7343L21.5411 26.0397L21.4102 25.84L24.0581 11.7842L20.9423 26.0424L20.8126 25.837L23.5558 11.8355L20.3435 26.0451L20.2149 25.8341L23.0523 11.8882L19.7447 26.0476L19.6173 25.8313L22.5477 11.9423L19.1459 26.0502L19.0196 25.8286L22.0421 11.9976L18.547 26.0526L18.422 25.8259L21.5353 12.0543L17.9482 26.055L17.8244 25.8233L21.0273 12.1122L17.3494 26.0573L17.2267 25.8208L20.5181 12.1712L16.7506 26.0595L16.6291 25.8184L20.0078 12.2315L16.1517 26.0617L16.0315 25.816L19.4962 12.2929L15.5529 26.0638L15.4339 25.8137L18.9834 12.3554L14.9541 26.0659L14.8363 25.8114L18.4693 12.419L14.3553 26.0678L14.2386 25.8093L17.954 12.4836L13.7565 26.0698L13.641 25.8072L17.4374 12.5492L13.1577 26.0716L13.0434 25.8051L16.9195 12.6158L12.5589 26.0734L12.4457 25.8031L16.6164 11.9662L11.885 26.076L11.7736 25.8003L15.5504 13.723L11.3613 26.0769L11.2505 25.7993L15.3579 12.8212L10.7625 26.0785L10.6528 25.7975L14.8347 12.8914L10.1637 26.0801L10.0552 25.7958L14.3102 12.9625L9.56495 26.0817L9.45752 25.7941L13.7843 13.0344L8.96618 26.0832L8.85986 25.7924L12.4632 15.397L8.51751 26.0832L8.41119 25.7924L12.0146 15.397L8.06884 26.0832L7.96253 25.7924L12.3848 13.0347L7.61961 25.6712L7.51441 25.3774L11.6035 13.8264L7.32018 25.0518L7.21557 24.7564L11.2645 13.438L7.17024 24.0191L7.0663 23.7219L10.5 14.2288L7.0206 23.1924L6.91675 22.8949L10.2627 13.6443L7.02046 21.9523L6.91675 21.6545L10.0255 13.0598L7.02028 20.7123L6.91675 20.4141L9.78822 12.4753L7.02008 19.4724L6.91675 19.1736L9.55094 11.8908L7.01984 18.2326L6.91675 17.9332L9.31364 11.3065L7.01954 16.9929L6.91675 16.6928L9.0763 10.7222L7.01917 15.7534L6.91675 15.4523L8.83891 10.1381L7.01869 14.5141L6.91675 14.2119L8.60145 9.55419L7.01805 13.2752L6.91675 12.9715L8.36387 8.97058L7.01716 12.0368L6.91675 11.731L8.1261 8.38752L7.01582 10.7993L6.91675 10.4906L7.88795 7.8055L7.01361 9.56355L6.91675 9.25016L7.5792 7.41868Z" fill="#89989D"/>
</g>
<mask id="mask2_38_2590" style="mask-type:alpha" maskUnits="userSpaceOnUse" x="41" y="9" width="12" height="14">
<path d="M41.0667 20.3617C41.7732 21.0458 42.6319 21.5647 43.5771 21.8786C44.5223 22.1925 45.5291 22.2933 46.5207 22.1731C47.5122 22.0529 48.4623 21.715 49.2985 21.1852C50.1346 20.6554 50.8347 19.9477 51.3453 19.116C51.856 18.2843 52.1637 17.3507 52.2449 16.3864C52.3262 15.422 52.1789 14.4525 51.8142 13.5517C51.4495 12.6508 50.8772 11.8426 50.1408 11.1886C49.4044 10.5345 48.5234 10.052 47.5651 9.77783L47.6232 9.93669C49.3423 14.6381 46.1697 19.6827 41.0667 20.3617Z" fill="white"/>
</mask>
<g mask="url(#mask2_38_2590)">
<path fill-rule="evenodd" clip-rule="evenodd" d="M40.6362 10.2019L40.3073 10.7888L40.2444 10.5834L40.6931 9.3823L40.7636 9.57104L40.6709 9.81911L40.9998 9.23218L41.0627 9.43758L40.7144 10.3701L41.2973 9.23529L41.3619 9.43758L40.8547 10.7952L41.5949 9.23828L41.661 9.43758L40.9953 11.2195L41.8932 9.2402L41.9601 9.43758L41.1361 11.6435L42.1917 9.24153L42.2592 9.43758L41.2769 12.0673L42.4904 9.24251L42.5583 9.43758L41.4177 12.4909L42.7892 9.24326L42.8575 9.43758L41.5586 12.9145L43.0881 9.24385L43.1566 9.43758L41.6995 13.338L43.387 9.24433L43.4557 9.43758L41.8405 13.7615L43.6859 9.24473L43.7548 9.43758L41.9814 14.1849L43.9849 9.24506L44.054 9.43758L42.1223 14.6083L44.2839 9.24534L44.3531 9.43758L42.2633 15.0317L44.583 9.24558L44.6522 9.43758L42.457 15.3139L44.882 9.24573L44.9515 9.43706L42.6381 15.6986L45.1809 9.24636L45.2508 9.43656L42.8723 15.942L45.4798 9.24691L45.5503 9.43555L43.148 16.146L45.7785 9.24788L45.8494 9.43555L43.4471 16.146L46.0777 9.24788L46.1486 9.43555L43.7462 16.146L46.3768 9.24788L46.448 9.43449L44.0758 16.2082L46.6755 9.24885L46.7475 9.4334L44.4066 16.2697L46.9743 9.24985L47.0471 9.43226L44.7385 16.3305L47.273 9.25088L47.3466 9.4311L45.0717 16.3906L47.5718 9.25194L47.6459 9.4305L45.3883 16.4204L47.8707 9.25249L47.9456 9.42865L45.7416 16.5085L48.1693 9.25417L48.2451 9.42737L46.0783 16.5663L48.468 9.25534L48.5446 9.42605L46.4161 16.6232L48.7667 9.25654L48.8441 9.42469L46.7551 16.6793L49.0655 9.25778L49.1437 9.42329L47.0953 16.7344L49.3642 9.25906L49.4432 9.42184L47.4365 16.7887L49.6629 9.26038L49.7427 9.42036L47.7788 16.8421L49.9617 9.26174L50.0422 9.41882L48.1223 16.8945L50.2604 9.26315L50.3417 9.41724L48.4668 16.9458L50.5591 9.26459L50.6413 9.41562L48.8124 16.9962L50.8578 9.26608L50.9408 9.41395L49.159 17.0456L51.1565 9.26761L51.2403 9.41223L49.5066 17.0938L51.4553 9.26919L51.5398 9.41046L49.8552 17.1409L51.754 9.27082L51.8393 9.40864L50.2049 17.1869L52.0527 9.27249L52.1388 9.40678L50.5555 17.2317L52.3514 9.27421L52.4383 9.40486L50.907 17.2752L52.6502 9.27597L52.7378 9.4029L51.1824 17.7305L52.949 9.41072L53.0368 9.53685L51.5405 17.4645L53.1983 9.6775L53.2863 9.80274L52.1197 16.1164L53.3474 10.0801L53.4364 10.2004L52.1811 17.401L53.4967 10.7488L53.5863 10.8657L52.6327 16.5752L53.546 11.6857L53.6367 11.796L53.0003 15.9486L53.5453 12.7575L53.6373 12.8595L52.9927 17.5056L53.5449 14.0945L53.6379 14.1897L53.0723 18.7318L53.5446 15.6976L53.6385 15.7863L53.2608 19.2521L53.5441 17.302L53.6391 17.381L53.3929 20.1828L53.5443 19.1692L53.6395 19.2449L53.4899 21.2467L53.3921 21.1944L53.4352 20.6179L53.2381 21.9374L53.1432 21.8572L53.379 19.1753L52.9391 22.2031L52.8448 22.1174L53.2915 18.0177L52.6395 22.206L52.5462 22.1125L53.1818 17.0087L52.3401 22.2078L52.2477 22.1083L53.0694 16.1858L52.0406 22.2102L51.9492 22.1041L53.0356 15.0153L51.6909 22.2144L51.6008 22.1003L52.8835 14.4199L51.3414 22.2172L51.2522 22.0983L52.6655 13.9911L50.9921 22.2185L50.9037 22.0956L52.4434 13.7623L50.6427 22.2208L50.5549 22.0945L52.0309 14.2746L50.3436 22.2207L50.2557 22.095L51.9568 12.9877L49.9445 22.222L49.8572 22.0931L51.6225 13.0199L49.5453 22.2237L49.4588 22.0912L51.2876 13.053L49.146 22.2254L49.0603 22.0893L50.952 13.087L48.7468 22.2271L48.6619 22.0875L50.6156 13.1219L48.3476 22.2287L48.2634 22.0857L50.2785 13.1576L47.9484 22.2303L47.865 22.084L49.9406 13.1942L47.5491 22.2319L47.4666 22.0823L49.6019 13.2316L47.1499 22.2333L47.0681 22.0807L49.2625 13.2697L46.7507 22.2348L46.6697 22.0791L48.9222 13.3086L46.3515 22.2362L46.2713 22.0776L48.5812 13.3482L45.9522 22.2376L45.8729 22.0761L48.2393 13.3886L45.553 22.2389L45.4744 22.0746L47.8965 13.4296L45.1538 22.2402L45.076 22.0732L47.553 13.4713L44.7546 22.2414L44.6776 22.0719L47.2086 13.5137L44.3553 22.2426L44.2791 22.0706L46.8633 13.5567L43.9561 22.2438L43.8807 22.0693L46.6613 13.1373L43.5069 22.2454L43.4326 22.0674L45.9506 14.2714L43.1577 22.246L43.0838 22.0668L45.8222 13.6892L42.7585 22.2471L42.6854 22.0657L45.4734 13.7346L42.3593 22.2481L42.2869 22.0645L45.1237 13.7805L41.9601 22.2491L41.8885 22.0634L44.7731 13.8269L41.5609 22.2501L41.49 22.0624L43.8924 15.352L41.2618 22.2501L41.1909 22.0624L43.5932 15.352L40.9627 22.2501L40.8918 22.0624L43.84 13.8271L40.6632 21.9841L40.593 21.7945L43.3192 14.3381L40.4635 21.5843L40.3938 21.3936L43.0932 14.0874L40.3636 20.9177L40.2943 20.7258L42.5835 14.5979L40.2638 20.384L40.1946 20.192L42.4253 14.2206L40.2637 19.5835L40.1946 19.3913L42.2671 13.8432L40.2636 18.7831L40.1946 18.5906L42.109 13.466L40.2635 17.9827L40.1946 17.7899L41.9508 13.0887L40.2633 17.1824L40.1946 16.9891L41.7926 12.7115L40.2631 16.3821L40.1946 16.1884L41.6343 12.3343L40.2629 15.582L40.1946 15.3877L41.4761 11.9573L40.2625 14.782L40.1946 14.587L41.3178 11.5804L40.2621 13.9823L40.1946 13.7863L41.1594 11.2036L40.2615 13.1829L40.1946 12.9855L41.0008 10.8273L40.2606 12.3841L40.1946 12.1848L40.8421 10.4516L40.2592 11.5864L40.1946 11.3841L40.6362 10.2019Z" fill="white"/>
</g>
</svg>
