<svg width="32" height="32" viewBox="0 0 32 32" fill="none" xmlns="http://www.w3.org/2000/svg">
<mask id="mask0_909_9159" style="mask-type:alpha" maskUnits="userSpaceOnUse" x="2" y="2" width="28" height="28">
<path fill-rule="evenodd" clip-rule="evenodd" d="M6.37541 8.7139C3.29536 11.3138 2.66699 11.8442 2.66699 18.2844C2.66699 29.3337 5.3918 29.3337 16.0003 29.3337C26.6088 29.3337 29.3336 29.3337 29.3336 18.2844C29.3336 11.8434 28.7061 11.3136 25.6253 8.71292C25.115 8.28209 24.5373 7.79443 23.884 7.21365C23.5696 6.97092 23.2273 6.69427 22.8632 6.40003C20.8773 4.79512 18.244 2.66699 15.9613 2.66699C13.7101 2.66699 11.1625 4.74504 9.21188 6.33616C8.82087 6.65511 8.45384 6.95449 8.11799 7.21365C7.46419 7.79488 6.8861 8.28284 6.37541 8.7139ZM17.1317 17.7041L24.0003 16.667L17.1317 15.6299L16.0003 9.33365L14.8689 15.6299L8.00032 16.667L14.8689 17.7041L16.0003 24.0004L17.1317 17.7041Z" fill="#040C0F"/>
</mask>
<g mask="url(#mask0_909_9159)">
<path fill-rule="evenodd" clip-rule="evenodd" d="M2.29706 3.51799L1.57951 4.84054L1.44226 4.3777L2.42117 1.6713L2.57499 2.09657L2.3728 2.65556L3.09036 1.33301L3.2276 1.79585L2.46755 3.89718L3.73932 1.34002L3.88021 1.79585L2.77376 4.85488L4.38871 1.34676L4.53282 1.79585L3.08051 5.81105L5.03937 1.35109L5.18542 1.79585L3.38755 6.76644L5.69067 1.3541L5.83803 1.79585L3.69476 7.72137L6.34235 1.3563L6.49064 1.79585L4.00208 8.676L6.99426 1.35799L7.14324 1.79585L4.30946 9.63044L7.64633 1.35932L7.79585 1.79585L4.6169 10.5848L8.2985 1.3604L8.44846 1.79585L4.92437 11.539L8.95076 1.36129L9.10106 1.79585L5.23187 12.4931L9.60307 1.36203L9.75367 1.79585L5.53939 13.4472L10.2554 1.36267L10.4063 1.79585L5.84693 14.4012L10.9078 1.36322L11.0589 1.79585L6.26951 15.0371L11.5603 1.36354L11.7119 1.79468L6.66468 15.9039L12.2124 1.36498L12.3649 1.79356L7.17566 16.4523L12.8645 1.3662L13.0183 1.79128L7.77705 16.9119L13.5163 1.3684L13.6709 1.79128L8.42966 16.9119L14.1689 1.3684L14.3235 1.79128L9.08227 16.9119L14.8215 1.3684L14.977 1.78889L9.80129 17.0521L15.4733 1.37058L15.6304 1.78642L10.5229 17.1908L16.1251 1.37283L16.2838 1.78387L11.2472 17.3278L16.7769 1.37516L16.9373 1.78124L11.9741 17.4632L17.4287 1.37755L17.5903 1.77989L12.6648 17.5303L18.0809 1.37878L18.2442 1.77573L13.4357 17.7289L18.7322 1.38257L18.8977 1.77285L14.1702 17.859L19.384 1.3852L19.5511 1.76987L14.9073 17.9873L20.0358 1.38791L20.2046 1.76681L15.6469 18.1137L20.6875 1.39071L20.8581 1.76365L16.389 18.238L21.3393 1.39359L21.5116 1.76039L17.1335 18.3603L21.991 1.39657L22.165 1.75704L17.8804 18.4806L22.6427 1.39963L22.8185 1.75358L18.6297 18.5986L23.2945 1.40279L23.472 1.75002L19.3813 18.7144L23.9462 1.40605L24.1255 1.74636L20.1353 18.8279L24.598 1.4094L24.7789 1.7426L20.8915 18.9391L25.2497 1.41286L25.4324 1.73872L21.6499 19.0477L25.9014 1.41641L26.0859 1.73474L22.4106 19.1538L26.5532 1.42008L26.7393 1.73065L23.1734 19.2574L27.2049 1.42384L27.3928 1.72644L23.9383 19.3584L27.8567 1.42772L28.0462 1.72213L24.7053 19.4565L28.5084 1.4317L28.6996 1.7177L25.306 20.4824L29.1604 1.73533L29.352 2.01954L26.0874 19.8831L29.7043 2.33646L29.8963 2.61868L27.3511 16.8453L30.0296 3.2437L30.2237 3.51466L27.4849 19.74L30.3553 4.75035L30.5507 5.01378L28.4704 17.8791L30.4629 6.86154L30.6608 7.11016L29.2723 16.4672L30.4612 9.2767L30.6621 9.50642L29.2557 19.9756L30.4604 12.2893L30.6634 12.504L29.4294 22.7386L30.4598 15.9018L30.6646 16.1016L29.8407 23.911L30.4588 19.517L30.666 19.6948L30.1287 26.0082L30.4592 23.7242L30.6668 23.8949L30.3405 28.4056L30.1272 28.2876L30.2212 26.9886L29.791 29.9618L29.5842 29.7813L30.0985 23.7379L29.1388 30.5606L28.933 30.3674L29.9076 21.1295L28.4852 30.5672L28.2816 30.3565L29.6682 18.8559L27.832 30.5711L27.6302 30.3469L29.4231 17.0018L27.1785 30.5766L26.979 30.3374L29.3492 14.3642L26.4155 30.5861L26.2189 30.3288L29.0174 13.0225L25.653 30.5923L25.4583 30.3244L28.5418 12.0563L24.891 30.5954L24.698 30.3183L28.0574 11.5409L24.1286 30.6005L23.937 30.316L27.1573 12.6952L23.4761 30.6002L23.2842 30.3171L26.9956 9.79532L22.6053 30.6031L22.4149 30.3127L26.2664 9.86786L21.7343 30.6071L21.5456 30.3083L25.5357 9.94245L20.8633 30.6109L20.6763 30.3041L24.8034 10.0192L19.9923 30.6147L19.807 30.3001L24.0695 10.0978L19.1213 30.6184L18.9377 30.2961L23.334 10.1783L18.2503 30.6219L18.0684 30.2922L22.5968 10.2607L17.3793 30.6254L17.1991 30.2884L21.8579 10.3449L16.5082 30.6287L16.3299 30.2848L21.1173 10.4309L15.6372 30.632L15.4606 30.2812L20.375 10.5185L14.7662 30.6352L14.5913 30.2778L19.6309 10.6078L13.8952 30.6382L13.722 30.2744L18.8849 10.6987L13.0242 30.6412L12.8528 30.2711L18.1372 10.7912L12.1532 30.6441L11.9835 30.268L17.3877 10.8852L11.2822 30.6469L11.1142 30.2649L16.6362 10.9806L10.4112 30.6496L10.2449 30.2619L15.8829 11.0775L9.54024 30.6522L9.37567 30.2591L15.4422 10.1326L8.56008 30.656L8.39803 30.2549L13.8916 12.6879L7.79829 30.6572L7.63708 30.2535L13.6115 11.3762L6.92732 30.6596L6.76778 30.2509L12.8505 11.4784L6.05637 30.662L5.89847 30.2484L12.0876 11.5817L5.18542 30.6642L5.02916 30.2459L11.3226 11.6863L4.31448 30.6664L4.15984 30.2435L9.40111 15.1229L3.66188 30.6664L3.50723 30.2435L8.7485 15.1229L3.00927 30.6664L2.85463 30.2435L9.28696 11.6868L2.35584 30.0672L2.20282 29.6398L8.15063 12.8383L1.9203 29.1663L1.76814 28.7366L7.65746 12.2734L1.70222 27.6641L1.55103 27.2318L6.54545 13.4237L1.48456 26.4616L1.3335 26.029L6.20038 12.5734L1.48434 24.6579L1.3335 24.2247L5.85529 11.7232L1.48409 22.8543L1.3335 22.4204L5.51019 10.8731L1.4838 21.0507L1.3335 20.6162L5.16505 10.023L1.48345 19.2474L1.3335 18.8119L4.81988 9.173L1.48301 17.4442L1.3335 17.0076L4.47466 8.32317L1.48247 15.6412L1.3335 15.2034L4.12937 7.47353L1.48178 13.8386L1.3335 13.3991L3.78397 6.62419L1.48085 12.0366L1.3335 11.5948L3.4384 5.77531L1.47955 10.2353L1.3335 9.79051L3.09256 4.92722L1.47761 8.43533L1.3335 7.98624L2.74615 4.08065L1.47438 6.6378L1.3335 6.18197L2.29706 3.51799Z" fill="url(#paint0_linear_909_9159)"/>
</g>
<defs>
<linearGradient id="paint0_linear_909_9159" x1="16.0002" y1="1.33301" x2="16.0002" y2="30.6664" gradientUnits="userSpaceOnUse">
<stop stop-color="#164554"/>
<stop offset="1" stop-color="#040C0F"/>
</linearGradient>
</defs>
</svg>
