<svg width="32" height="32" viewBox="0 0 32 32" fill="none" xmlns="http://www.w3.org/2000/svg">
<mask id="mask0_1101_11429" style="mask-type:alpha" maskUnits="userSpaceOnUse" x="2" y="2" width="28" height="28">
<path fill-rule="evenodd" clip-rule="evenodd" d="M16.0003 29.3336C6.00104 29.3336 2.66699 25.9996 2.66699 16.0003C2.66699 6.00104 6.00104 2.66699 16.0003 2.66699C25.9996 2.66699 29.3336 6.00104 29.3336 16.0003C29.3336 25.9996 25.9996 29.3336 16.0003 29.3336ZM12.8158 11.5316L12.0003 9.31835C13.2689 8.44796 14.7187 8.00032 16.6443 8.00032C17.9356 8.00032 19.1589 8.42309 20.0197 9.19401C20.8352 9.9152 21.3336 10.9597 21.3336 12.3523C21.3336 13.8444 20.7899 14.864 20.065 15.5852C19.5698 16.1035 18.9869 16.4933 18.4202 16.8721C17.8722 17.2386 17.3394 17.5948 16.9161 18.0472C16.3724 18.644 16.2365 19.2657 16.2365 20.1361H14.7187C14.6281 19.589 14.5148 18.6938 14.4695 17.8482C14.6281 17.5001 14.8773 17.127 15.1718 16.7789C15.5361 16.379 15.9525 16.029 16.3686 15.6794C16.7288 15.3767 17.0887 15.0743 17.4145 14.7397C18.0715 14.0682 18.3886 13.4465 18.3886 12.7004C18.3886 11.9544 18.1621 11.3824 17.6864 11.0094C17.2106 10.5866 16.5763 10.4125 15.8741 10.4125C14.7414 10.4125 13.7673 10.7856 12.8158 11.5316ZM16.7123 25.3336H14.175V21.6531H16.7123V25.3336Z" fill="#040C0F"/>
</mask>
<g mask="url(#mask0_1101_11429)">
<path fill-rule="evenodd" clip-rule="evenodd" d="M2.29706 3.51848L1.57951 4.84103L1.44226 4.37819L2.42117 1.67179L2.57499 2.09706L2.3728 2.65606L3.09036 1.3335L3.2276 1.79635L2.46755 3.89767L3.73932 1.34051L3.88021 1.79635L2.77376 4.85537L4.38871 1.34726L4.53282 1.79635L3.08051 5.81154L5.03937 1.35158L5.18542 1.79635L3.38755 6.76693L5.69067 1.35459L5.83803 1.79635L3.69476 7.72186L6.34235 1.35679L6.49064 1.79635L4.00208 8.67649L6.99426 1.35848L7.14324 1.79635L4.30946 9.63093L7.64633 1.35981L7.79585 1.79635L4.6169 10.5852L8.2985 1.36089L8.44846 1.79635L4.92437 11.5394L8.95076 1.36178L9.10106 1.79635L5.23187 12.4935L9.60307 1.36252L9.75367 1.79635L5.53939 13.4476L10.2554 1.36316L10.4063 1.79635L5.84693 14.4016L10.9078 1.36371L11.0589 1.79635L6.26951 15.0376L11.5603 1.36403L11.7119 1.79517L6.66468 15.9043L12.2124 1.36547L12.3649 1.79405L7.17566 16.4527L12.8645 1.36669L13.0183 1.79178L7.77705 16.9124L13.5163 1.3689L13.6709 1.79178L8.42966 16.9124L14.1689 1.3689L14.3235 1.79178L9.08227 16.9124L14.8215 1.3689L14.977 1.78938L9.80129 17.0525L15.4733 1.37108L15.6304 1.78691L10.5229 17.1912L16.1251 1.37333L16.2838 1.78436L11.2472 17.3282L16.7769 1.37565L16.9373 1.78173L11.9741 17.4636L17.4287 1.37804L17.5903 1.78039L12.6648 17.5307L18.0809 1.37927L18.2442 1.77622L13.4357 17.7293L18.7322 1.38306L18.8977 1.77334L14.1702 17.8594L19.384 1.38569L19.5511 1.77036L14.9073 17.9877L20.0358 1.3884L20.2046 1.7673L15.6469 18.1141L20.6875 1.3912L20.8581 1.76414L16.389 18.2384L21.3393 1.39408L21.5116 1.76088L17.1335 18.3608L21.991 1.39706L22.165 1.75753L17.8804 18.481L22.6427 1.40012L22.8185 1.75407L18.6297 18.599L23.2945 1.40328L23.472 1.75052L19.3813 18.7148L23.9462 1.40654L24.1255 1.74685L20.1353 18.8283L24.598 1.40989L24.7789 1.74309L20.8915 18.9395L25.2497 1.41335L25.4324 1.73921L21.6499 19.0481L25.9014 1.41691L26.0859 1.73523L22.4106 19.1542L26.5532 1.42057L26.7393 1.73114L23.1734 19.2578L27.2049 1.42433L27.3928 1.72694L23.9383 19.3588L27.8567 1.42821L28.0462 1.72262L24.7053 19.4569L28.5084 1.43219L28.6996 1.71819L25.306 20.4828L29.1604 1.73582L29.352 2.02003L26.0874 19.8835L29.7043 2.33695L29.8963 2.61917L27.3511 16.8457L30.0296 3.24419L30.2237 3.51515L27.4849 19.7404L30.3553 4.75084L30.5507 5.01427L28.4704 17.8795L30.4629 6.86204L30.6608 7.11066L29.2723 16.4676L30.4612 9.27719L30.6621 9.50692L29.2557 19.976L30.4604 12.2897L30.6634 12.5044L29.4294 22.739L30.4598 15.9022L30.6646 16.102L29.8407 23.9114L30.4588 19.5174L30.666 19.6952L30.1287 26.0086L30.4592 23.7247L30.6668 23.8953L30.3405 28.406L30.1272 28.288L30.2212 26.9891L29.791 29.9623L29.5842 29.7817L30.0985 23.7383L29.1388 30.561L28.933 30.3678L29.9076 21.1299L28.4852 30.5676L28.2816 30.3569L29.6682 18.8563L27.832 30.5716L27.6302 30.3473L29.4231 17.0022L27.1785 30.577L26.979 30.3379L29.3492 14.3646L26.4155 30.5865L26.2189 30.3293L29.0174 13.023L25.653 30.5927L25.4583 30.3248L28.5418 12.0567L24.891 30.5958L24.698 30.3187L28.0574 11.5413L24.1286 30.6009L23.937 30.3164L27.1573 12.6956L23.4761 30.6006L23.2842 30.3175L26.9956 9.79581L22.6053 30.6035L22.4149 30.3131L26.2664 9.86835L21.7343 30.6075L21.5456 30.3088L25.5357 9.94295L20.8633 30.6114L20.6763 30.3046L24.8034 10.0196L19.9923 30.6151L19.807 30.3005L24.0695 10.0982L19.1213 30.6188L18.9377 30.2965L23.334 10.1787L18.2503 30.6224L18.0684 30.2926L22.5968 10.2611L17.3793 30.6258L17.1991 30.2888L21.8579 10.3454L16.5082 30.6292L16.3299 30.2852L21.1173 10.4313L15.6372 30.6324L15.4606 30.2816L20.375 10.5189L14.7662 30.6356L14.5913 30.2782L19.6309 10.6082L13.8952 30.6386L13.722 30.2748L18.8849 10.6991L13.0242 30.6416L12.8528 30.2716L18.1372 10.7916L12.1532 30.6445L11.9835 30.2684L17.3877 10.8856L11.2822 30.6473L11.1142 30.2653L16.6362 10.9811L10.4112 30.65L10.2449 30.2624L15.8829 11.0779L9.54024 30.6526L9.37567 30.2595L15.4422 10.133L8.56008 30.6564L8.39803 30.2553L13.8916 12.6884L7.79829 30.6577L7.63708 30.254L13.6115 11.3766L6.92732 30.6601L6.76778 30.2513L12.8505 11.4788L6.05637 30.6624L5.89847 30.2488L12.0876 11.5822L5.18542 30.6646L5.02916 30.2463L11.3226 11.6867L4.31448 30.6668L4.15984 30.2439L9.40111 15.1233L3.66188 30.6668L3.50723 30.2439L8.7485 15.1233L3.00927 30.6668L2.85463 30.2439L9.28696 11.6872L2.35584 30.0676L2.20282 29.6402L8.15063 12.8388L1.9203 29.1667L1.76814 28.737L7.65746 12.2738L1.70222 27.6646L1.55103 27.2322L6.54545 13.4241L1.48456 26.462L1.3335 26.0294L6.20038 12.5739L1.48434 24.6583L1.3335 24.2251L5.85529 11.7237L1.48409 22.8547L1.3335 22.4209L5.51019 10.8735L1.4838 21.0512L1.3335 20.6166L5.16505 10.0234L1.48345 19.2478L1.3335 18.8123L4.81988 9.17349L1.48301 17.4446L1.3335 17.008L4.47466 8.32367L1.48247 15.6416L1.3335 15.2038L4.12937 7.47403L1.48178 13.8391L1.3335 13.3995L3.78397 6.62469L1.48085 12.037L1.3335 11.5952L3.4384 5.7758L1.47955 10.2357L1.3335 9.791L3.09256 4.92771L1.47761 8.43582L1.3335 7.98673L2.74615 4.08114L1.47438 6.63829L1.3335 6.18246L2.29706 3.51848Z" fill="url(#paint0_linear_1101_11429)"/>
</g>
<defs>
<linearGradient id="paint0_linear_1101_11429" x1="16.0002" y1="1.3335" x2="16.0002" y2="30.6668" gradientUnits="userSpaceOnUse">
<stop stop-color="#164554"/>
<stop offset="1" stop-color="#040C0F"/>
</linearGradient>
</defs>
</svg>
