<svg width="32" height="32" viewBox="0 0 32 32" fill="none" xmlns="http://www.w3.org/2000/svg">
<path fill-rule="evenodd" clip-rule="evenodd" d="M2.77391 15.591C2.70569 15.7119 2.66675 15.8514 2.66675 15.9999C2.66675 16.1809 2.72452 16.3484 2.82262 16.4851L3.28984 15.1934C3.14335 15.2315 3.01249 15.3085 2.90897 15.4127L2.80214 15.674L2.77391 15.591ZM3.66858 15.1666L3.04955 16.701C3.12516 16.7497 3.20913 16.7865 3.29883 16.8088L3.89281 15.1666H3.66858ZM4.31396 15.1666L3.64877 16.8333H3.88325L4.48609 15.1666H4.31396ZM4.94959 15.1666L4.29023 16.8333H4.47653L5.07937 15.1666H4.94959ZM5.57795 15.1666L4.92344 16.8333H5.06981L5.67265 15.1666H5.57795ZM6.14419 15.3116L5.55035 16.8333H5.66309L6.19877 15.3523C6.18115 15.338 6.16295 15.3244 6.14419 15.3116ZM6.50734 15.9702L6.26931 16.5834C6.33632 16.5151 6.39167 16.4354 6.43213 16.3474L6.47926 16.217C6.49791 16.1478 6.50786 16.075 6.50786 15.9999C6.50786 15.99 6.50769 15.9801 6.50734 15.9702ZM8.38214 14.389C8.36802 14.459 8.35485 14.5291 8.3426 14.5991L8.8641 13.1259L8.38214 14.389ZM8.22436 15.7574C8.22482 15.7417 8.22533 15.7261 8.22588 15.7104L9.78392 11.3093C9.8565 11.2135 9.93125 11.1195 10.0081 11.0272L8.22436 15.7574ZM8.23609 16.4839C8.2426 16.5886 8.25118 16.6929 8.26181 16.7968L9.89713 12.079L8.23609 16.4839ZM8.43802 17.8288C8.44605 17.8621 8.4543 17.8954 8.46278 17.9286L9.40762 15.2028L8.43802 17.8288ZM6.35941 25.065L6.71255 24.1086L7.02069 23.8004L6.48985 25.3319C6.42945 25.2499 6.38597 25.1593 6.35941 25.065ZM6.76534 25.5724C6.88151 25.6353 7.00959 25.6683 7.13834 25.6718L8.15711 22.6675C8.14102 22.6813 8.12533 22.6958 8.11008 22.7111L7.65312 23.168L6.76534 25.5724ZM9.02632 19.449C9.06948 19.536 9.11429 19.6223 9.16075 19.7077L11.7477 12.0786L9.02632 19.449ZM8.6508 22.4683L7.52144 25.5907C7.60442 25.5509 7.68226 25.4966 7.75119 25.4277L8.10188 25.077L8.95415 22.5065C8.85585 22.4751 8.75288 22.4624 8.6508 22.4683ZM9.63111 20.4648C9.57396 20.3836 9.51844 20.3015 9.46458 20.2184L12.4431 11.9836L9.63111 20.4648ZM9.30013 22.7224L8.666 24.5129L9.22887 23.95L9.50683 23.0922C9.47217 22.9574 9.40327 22.8295 9.30013 22.7224ZM10.1463 21.1188C10.0793 21.0426 10.014 20.9652 9.95028 20.8867L13.1367 11.8896L10.1463 21.1188ZM10.4752 21.471C10.548 21.5443 10.6224 21.6163 10.6984 21.6871L13.8286 11.7967L10.4752 21.471ZM11.0337 21.9821C11.0959 22.0338 11.1591 22.0847 11.2231 22.1348L14.0832 12.9892L11.0337 21.9821ZM11.5565 22.4047C11.6641 22.5031 11.765 22.6094 11.8587 22.7228L15.4928 10.6661L11.5565 22.4047ZM12.1375 23.1169C12.2208 23.2551 12.2948 23.4005 12.3589 23.5521L15.6448 12.3714C15.6385 12.3641 15.6324 12.3567 15.6264 12.3492L12.1375 23.1169ZM15.7307 11.2079C15.5559 11.3614 15.4445 11.5859 15.4445 11.8333C15.4445 11.8983 15.4522 11.9617 15.4667 12.0227L13.6687 17.5719L16.4819 8.23853C16.5507 8.24276 16.6194 8.24789 16.6879 8.25392L15.7307 11.2079ZM15.8485 12.5453L14.3365 17.6902L15.9483 12.5974C15.9138 12.5822 15.8804 12.5648 15.8485 12.5453ZM16.4528 11.0032C16.4029 11.0013 16.3529 11.0003 16.3026 11L17.0959 8.30059C17.1635 8.31013 17.231 8.32055 17.2983 8.33184L16.4528 11.0032ZM16.1906 12.662C16.2026 12.6632 16.2146 12.6643 16.2267 12.665L12.6667 25.0972L12.6667 24.3333C12.6445 24.3333 12.6112 24.3333 12.589 24.3444V24.3333C12.5784 24.2735 12.5664 24.2142 12.553 24.1556L16.1906 12.662ZM12.6667 26.222L12.6667 27.0666C12.6667 27.2744 12.6848 27.467 12.7183 27.645L16.878 12.7254C16.865 12.7228 16.852 12.7203 16.8389 12.7179L12.6667 26.222ZM16.5898 12.6823L15.0066 17.8068L16.4766 12.673C16.5145 12.6754 16.5523 12.6785 16.5898 12.6823ZM17.088 11.0698C17.0397 11.0613 16.9911 11.0537 16.9423 11.0467L17.6974 8.40958C17.7637 8.42428 17.8297 8.43983 17.8954 8.45625L17.088 11.0698ZM17.112 12.7816L15.6789 17.9217L17.2185 12.8138C17.1833 12.8025 17.1478 12.7917 17.112 12.7816ZM17.6992 11.2192C17.6529 11.2045 17.6062 11.1905 17.5593 11.1773L18.2876 8.56508C18.3522 8.58484 18.4165 8.60543 18.4805 8.62686L17.6992 11.2192ZM17.4502 12.8992L12.8598 28.1286C12.9515 28.3515 13.072 28.5421 13.2126 28.7017L17.4944 12.9179C17.4797 12.9116 17.465 12.9053 17.4502 12.8992ZM17.9332 11.3004C17.9329 11.3002 17.9326 11.3001 17.9322 11.3L17.9428 11.2649L17.9332 11.3004ZM17.713 13.0233L16.3535 18.0347L17.8104 13.0775C17.7783 13.0589 17.7458 13.0408 17.713 13.0233ZM18.2884 11.451C18.2446 11.4303 18.2004 11.4102 18.1559 11.3908L18.8674 8.76785C18.93 8.79258 18.9924 8.81814 19.0544 8.84451L18.2884 11.451ZM18.025 13.2143L13.4154 28.8994C13.6104 29.0627 13.8304 29.1787 14.0587 29.2494L13.929 28.9769L18.0766 13.2511C18.0595 13.2386 18.0423 13.2264 18.025 13.2143ZM18.5202 11.5688C18.5169 11.567 18.5135 11.5652 18.5102 11.5633L18.6226 11.1808L18.5202 11.5688ZM18.2789 13.412L17.0303 18.1459L18.364 13.4886C18.3361 13.4625 18.3077 13.437 18.2789 13.412ZM18.8562 11.7696C18.8154 11.7429 18.7743 11.7169 18.7327 11.6914L19.4373 9.01982C19.4977 9.04949 19.5577 9.07996 19.6174 9.11123L18.8562 11.7696ZM18.559 13.6882L14.0996 29.2616C14.2683 29.3096 14.4411 29.3333 14.6112 29.3333H17.389C17.6061 29.3333 17.8153 29.2969 18.011 29.23L17.8803 28.9931L20.7456 16.3182C20.6853 16.3767 20.6164 16.4264 20.5411 16.465L17.2538 29.296L17.09 28.9896L19.9987 16.5381C19.944 16.5266 19.8911 16.5096 19.8408 16.4878L16.4619 29.299L16.2998 28.9863L19.4132 16.0748C19.3711 15.9863 19.3443 15.8896 19.3361 15.7882L15.6701 29.302L15.5095 28.9831L19.0995 14.5465C19.0789 14.497 19.057 14.4482 19.0339 14.4001L14.8783 29.3048L14.7193 28.9799L18.6193 13.7578C18.5995 13.7343 18.5795 13.7111 18.559 13.6882ZM19.0873 11.9311C19.0804 11.926 19.0735 11.9209 19.0666 11.9158L19.3007 11.0982L19.0873 11.9311ZM18.8005 13.9964L17.7094 18.2552L18.868 14.0994C18.8462 14.0646 18.8237 14.0302 18.8005 13.9964ZM19.4015 12.1862C19.3645 12.1534 19.327 12.1213 19.289 12.0897L19.9975 9.32429C20.0553 9.35888 20.1128 9.39427 20.1698 9.43043L19.4015 12.1862ZM19.5995 12.3716C19.6104 12.3825 19.6213 12.3934 19.6322 12.4043L19.9772 11.0169L19.5995 12.3716ZM19.2372 14.9577L18.3905 18.3625L19.2725 15.1114C19.262 15.0596 19.2502 15.0084 19.2372 14.9577ZM19.9203 12.7231C19.8881 12.684 19.8552 12.6454 19.8216 12.6074L20.548 9.68629C20.6029 9.72584 20.6574 9.76615 20.7114 9.80723L19.9203 12.7231ZM20.1034 12.9597C20.1187 12.9809 20.1339 13.0022 20.1489 13.0236L20.652 10.9373L20.1034 12.9597ZM19.5914 16.3215L19.0738 18.4678L19.6305 16.3569C19.6171 16.3455 19.604 16.3337 19.5914 16.3215ZM20.4029 13.4284C20.3768 13.3818 20.35 13.3356 20.3224 13.29L21.0884 10.1133C21.1401 10.158 21.1911 10.2033 21.2414 10.2491L20.4029 13.4284ZM20.5643 13.7444C20.584 13.7867 20.603 13.8293 20.6214 13.8723L21.3253 10.8592L20.5643 13.7444ZM20.2306 16.553L19.7592 18.5709L20.2775 16.548C20.262 16.5501 20.2464 16.5518 20.2306 16.553ZM20.8199 14.4308C20.8033 14.3726 20.7856 14.3149 20.7668 14.2576L21.6176 10.6155C21.6654 10.6653 21.7125 10.7156 21.7588 10.7664L20.8199 14.4308ZM20.9338 14.9325C20.9533 15.0478 20.9687 15.1646 20.9797 15.2826L21.9511 10.9857C21.9495 10.9838 21.9479 10.982 21.9464 10.9801L20.9338 14.9325ZM22.1336 11.2101L20.4467 18.672L22.2607 11.3771C22.2191 11.3209 22.1767 11.2652 22.1336 11.2101ZM22.4384 11.6275C22.4454 11.6378 22.4524 11.6481 22.4594 11.6585L19.9909 22.9545C19.6847 23.3773 19.4791 23.8441 19.389 24.3333V24.3444C19.3667 24.3333 19.3556 24.3333 19.3334 24.3333L19.3334 25.9632L18.7115 28.809C18.526 28.982 18.3071 29.1195 18.0661 29.2102L22.4384 11.6275ZM19.0555 28.3852C19.2317 28.0931 19.3334 27.7519 19.3334 27.3888V27.2327L19.0555 28.3852ZM20.5052 22.373C20.6019 22.2824 20.7039 22.195 20.8112 22.111C20.853 22.0779 20.8945 22.0443 20.9356 22.0104L22.945 12.4867C22.9325 12.4619 22.9198 12.4372 22.9071 12.4126L20.5052 22.373ZM22.742 12.1113L21.1362 18.7708L22.6319 11.9264C22.6695 11.9876 22.7062 12.0492 22.742 12.1113ZM23.3645 9.52974C23.3435 9.53135 23.3223 9.53216 23.3012 9.53216C23.2532 9.53216 23.2052 9.52805 23.1578 9.51983L23.6769 7.14421L24.0233 6.79786L23.3645 9.52974ZM23.1036 12.82L21.8277 18.8673L23.1922 13.0262C23.1636 12.9571 23.1341 12.8883 23.1036 12.82ZM24.1186 9.06032L23.8912 9.28771C23.8743 9.30454 23.8568 9.32051 23.8388 9.33561L24.4537 6.4213C24.5489 6.37156 24.6517 6.34148 24.7562 6.33104L24.1186 9.06032ZM23.3382 13.4089C23.3566 13.4614 23.3745 13.5141 23.3918 13.567L21.8557 21.1172C21.7213 21.2707 21.5804 21.4195 21.4334 21.5632L23.3382 13.4089ZM22.4368 20.3663C22.5973 20.1305 22.7444 19.8866 22.8776 19.6355L23.7405 15.2311C23.7271 15.0944 23.7102 14.9584 23.6898 14.8233L22.4368 20.3663ZM23.5837 14.2611L22.5212 18.9614L23.5258 14.0235C23.5464 14.1023 23.5657 14.1815 23.5837 14.2611ZM24.9466 8.23229L24.6421 8.53678L25.0843 6.36346C25.1746 6.39112 25.2612 6.43446 25.3397 6.49349L24.9466 8.23229ZM23.7753 16.2013L23.274 18.7602C23.2793 18.7462 23.2845 18.7322 23.2897 18.7182L23.7563 16.5833C23.7657 16.4566 23.772 16.3292 23.7753 16.2013ZM25.6146 15.5653C25.6379 15.5273 25.6641 15.4914 25.693 15.4577L25.542 16.2839C25.5229 16.2312 25.5089 16.176 25.5008 16.119L25.6146 15.5653ZM23.4389 22.4782C23.559 22.4981 23.6755 22.5444 23.7791 22.6169L23.4208 24.5984L23.0664 24.244L23.4389 22.4782ZM22.6262 22.8119C22.6518 22.7766 22.6805 22.7429 22.7123 22.7111C22.8123 22.6111 22.9313 22.5418 23.0577 22.5032L22.7831 23.9608L22.7123 23.8899C22.591 23.7686 22.5149 23.6193 22.484 23.4627L22.6262 22.8119ZM23.7 24.8776L24.1021 22.9219L24.2938 23.1137L23.9295 25.1071L23.7 24.8776ZM24.1938 25.3715L24.2501 25.4277C24.329 25.5071 24.4199 25.5671 24.517 25.6078L24.8617 23.6815L24.5968 23.4166L24.1938 25.3715ZM25.9702 16.7538C26.0095 16.7724 26.0504 16.7879 26.0928 16.8003L26.385 15.1666H26.3256C26.3161 15.1666 26.3067 15.1668 26.2973 15.1671L25.9702 16.7538ZM26.0609 15.2096C26.0232 15.2222 25.9866 15.2375 25.9515 15.2552L25.7124 16.564C25.7306 16.5838 25.7499 16.6028 25.77 16.6208L26.0609 15.2096ZM26.6057 15.1666L26.319 16.7686L26.6345 15.1666H26.6057ZM26.8597 15.1666H26.9371L26.6558 16.8333H26.5315L26.8597 15.1666ZM25.13 23.9499L24.7911 25.6708C24.8071 25.6717 24.823 25.6722 24.839 25.6722C24.9538 25.6722 25.0687 25.6486 25.1758 25.6014L25.4077 24.2275L25.13 23.9499ZM25.6557 24.6682L25.5351 25.2979C25.6598 25.1097 25.7 24.882 25.6557 24.6682ZM26.874 16.8333L27.1553 15.1666H27.2514L26.9323 16.8333H26.874ZM27.156 16.8333H27.2615L27.531 15.1666H27.4752L27.156 16.8333ZM27.7476 15.1666L27.4781 16.8333H27.4949L27.7963 15.1666H27.7476ZM28.0174 15.1666H28.0386L27.7913 16.8333H27.716L28.0174 15.1666ZM28.4864 16.8333H28.4241L28.6463 15.1794C28.6789 15.1852 28.7108 15.1929 28.742 15.2023L28.4864 16.8333ZM29.0355 16.6384C28.9812 16.684 28.921 16.7228 28.8562 16.7535L29.0251 15.3529C29.2132 15.5057 29.3334 15.7389 29.3334 15.9999C29.3334 16.0303 29.3318 16.0603 29.3286 16.0899L29.1451 15.9108L29.0355 16.6384ZM28.2737 15.1666L28.0656 16.4248L28.2523 15.1666H28.2737ZM25.6094 6.8401L25.4316 7.7473C25.6754 7.50137 25.7346 7.14144 25.6094 6.8401ZM23.1929 7.62819L22.7676 9.33862C22.7486 9.32265 22.7301 9.30568 22.7123 9.28771C22.669 9.24442 22.6315 9.19756 22.5997 9.14806L22.8704 7.95077L23.1929 7.62819ZM16.0421 8.22381C15.9729 8.22342 15.9036 8.22395 15.8343 8.22539L12.9679 17.3913L16.0421 8.22381ZM16.4041 6.40328C16.6601 6.261 16.8334 5.98781 16.8334 5.67439V5.03055L16.4041 6.40328ZM16.8334 4.0792L16.0099 6.50766C16.0067 6.5077 16.0034 6.50772 16.0001 6.50772C15.9221 6.50772 15.8466 6.49699 15.775 6.47693L16.7958 3.25167C16.8202 3.3301 16.8334 3.41349 16.8334 3.49994V4.0792ZM16.6226 2.94607C16.4699 2.77464 16.2475 2.66661 16.0001 2.66661C15.8371 2.66661 15.685 2.71348 15.5565 2.79447L15.6639 3.07875L15.1667 4.57816V5.37632L16.1136 2.70277L16.2579 3.07644L15.2801 6.09412C15.3272 6.17458 15.3873 6.24647 15.4576 6.30684L16.6226 2.94607ZM14.7595 8.32098C14.6885 8.33215 14.6176 8.34431 14.5468 8.35744L11.6792 17.2073L14.7595 8.32098ZM14.0752 8.45845C14.0036 8.47603 13.9325 8.49466 13.8617 8.51434L11.0208 17.0827L14.0752 8.45845ZM15.1667 3.68036L15.4622 2.86361C15.2815 3.01651 15.1667 3.24491 15.1667 3.49994V3.68036ZM13.3609 8.67289L10.3647 16.9566L13.1465 8.75299C13.2175 8.72522 13.289 8.69851 13.3609 8.67289ZM12.6058 8.98929C12.5336 9.02425 12.4621 9.06034 12.3911 9.09753L9.71105 16.8292L12.6058 8.98929ZM11.8595 9.40366C11.7864 9.44976 11.714 9.49707 11.6425 9.54556L9.11777 16.8292L11.8595 9.40366ZM11.0499 9.98951C10.9755 10.051 10.9021 10.1139 10.83 10.178L8.52449 16.8292L11.0499 9.98951ZM15.2097 8.26304C15.2801 8.256 15.3505 8.24992 15.4209 8.24477L12.34 17.3303L15.2097 8.26304ZM8.74782 18.8178C8.73373 18.7816 8.71992 18.7452 8.70637 18.7087L10.0009 15.2028L8.74782 18.8178ZM9.25321 9.32108C9.26536 9.31036 9.27729 9.29924 9.28897 9.28771C9.48367 9.09301 9.56193 8.82598 9.52375 8.57313L9.25321 9.32108ZM9.27443 8.09429L9.14903 7.96888L8.58633 9.52458C8.62369 9.52963 8.66133 9.53216 8.69897 9.53216C8.70477 9.53216 8.71057 9.5321 8.71637 9.53198L9.27443 8.09429ZM8.17968 9.35036L8.83958 7.65943L8.71334 7.53319L8.08705 9.26469L8.11008 9.28771C8.13236 9.31015 8.15561 9.33103 8.17968 9.35036ZM7.74003 8.91766L8.40486 7.22472L8.27765 7.0975L7.65136 8.829L7.74003 8.91766ZM7.30196 8.4796L7.97032 6.79017L7.84196 6.66182L7.21567 8.39331L7.30196 8.4796ZM6.86341 8.04105L7.51611 6.40571C7.46602 6.3822 7.41408 6.36394 7.36112 6.35095L6.77998 7.95762L6.86341 8.04105ZM6.43639 7.57171L6.92478 6.36111C6.85865 6.38066 6.79445 6.40857 6.73388 6.44485L6.37507 7.43684C6.3913 7.48314 6.41174 7.52829 6.43639 7.57171Z" fill="#89989D"/>
</svg>
