<svg width="32" height="32" viewBox="0 0 32 32" fill="none" xmlns="http://www.w3.org/2000/svg">
<mask id="mask0_848_9123" style="mask-type:alpha" maskUnits="userSpaceOnUse" x="2" y="2" width="28" height="28">
<path fill-rule="evenodd" clip-rule="evenodd" d="M16.0001 29.3334C6.0008 29.3334 2.66675 25.9994 2.66675 16.0001C2.66675 6.0008 6.0008 2.66675 16.0001 2.66675C25.9994 2.66675 29.3334 6.0008 29.3334 16.0001C29.3334 25.9994 25.9994 29.3334 16.0001 29.3334ZM10.2301 10.0147C10.2301 9.27007 10.834 8.66675 11.5781 8.66675C12.3232 8.66675 12.9261 9.2697 12.9261 10.0147C12.9261 10.7598 12.3232 11.3627 11.5781 11.3627C10.834 11.3627 10.2301 10.7594 10.2301 10.0147ZM11.5781 6.66675C9.7302 6.66675 8.23011 8.16476 8.23011 10.0147C8.23011 11.8647 9.7302 13.3627 11.5781 13.3627C13.4277 13.3627 14.9261 11.8644 14.9261 10.0147C14.9261 8.16513 13.4277 6.66675 11.5781 6.66675ZM22.7653 13.3389C24.8745 13.4294 25.7699 14.0392 27.3699 16.1726C29.3699 18.8392 26.7032 19.5059 26.0365 18.1726C25.3699 16.8392 23.203 14.2892 20.7653 16.0056C19.7323 16.733 19.1405 17.3663 18.6196 17.9238C17.8275 18.7716 17.1991 19.4442 15.4319 20.0056C14.5185 20.2958 13.6504 20.1514 12.7743 20.0058C11.5086 19.7953 10.2263 19.582 8.76622 20.6723C8.18723 21.1046 7.69102 21.7598 7.22188 22.3792C6.45449 23.3925 5.75954 24.3101 4.89331 24.0001C3.251 23.4124 6.0058 19.5803 8.76618 18.0056C9.99076 17.307 11.1621 17.5068 12.3265 17.7054C13.7867 17.9545 15.236 18.2017 16.7653 16.6724C18.7653 14.6724 20.2558 13.2314 22.7653 13.3389Z" fill="#89989D"/>
</mask>
<g mask="url(#mask0_848_9123)">
<path fill-rule="evenodd" clip-rule="evenodd" d="M2.29706 3.51823L1.57951 4.84078L1.44226 4.37794L2.42117 1.67154L2.57499 2.09681L2.3728 2.6558L3.09036 1.33325L3.2276 1.79609L2.46755 3.89742L3.73932 1.34026L3.88021 1.79609L2.77376 4.85512L4.38871 1.347L4.53282 1.79609L3.08051 5.81129L5.03937 1.35133L5.18542 1.79609L3.38755 6.76668L5.69067 1.35434L5.83803 1.79609L3.69476 7.72161L6.34235 1.35654L6.49064 1.79609L4.00208 8.67624L6.99426 1.35823L7.14324 1.79609L4.30946 9.63068L7.64633 1.35956L7.79585 1.79609L4.6169 10.585L8.2985 1.36064L8.44846 1.79609L4.92437 11.5392L8.95076 1.36153L9.10106 1.79609L5.23187 12.4933L9.60307 1.36227L9.75367 1.79609L5.53939 13.4474L10.2554 1.36291L10.4063 1.79609L5.84693 14.4014L10.9078 1.36346L11.0589 1.79609L6.26951 15.0373L11.5603 1.36378L11.7119 1.79492L6.66468 15.9041L12.2124 1.36522L12.3649 1.7938L7.17566 16.4525L12.8645 1.36644L13.0183 1.79152L7.77705 16.9121L13.5163 1.36864L13.6709 1.79152L8.42966 16.9121L14.1689 1.36864L14.3235 1.79152L9.08227 16.9121L14.8215 1.36864L14.977 1.78913L9.80129 17.0523L15.4733 1.37082L15.6304 1.78666L10.5229 17.191L16.1251 1.37307L16.2838 1.78411L11.2472 17.328L16.7769 1.3754L16.9373 1.78148L11.9741 17.4634L17.4287 1.37779L17.5903 1.78013L12.6648 17.5305L18.0809 1.37902L18.2442 1.77597L13.4357 17.7291L18.7322 1.38281L18.8977 1.77309L14.1702 17.8592L19.384 1.38544L19.5511 1.77011L14.9073 17.9875L20.0358 1.38815L20.2046 1.76705L15.6469 18.1139L20.6875 1.39095L20.8581 1.76389L16.389 18.2382L21.3393 1.39383L21.5116 1.76063L17.1335 18.3605L21.991 1.39681L22.165 1.75728L17.8804 18.4808L22.6427 1.39987L22.8185 1.75382L18.6297 18.5988L23.2945 1.40303L23.472 1.75026L19.3813 18.7146L23.9462 1.40629L24.1255 1.7466L20.1353 18.8281L24.598 1.40964L24.7789 1.74284L20.8915 18.9393L25.2497 1.4131L25.4324 1.73896L21.6499 19.0479L25.9014 1.41665L26.0859 1.73498L22.4106 19.154L26.5532 1.42032L26.7393 1.73089L23.1734 19.2576L27.2049 1.42408L27.3928 1.72668L23.9383 19.3586L27.8567 1.42796L28.0462 1.72237L24.7053 19.4567L28.5084 1.43194L28.6996 1.71794L25.306 20.4826L29.1604 1.73557L29.352 2.01978L26.0874 19.8833L29.7043 2.3367L29.8963 2.61892L27.3511 16.8455L30.0296 3.24394L30.2237 3.5149L27.4849 19.7402L30.3553 4.75059L30.5507 5.01402L28.4704 17.8793L30.4629 6.86179L30.6608 7.11041L29.2723 16.4674L30.4612 9.27694L30.6621 9.50666L29.2557 19.9758L30.4604 12.2895L30.6634 12.5042L29.4294 22.7388L30.4598 15.902L30.6646 16.1018L29.8407 23.9112L30.4588 19.5172L30.666 19.695L30.1287 26.0084L30.4592 23.7244L30.6668 23.8951L30.3405 28.4058L30.1272 28.2878L30.2212 26.9888L29.791 29.962L29.5842 29.7815L30.0985 23.7381L29.1388 30.5608L28.933 30.3676L29.9076 21.1297L28.4852 30.5674L28.2816 30.3567L29.6682 18.8561L27.832 30.5713L27.6302 30.3471L29.4231 17.002L27.1785 30.5768L26.979 30.3376L29.3492 14.3644L26.4155 30.5863L26.2189 30.329L29.0174 13.0227L25.653 30.5925L25.4583 30.3246L28.5418 12.0565L24.891 30.5956L24.698 30.3185L28.0574 11.5411L24.1286 30.6007L23.937 30.3162L27.1573 12.6954L23.4761 30.6004L23.2842 30.3173L26.9956 9.79556L22.6053 30.6033L22.4149 30.3129L26.2664 9.8681L21.7343 30.6073L21.5456 30.3086L25.5357 9.9427L20.8633 30.6111L20.6763 30.3043L24.8034 10.0194L19.9923 30.6149L19.807 30.3003L24.0695 10.098L19.1213 30.6186L18.9377 30.2963L23.334 10.1785L18.2503 30.6221L18.0684 30.2924L22.5968 10.2609L17.3793 30.6256L17.1991 30.2886L21.8579 10.3451L16.5082 30.6289L16.3299 30.285L21.1173 10.4311L15.6372 30.6322L15.4606 30.2814L20.375 10.5187L14.7662 30.6354L14.5913 30.278L19.6309 10.608L13.8952 30.6384L13.722 30.2746L18.8849 10.6989L13.0242 30.6414L12.8528 30.2713L18.1372 10.7914L12.1532 30.6443L11.9835 30.2682L17.3877 10.8854L11.2822 30.6471L11.1142 30.2651L16.6362 10.9808L10.4112 30.6498L10.2449 30.2621L15.8829 11.0777L9.54024 30.6524L9.37567 30.2593L15.4422 10.1328L8.56008 30.6562L8.39803 30.2551L13.8916 12.6881L7.79829 30.6574L7.63708 30.2538L13.6115 11.3764L6.92732 30.6598L6.76778 30.2511L12.8505 11.4786L6.05637 30.6622L5.89847 30.2486L12.0876 11.5819L5.18542 30.6644L5.02916 30.2461L11.3226 11.6865L4.31448 30.6666L4.15984 30.2437L9.40111 15.1231L3.66188 30.6666L3.50723 30.2437L8.7485 15.1231L3.00927 30.6666L2.85463 30.2437L9.28696 11.687L2.35584 30.0674L2.20282 29.64L8.15063 12.8385L1.9203 29.1665L1.76814 28.7368L7.65746 12.2736L1.70222 27.6643L1.55103 27.232L6.54545 13.4239L1.48456 26.4618L1.3335 26.0292L6.20038 12.5736L1.48434 24.6581L1.3335 24.2249L5.85529 11.7234L1.48409 22.8545L1.3335 22.4206L5.51019 10.8733L1.4838 21.0509L1.3335 20.6164L5.16505 10.0232L1.48345 19.2476L1.3335 18.8121L4.81988 9.17324L1.48301 17.4444L1.3335 17.0078L4.47466 8.32341L1.48247 15.6414L1.3335 15.2036L4.12937 7.47377L1.48178 13.8388L1.3335 13.3993L3.78397 6.62443L1.48085 12.0368L1.3335 11.595L3.4384 5.77555L1.47955 10.2355L1.3335 9.79075L3.09256 4.92746L1.47761 8.43557L1.3335 7.98648L2.74615 4.08089L1.47438 6.63804L1.3335 6.18221L2.29706 3.51823Z" fill="url(#paint0_linear_848_9123)"/>
</g>
<defs>
<linearGradient id="paint0_linear_848_9123" x1="16.0002" y1="1.33325" x2="16.0002" y2="30.6666" gradientUnits="userSpaceOnUse">
<stop stop-color="#164554"/>
<stop offset="1" stop-color="#040C0F"/>
</linearGradient>
</defs>
</svg>
