<svg width="32" height="32" viewBox="0 0 32 32" fill="none" xmlns="http://www.w3.org/2000/svg">
<path fill-rule="evenodd" clip-rule="evenodd" d="M2.93322 16.1267L2.87105 16.1888C2.66837 16.3912 2.62032 16.5933 2.70992 16.7431L2.93322 16.1267ZM2.94188 16.9207C2.9955 16.9413 3.05669 16.9574 3.1252 16.9681L3.21734 16.9826L3.86405 15.1972L3.48548 15.5752L2.94188 16.9207ZM4.56406 14.4982L3.55019 17.0348L3.77953 17.0708L4.79487 14.2678L4.56406 14.4982ZM5.61338 13.4505L4.15566 17.1298L4.34172 17.159L5.72569 13.3383L5.61338 13.4505ZM6.64135 12.424L4.75374 17.2237L4.90391 17.2472L6.65652 12.4089L6.64135 12.424ZM7.09531 11.9707L6.47637 13.6794L7.17545 11.8907L7.09531 11.9707ZM8.02614 11.0413L6.75636 14.5467L8.17799 10.8896L8.02614 11.0413ZM8.95696 10.1118L7.14108 15.1249L9.16361 9.90547L8.95696 10.1118ZM9.81064 9.46542L7.50085 15.9128L9.98682 9.40734C9.92712 9.42403 9.86817 9.44345 9.81064 9.46542ZM10.4745 9.33583L7.96606 16.4114L10.6354 9.3431C10.583 9.33776 10.5292 9.33539 10.4745 9.33583ZM11.0795 9.43762L8.51358 16.8292L11.2333 9.47419L11.0795 9.43762ZM11.6283 9.56812L9.10773 16.8292L11.7794 9.60404L11.6283 9.56812ZM12.1772 9.69862L9.70188 16.8292L12.3256 9.7339L12.1772 9.69862ZM12.7868 9.79998L10.3565 16.9567L12.9632 9.76029C12.911 9.77952 12.8524 9.79388 12.7868 9.79998ZM13.617 9.24181L11.0135 17.0827L13.8758 9.01264C13.7892 9.0886 13.703 9.16499 13.617 9.24181ZM14.5079 8.47068L11.6729 17.2073L14.7858 8.24013C14.6929 8.31645 14.6003 8.3933 14.5079 8.47068ZM15.3632 7.77526L12.3347 17.3304L15.6576 7.54552C15.5592 7.62147 15.4611 7.69805 15.3632 7.77526ZM16.1684 7.15803L12.9635 17.3914L16.4762 6.93129C16.3735 7.00614 16.2709 7.08173 16.1684 7.15803ZM16.9876 6.5656L13.6653 17.5719L17.3092 6.34266C17.2019 6.41612 17.0948 6.49044 16.9876 6.5656ZM17.7639 6.03642L14.3341 17.6902L18.0967 5.8191C17.9858 5.89057 17.8749 5.96302 17.7639 6.03642ZM18.5197 5.55098L15.0051 17.8068L18.8623 5.34066C18.7482 5.40967 18.634 5.47979 18.5197 5.55098ZM19.2569 5.10591L15.6785 17.9217L19.608 4.90395C19.4912 4.97004 19.3742 5.03737 19.2569 5.10591ZM19.9771 4.69875L16.3541 18.0347L20.3356 4.50655C20.2165 4.56924 20.097 4.63332 19.9771 4.69875ZM20.6816 4.32782L17.0319 18.146L21.0464 4.14683C20.9253 4.20562 20.8037 4.26596 20.6816 4.32782ZM21.3715 3.99207L20.3296 8.05306C20.4331 7.85502 20.5621 7.66684 20.7168 7.4934L21.7414 3.82385C21.6188 3.87821 21.4955 3.93429 21.3715 3.99207ZM22.0478 3.69106L21.2096 7.05672C21.3084 6.98815 21.4106 6.92673 21.5156 6.87245L22.4217 3.53734C22.2979 3.58667 22.1732 3.63792 22.0478 3.69106ZM22.711 3.42496L21.9195 6.70283C22.0139 6.67172 22.1097 6.6458 22.2063 6.62508L23.0878 3.28768C22.9633 3.33131 22.8376 3.37709 22.711 3.42496ZM23.3619 3.19459L22.5719 6.57179C22.6629 6.56462 22.7543 6.56192 22.8456 6.5637L23.7405 3.07598C23.6156 3.11314 23.4893 3.15269 23.3619 3.19459ZM23.9759 3.0084L23.9925 3.03896L23.1882 6.59149C23.2758 6.60406 23.3629 6.62081 23.4492 6.64175L24.38 2.90421C24.247 2.93591 24.1122 2.97067 23.9759 3.0084ZM24.4983 2.8767L24.5874 3.03543L23.7761 6.74277C23.8595 6.77434 23.9418 6.81006 24.0225 6.84995L25.0064 2.77539C24.8403 2.8038 24.6708 2.83762 24.4983 2.8767ZM25.0311 2.77121L25.1823 3.03181L24.3371 7.03216C24.4153 7.08464 24.4914 7.14151 24.5651 7.20279L25.6078 2.74576L25.7773 3.02809L24.8671 7.49483C24.9401 7.57678 25.0074 7.66203 25.069 7.75004L26.2011 2.74918L26.3722 3.02427L25.3466 8.25103C25.4085 8.39674 25.4574 8.54665 25.4932 8.69901L26.7945 2.7527L26.9671 3.02035L24.3881 16.6904C24.4136 16.6576 24.439 16.6247 24.4644 16.5918L27.3747 2.8184C26.7174 2.62849 25.9224 2.62143 25.0311 2.77121ZM27.4432 2.839L27.562 3.01632L25.3107 15.4463C25.3653 15.3691 25.4195 15.2918 25.4732 15.2144L27.9748 3.06467C27.8102 2.9733 27.6326 2.89829 27.4432 2.839ZM28.021 3.09097L28.1559 3.29072L26.163 14.1797C26.2258 14.0814 26.2878 13.9832 26.3491 13.885L28.4766 3.57883L28.6514 3.83539L27.0687 12.6689C27.1075 12.5997 27.1458 12.5306 27.1836 12.4615L28.7728 4.40359L28.9495 4.64992L27.8479 11.1664C27.9615 10.9281 28.0693 10.6915 28.171 10.4573L29.0693 5.77328L29.2472 6.01276L28.7908 8.83088C29.5515 6.48254 29.5598 4.514 28.5119 3.46755C28.3653 3.32115 28.2012 3.19592 28.021 3.09097ZM26.7476 13.2279L26.9772 11.9465L26.694 13.3186C26.7119 13.2884 26.7298 13.2581 26.7476 13.2279ZM25.8545 14.6531L26.1578 12.9958L25.7996 14.7354C25.818 14.7079 25.8362 14.6805 25.8545 14.6531ZM25.0146 15.8586L26.0106 10.3596L24.7821 16.1734C24.8604 16.0687 24.9379 15.9637 25.0146 15.8586ZM24.0945 17.0628L25.3467 10.4256L23.82 17.4017C23.9123 17.2892 24.0038 17.1762 24.0945 17.0628ZM22.6143 21.0289L22.2919 22.6718C22.2718 22.6953 22.2512 22.7178 22.2299 22.739L21.8154 23.1529L22.4511 20.3447L22.6143 21.0289ZM23.5061 17.7787C23.4936 17.7935 23.481 17.8083 23.4685 17.8231L24.7485 11.2993C24.7503 11.2975 24.7521 11.2958 24.7539 11.294C24.836 11.212 24.9118 11.1262 24.9815 11.0371L23.5061 17.7787ZM24.4767 11.5366L23.1766 18.1629C23.0737 18.2811 22.9699 18.3987 22.8653 18.5155L24.4388 11.5651C24.4515 11.5557 24.4642 11.5462 24.4767 11.5366ZM24.1649 11.7433C24.1049 11.7775 24.0439 11.8092 23.9821 11.8385L22.5511 18.8614C22.5521 18.8603 22.5531 18.8593 22.5541 18.8582L24.1649 11.7433ZM23.6885 11.9576C23.7036 11.9524 23.7188 11.9472 23.7338 11.9417L21.356 23.6116L20.8421 24.1248L23.6885 11.9576ZM23.4357 12.0304C23.382 12.0431 23.3281 12.0543 23.2739 12.0638L21.8363 18.8673L23.4357 12.0304ZM22.9931 12.0985C23.0081 12.0974 23.023 12.0962 23.038 12.0948L20.4035 24.5627L19.8495 25.1159L22.9931 12.0985ZM22.7533 12.1055C22.7035 12.1048 22.6536 12.1028 22.6038 12.0995L21.1438 18.7708L22.7533 12.1055ZM22.338 12.0688C22.3512 12.071 22.3645 12.073 22.3777 12.075L19.4327 25.5322L18.8371 26.1269L22.338 12.0688ZM22.1095 12.0213C22.062 12.0093 22.0148 11.9961 21.9679 11.9816L20.4532 18.6721L22.1095 12.0213ZM21.7211 11.8923C21.7313 11.8965 21.7415 11.9007 21.7518 11.9048L18.4428 26.5205L17.8041 27.1583L21.7211 11.8923ZM21.5045 11.7907C21.4587 11.7668 21.4134 11.7415 21.3687 11.7148L19.7648 18.571L21.5045 11.7907ZM21.1462 11.5669C21.1523 11.5714 21.1583 11.5758 21.1644 11.5802L17.4335 27.5284L16.7501 28.2108L21.1462 11.5669ZM20.9443 11.4031C20.9051 11.3681 20.8665 11.3317 20.8288 11.2941C20.8239 11.2892 20.8191 11.2843 20.8143 11.2794L19.0784 18.4678L20.9443 11.4031ZM20.6239 11.0659C20.6249 11.0671 20.6259 11.0683 20.6269 11.0696L16.4041 28.5563L15.8304 29.1292C15.7813 29.1782 15.7323 29.2181 15.684 29.2493L20.6239 11.0659ZM20.4445 10.8151C20.4015 10.7473 20.3618 10.6781 20.3253 10.6076L18.3941 18.3626L20.4445 10.8151ZM20.062 9.83872C20.0275 9.65194 20.0124 9.46231 20.0166 9.27303L17.7119 18.2552L20.062 9.83872ZM15.6527 29.2683L15.5088 28.9831L19.983 11.017L15.0307 28.7534L15.0499 28.8753C15.114 29.2832 15.3671 29.4312 15.6527 29.2683ZM14.9337 28.1372L19.3055 11.0982L14.7514 26.9791L14.9337 28.1372ZM14.6403 26.2727L18.6265 11.1809L14.4816 25.2641L14.6403 26.2727ZM14.3572 24.4738L14.8381 22.7037C14.8284 22.7155 14.8219 22.7219 14.8219 22.7219C14.4699 23.0734 14.2452 23.7626 14.3226 24.2537L14.3572 24.4738ZM14.9177 22.4107L17.9457 11.2649L14.6756 22.098L14.8114 22.2336C14.8723 22.2944 14.9043 22.3546 14.9177 22.4107ZM14.3524 21.7753L17.2633 11.3504L14.112 21.5353L14.3524 21.7753ZM13.7788 21.2025L16.5792 11.4371L13.5549 20.9789L13.7788 21.2025ZM12.6278 22.6205L12.3974 23.4035C12.2191 23.5744 12.0503 23.7279 11.8885 23.8667L12.3773 22.3605L12.5216 22.5046C12.5629 22.5458 12.598 22.5843 12.6278 22.6205ZM13.2118 20.6364L15.8933 11.5252L13.0041 20.429L13.2118 20.6364ZM12.6514 20.0768L15.4921 10.6662L12.412 19.8378L12.6514 20.0768ZM12.0491 19.4754L14.0804 12.9892L11.9211 19.3476L12.0491 19.4754ZM11.2726 21.2573L11.439 21.4235L10.35 24.9006C10.2275 24.9611 10.1036 25.018 9.97677 25.0732L11.2726 21.2573ZM11.5497 18.9767L13.8254 11.7968L11.3888 18.816L11.5497 18.9767ZM10.7295 20.7151L10.934 20.9193L9.56326 25.2441C9.41346 25.3034 9.25799 25.3628 9.0947 25.4246L10.7295 20.7151ZM11.0083 18.4361L13.1326 11.8896L10.8623 18.2904L11.0083 18.4361ZM10.1925 20.1788L10.3815 20.3675L8.691 25.5772C8.53899 25.6349 8.37995 25.6958 8.2125 25.7614L10.1925 20.1788ZM10.4729 17.9016L12.438 11.9836L10.3418 17.7706L10.4729 17.9016ZM9.66149 19.6485L9.83525 19.8221L7.80974 25.9222C7.65195 25.9864 7.487 26.0551 7.31396 26.1293L9.66149 19.6485ZM9.94363 17.373L11.7416 12.0786L9.82691 17.2565L9.94363 17.373ZM9.04235 19.3782C9.09756 19.3418 9.17024 19.3199 9.27115 19.3533L6.91003 26.3061C6.74482 26.3799 6.57268 26.4586 6.39297 26.543L9.04235 19.3782ZM9.30598 17.1795L9.99215 15.2028L9.23789 17.2426C9.25514 17.2272 9.27175 17.2116 9.28767 17.1957C9.28767 17.1957 9.29412 17.1892 9.30598 17.1795ZM7.99804 20.5956C8.07335 20.4914 8.14941 20.3895 8.22612 20.2902L5.98845 26.7363C5.88444 26.7869 5.77805 26.8393 5.66917 26.8936L7.99804 20.5956ZM8.56265 17.6092L9.39801 15.2028L8.50126 17.6279C8.5218 17.622 8.54227 17.6158 8.56265 17.6092ZM6.34959 23.4468C6.52901 23.0643 6.72664 22.6737 6.93851 22.2879L5.34601 26.8754C5.27813 26.739 5.29647 26.4484 5.38558 26.0537L6.34959 23.4468ZM7.93372 17.7094L9.88823 12.0791L7.76687 17.6964C7.82045 17.7042 7.87629 17.7085 7.93372 17.7094ZM7.26145 17.6172L8.85369 13.126L7.14446 17.5988L7.26145 17.6172ZM6.6463 17.5207L8.4047 12.6124L6.51095 17.4994L6.6463 17.5207ZM6.02829 17.4237L7.3923 13.6581L5.93423 17.4089L6.02829 17.4237ZM5.4661 17.3355L7.07814 12.8851L5.34619 17.3166L5.4661 17.3355ZM10.7919 24.6623L11.7689 21.7529L12.0582 22.0418L11.3861 24.2684C11.1823 24.4189 10.9864 24.5478 10.7919 24.6623Z" fill="#89989D"/>
</svg>
