<svg width="66" height="70" viewBox="0 0 66 70" fill="none" xmlns="http://www.w3.org/2000/svg">
<path d="M5.5 25.5L5.83218 25.8737L5.29693 25.0431L5.5 25.5ZM1 29.5L0.667818 29.1263L1.20307 29.9569L1 29.5ZM5.5 27.5L5.87165 27.8345L5.29693 27.0431L5.5 27.5ZM1 32.5L0.628353 32.1655L1.20307 32.9569L1 32.5ZM5.5 30.5L5.87165 30.8345L5.29693 30.0431L5.5 30.5ZM1 35.5L0.628353 35.1655L1.24282 35.9371L1 35.5ZM5.5 33L5.88698 33.3166L5.25718 32.5629L5.5 33ZM1 38.5L0.613021 38.1834L1.24282 38.9371L1 38.5ZM5.5 36L5.88698 36.3166L5.25718 35.5629L5.5 36ZM1 41.5L0.613021 41.1834L1.24282 41.9371L1 41.5ZM5.5 39L5.88698 39.3166L5.25718 38.5629L5.5 39ZM1 44.5L0.613021 44.1834L1.24282 44.9371L1 44.5ZM5.5 42L5.88698 42.3166L5.25718 41.5629L5.5 42ZM1 47.5L0.613021 47.1834L1.24282 47.9371L1 47.5ZM5.5 45L5.88698 45.3166L5.25718 44.5629L5.5 45ZM1 50.5L0.613021 50.1834L1.27735 50.916L1 50.5ZM5.5 47.5L5.9 47.8L5.22265 47.084L5.5 47.5ZM1 53.5L0.6 53.2L1.27735 53.916L1 53.5ZM5.5 50.5L5.9 50.8L5.22265 50.084L5.5 50.5ZM1 56.5L0.6 56.2L1.27735 56.916L1 56.5ZM5.5 53.5L5.9 53.8L5.22265 53.084L5.5 53.5ZM1 59.5L0.6 59.2L1.27735 59.916L1 59.5ZM5.5 56.5L5.9 56.8L5.22265 56.084L5.5 56.5ZM1 62.5L0.6 62.2L1.27735 62.916L1 62.5ZM5.5 59.5L5.90962 59.7867L5.22265 59.084L5.5 59.5ZM2 64.5L1.59038 64.2133L2.27735 64.916L2 64.5ZM6.5 61.5L6.92183 61.7684L6.22265 61.084L6.5 61.5ZM3 67L2.57817 66.7316L3.31235 67.3904L3 67ZM8 63L8.43895 63.2394L7.68765 62.6096L8 63ZM5 68.5L4.56105 68.2606L5.31235 68.8904L5 68.5ZM10 64.5L10.4569 64.7031L9.68765 64.1096L10 64.5ZM8 69L7.54309 68.7969L8.30697 69.3947L8 69ZM12.5 65.5L12.9596 65.697L12.193 65.1053L12.5 65.5ZM11 69L10.5404 68.803L11.307 69.3947L11 69ZM15.5 65.5L15.9596 65.697L15.193 65.1053L15.5 65.5ZM14 69L13.5404 68.803L14.307 69.3947L14 69ZM18.5 65.5L18.9596 65.697L18.193 65.1053L18.5 65.5ZM17 69L16.5404 68.803L17.307 69.3947L17 69ZM21.5 65.5L21.9596 65.697L21.193 65.1053L21.5 65.5ZM20 69L19.5404 68.803L20.2867 69.4096L20 69ZM25 65.5L25.4808 65.6374L24.7133 65.0904L25 65.5ZM24 69L23.5192 68.8626L24.2867 69.4096L24 69ZM29 65.5L29.4808 65.6374L28.7133 65.0904L29 65.5ZM28 69L27.5192 68.8626L28.2867 69.4096L28 69ZM33 65.5L33.4596 65.697L32.7133 65.0904L33 65.5ZM31.5 69L31.0404 68.803L31.7684 69.4218L31.5 69ZM37 65.5L37.4808 65.6374L36.7316 65.0782L37 65.5ZM36 69L35.5192 68.8626L36.2867 69.4096L36 69ZM41 65.5L41.4808 65.6374L40.7133 65.0904L41 65.5ZM40 69L39.5192 68.8626L40.307 69.3947L40 69ZM44.5 65.5L44.995 65.5707L44.193 65.1053L44.5 65.5ZM44 69L43.505 68.9293L44.307 69.3947L44 69ZM48.5 65.5L48.995 65.5707L48.193 65.1053L48.5 65.5ZM48 69L47.505 68.9293L48.307 69.3947L48 69ZM52.5 65.5L52.995 65.5707L52.193 65.1053L52.5 65.5ZM52 69L51.505 68.9293L52.2867 69.4096L52 69ZM57 65.5L57.4808 65.6374L56.7133 65.0904L57 65.5ZM56 69L55.5192 68.8626L56.2867 69.4096L56 69ZM61 65.5H61.5L60.7133 65.0904L61 65.5ZM61 69H60.5L61.307 69.3947L61 69ZM5.5 10.5L5.87165 10.8345L5.29693 10.0431L5.5 10.5ZM1 15.5L0.628353 15.1655L1.20307 15.9569L1 15.5ZM5.5 13.5L5.87165 13.8345L5.29693 13.0431L5.5 13.5ZM1 18.5L0.628353 18.1655L1.24282 18.9371L1 18.5ZM5.5 16L5.88698 16.3166L5.25718 15.5629L5.5 16ZM1 21.5L0.613021 21.1834L1.24282 21.9371L1 21.5ZM5.5 19L5.88698 19.3166L5.25718 18.5629L5.5 19ZM1 24.5L0.613021 24.1834L1.24282 24.9371L1 24.5ZM5.5 22L5.88698 22.3166L5.25718 21.5629L5.5 22ZM1 27.5L0.613021 27.1834L1.20307 27.9569L1 27.5ZM1 6L0.628353 5.66552L1.20307 6.45691L1 6ZM5.5 4L5.87165 4.33448L5.29693 3.54309L5.5 4ZM1 9L0.628353 8.66552L1.20307 9.45691L1 9ZM5.5 7L5.88698 7.31662L5.29693 6.54309L5.5 7ZM1 12.5L0.613021 12.1834L1.20307 12.9569L1 12.5ZM5.16782 25.1263L0.667818 29.1263L1.33218 29.8737L5.83218 25.8737L5.16782 25.1263ZM1.20307 29.9569L5.70307 27.9569L5.29693 27.0431L0.796931 29.0431L1.20307 29.9569ZM5.12835 27.1655L0.628353 32.1655L1.37165 32.8345L5.87165 27.8345L5.12835 27.1655ZM1.20307 32.9569L5.70307 30.9569L5.29693 30.0431L0.796931 32.0431L1.20307 32.9569ZM5.12835 30.1655L0.628353 35.1655L1.37165 35.8345L5.87165 30.8345L5.12835 30.1655ZM1.24282 35.9371L5.74282 33.4371L5.25718 32.5629L0.757179 35.0629L1.24282 35.9371ZM5.11302 32.6834L0.613021 38.1834L1.38698 38.8166L5.88698 33.3166L5.11302 32.6834ZM1.24282 38.9371L5.74282 36.4371L5.25718 35.5629L0.757179 38.0629L1.24282 38.9371ZM5.11302 35.6834L0.613021 41.1834L1.38698 41.8166L5.88698 36.3166L5.11302 35.6834ZM1.24282 41.9371L5.74282 39.4371L5.25718 38.5629L0.757179 41.0629L1.24282 41.9371ZM5.11302 38.6834L0.613021 44.1834L1.38698 44.8166L5.88698 39.3166L5.11302 38.6834ZM1.24282 44.9371L5.74282 42.4371L5.25718 41.5629L0.757179 44.0629L1.24282 44.9371ZM5.11302 41.6834L0.613021 47.1834L1.38698 47.8166L5.88698 42.3166L5.11302 41.6834ZM1.24282 47.9371L5.74282 45.4371L5.25718 44.5629L0.757179 47.0629L1.24282 47.9371ZM5.11302 44.6834L0.613021 50.1834L1.38698 50.8166L5.88698 45.3166L5.11302 44.6834ZM1.27735 50.916L5.77735 47.916L5.22265 47.084L0.72265 50.084L1.27735 50.916ZM5.1 47.2L0.6 53.2L1.4 53.8L5.9 47.8L5.1 47.2ZM1.27735 53.916L5.77735 50.916L5.22265 50.084L0.72265 53.084L1.27735 53.916ZM5.1 50.2L0.6 56.2L1.4 56.8L5.9 50.8L5.1 50.2ZM1.27735 56.916L5.77735 53.916L5.22265 53.084L0.72265 56.084L1.27735 56.916ZM5.1 53.2L0.6 59.2L1.4 59.8L5.9 53.8L5.1 53.2ZM1.27735 59.916L5.77735 56.916L5.22265 56.084L0.72265 59.084L1.27735 59.916ZM5.1 56.2L0.6 62.2L1.4 62.8L5.9 56.8L5.1 56.2ZM1.27735 62.916L5.77735 59.916L5.22265 59.084L0.72265 62.084L1.27735 62.916ZM5.09038 59.2133L1.59038 64.2133L2.40962 64.7867L5.90962 59.7867L5.09038 59.2133ZM2.27735 64.916L6.77735 61.916L6.22265 61.084L1.72265 64.084L2.27735 64.916ZM6.07817 61.2316L2.57817 66.7316L3.42183 67.2684L6.92183 61.7684L6.07817 61.2316ZM3.31235 67.3904L8.31235 63.3904L7.68765 62.6096L2.68765 66.6096L3.31235 67.3904ZM7.56105 62.7606L4.56105 68.2606L5.43895 68.7394L8.43895 63.2394L7.56105 62.7606ZM5.31235 68.8904L10.3123 64.8904L9.68765 64.1096L4.68765 68.1096L5.31235 68.8904ZM9.54309 64.2969L7.54309 68.7969L8.45691 69.2031L10.4569 64.7031L9.54309 64.2969ZM8.30697 69.3947L12.807 65.8947L12.193 65.1053L7.69303 68.6053L8.30697 69.3947ZM12.0404 65.303L10.5404 68.803L11.4596 69.197L12.9596 65.697L12.0404 65.303ZM11.307 69.3947L15.807 65.8947L15.193 65.1053L10.693 68.6053L11.307 69.3947ZM15.0404 65.303L13.5404 68.803L14.4596 69.197L15.9596 65.697L15.0404 65.303ZM14.307 69.3947L18.807 65.8947L18.193 65.1053L13.693 68.6053L14.307 69.3947ZM18.0404 65.303L16.5404 68.803L17.4596 69.197L18.9596 65.697L18.0404 65.303ZM17.307 69.3947L21.807 65.8947L21.193 65.1053L16.693 68.6053L17.307 69.3947ZM21.0404 65.303L19.5404 68.803L20.4596 69.197L21.9596 65.697L21.0404 65.303ZM20.2867 69.4096L25.2867 65.9096L24.7133 65.0904L19.7133 68.5904L20.2867 69.4096ZM24.5192 65.3626L23.5192 68.8626L24.4808 69.1374L25.4808 65.6374L24.5192 65.3626ZM24.2867 69.4096L29.2867 65.9096L28.7133 65.0904L23.7133 68.5904L24.2867 69.4096ZM28.5192 65.3626L27.5192 68.8626L28.4808 69.1374L29.4808 65.6374L28.5192 65.3626ZM28.2867 69.4096L33.2867 65.9096L32.7133 65.0904L27.7133 68.5904L28.2867 69.4096ZM32.5404 65.303L31.0404 68.803L31.9596 69.197L33.4596 65.697L32.5404 65.303ZM31.7684 69.4218L37.2684 65.9218L36.7316 65.0782L31.2316 68.5782L31.7684 69.4218ZM36.5192 65.3626L35.5192 68.8626L36.4808 69.1374L37.4808 65.6374L36.5192 65.3626ZM36.2867 69.4096L41.2867 65.9096L40.7133 65.0904L35.7133 68.5904L36.2867 69.4096ZM40.5192 65.3626L39.5192 68.8626L40.4808 69.1374L41.4808 65.6374L40.5192 65.3626ZM40.307 69.3947L44.807 65.8947L44.193 65.1053L39.693 68.6053L40.307 69.3947ZM44.005 65.4293L43.505 68.9293L44.495 69.0707L44.995 65.5707L44.005 65.4293ZM44.307 69.3947L48.807 65.8947L48.193 65.1053L43.693 68.6053L44.307 69.3947ZM48.005 65.4293L47.505 68.9293L48.495 69.0707L48.995 65.5707L48.005 65.4293ZM48.307 69.3947L52.807 65.8947L52.193 65.1053L47.693 68.6053L48.307 69.3947ZM52.005 65.4293L51.505 68.9293L52.495 69.0707L52.995 65.5707L52.005 65.4293ZM52.2867 69.4096L57.2867 65.9096L56.7133 65.0904L51.7133 68.5904L52.2867 69.4096ZM56.5192 65.3626L55.5192 68.8626L56.4808 69.1374L57.4808 65.6374L56.5192 65.3626ZM56.2867 69.4096L61.2867 65.9096L60.7133 65.0904L55.7133 68.5904L56.2867 69.4096ZM60.5 65.5V69H61.5V65.5H60.5ZM61.307 69.3947L65.807 65.8947L65.193 65.1053L60.693 68.6053L61.307 69.3947ZM5.12835 10.1655L0.628353 15.1655L1.37165 15.8345L5.87165 10.8345L5.12835 10.1655ZM1.20307 15.9569L5.70307 13.9569L5.29693 13.0431L0.796931 15.0431L1.20307 15.9569ZM5.12835 13.1655L0.628353 18.1655L1.37165 18.8345L5.87165 13.8345L5.12835 13.1655ZM1.24282 18.9371L5.74282 16.4371L5.25718 15.5629L0.757179 18.0629L1.24282 18.9371ZM5.11302 15.6834L0.613021 21.1834L1.38698 21.8166L5.88698 16.3166L5.11302 15.6834ZM1.24282 21.9371L5.74282 19.4371L5.25718 18.5629L0.757179 21.0629L1.24282 21.9371ZM5.11302 18.6834L0.613021 24.1834L1.38698 24.8166L5.88698 19.3166L5.11302 18.6834ZM1.24282 24.9371L5.74282 22.4371L5.25718 21.5629L0.757179 24.0629L1.24282 24.9371ZM5.11302 21.6834L0.613021 27.1834L1.38698 27.8166L5.88698 22.3166L5.11302 21.6834ZM1.20307 27.9569L5.70307 25.9569L5.29693 25.0431L0.796931 27.0431L1.20307 27.9569ZM5.12835 0.665518L0.628353 5.66552L1.37165 6.33448L5.87165 1.33448L5.12835 0.665518ZM1.20307 6.45691L5.70307 4.45691L5.29693 3.54309L0.796931 5.54309L1.20307 6.45691ZM5.12835 3.66552L0.628353 8.66552L1.37165 9.33448L5.87165 4.33448L5.12835 3.66552ZM1.20307 9.45691L5.70307 7.45691L5.29693 6.54309L0.796931 8.54309L1.20307 9.45691ZM5.11302 6.68338L0.613021 12.1834L1.38698 12.8166L5.88698 7.31662L5.11302 6.68338ZM1.20307 12.9569L5.70307 10.9569L5.29693 10.0431L0.796931 12.0431L1.20307 12.9569Z" fill="white"/>
</svg>
