<svg width="66" height="69" viewBox="0 0 66 69" fill="none" xmlns="http://www.w3.org/2000/svg">
<path d="M5.5 24.5L5.83218 24.8737L5.29693 24.0431L5.5 24.5ZM1 28.5L0.667818 28.1263L1.20307 28.9569L1 28.5ZM5.5 26.5L5.87165 26.8345L5.29693 26.0431L5.5 26.5ZM1 31.5L0.628353 31.1655L1.20307 31.9569L1 31.5ZM5.5 29.5L5.87165 29.8345L5.29693 29.0431L5.5 29.5ZM1 34.5L0.628353 34.1655L1.24282 34.9371L1 34.5ZM5.5 32L5.88698 32.3166L5.25718 31.5629L5.5 32ZM1 37.5L0.613021 37.1834L1.24282 37.9371L1 37.5ZM5.5 35L5.88698 35.3166L5.25718 34.5629L5.5 35ZM1 40.5L0.613021 40.1834L1.24282 40.9371L1 40.5ZM5.5 38L5.88698 38.3166L5.25718 37.5629L5.5 38ZM1 43.5L0.613021 43.1834L1.24282 43.9371L1 43.5ZM5.5 41L5.88698 41.3166L5.25718 40.5629L5.5 41ZM1 46.5L0.613021 46.1834L1.24282 46.9371L1 46.5ZM5.5 44L5.88698 44.3166L5.25718 43.5629L5.5 44ZM1 49.5L0.613021 49.1834L1.27735 49.916L1 49.5ZM5.5 46.5L5.9 46.8L5.22265 46.084L5.5 46.5ZM1 52.5L0.6 52.2L1.27735 52.916L1 52.5ZM5.5 49.5L5.9 49.8L5.22265 49.084L5.5 49.5ZM1 55.5L0.6 55.2L1.27735 55.916L1 55.5ZM5.5 52.5L5.9 52.8L5.22265 52.084L5.5 52.5ZM1 58.5L0.6 58.2L1.27735 58.916L1 58.5ZM5.5 55.5L5.9 55.8L5.22265 55.084L5.5 55.5ZM1 61.5L0.6 61.2L1.27735 61.916L1 61.5ZM5.5 58.5L5.90962 58.7867L5.22265 58.084L5.5 58.5ZM2 63.5L1.59038 63.2133L2.27735 63.916L2 63.5ZM6.5 60.5L6.92183 60.7684L6.22265 60.084L6.5 60.5ZM3 66L2.57817 65.7316L3.31235 66.3904L3 66ZM8 62L8.43895 62.2394L7.68765 61.6096L8 62ZM5 67.5L4.56105 67.2606L5.31235 67.8904L5 67.5ZM10 63.5L10.4569 63.7031L9.68765 63.1096L10 63.5ZM8 68L7.54309 67.7969L8.30697 68.3947L8 68ZM12.5 64.5L12.9596 64.697L12.193 64.1053L12.5 64.5ZM11 68L10.5404 67.803L11.307 68.3947L11 68ZM15.5 64.5L15.9596 64.697L15.193 64.1053L15.5 64.5ZM14 68L13.5404 67.803L14.307 68.3947L14 68ZM18.5 64.5L18.9596 64.697L18.193 64.1053L18.5 64.5ZM17 68L16.5404 67.803L17.307 68.3947L17 68ZM21.5 64.5L21.9596 64.697L21.193 64.1053L21.5 64.5ZM20 68L19.5404 67.803L20.2867 68.4096L20 68ZM25 64.5L25.4808 64.6374L24.7133 64.0904L25 64.5ZM24 68L23.5192 67.8626L24.2867 68.4096L24 68ZM29 64.5L29.4808 64.6374L28.7133 64.0904L29 64.5ZM28 68L27.5192 67.8626L28.2867 68.4096L28 68ZM33 64.5L33.4596 64.697L32.7133 64.0904L33 64.5ZM31.5 68L31.0404 67.803L31.7684 68.4218L31.5 68ZM37 64.5L37.4808 64.6374L36.7316 64.0782L37 64.5ZM36 68L35.5192 67.8626L36.2867 68.4096L36 68ZM41 64.5L41.4808 64.6374L40.7133 64.0904L41 64.5ZM40 68L39.5192 67.8626L40.307 68.3947L40 68ZM44.5 64.5L44.995 64.5707L44.193 64.1053L44.5 64.5ZM44 68L43.505 67.9293L44.307 68.3947L44 68ZM48.5 64.5L48.995 64.5707L48.193 64.1053L48.5 64.5ZM48 68L47.505 67.9293L48.307 68.3947L48 68ZM52.5 64.5L52.995 64.5707L52.193 64.1053L52.5 64.5ZM52 68L51.505 67.9293L52.2867 68.4096L52 68ZM57 64.5L57.4808 64.6374L56.7133 64.0904L57 64.5ZM56 68L55.5192 67.8626L56.2867 68.4096L56 68ZM61 64.5H61.5L60.7133 64.0904L61 64.5ZM61 68H60.5L61.307 68.3947L61 68ZM5.5 9.5L5.87165 9.83448L5.29693 9.04309L5.5 9.5ZM1 14.5L0.628353 14.1655L1.20307 14.9569L1 14.5ZM5.5 12.5L5.87165 12.8345L5.29693 12.0431L5.5 12.5ZM1 17.5L0.628353 17.1655L1.24282 17.9371L1 17.5ZM5.5 15L5.88698 15.3166L5.25718 14.5629L5.5 15ZM1 20.5L0.613021 20.1834L1.24282 20.9371L1 20.5ZM5.5 18L5.88698 18.3166L5.25718 17.5629L5.5 18ZM1 23.5L0.613021 23.1834L1.24282 23.9371L1 23.5ZM5.5 21L5.88698 21.3166L5.25718 20.5629L5.5 21ZM1 26.5L0.613021 26.1834L1.20307 26.9569L1 26.5ZM1 5L0.628353 4.66552L1.20307 5.45691L1 5ZM5.5 3L5.87165 3.33448L5.29693 2.54309L5.5 3ZM1 8L0.628353 7.66552L1.20307 8.45691L1 8ZM5.5 6L5.88698 6.31662L5.29693 5.54309L5.5 6ZM1 11.5L0.613021 11.1834L1.20307 11.9569L1 11.5ZM5.16782 24.1263L0.667818 28.1263L1.33218 28.8737L5.83218 24.8737L5.16782 24.1263ZM1.20307 28.9569L5.70307 26.9569L5.29693 26.0431L0.796931 28.0431L1.20307 28.9569ZM5.12835 26.1655L0.628353 31.1655L1.37165 31.8345L5.87165 26.8345L5.12835 26.1655ZM1.20307 31.9569L5.70307 29.9569L5.29693 29.0431L0.796931 31.0431L1.20307 31.9569ZM5.12835 29.1655L0.628353 34.1655L1.37165 34.8345L5.87165 29.8345L5.12835 29.1655ZM1.24282 34.9371L5.74282 32.4371L5.25718 31.5629L0.757179 34.0629L1.24282 34.9371ZM5.11302 31.6834L0.613021 37.1834L1.38698 37.8166L5.88698 32.3166L5.11302 31.6834ZM1.24282 37.9371L5.74282 35.4371L5.25718 34.5629L0.757179 37.0629L1.24282 37.9371ZM5.11302 34.6834L0.613021 40.1834L1.38698 40.8166L5.88698 35.3166L5.11302 34.6834ZM1.24282 40.9371L5.74282 38.4371L5.25718 37.5629L0.757179 40.0629L1.24282 40.9371ZM5.11302 37.6834L0.613021 43.1834L1.38698 43.8166L5.88698 38.3166L5.11302 37.6834ZM1.24282 43.9371L5.74282 41.4371L5.25718 40.5629L0.757179 43.0629L1.24282 43.9371ZM5.11302 40.6834L0.613021 46.1834L1.38698 46.8166L5.88698 41.3166L5.11302 40.6834ZM1.24282 46.9371L5.74282 44.4371L5.25718 43.5629L0.757179 46.0629L1.24282 46.9371ZM5.11302 43.6834L0.613021 49.1834L1.38698 49.8166L5.88698 44.3166L5.11302 43.6834ZM1.27735 49.916L5.77735 46.916L5.22265 46.084L0.72265 49.084L1.27735 49.916ZM5.1 46.2L0.6 52.2L1.4 52.8L5.9 46.8L5.1 46.2ZM1.27735 52.916L5.77735 49.916L5.22265 49.084L0.72265 52.084L1.27735 52.916ZM5.1 49.2L0.6 55.2L1.4 55.8L5.9 49.8L5.1 49.2ZM1.27735 55.916L5.77735 52.916L5.22265 52.084L0.72265 55.084L1.27735 55.916ZM5.1 52.2L0.6 58.2L1.4 58.8L5.9 52.8L5.1 52.2ZM1.27735 58.916L5.77735 55.916L5.22265 55.084L0.72265 58.084L1.27735 58.916ZM5.1 55.2L0.6 61.2L1.4 61.8L5.9 55.8L5.1 55.2ZM1.27735 61.916L5.77735 58.916L5.22265 58.084L0.72265 61.084L1.27735 61.916ZM5.09038 58.2133L1.59038 63.2133L2.40962 63.7867L5.90962 58.7867L5.09038 58.2133ZM2.27735 63.916L6.77735 60.916L6.22265 60.084L1.72265 63.084L2.27735 63.916ZM6.07817 60.2316L2.57817 65.7316L3.42183 66.2684L6.92183 60.7684L6.07817 60.2316ZM3.31235 66.3904L8.31235 62.3904L7.68765 61.6096L2.68765 65.6096L3.31235 66.3904ZM7.56105 61.7606L4.56105 67.2606L5.43895 67.7394L8.43895 62.2394L7.56105 61.7606ZM5.31235 67.8904L10.3123 63.8904L9.68765 63.1096L4.68765 67.1096L5.31235 67.8904ZM9.54309 63.2969L7.54309 67.7969L8.45691 68.2031L10.4569 63.7031L9.54309 63.2969ZM8.30697 68.3947L12.807 64.8947L12.193 64.1053L7.69303 67.6053L8.30697 68.3947ZM12.0404 64.303L10.5404 67.803L11.4596 68.197L12.9596 64.697L12.0404 64.303ZM11.307 68.3947L15.807 64.8947L15.193 64.1053L10.693 67.6053L11.307 68.3947ZM15.0404 64.303L13.5404 67.803L14.4596 68.197L15.9596 64.697L15.0404 64.303ZM14.307 68.3947L18.807 64.8947L18.193 64.1053L13.693 67.6053L14.307 68.3947ZM18.0404 64.303L16.5404 67.803L17.4596 68.197L18.9596 64.697L18.0404 64.303ZM17.307 68.3947L21.807 64.8947L21.193 64.1053L16.693 67.6053L17.307 68.3947ZM21.0404 64.303L19.5404 67.803L20.4596 68.197L21.9596 64.697L21.0404 64.303ZM20.2867 68.4096L25.2867 64.9096L24.7133 64.0904L19.7133 67.5904L20.2867 68.4096ZM24.5192 64.3626L23.5192 67.8626L24.4808 68.1374L25.4808 64.6374L24.5192 64.3626ZM24.2867 68.4096L29.2867 64.9096L28.7133 64.0904L23.7133 67.5904L24.2867 68.4096ZM28.5192 64.3626L27.5192 67.8626L28.4808 68.1374L29.4808 64.6374L28.5192 64.3626ZM28.2867 68.4096L33.2867 64.9096L32.7133 64.0904L27.7133 67.5904L28.2867 68.4096ZM32.5404 64.303L31.0404 67.803L31.9596 68.197L33.4596 64.697L32.5404 64.303ZM31.7684 68.4218L37.2684 64.9218L36.7316 64.0782L31.2316 67.5782L31.7684 68.4218ZM36.5192 64.3626L35.5192 67.8626L36.4808 68.1374L37.4808 64.6374L36.5192 64.3626ZM36.2867 68.4096L41.2867 64.9096L40.7133 64.0904L35.7133 67.5904L36.2867 68.4096ZM40.5192 64.3626L39.5192 67.8626L40.4808 68.1374L41.4808 64.6374L40.5192 64.3626ZM40.307 68.3947L44.807 64.8947L44.193 64.1053L39.693 67.6053L40.307 68.3947ZM44.005 64.4293L43.505 67.9293L44.495 68.0707L44.995 64.5707L44.005 64.4293ZM44.307 68.3947L48.807 64.8947L48.193 64.1053L43.693 67.6053L44.307 68.3947ZM48.005 64.4293L47.505 67.9293L48.495 68.0707L48.995 64.5707L48.005 64.4293ZM48.307 68.3947L52.807 64.8947L52.193 64.1053L47.693 67.6053L48.307 68.3947ZM52.005 64.4293L51.505 67.9293L52.495 68.0707L52.995 64.5707L52.005 64.4293ZM52.2867 68.4096L57.2867 64.9096L56.7133 64.0904L51.7133 67.5904L52.2867 68.4096ZM56.5192 64.3626L55.5192 67.8626L56.4808 68.1374L57.4808 64.6374L56.5192 64.3626ZM56.2867 68.4096L61.2867 64.9096L60.7133 64.0904L55.7133 67.5904L56.2867 68.4096ZM60.5 64.5V68H61.5V64.5H60.5ZM61.307 68.3947L65.807 64.8947L65.193 64.1053L60.693 67.6053L61.307 68.3947ZM5.12835 9.16552L0.628353 14.1655L1.37165 14.8345L5.87165 9.83448L5.12835 9.16552ZM1.20307 14.9569L5.70307 12.9569L5.29693 12.0431L0.796931 14.0431L1.20307 14.9569ZM5.12835 12.1655L0.628353 17.1655L1.37165 17.8345L5.87165 12.8345L5.12835 12.1655ZM1.24282 17.9371L5.74282 15.4371L5.25718 14.5629L0.757179 17.0629L1.24282 17.9371ZM5.11302 14.6834L0.613021 20.1834L1.38698 20.8166L5.88698 15.3166L5.11302 14.6834ZM1.24282 20.9371L5.74282 18.4371L5.25718 17.5629L0.757179 20.0629L1.24282 20.9371ZM5.11302 17.6834L0.613021 23.1834L1.38698 23.8166L5.88698 18.3166L5.11302 17.6834ZM1.24282 23.9371L5.74282 21.4371L5.25718 20.5629L0.757179 23.0629L1.24282 23.9371ZM5.11302 20.6834L0.613021 26.1834L1.38698 26.8166L5.88698 21.3166L5.11302 20.6834ZM1.20307 26.9569L5.70307 24.9569L5.29693 24.0431L0.796931 26.0431L1.20307 26.9569ZM5.12835 -0.334482L0.628353 4.66552L1.37165 5.33448L5.87165 0.334482L5.12835 -0.334482ZM1.20307 5.45691L5.70307 3.45691L5.29693 2.54309L0.796931 4.54309L1.20307 5.45691ZM5.12835 2.66552L0.628353 7.66552L1.37165 8.33448L5.87165 3.33448L5.12835 2.66552ZM1.20307 8.45691L5.70307 6.45691L5.29693 5.54309L0.796931 7.54309L1.20307 8.45691ZM5.11302 5.68338L0.613021 11.1834L1.38698 11.8166L5.88698 6.31662L5.11302 5.68338ZM1.20307 11.9569L5.70307 9.95691L5.29693 9.04309L0.796931 11.0431L1.20307 11.9569Z" fill="#040C0F"/>
</svg>
