<svg width="24" height="24" viewBox="0 0 24 24" fill="none" xmlns="http://www.w3.org/2000/svg">
<mask id="mask0_994_2190" style="mask-type:alpha" maskUnits="userSpaceOnUse" x="4" y="8" width="16" height="9">
<path fill-rule="evenodd" clip-rule="evenodd" d="M13.5238 16.2463C13.5238 16.2463 13.5238 16.2444 12 16.2444C10.4762 16.2444 10.4762 16.2463 10.4762 16.2463L10.4762 16.2481L10.4762 16.2512L10.4762 16.2557C10.4763 16.258 10.4763 16.2583 10.4763 16.2583C10.4763 16.2583 10.4761 16.2508 10.4757 16.2392C10.4747 16.2159 10.4725 16.1725 10.4673 16.1118C10.457 15.99 10.435 15.8023 10.3892 15.5712C10.2964 15.104 10.1125 14.4936 9.75543 13.8941C9.10109 12.7955 7.32217 11.4478 4 11.4478L4 8.25C6.73171 8.25 9.08238 8.99772 10.4762 10.0818L13.5238 10.0818C14.9176 8.99772 17.2683 8.25 20 8.25L20 11.4478C16.6778 11.4478 14.8989 12.7955 14.2446 13.8941C13.8875 14.4936 13.7036 15.104 13.6108 15.5712C13.565 15.8023 13.543 15.99 13.5327 16.1118C13.5275 16.1725 13.5253 16.2159 13.5243 16.2392C13.5239 16.2508 13.5237 16.2583 13.5237 16.2583C13.5237 16.2583 13.5237 16.258 13.5238 16.2557L13.5238 16.2512L13.5238 16.2481L13.5238 16.2463Z" fill="url(#paint0_linear_994_2190)"/>
</mask>
<g mask="url(#mask0_994_2190)">
<path fill-rule="evenodd" clip-rule="evenodd" d="M2.63873 16.5361L3.63065 17.0743L3.28352 17.1772L1.25371 16.443L1.57267 16.3277L1.99191 16.4793L1 15.9411L1.34713 15.8382L2.92312 16.4082L1.00526 15.4544L1.34713 15.3488L3.6414 16.1786L1.01031 14.9674L1.34713 14.8593L4.35853 15.9485L1.01356 14.4794L1.34713 14.3698L5.07507 15.7182L1.01581 13.9909L1.34713 13.8804L5.79127 15.4878L1.01747 13.5021L1.34713 13.3909L6.50724 15.2574L1.01873 13.0132L1.34713 12.9015L7.22307 15.0268L1.01973 12.5242L1.34713 12.412L7.93879 14.7962L1.02054 12.035L1.34713 11.9226L8.65444 14.5656L1.0212 11.5458L1.34713 11.4331L9.37003 14.335L1.02176 11.0566L1.34713 10.9437L10.0856 14.1044L1.02224 10.5673L1.34713 10.4542L10.8011 13.8737L1.02265 10.078L1.34713 9.96475L11.2781 13.5568L1.0229 9.58868L1.34625 9.47498L11.9281 13.2604L1.02397 9.09964L1.34541 8.98522L12.3394 12.8772L1.02489 8.61054L1.3437 8.49517L12.6842 12.4261L1.02654 8.1217L1.3437 8.00572L12.6842 11.9367L1.02654 7.63224L1.3437 7.51626L12.6842 11.4472L1.02654 7.14279L1.34191 7.02619L12.7893 10.9079L1.02818 6.65393L1.34005 6.53611L12.8933 10.3667L1.02987 6.16508L1.33814 6.04603L12.9961 9.82348L1.03161 5.67623L1.33617 5.55595L13.0976 9.27831L1.0334 5.1874L1.33516 5.06617L13.1479 8.76028L1.03432 4.69825L1.33204 4.57576L13.2969 8.18217L1.03717 4.20973L1.32987 4.08566L13.3945 7.63123L1.03914 3.72091L1.32764 3.59556L13.4907 7.07841L1.04117 3.23209L1.32534 3.10545L13.5855 6.52372L1.04327 2.74328L1.32297 2.61535L13.6787 5.96716L1.04543 2.25446L1.32053 2.12524L13.7705 5.40879L1.04767 1.76566L1.31802 1.63513L13.8606 4.84861L1.04996 1.27685L1.31543 1.14502L13.9492 4.28665L1.05233 0.788048L1.31276 0.654913L14.036 3.72292L1.05478 0.299248L1.31001 0.164806L14.1211 3.15746L1.05729 -0.189554L1.30719 -0.325296L14.2045 2.59031L1.05988 -0.678356L1.30428 -0.815399L14.286 2.02147L1.06255 -1.16716L1.30129 -1.3055L14.3656 1.45097L1.0653 -1.65596L1.29823 -1.79559L14.4433 0.878866L1.06812 -2.14477L1.29507 -2.28567L14.519 0.305185L1.07103 -2.63358L1.29184 -2.77575L14.5926 -0.270072L1.07401 -3.12239L1.28852 -3.26582L15.362 -0.720618L1.30174 -3.61139L1.5149 -3.75512L14.9125 -1.30664L1.75259 -4.01931L1.96425 -4.16331L12.6342 -2.25439L2.43301 -4.26327L2.63623 -4.40884L14.8052 -2.35479L3.563 -4.50754L3.76057 -4.65411L13.4095 -3.09386L5.1464 -4.58825L5.33286 -4.73669L12.3506 -3.69533L6.95776 -4.58702L7.13006 -4.73769L14.9819 -3.68283L9.21719 -4.58637L9.37819 -4.73861L17.0542 -3.81313L11.9265 -4.58592L12.0764 -4.73953L17.9334 -4.12164L14.6379 -4.58519L14.7713 -4.74062L19.5063 -4.33765L17.7934 -4.58548L17.9214 -4.74121L21.3044 -4.49648L21.2159 -4.3365L20.2417 -4.40697L22.4716 -4.08435L22.3362 -3.9292L17.8036 -4.31495L22.9206 -3.59519L22.7757 -3.44084L15.8473 -4.17176L22.9256 -3.105L22.7676 -2.95231L14.1421 -3.99225L22.9286 -2.6151L22.7604 -2.46377L12.7516 -3.80842L22.9327 -2.12498L22.7533 -1.97532L10.7734 -3.75302L22.9398 -1.55272L22.7468 -1.40529L9.76711 -3.50413L22.9444 -0.980824L22.7435 -0.834805L9.04242 -3.14747L22.9467 -0.409343L22.7389 -0.264579L8.65588 -2.78412L22.9506 0.162457L22.7372 0.306142L9.5216 -2.10906L22.9503 0.651868L22.738 0.795751L7.34673 -1.98777L22.9525 1.30493L22.7347 1.44775L7.40114 -1.44089L22.9555 1.95818L22.7315 2.09973L7.45708 -0.892853L22.9584 2.61143L22.7283 2.75171L7.51463 -0.343624L22.9612 3.26469L22.7253 3.40368L7.57357 0.206789L22.964 3.91794L22.7223 4.05564L7.63393 0.758421L22.9667 4.57121L22.7194 4.7076L7.69573 1.31131L22.9693 5.22447L22.7165 5.35956L7.75892 1.86548L22.9718 5.87773L22.7138 6.01152L7.82335 2.42092L22.9742 6.53099L22.7111 6.66347L7.88907 2.97768L22.9766 7.18425L22.7085 7.31542L7.95607 3.53577L22.9789 7.8375L22.706 7.96737L8.02426 4.0952L22.9811 8.49076L22.7036 8.61933L8.09361 4.656L22.9833 9.14401L22.7012 9.27128L8.16409 5.21817L22.9854 9.79725L22.6989 9.92324L8.23568 5.78174L22.9874 10.4505L22.6967 10.5752L8.30834 6.34672L22.9894 11.1037L22.6945 11.2272L7.59963 6.6773L22.9922 11.8389L22.6914 11.9604L9.51617 7.84022L22.9931 12.4102L22.6904 12.5311L8.53238 8.05026L22.9949 13.0634L22.6884 13.1831L8.609 8.62101L22.9967 13.7166L22.6865 13.8351L8.68652 9.19323L22.9984 14.3698L22.6846 14.487L8.76493 9.76694L23 15.023L22.6828 15.139L11.3424 11.2081L23 15.5125L22.6828 15.6285L11.3424 11.6975L23 16.002L22.6828 16.1179L8.76529 11.2937L22.5506 16.492L22.2301 16.6068L9.62897 12.1459L21.8749 16.8187L21.5526 16.9328L9.20525 12.5158L20.7483 16.9822L20.4241 17.0956L10.068 13.3498L19.8464 17.1455L19.5219 17.2588L9.4303 13.6086L18.4936 17.1457L18.1687 17.2588L8.79264 13.8674L17.1409 17.1458L16.8155 17.2588L8.15503 14.1263L15.7883 17.1461L15.4623 17.2588L7.51747 14.3851L14.4357 17.1463L14.1091 17.2588L6.87999 14.644L13.0833 17.1467L12.7559 17.2588L6.24262 14.9029L11.7311 17.1471L11.4027 17.2588L5.60539 15.1619L10.3792 17.1476L10.0495 17.2588L4.96839 15.4209L9.02765 17.1483L8.69633 17.2588L4.33173 15.6801L7.6767 17.1492L7.34312 17.2588L3.69565 15.9395L6.32674 17.1507L5.98992 17.2588L3.06073 16.1993L4.97859 17.1531L4.63672 17.2588L2.63873 16.5361Z" fill="#89989D"/>
</g>
<defs>
<linearGradient id="paint0_linear_994_2190" x1="20" y1="12.2542" x2="4" y2="12.2542" gradientUnits="userSpaceOnUse">
<stop stop-color="#FFD87E"/>
<stop offset="1" stop-color="#FFB200"/>
</linearGradient>
</defs>
</svg>
