<svg width="68" height="85" viewBox="0 0 68 85" fill="none" xmlns="http://www.w3.org/2000/svg">
<path d="M33.5173 0.970833C30.5454 4.1417 29.9452 13.3999 31.1468 17.8874C35.2987 33.3924 38.1216 29.5744 38.2231 29.4408C39.5136 27.7408 34.3683 20.3038 28.7331 16.5937C20.5934 11.2349 6.68085 17.7745 4.25191 34.0758C1.69928 51.2071 20.5222 56.1633 41.3828 58.4448C55.9783 60.041 66.2929 75.6328 65.7689 83.0203M11.7122 16.088C3.49941 18.5001 -8.50029 45.0001 12.4994 54.5001M65.7689 83.0203C66.4009 79.9653 65.9505 74.1532 67.2518 70.7956C64.1181 77.2792 56.1698 77.3103 54.8912 77.2366C60.6443 78.7921 64.8962 81.7482 65.7689 83.0203Z" stroke="white" stroke-linecap="round"/>
</svg>
