<svg width="22" height="22" viewBox="0 0 22 22" fill="none" xmlns="http://www.w3.org/2000/svg">
<path fill-rule="evenodd" clip-rule="evenodd" d="M2.67381 2.29511L1.77095 4.79127L2.88775 2.10638C2.81512 2.16771 2.74381 2.2306 2.67381 2.29511ZM3.36425 1.73945L2.00144 5.50724L3.60912 1.57533C3.52612 1.62846 3.4445 1.68315 3.36425 1.73945ZM3.99675 1.34398L2.23197 6.22307L4.25587 1.20642C4.16819 1.25085 4.08182 1.29669 3.99675 1.34398ZM4.59444 1.04474L3.29756 4.63025C3.361 4.53398 3.42677 4.44137 3.49489 4.35225L4.86058 0.930496C4.77066 0.967319 4.68195 1.00539 4.59444 1.04474ZM5.16845 0.810969L4.13324 3.67302C4.19772 3.61722 4.26422 3.56282 4.33281 3.50983L5.4379 0.716441C5.34699 0.746848 5.25717 0.77835 5.16845 0.810969ZM5.72514 0.625094L4.79649 3.19253C4.86392 3.1517 4.93303 3.11193 5.00387 3.0732L5.99586 0.54714C5.90462 0.572157 5.81437 0.598135 5.72514 0.625094ZM6.26853 0.475963L5.40057 2.87562C5.47017 2.84409 5.54124 2.8134 5.61382 2.78357L6.53935 0.411989C6.44816 0.432462 6.35788 0.453781 6.26853 0.475963ZM6.80138 0.355989L5.97257 2.64741C6.04375 2.6225 6.11624 2.59831 6.19007 2.57485L7.07158 0.303877C6.98067 0.320494 6.8906 0.337859 6.80138 0.355989ZM7.26695 0.269533L7.29404 0.347132L6.52397 2.47616C6.5958 2.45645 6.66881 2.43735 6.74302 2.41887L7.5947 0.217772C7.48429 0.234029 7.37503 0.251274 7.26695 0.269533ZM7.73174 0.198183L7.78381 0.346248L7.06946 2.34319C7.1424 2.32748 7.21643 2.31231 7.29156 2.29768L8.11112 0.149831C7.9832 0.164741 7.85674 0.180846 7.73174 0.198183ZM8.20033 0.139654L8.27357 0.345408L7.60241 2.24129C7.67593 2.2289 7.75043 2.21698 7.82594 2.20555L8.62093 0.097347C8.47904 0.110102 8.33884 0.124189 8.20033 0.139654ZM8.67281 0.0927493L8.76362 0.343703L8.13321 2.16237C8.20744 2.15273 8.28259 2.14352 8.35867 2.13473L9.12548 0.0580005C8.97274 0.0681634 8.82185 0.079729 8.67281 0.0927493ZM9.14805 0.0565096L9.25307 0.343703L8.64278 2.10436C8.71667 2.09707 8.7914 2.09017 8.86699 2.08364L9.62528 0.0299854C9.46425 0.0373864 9.30518 0.046209 9.14805 0.0565096ZM9.62776 0.0298712L9.74253 0.343703L9.14709 2.0615C9.22065 2.05621 9.29499 2.05125 9.37011 2.04664L10.116 0.0265435L10.2326 0.341907L9.65993 2.03074C9.73391 2.02715 9.80863 2.02387 9.88408 2.02091L10.6049 0.028179L10.7227 0.340054L10.1685 2.01134C10.243 2.00924 10.3181 2.00743 10.3939 2.00592L11.0937 0.0298664L11.2128 0.338142L10.6737 2.00168C10.7486 2.0009 10.824 2.00039 10.9002 2.00015L11.5826 0.0316074L11.7028 0.33617L11.1761 2.00048C11.2526 2.00091 11.3285 2.0016 11.4037 2.00258L12.0714 0.0334036L12.1926 0.335161L11.6697 2.00726C11.7462 2.00896 11.8219 2.01096 11.8969 2.01327L12.5589 0.0391205C12.0584 0.0124574 11.5387 0 11 0C10.5279 0 10.0705 0.00956495 9.62776 0.0298712ZM12.5626 0.0393159L12.683 0.332039L12.1733 2.02323C12.2503 2.02643 12.3266 2.02997 12.4021 2.03383L13.0386 0.0695105C12.8819 0.0579428 12.7232 0.0478973 12.5626 0.0393159ZM13.0636 0.0713687L13.1731 0.329875L12.6679 2.04901C12.745 2.05388 12.8213 2.05911 12.8968 2.06471L13.5154 0.110067C13.3667 0.095683 13.2161 0.0828014 13.0636 0.0713687ZM13.5711 0.115526L13.6632 0.327645L13.1597 2.08597C13.2368 2.09273 13.313 2.09989 13.3883 2.10745L13.9894 0.161833C13.8517 0.144999 13.7122 0.129579 13.5711 0.115526ZM14.0858 0.173885L14.1533 0.325345L13.6486 2.13557C13.7255 2.14449 13.8014 2.15384 13.8764 2.16363L14.4604 0.225988C14.337 0.207383 14.2122 0.190028 14.0858 0.173885ZM14.6097 0.249216L14.6434 0.322976L14.1344 2.19959C14.2109 2.21096 14.2863 2.22281 14.3608 2.23514L14.9284 0.30387C14.8233 0.284661 14.7171 0.266451 14.6097 0.249216ZM15.1279 0.341821L14.6167 2.28019C14.6926 2.29436 14.7675 2.30908 14.8412 2.32433L15.3931 0.397015C15.3056 0.377854 15.2172 0.359462 15.1279 0.341821ZM15.5918 0.442179L15.0954 2.38002C15.1705 2.39744 15.2444 2.41546 15.3172 2.43408L15.8545 0.507195C15.7678 0.484693 15.6803 0.463026 15.5918 0.442179ZM16.0528 0.560601L15.5699 2.50246C15.644 2.52364 15.7168 2.54549 15.7883 2.56801L16.3123 0.636473C16.2267 0.610278 16.1402 0.584993 16.0528 0.560601ZM16.5106 0.69939L16.0399 2.65177C16.1125 2.67734 16.1838 2.70367 16.2538 2.73075L16.7664 0.78727C16.6821 0.756993 16.5969 0.727706 16.5106 0.69939ZM16.9652 0.86128L16.5045 2.83353C16.5754 2.86429 16.6448 2.89589 16.7128 2.92836L17.2164 0.962465C17.1337 0.927665 17.05 0.893944 16.9652 0.86128ZM17.4163 1.04956L16.9629 3.05517C17.0315 3.09209 17.0986 3.12999 17.164 3.16887L17.6622 1.16551C17.5813 1.12569 17.4993 1.08705 17.4163 1.04956ZM17.8635 1.26823L17.4137 3.32684C17.4795 3.3712 17.5435 3.41668 17.6059 3.46328L18.1033 1.4006C18.0245 1.35521 17.9446 1.31109 17.8635 1.26823ZM18.3067 1.52225L17.855 3.66289C17.9172 3.71633 17.9775 3.77107 18.036 3.8271L18.5392 1.67294C18.4629 1.62132 18.3854 1.5711 18.3067 1.52225ZM18.7452 1.81785L18.2841 4.08435C18.3411 4.14837 18.3967 4.21442 18.4508 4.28259L18.9693 1.98905C18.8959 1.93047 18.8212 1.87341 18.7452 1.81785ZM19.1785 2.16306L18.6968 4.62168C18.7479 4.69895 18.7976 4.77858 18.8457 4.86065L19.3927 2.35731C19.3227 2.29091 19.2513 2.22617 19.1785 2.16306ZM19.6057 2.56848L19.0873 5.32019C19.131 5.41315 19.1731 5.5088 19.2137 5.60723L19.8084 2.7888C19.7426 2.71392 19.675 2.64048 19.6057 2.56848ZM20.0254 3.04887L19.4455 6.25514C19.4865 6.38783 19.5252 6.5248 19.5617 6.66617L20.2451 3.34225C20.1744 3.2423 20.1012 3.14451 20.0254 3.04887ZM20.4431 3.6381L19.7392 7.48979C19.7628 7.62256 19.7848 7.75864 19.8052 7.8981L20.6219 3.93602C20.5644 3.83484 20.5048 3.73553 20.4431 3.6381ZM20.8228 4.31411L19.944 9.22598C19.9478 9.28094 19.9513 9.33633 19.9547 9.39215L20.9163 4.50908C20.8859 4.4434 20.8547 4.3784 20.8228 4.31411ZM21.1075 4.95482L19.9953 11.544C19.9934 11.647 19.9911 11.7486 19.9882 11.8491L21.2401 5.31095C21.1979 5.19025 21.1537 5.07154 21.1075 4.95482ZM21.4128 5.85342L20.3527 12.4095L21.4885 6.12898C21.4642 6.03611 21.439 5.94425 21.4128 5.85342ZM21.6354 6.75938L20.9541 11.3506L21.6779 6.97356C21.6642 6.90163 21.65 6.83023 21.6354 6.75938ZM21.7913 7.65722L20.9416 13.9819L21.8452 8.21719L21.8645 8.23762C21.8429 8.04075 21.8185 7.84728 21.7913 7.65722ZM21.9292 8.9439L21.0719 16.0542L21.8447 10.9265L21.9983 11.0764L21.4952 15.845C21.5275 15.7204 21.558 15.5939 21.5869 15.4657L21.844 13.6379L21.8749 13.6645C21.9615 12.8357 22 11.9473 22 11C22 10.2806 21.9778 9.5951 21.9292 8.9439ZM21.2346 16.7049L21.4306 14.8473L21.0944 17.0781C21.1434 16.9559 21.1901 16.8314 21.2346 16.7049ZM20.6674 17.9826L21.251 13.1421L20.4296 18.3832C20.5127 18.2531 20.5919 18.1195 20.6674 17.9826ZM20.1156 18.8346L21.0672 11.7516L19.8397 19.1753C19.9354 19.0648 20.0273 18.9513 20.1156 18.8346ZM19.5738 19.4644L21.0118 9.77337L19.1943 19.8232C19.3058 19.7258 19.4142 19.6246 19.5194 19.5194C19.5376 19.5012 19.5558 19.4828 19.5738 19.4644ZM18.9412 20.0333L20.7629 8.76711L19.9072 13.236C19.8116 14.2764 19.6422 15.1528 19.3986 15.892L18.5508 20.3192C18.6847 20.2282 18.8148 20.133 18.9412 20.0333ZM18.3073 20.4774L18.8811 17.0781C18.7686 17.2758 18.6476 17.4597 18.5181 17.6307L17.9125 20.7056C18.0473 20.6331 18.1789 20.557 18.3073 20.4774ZM17.6874 20.822L18.1888 18.0193C18.1613 18.0484 18.1334 18.077 18.1052 18.1052C18.0202 18.1902 17.9313 18.2723 17.8382 18.3515L17.2911 21.0057C17.426 20.9474 17.5581 20.8863 17.6874 20.822ZM17.0695 21.0978L17.527 18.5944C17.4412 18.6558 17.3523 18.7152 17.2603 18.7726L16.758 21.2157C16.8633 21.178 16.9672 21.1387 17.0695 21.0978ZM16.5441 21.2895L16.9688 18.9417C16.834 19.0144 16.693 19.0833 16.5455 19.1485L16.0627 21.4366C16.2265 21.3908 16.3869 21.3418 16.5441 21.2895ZM15.8567 21.4922L16.2772 19.2601C16.1422 19.3129 16.0022 19.3629 15.8569 19.4101L15.3769 21.6065C15.5397 21.5711 15.6997 21.533 15.8567 21.4922ZM15.1753 21.6487L15.5983 19.4894C15.4634 19.5284 15.3242 19.5653 15.1805 19.5998L14.6975 21.7364C14.8594 21.7095 15.0186 21.6803 15.1753 21.6487ZM14.5286 21.7636L14.5071 21.7283L14.9285 19.6573C14.7938 19.6862 14.6554 19.7134 14.5133 19.7387L14.0238 21.8339C14.1947 21.8127 14.363 21.7893 14.5286 21.7636ZM13.9261 21.8458L13.8551 21.7253L14.2655 19.7803C14.1313 19.8015 13.9939 19.8212 13.8532 19.8394L13.3551 21.9048C13.5486 21.8876 13.7389 21.868 13.9261 21.8458ZM13.3094 21.9088L13.2031 21.7223L13.6081 19.8691C13.4746 19.8842 13.3382 19.898 13.1989 19.9106L12.6909 21.9535C12.9005 21.9412 13.1066 21.9263 13.3094 21.9088ZM12.6807 21.9541L12.5512 21.7194L12.9555 19.9308C12.8228 19.9411 12.6875 19.9502 12.5496 19.9581L12.0343 21.9693L11.8992 21.7165L12.307 19.9708C12.1752 19.9771 12.0411 19.9823 11.9047 19.9865L11.3811 21.9718L11.2473 21.7138L11.6622 19.9929C11.5315 19.9958 11.3986 19.9978 11.2637 19.9989L10.7278 21.9742L10.5953 21.7111L11.0208 20C11.0139 20 11.0069 20 11 20C10.8736 20 10.749 19.9993 10.6263 19.9978L10.0745 21.9766L9.94337 21.7085L10.3827 19.9939C10.2506 19.9912 10.1206 19.9876 9.99277 19.9831L9.42666 21.9601C9.93161 21.9873 10.4561 22 11 22C11.5825 22 12.1428 21.9854 12.6807 21.9541ZM9.41197 21.9593L9.29142 21.706L9.74838 19.9734C9.61804 19.9675 9.48995 19.9607 9.36407 19.953L8.7869 21.9169C8.99181 21.9337 9.20017 21.9478 9.41197 21.9593ZM8.73634 21.9127L8.63946 21.7036L9.11884 19.9364C8.99061 19.927 8.86474 19.9166 8.74119 19.9051L8.15343 21.8551C8.3445 21.8769 8.53881 21.8961 8.73634 21.9127ZM8.05155 21.8431L7.98751 21.7012L8.49515 19.8805C8.36942 19.867 8.24619 19.8524 8.1254 19.8366L7.5274 21.7722C7.69928 21.7982 7.874 21.8218 8.05155 21.8431ZM7.35592 21.7452L7.33555 21.6989L7.87863 19.8023C7.75588 19.7842 7.63577 19.7648 7.51823 19.7442L6.91013 21.6656C7.05649 21.6942 7.20509 21.7207 7.35592 21.7452ZM6.70493 21.624L7.27088 19.6983C7.15168 19.6748 7.03526 19.65 6.92153 19.6239L6.30308 21.5326C6.43503 21.5649 6.56898 21.5954 6.70493 21.624ZM6.09631 21.4799L6.67391 19.5636C6.53583 19.5282 6.40196 19.4906 6.27215 19.4508L5.6361 21.3476C5.7866 21.3945 5.94001 21.4386 6.09631 21.4799ZM5.42707 21.2799L6.02421 19.3705C5.9373 19.3407 5.85233 19.31 5.76925 19.2781L5.12653 21.1735C5.22533 21.2104 5.32552 21.2458 5.42707 21.2799ZM4.91695 21.0924L5.52276 19.1782C5.41869 19.1336 5.3178 19.0872 5.21999 19.039L4.561 20.9401C4.6775 20.9931 4.79615 21.0439 4.91695 21.0924ZM4.3504 20.8407L4.97559 18.9112C4.87855 18.8574 4.78479 18.8017 4.69418 18.7439L4.01365 20.6654C4.12372 20.7262 4.23597 20.7846 4.3504 20.8407ZM3.80248 20.5442L4.45357 18.5805C4.36484 18.5163 4.27944 18.4499 4.19723 18.3813L3.48706 20.3447C3.59002 20.4137 3.69516 20.4802 3.80248 20.5442ZM3.276 20.1976L3.96291 18.1719C3.93993 18.1498 3.91723 18.1276 3.89481 18.1052C3.8406 18.051 3.78757 17.9952 3.7357 17.9377L2.98404 19.9734C3.07918 20.0507 3.1765 20.1254 3.276 20.1976ZM2.77402 19.7953L3.51113 17.6689C3.47355 17.6203 3.43667 17.5706 3.4005 17.5199L2.61425 19.6493C2.66675 19.6989 2.72001 19.7476 2.77402 19.7953ZM2.40637 19.444L3.18646 17.1935C3.15429 17.1401 3.12277 17.0856 3.09191 17.0301L2.25878 19.2864C2.30706 19.3397 2.35625 19.3922 2.40637 19.444ZM2.05377 19.0492L2.89114 16.6334C2.84124 16.525 2.79345 16.413 2.74775 16.2973L1.82234 18.7513C1.89679 18.8529 1.97391 18.9522 2.05377 19.0492ZM1.62825 18.4723L2.57291 15.8038C2.54284 15.709 2.51395 15.6119 2.48625 15.5125L1.45943 18.2035C1.51392 18.2947 1.57018 18.3843 1.62825 18.4723ZM1.28001 17.8857L2.34092 14.92C2.31752 14.8108 2.29533 14.6992 2.27434 14.5852L1.12006 17.5683C1.17133 17.676 1.22463 17.7818 1.28001 17.8857ZM0.962031 17.2154L2.16526 13.8888C2.15448 13.8068 2.14423 13.7237 2.1345 13.6394L0.852451 16.9422C0.887723 17.0345 0.924241 17.1256 0.962031 17.2154ZM0.712812 16.5512L2.05969 12.8275C2.05326 12.7366 2.04735 12.6445 2.04195 12.5512L0.609326 16.2222C0.642304 16.3334 0.676786 16.4431 0.712812 16.5512ZM0.49397 15.8031L2.00624 11.6221C2.00427 11.5262 2.00277 11.4293 2.00173 11.3312L0.400457 15.4088C0.429821 15.5422 0.460974 15.6736 0.49397 15.8031ZM0.309606 14.9596L2.00887 10.2616C2.01128 10.1643 2.01418 10.0682 2.01757 9.97333L0.230542 14.4905C0.25479 14.6493 0.281119 14.8056 0.309606 14.9596ZM0.16417 14.0085L2.10414 8.645C2.11319 8.55304 2.12284 8.4624 2.13308 8.37303L0.112463 13.4357L0.0989095 13.3964C0.117753 13.604 0.139459 13.8081 0.16417 14.0085ZM0.0622459 12.937L2.61479 5.87999L0.112138 12.0833L0.0092975 11.7831C0.0189729 12.1788 0.0363653 12.5635 0.0622459 12.937ZM0.00812625 11.7335L2.35587 5.24262L0.111733 10.7311L0.00506551 10.4176C0.00166015 10.6092 0 10.8033 0 11C0 11.2485 0.00265152 11.493 0.00812625 11.7335ZM0.00562149 10.3872L2.0969 4.60539L0.111211 9.37919L0.0527835 9.20599C0.0286768 9.58827 0.0132254 9.98202 0.00562149 10.3872ZM0.0796671 8.82927L1.83786 3.96839L0.180465 7.86326C0.13953 8.17627 0.106116 8.49828 0.0796671 8.82927ZM0.401609 6.58599L1.3271 4.02728C0.913598 4.77938 0.611879 5.63279 0.401609 6.58599ZM1.85584 3.20336L1.54054 4.07507L1.98026 3.04173C1.938 3.09494 1.89653 3.14881 1.85584 3.20336ZM19.8768 8.46158C19.8796 8.48706 19.8823 8.51264 19.885 8.53833L20.0429 7.65588L19.8768 8.46158ZM19.9885 10.1637C19.9914 10.2662 19.9938 10.3701 19.9956 10.4753L20.4063 8.04242L19.9885 10.1637Z" fill="url(#paint0_linear_816_12518)"/>
<defs>
<linearGradient id="paint0_linear_816_12518" x1="11" y1="0" x2="11" y2="22" gradientUnits="userSpaceOnUse">
<stop stop-color="#070C2B"/>
<stop offset="1"/>
</linearGradient>
</defs>
</svg>
