<svg width="80" height="78" viewBox="0 0 80 78" fill="none" xmlns="http://www.w3.org/2000/svg">
<path d="M2.67019 43.9442C2.78949 44.4719 2.96968 44.7319 3.27667 44.6796C4.27962 44.5498 3.17807 41.423 5.81408 41.1303C7.4487 40.9071 8.53271 41.8074 8.79597 43.7108C8.95706 44.6196 8.82325 45.5551 8.41357 46.3841L6.40712 45.8355C6.63921 45.6029 6.81277 45.32 6.91389 45.0093C7.01501 44.6986 7.04089 44.3689 6.98943 44.0464C6.85079 43.4331 6.64645 43.1335 6.26392 43.1873C5.2031 43.3298 6.55377 46.4171 3.71203 46.7399C3.36388 46.7889 3.00908 46.7648 2.67098 46.6689C2.33288 46.573 2.01918 46.4076 1.75052 46.1835C1.48186 45.9595 1.26435 45.6819 1.11233 45.3691C0.960304 45.0563 0.877215 44.7153 0.868529 44.3686C0.695221 43.4841 0.830591 42.5682 1.2526 41.7697L3.18829 42.274C2.98959 42.5019 2.84096 42.768 2.75179 43.0555C2.66262 43.3429 2.63485 43.6455 2.67019 43.9442Z" fill="url(#paint0_radial_5_959)"/>
<path d="M8.43379 37.1437C8.37708 38.9075 7.42966 40.3574 4.36257 40.2206C1.29549 40.0837 0.42181 38.838 0.486444 36.9078C0.554568 35.396 1.24514 34.4215 2.49234 34.1634L3.57697 36.0066C2.73312 36.1015 2.41026 36.4865 2.39772 36.9683C2.38518 37.4501 3.11689 37.9335 4.44147 38.0178C5.76606 38.102 6.51659 37.8629 6.54664 37.1228C6.55761 36.7013 6.27283 36.3145 5.43683 36.1083L6.64767 34.3463C7.22162 34.5459 7.71043 34.9309 8.03468 35.4387C8.35893 35.9466 8.49959 36.5474 8.43379 37.1437Z" fill="url(#paint1_radial_5_959)"/>
<path d="M1.46454 29.688C1.91328 27.6438 3.20197 26.8976 4.73246 27.2212C5.14843 27.2855 5.53961 27.4579 5.86579 27.7206C6.19197 27.9833 6.44138 28.3268 6.58843 28.7159C6.89872 28.6399 7.17975 28.4764 7.39714 28.2454C7.61452 28.0143 7.75884 27.7258 7.81244 27.415L9.69027 27.932C9.32327 29.5991 8.71105 29.9128 7.1282 30.6335L6.59309 30.8854L6.5001 31.28L8.81352 31.7764L8.36324 33.8808L0.979237 32.3091C1.09577 31.4278 1.25774 30.5529 1.46454 29.688ZM4.21472 29.4302C4.10727 29.3905 3.99207 29.3754 3.87789 29.3861C3.7637 29.3968 3.6535 29.433 3.55564 29.4919C3.45779 29.5509 3.37484 29.631 3.31309 29.7263C3.25133 29.8215 3.2124 29.9294 3.19923 30.0417C3.16907 30.204 3.15037 30.3681 3.14328 30.5329L4.82007 30.8993L4.9018 30.5222C4.95093 30.4063 4.97125 30.2804 4.96108 30.1551C4.95091 30.0299 4.91055 29.9088 4.84333 29.802C4.77611 29.6952 4.68399 29.6057 4.57465 29.541C4.46531 29.4763 4.34192 29.4383 4.21472 29.4302Z" fill="url(#paint2_radial_5_959)"/>
<path d="M3.80846 21.9895C4.49857 20.3415 6.08134 19.486 8.71021 20.572C11.3391 21.658 11.8385 23.33 11.1371 24.9954C10.4358 26.6609 8.88196 27.51 6.25308 26.424C3.6242 25.338 3.10711 23.6549 3.80846 21.9895ZM9.34436 24.2503C9.57867 23.6751 9.08643 23.1093 7.85159 22.6162C6.61676 22.1231 5.85002 22.1563 5.61572 22.7315C5.38141 23.3067 5.87688 23.8868 7.11172 24.3798C8.34656 24.8729 9.09558 24.8287 9.34113 24.236L9.34436 24.2503Z" fill="url(#paint3_radial_5_959)"/>
<path d="M12.0615 18.6707L13.4521 16.4951L15.033 17.6459L12.5473 21.5582L6.08916 17.5683L7.19709 15.7539L12.0615 18.6707Z" fill="url(#paint4_radial_5_959)"/>
<path d="M15.4141 14.1646L17.0974 12.2094L18.4871 13.5217L15.4546 17.0298L9.69835 12.1827L11.1183 10.5395L15.4141 14.1646Z" fill="url(#paint5_radial_5_959)"/>
<path d="M19.2238 4.1645C21.417 3.17089 22.8544 3.71153 23.9065 5.99098C24.9586 8.27043 24.4547 9.7024 22.2764 10.696C21.64 10.9826 20.9869 11.2315 20.3204 11.4412L17.3567 5.12888C17.9621 4.77644 18.5853 4.45455 19.2238 4.1645ZM19.9499 5.83027L21.4318 9.08873L21.6837 8.97181C22.4543 8.62113 22.5135 8.06588 21.9504 6.8677C21.3873 5.66953 20.9428 5.4065 20.1574 5.71335L19.9499 5.83027Z" fill="url(#paint6_radial_5_959)"/>
<path d="M26.6776 1.40264C28.3224 0.964283 29.8487 1.63642 30.5452 4.17889C31.2417 6.72135 30.234 8.03641 28.5892 8.46015C26.9443 8.8839 25.418 8.241 24.7215 5.69853C24.0251 3.15607 25.0327 1.841 26.6776 1.40264ZM28.1594 6.72134C28.7373 6.57522 28.8707 5.87389 28.5447 4.70494C28.2187 3.53599 27.7593 2.99534 27.1962 3.14146C26.6331 3.28757 26.4849 4.00353 26.8109 5.17248C27.1369 6.34143 27.5519 6.88208 28.115 6.69213L28.1594 6.72134Z" fill="url(#paint7_radial_5_959)"/>
<path d="M33.7454 4.4566C33.7454 5.24564 33.9825 5.50865 34.2937 5.49403C34.6049 5.47942 34.7531 5.2018 34.7086 4.39814L34.4715 0.263003L36.5313 0.160709L36.7536 4.29585C36.7536 5.08489 36.9907 5.34794 37.287 5.33332C37.5834 5.31871 37.7464 5.04109 37.7019 4.23743L37.4797 0.102249L39.5246 0L39.7469 3.81368C39.8654 6.09313 39.1838 7.14518 37.5686 7.23285C37.349 7.00395 37.0814 6.82514 36.7844 6.7089C36.4874 6.59265 36.1683 6.54178 35.8493 6.55987C35.5303 6.57796 35.2191 6.66458 34.9376 6.81364C34.6561 6.9627 34.4111 7.1706 34.2196 7.42281C32.6044 7.51048 31.8042 6.53147 31.6856 4.25202L31.4782 0.423712L33.5231 0.321463L33.7454 4.4566Z" fill="url(#paint8_radial_5_959)"/>
<path d="M44.8297 4.41274L45.4966 0.935102L47.26 1.25657L45.956 8.15337L43.9851 7.78807L43.0071 4.0036L42.3402 7.48124L40.5768 7.14515L41.8809 0.321429L43.8517 0.686725L44.8297 4.41274Z" fill="url(#paint9_radial_5_959)"/>
<path d="M53.1877 5.62564C52.758 5.40646 52.4616 5.45032 52.3431 5.69872C51.9578 6.47315 54.7733 7.1599 53.8249 9.2494C53.1877 10.506 52.0022 10.8275 50.4907 10.0969C49.7542 9.7651 49.1424 9.21295 48.7422 8.5188L50.0758 7.36445C50.1365 7.63928 50.2601 7.89676 50.4374 8.11712C50.6146 8.33748 50.8407 8.51487 51.0983 8.63568C51.5873 8.88408 51.9281 8.84025 52.0911 8.54801C52.4912 7.72975 49.5868 7.17451 50.6834 4.99734C50.8214 4.72492 51.0161 4.48433 51.255 4.29127C51.4938 4.09821 51.7712 3.95706 52.0692 3.87706C52.3672 3.79705 52.6789 3.77997 52.984 3.82698C53.2891 3.87399 53.5807 3.98405 53.8397 4.14987C54.5691 4.46114 55.1699 5.00717 55.5439 5.69872L54.2398 6.8092C54.1562 6.55128 54.0197 6.31313 53.8387 6.1095C53.6577 5.90588 53.4361 5.74115 53.1877 5.62564Z" fill="url(#paint10_radial_5_959)"/>
<path d="M55.248 13.019C54.0032 12.0985 53.4549 10.725 55.0405 8.63545C56.6261 6.54596 58.0042 6.54597 59.3527 7.55419C59.8346 7.81258 60.2026 8.23756 60.3859 8.74738C60.5692 9.2572 60.5548 9.81586 60.3455 10.3159L58.4784 10.1697C58.8192 9.52681 58.7007 9.11768 58.3599 8.85467C58.019 8.59165 57.3226 8.85465 56.6261 9.78981C55.9296 10.725 55.7073 11.324 56.226 11.704C56.7446 12.0839 56.9521 11.9231 57.5152 11.441L58.2117 13.1798C57.7749 13.4948 57.241 13.651 56.7007 13.6217C56.1604 13.5924 55.647 13.3794 55.248 13.019Z" fill="url(#paint11_radial_5_959)"/>
<path d="M64.0646 11.8357C64.3357 12.0407 64.5574 12.3025 64.7136 12.6022C64.8699 12.9019 64.9568 13.232 64.9681 13.5688C64.9795 13.9056 64.915 14.2406 64.7792 14.5499C64.6435 14.8591 64.4399 15.1348 64.1831 15.3571C63.9302 15.6176 63.612 15.8074 63.2607 15.9075C62.9093 16.0076 62.5374 16.0143 62.1826 15.927C62.0946 16.1744 62.0756 16.4406 62.1277 16.6977C62.1799 16.9548 62.3012 17.1933 62.479 17.3882L61.175 18.4403C60.1525 17.3298 60.2414 16.7599 60.523 15.2841L60.6119 14.7873L60.3748 14.5243L58.8929 15.8978L57.6185 14.5097L62.4494 10.1261C62.9976 10.7544 63.4867 11.222 64.0646 11.8357ZM62.8643 13.8814C62.944 13.8229 63.0087 13.7468 63.0533 13.6593C63.0979 13.5718 63.1211 13.4752 63.1211 13.3773C63.1211 13.2793 63.0979 13.1827 63.0533 13.0952C63.0087 13.0077 62.944 12.9316 62.8643 12.8732C62.7681 12.7682 62.6641 12.6705 62.5531 12.5809L61.4417 13.5745L61.664 13.8229C61.7238 13.9227 61.8078 14.0064 61.9085 14.0663C62.0092 14.1263 62.1233 14.1607 62.2408 14.1665C62.3583 14.1723 62.4753 14.1493 62.5815 14.0995C62.6878 14.0498 62.7798 13.9748 62.8495 13.8814H62.8643Z" fill="url(#paint12_radial_5_959)"/>
<path d="M68.3908 17.4175C69.2058 18.7472 69.0132 20.3399 66.9089 21.538C64.8047 22.7362 63.3377 22.2686 62.4634 20.9389C61.5891 19.6093 61.841 18.1042 63.9452 16.833C66.0495 15.5618 67.5758 16.0878 68.3908 17.4175ZM63.9452 20.0768C64.2268 20.5444 64.8936 20.4714 65.8568 19.8869C66.82 19.3024 67.2053 18.7472 66.9238 18.2942C66.6422 17.8412 65.9605 17.8997 64.9973 18.4842C64.0341 19.0686 63.6637 19.6093 63.96 20.0768H63.9452Z" fill="url(#paint13_radial_5_959)"/>
<path d="M66.4645 24.7671L67.2647 26.842L65.6791 27.3388L64.1973 23.6128L70.258 21.3041L70.9397 23.0429L66.4645 24.7671Z" fill="url(#paint14_radial_5_959)"/>
<path d="M67.8434 29.3553L68.3176 31.5324L66.6579 31.7809L65.8281 27.8648L72.2297 26.5352L72.615 28.3763L67.8434 29.3553Z" fill="url(#paint15_radial_5_959)"/>
<path d="M72.9856 35.916C72.9856 37.947 71.978 38.8383 69.8145 38.8383C67.651 38.8383 66.7026 37.8593 66.747 35.8283C66.7662 35.2369 66.8156 34.6468 66.8952 34.0603L72.9264 34.1918C72.979 34.7649 72.9988 35.3406 72.9856 35.916ZM71.4149 35.8283H68.303V35.916C68.303 36.6319 68.7031 36.8804 69.7848 36.895C70.8666 36.9096 71.3408 36.705 71.3556 35.9744L71.4149 35.8283Z" fill="url(#paint16_radial_5_959)"/>
<path d="M72.1554 42.7398C71.7998 44.1279 70.6736 44.99 68.4508 44.4347C66.228 43.8795 65.6501 42.6083 66.0058 41.2055C66.3614 39.8028 67.4876 38.9553 69.7104 39.5105C71.9332 40.0658 72.5111 41.3517 72.1554 42.7398ZM67.5172 41.5854C67.3987 42.0676 67.8729 42.4621 68.8806 42.7105C69.8882 42.9589 70.5254 42.8567 70.644 42.3599C70.7625 41.8631 70.2883 41.4832 69.2658 41.2348C68.2434 40.9864 67.6358 41.1032 67.5172 41.5854Z" fill="url(#paint17_radial_5_959)"/>
<path d="M66.806 46.6702C66.1984 46.3342 65.9169 46.3342 65.7983 46.568C65.6798 46.8018 65.7983 47.0356 66.4059 47.3716L69.5326 49.1251L68.6731 50.5863L65.5316 48.8328C64.924 48.4967 64.6425 48.5114 64.524 48.7305C64.4054 48.9497 64.5239 49.1981 65.1315 49.5342L68.2582 51.2876L67.3987 52.7488L64.5091 51.1415C62.7754 50.1625 62.316 49.1981 63.0273 47.9999C63.3024 47.9582 63.5646 47.8568 63.7952 47.703C64.0257 47.5493 64.2188 47.347 64.3605 47.1109C64.5023 46.8747 64.5891 46.6104 64.6148 46.3371C64.6405 46.0639 64.6044 45.7884 64.5091 45.5305C65.1908 44.347 66.2725 44.2301 68.0063 45.2091L70.97 46.8164L70.0957 48.2776L66.806 46.6702Z" fill="url(#paint18_radial_5_959)"/>
<path d="M61.6497 54.4145L63.828 56.5478L62.7463 57.6291L58.4045 53.4501L59.6047 52.2519L62.85 53.4501L60.6569 51.3022L61.7534 50.2355L66.036 54.4291L64.8209 55.6273L61.6497 54.4145Z" fill="url(#paint19_radial_5_959)"/>
<path d="M56.3883 59.7333C56.744 59.5434 56.8625 59.3242 56.7588 59.1343C56.4031 58.4913 54.5064 60.0256 53.5876 58.3306C53.0245 57.2785 53.3802 56.3142 54.6397 55.6566C55.2353 55.3157 55.9261 55.1723 56.6106 55.2475L56.744 56.7087C56.5262 56.6072 56.2883 56.5546 56.0475 56.5546C55.8066 56.5546 55.5688 56.6072 55.351 56.7087C54.9509 56.9279 54.8027 57.1763 54.9361 57.4247C55.3066 58.1114 57.1144 56.4164 58.0924 58.2283C58.2173 58.4554 58.2914 58.7063 58.3098 58.964C58.3283 59.2217 58.2906 59.4802 58.1994 59.7224C58.1082 59.9645 57.9655 60.1847 57.7809 60.368C57.5964 60.5514 57.3742 60.6936 57.1292 60.7854C56.5537 61.121 55.8801 61.2549 55.2177 61.1653L55.0843 59.7041C55.2876 59.7981 55.5086 59.8493 55.7332 59.8543C55.9577 59.8593 56.1808 59.8181 56.3883 59.7333Z" fill="url(#paint20_radial_5_959)"/>
<path d="M50.2687 57.4539C51.5283 57.074 52.7434 57.4539 53.4103 59.4996C54.0771 61.5452 53.4103 62.5242 52.0025 62.9479C51.5797 63.1433 51.0984 63.1767 50.652 63.0417C50.2056 62.9067 49.8261 62.6129 49.5871 62.2174L50.6244 61.0484C50.9059 61.5891 51.2468 61.7206 51.5876 61.6183C51.9284 61.516 52.0914 60.9023 51.8099 59.9817C51.5283 59.0612 51.2023 58.6082 50.6837 58.769C50.165 58.9297 50.1798 59.1489 50.2243 59.7626L48.7424 59.368C48.7349 58.9246 48.8825 58.4921 49.1605 58.1434C49.4385 57.7948 49.8299 57.5513 50.2687 57.4539Z" fill="url(#paint21_radial_5_959)"/>
<path d="M46.6971 63.9416C45.2153 64.0877 44.341 63.3717 44.2224 62.2466C44.1672 61.9438 44.196 61.632 44.3055 61.344C44.415 61.056 44.6014 60.8024 44.8448 60.6101C44.7236 60.4101 44.5446 60.2505 44.3307 60.1515C44.1169 60.0526 43.8779 60.0189 43.6445 60.0548V58.5936C44.9189 58.4767 45.2745 58.8274 46.1488 59.748L46.4452 60.0694H46.7416L46.5786 58.3598L48.1641 58.2137L48.7124 63.6494C48.0308 63.7809 47.4084 63.8685 46.6971 63.9416ZM45.9118 62.1005C45.9049 62.183 45.9179 62.2659 45.9497 62.3425C45.9815 62.4192 46.0312 62.4873 46.0948 62.5414C46.1583 62.5955 46.2339 62.634 46.3154 62.6539C46.3969 62.6738 46.482 62.6744 46.5637 62.6557C46.6867 62.671 46.8112 62.671 46.9342 62.6557L46.8008 61.4137H46.5193C46.0451 61.4284 45.8673 61.6621 45.9118 62.1005Z" fill="url(#paint22_radial_5_959)"/>
<path d="M40.6219 63.9709C39.2882 63.8102 38.3695 62.875 38.6214 60.8293C38.8733 58.7837 39.9995 58.0969 41.3332 58.2577C42.6668 58.4184 43.5708 59.3389 43.3189 61.3992C43.067 63.4595 41.9852 64.1316 40.6219 63.9709ZM41.1554 59.6604C40.696 59.6604 40.3848 60.0841 40.2662 61.0193C40.1477 61.9544 40.2662 62.4805 40.7997 62.5681C41.3332 62.6558 41.5555 62.1298 41.674 61.1946C41.7926 60.2595 41.6592 59.7188 41.1998 59.6604H41.1554Z" fill="url(#paint23_radial_5_959)"/>
<path d="M36.7834 58.7251L34.9904 58.0822L35.5535 56.7963L38.7691 57.9653L36.8575 63.094L35.3757 62.5388L36.7834 58.7251Z" fill="url(#paint24_radial_5_959)"/>
<path d="M33.213 56.9718L31.5978 55.9782L32.4128 54.8385L35.3765 56.6357L32.4128 61.2677L31.0495 60.4348L33.213 56.9718Z" fill="url(#paint25_radial_5_959)"/>
<path d="M26.2325 56.022C25.9596 55.801 25.7448 55.5182 25.6065 55.1978C25.4682 54.8774 25.4104 54.5288 25.438 54.1816C25.4657 53.8344 25.5779 53.499 25.7653 53.2037C25.9526 52.9085 26.2095 52.6623 26.514 52.4859C27.9959 51.2585 28.9887 51.3608 30.115 52.6321C30.453 52.995 30.7649 53.3807 31.0485 53.7864L27.2846 57.0741C26.9152 56.742 26.564 56.3909 26.2325 56.022ZM27.2402 55.1891L29.1814 53.4942L29.048 53.348C28.6331 52.9097 28.2478 52.9827 27.5662 53.611C26.8845 54.2393 26.7215 54.59 27.1216 55.0722L27.2402 55.1891Z" fill="url(#paint26_radial_5_959)"/>
<path d="M22.8397 51.4338C22.2618 50.3817 22.4693 49.2128 24.1437 48.3214C25.8182 47.4301 26.9148 47.8685 27.4927 48.9352C28.0706 50.0018 27.878 51.1415 26.2035 52.0329C24.529 52.9242 23.4028 52.4858 22.8397 51.4338ZM26.3517 49.5488C26.1442 49.1835 25.6256 49.1982 24.8698 49.6219C24.1141 50.0457 23.7881 50.4548 23.9807 50.8201C24.1734 51.1854 24.7068 51.1416 25.4626 50.7324C26.2183 50.3233 26.5443 49.9141 26.3369 49.5488H26.3517Z" fill="url(#paint27_radial_5_959)"/>
<path d="M23.9067 46.1442C24.4698 46.0127 24.6328 45.852 24.5883 45.6474C24.5439 45.4428 24.3216 45.3551 23.7437 45.4867L20.78 46.1296L20.454 44.6684L23.4177 44.0109C23.9808 43.894 24.1438 43.7187 24.0993 43.5141C24.0549 43.3095 23.8326 43.2364 23.2695 43.3533L20.3058 44.0109L19.9798 42.5497L22.6916 41.9506C24.3068 41.5853 25.1366 41.9506 25.3885 43.0465C25.4573 43.2667 25.4675 43.5005 25.4182 43.7257C25.3689 43.9508 25.2617 44.1598 25.107 44.3323C25.322 44.4173 25.5104 44.5565 25.6535 44.736C25.7966 44.9156 25.8892 45.1291 25.922 45.3552C26.1739 46.4803 25.5812 47.1378 23.9512 47.5031L21.2542 48.1022L20.9282 46.641L23.9067 46.1442Z" fill="url(#paint28_radial_5_959)"/>
<path d="M22.7211 38.4877L20.1724 38.3269L20.2465 37.0703L25.2699 37.3918L25.181 38.853L22.5433 39.8612L25.1069 40.0219L25.018 41.2931L19.9946 40.9717L20.0983 39.5105L22.7211 38.4877Z" fill="url(#paint29_radial_5_959)"/>
<path d="M23.551 32.0584C23.4029 32.3507 23.4325 32.5406 23.551 32.6283C24.0993 32.8913 24.6328 30.9772 26.0554 31.6785C26.2683 31.7649 26.4578 31.899 26.609 32.0701C26.7602 32.2413 26.8689 32.4449 26.9264 32.6647C26.9839 32.8845 26.9887 33.1145 26.9404 33.3365C26.8921 33.5584 26.7921 33.7662 26.6481 33.9434C26.4117 34.4462 26.0236 34.8646 25.5367 35.1415L24.7217 34.221C24.9161 34.1837 25.0991 34.1022 25.256 33.983C25.4129 33.8637 25.5395 33.7101 25.6256 33.5342C25.7886 33.1982 25.7738 32.9644 25.6256 32.8621C25.0477 32.5699 24.6476 34.5571 23.1213 33.8119C22.927 33.7218 22.7548 33.5912 22.6167 33.4291C22.4786 33.267 22.3779 33.0773 22.3215 32.873C22.2651 32.6687 22.2544 32.4547 22.2902 32.246C22.326 32.0372 22.4073 31.8386 22.5286 31.6639C22.7577 31.1685 23.1421 30.7588 23.6251 30.495L24.3957 31.3863C24.0381 31.4969 23.7363 31.7371 23.551 32.0584Z" fill="url(#paint30_radial_5_959)"/>
<path d="M28.7665 30.875C28.0848 31.6786 27.1068 32.0001 25.6991 30.875C24.2913 29.7499 24.3506 28.8001 25.0915 27.9526C25.2817 27.6249 25.5932 27.3826 25.9606 27.2764C26.328 27.1702 26.7228 27.2083 27.0624 27.3828L26.8994 28.6394C26.4548 28.391 26.1584 28.4494 25.9806 28.6394C25.8028 28.8293 25.9806 29.3407 26.5734 29.8375C27.1661 30.3343 27.6107 30.5243 27.8922 30.1882C28.1738 29.8521 28.07 29.706 27.7588 29.2969L28.9888 28.8878C29.1847 29.1951 29.2695 29.5587 29.2291 29.9196C29.1887 30.2804 29.0257 30.6172 28.7665 30.875Z" fill="url(#paint31_radial_5_959)"/>
<path d="M28.3228 24.8694C28.4856 24.7015 28.6841 24.5712 28.9039 24.4877C29.1238 24.4042 29.3596 24.3696 29.5946 24.3864C29.8295 24.4031 30.0579 24.4708 30.2632 24.5846C30.4686 24.6984 30.646 24.8555 30.7827 25.0447C30.953 25.244 31.0662 25.4845 31.1105 25.7415C31.1548 25.9984 31.1285 26.2623 31.0346 26.5059C31.2077 26.5956 31.4036 26.6338 31.5983 26.6156C31.793 26.5974 31.9782 26.5238 32.1311 26.4036L32.7683 27.368C31.9237 27.9817 31.5236 27.8794 30.5159 27.5872L30.1751 27.4849L29.9676 27.631L30.8123 28.7707L29.7602 29.5306L27.0632 25.9361C27.4621 25.5571 27.8827 25.201 28.3228 24.8694ZM29.6565 25.8338C29.6247 25.7741 29.5793 25.7225 29.524 25.6829C29.4687 25.6433 29.4049 25.6169 29.3375 25.6056C29.2702 25.5942 29.201 25.5984 29.1356 25.6177C29.0701 25.637 29.01 25.6709 28.96 25.7169C28.8797 25.7727 28.8052 25.8364 28.7377 25.9068L29.3453 26.7397L29.5379 26.5936C29.6068 26.5605 29.6665 26.5114 29.712 26.4506C29.7575 26.3898 29.7873 26.319 29.799 26.2443C29.8106 26.1696 29.8038 26.0932 29.7789 26.0217C29.7541 25.9502 29.7121 25.8857 29.6565 25.8338Z" fill="url(#paint32_radial_5_959)"/>
<path d="M32.6342 22.4291C33.6419 22.0346 34.6792 22.3268 35.3164 23.8903C35.9536 25.4538 35.4349 26.3743 34.4273 26.8127C33.4196 27.251 32.3823 26.9296 31.7451 25.3515C31.1079 23.7734 31.6266 22.8382 32.6342 22.4291ZM33.9827 25.7168C34.3384 25.5707 34.368 25.1177 34.0716 24.4017C33.7753 23.6857 33.4344 23.3643 33.0788 23.5104C32.7231 23.6565 32.6935 24.1095 32.9899 24.8255C33.2862 25.5415 33.6419 25.8629 33.9827 25.6876V25.7168Z" fill="url(#paint33_radial_5_959)"/>
<path d="M37.4359 24.6793L38.9178 24.4455L39.0363 25.5706L36.2652 25.9944L35.5688 21.6108L36.858 21.4063L37.4359 24.6793Z" fill="url(#paint34_radial_5_959)"/>
<path d="M40.621 24.4895L42.1769 24.5772L42.1028 25.6877L39.3021 25.527L39.5392 21.1434L40.8581 21.2165L40.621 24.4895Z" fill="url(#paint35_radial_5_959)"/>
<path d="M45.9117 22.7654C46.1853 22.8326 46.4384 22.9639 46.6494 23.1483C46.8604 23.3327 47.023 23.5647 47.1234 23.8245C47.2239 24.0843 47.2591 24.3641 47.2262 24.6403C47.1932 24.9164 47.093 25.1805 46.9341 25.4102C46.3414 26.7837 45.5412 27.0613 44.2816 26.5353C43.9159 26.3806 43.5596 26.205 43.2147 26.0093L44.7854 22.3563C45.1683 22.4719 45.5443 22.6085 45.9117 22.7654ZM45.4819 23.7006L44.6669 25.5855H44.8151C45.2596 25.7755 45.5116 25.5855 45.8079 24.8842C46.1043 24.1828 46.0747 23.8906 45.6301 23.7006H45.4819Z" fill="url(#paint36_radial_5_959)"/>
<path d="M49.9575 24.9864C50.7132 25.5855 50.9207 26.5206 49.9575 27.6896C48.9943 28.8585 48.0459 28.8586 47.2901 28.2595C46.5344 27.6604 46.3121 26.7983 47.2901 25.5709C48.2681 24.3435 49.2017 24.3873 49.9575 24.9864ZM48.0311 27.4558C48.2978 27.6604 48.6682 27.4558 49.098 26.9444C49.5277 26.433 49.6463 26.0092 49.3795 25.8047C49.1128 25.6001 48.7423 25.8047 48.2978 26.3161C47.8532 26.8275 47.6902 27.2512 48.0311 27.4558Z" fill="url(#paint37_radial_5_959)"/>
<path d="M50.7124 29.2092C50.3271 29.4576 50.2382 29.633 50.3419 29.7645C50.4457 29.896 50.6235 29.9106 51.0088 29.6622L53.0241 28.391L53.6613 29.3699L51.6311 30.6412C51.2459 30.8896 51.1718 31.0503 51.2607 31.1964C51.3496 31.3425 51.5423 31.3426 51.9275 31.0942L53.9577 29.8229L54.58 30.8019L52.7129 31.9708C51.6015 32.6722 50.8754 32.643 50.3716 31.8686C50.2634 31.7203 50.1946 31.5477 50.1713 31.3665C50.148 31.1854 50.171 31.0013 50.2382 30.8311C50.0536 30.8237 49.8743 30.7685 49.7182 30.671C49.5621 30.5735 49.4348 30.4373 49.3491 30.2759C48.8453 29.5015 49.112 28.8147 50.2382 28.1425L52.1053 26.959L52.7425 27.938L50.7124 29.2092Z" fill="url(#paint38_radial_5_959)"/>
<path d="M53.5426 34.5862L55.5283 34.1041L55.7802 35.083L51.8681 36.0328L51.5865 34.9369L53.3499 33.5488L51.3643 34.031L51.1124 33.0374L55.0244 32.0876L55.306 33.1835L53.5426 34.5862Z" fill="url(#paint39_radial_5_959)"/>
<path d="M54.4918 38.7507C54.4918 38.5023 54.4918 38.3708 54.2992 38.3562C53.8398 38.3562 53.9732 39.8173 52.8173 39.7004C52.0468 39.7004 51.6615 39.0867 51.7652 38.2393C51.7979 37.8082 51.9692 37.3987 52.2542 37.0703L53.0841 37.5379C52.9558 37.6203 52.8479 37.73 52.7684 37.859C52.6889 37.9879 52.6398 38.1329 52.6247 38.2831C52.6247 38.5753 52.6247 38.7361 52.847 38.7507C53.3508 38.7507 53.0989 37.2895 54.4177 37.4064C54.5886 37.421 54.7541 37.473 54.9022 37.5586C55.0502 37.6441 55.1771 37.7611 55.2735 37.901C55.37 38.0409 55.4337 38.2002 55.4599 38.3674C55.4862 38.5346 55.4744 38.7054 55.4254 38.8675C55.3969 39.2838 55.2302 39.6792 54.9512 39.9927L54.1362 39.5543C54.2498 39.4529 54.3403 39.3288 54.4016 39.1902C54.4629 39.0517 54.4937 38.9018 54.4918 38.7507Z" fill="url(#paint40_radial_5_959)"/>
<path d="M50.9949 40.8255C51.306 40.0656 51.9432 39.5981 53.2621 40.1095C54.5809 40.6209 54.7439 41.3223 54.4476 42.1552C54.3772 42.4375 54.2038 42.6845 53.9606 42.8489C53.7173 43.0133 53.4212 43.0836 53.1287 43.0465L52.9361 42.0821C53.3214 42.0821 53.5288 42.0821 53.6177 41.8337C53.7066 41.5853 53.4547 41.3077 52.8768 41.0885C52.2989 40.8693 51.9432 40.8255 51.8247 41.0885C51.7061 41.3515 51.8247 41.483 52.1359 41.7022L51.3209 42.3013C51.1096 42.1248 50.9631 41.8846 50.9042 41.6179C50.8453 41.3511 50.8771 41.0726 50.9949 40.8255Z" fill="url(#paint41_radial_5_959)"/>
<path d="M52.7434 45.1213C52.6574 45.2813 52.5366 45.4205 52.3897 45.529C52.2427 45.6375 52.0732 45.7126 51.8933 45.7489C51.7135 45.7852 51.5277 45.7818 51.3493 45.739C51.1709 45.6962 51.0043 45.615 50.8615 45.5013C50.6981 45.3932 50.5667 45.2442 50.4808 45.0697C50.3949 44.8951 50.3575 44.7011 50.3725 44.5077C50.2256 44.4815 50.0742 44.4963 49.9354 44.5506C49.7966 44.6048 49.676 44.6962 49.5871 44.8145L48.9055 44.23C49.4093 43.6017 49.7205 43.5871 50.5355 43.6017H50.8022L50.9208 43.441L50.0465 42.7835L50.6837 41.9944L53.4548 44.1131C53.2325 44.4638 53.025 44.756 52.7434 45.1213ZM51.5283 44.683C51.5617 44.7228 51.6036 44.7549 51.651 44.7769C51.6984 44.7989 51.7501 44.8103 51.8025 44.8103C51.8549 44.8103 51.9066 44.7989 51.954 44.7769C52.0014 44.7549 52.0432 44.7228 52.0766 44.683C52.1276 44.6244 52.1723 44.5607 52.21 44.493L51.5728 43.9962L51.4691 44.1424C51.4343 44.1805 51.4081 44.2255 51.3921 44.2743C51.3761 44.3231 51.3708 44.3747 51.3764 44.4257C51.382 44.4767 51.3984 44.526 51.4246 44.5703C51.4507 44.6146 51.4861 44.653 51.5283 44.683Z" fill="url(#paint42_radial_5_959)"/>
<path d="M50.0457 47.7662C49.364 48.263 48.5638 48.2192 47.7488 47.1672C46.9338 46.1151 47.1857 45.3115 47.8674 44.8147C48.549 44.3179 49.3492 44.3617 50.1642 45.4138C50.9792 46.4658 50.7273 47.2694 50.0457 47.7662ZM48.4008 45.5453C48.1637 45.7206 48.2378 46.0713 48.5935 46.5535C48.9491 47.0357 49.2751 47.211 49.5122 47.0356C49.7493 46.8603 49.6752 46.5097 49.3196 46.0275C48.9639 45.5453 48.6379 45.3699 48.4008 45.5453Z" fill="url(#paint43_radial_5_959)"/>
<path d="M46.1047 46.875L44.9785 47.3133L44.6969 46.4658L46.727 45.6914L48.0014 48.9352L47.0531 49.3005L46.1047 46.875Z" fill="url(#paint44_radial_5_959)"/>
<path d="M43.7334 47.4739L42.5331 47.6346V46.7579L44.6969 46.4658L45.156 49.9141L44.1483 50.0456L43.7334 47.4739Z" fill="url(#paint45_radial_5_959)"/>
<path d="M40.2215 49.505C39.2138 49.2858 38.873 48.7306 39.1101 47.6785C39.3472 46.6265 39.8955 46.2174 40.9031 46.495C41.1994 46.5604 41.4913 46.6433 41.7774 46.7434L41.1106 49.6658C40.811 49.6313 40.514 49.5776 40.2215 49.505ZM40.4141 48.7452L40.7549 47.284H40.6364C40.2808 47.211 40.1178 47.3863 39.9992 47.927C39.8807 48.4676 39.9992 48.7014 40.2956 48.7891L40.4141 48.7452Z" fill="url(#paint46_radial_5_959)"/>
<path d="M37.0656 48.3653C36.4284 48.0146 36.1616 47.3571 36.7247 46.3781C37.2878 45.3991 37.9991 45.2822 38.6363 45.6475C39.2735 46.0128 39.5402 46.6557 38.9771 47.6347C38.414 48.6137 37.6583 48.716 37.0656 48.3653ZM38.251 46.305C38.0287 46.1881 37.7768 46.305 37.5101 46.8165C37.2434 47.3279 37.2285 47.5763 37.5101 47.6932C37.7916 47.8101 37.9843 47.6932 38.251 47.1964C38.5178 46.6996 38.4733 46.4365 38.251 46.305Z" fill="url(#paint47_radial_5_959)"/>
<path d="M36.1762 45.3407C36.443 45.1215 36.4874 44.99 36.3985 44.8877C36.3096 44.7854 36.1763 44.8146 35.9095 45.0338L34.5314 46.1589L33.9683 45.5014L35.3464 44.3617C35.6131 44.1425 35.6576 44.011 35.5687 43.9087C35.4798 43.8064 35.3464 43.8357 35.0797 44.0548L33.7016 45.1946L33.1385 44.5224L34.4128 43.4704C35.1834 42.8421 35.7169 42.7982 36.1614 43.3242C36.1379 43.4574 36.1438 43.5939 36.1789 43.7245C36.214 43.8552 36.2774 43.9768 36.3647 44.0809C36.452 44.1851 36.5612 44.2693 36.6847 44.3279C36.8082 44.3864 36.9431 44.4179 37.0802 44.4201C37.5247 44.9462 37.3914 45.4576 36.6356 46.0859L35.3464 47.1379L34.7833 46.4804L36.1762 45.3407Z" fill="url(#paint48_radial_5_959)"/>
<path d="M33.7461 41.7607L32.2642 42.2575L32.0123 41.5415L34.8427 40.5625L35.139 41.3516L33.9239 42.5205L35.4057 42.0237L35.6577 42.7397L32.8125 43.7187L32.531 42.9296L33.7461 41.7607Z" fill="url(#paint49_radial_5_959)"/>
<path d="M32.9006 38.9699C32.9006 39.1453 32.9006 39.2476 33.0488 39.2476C33.3896 39.2476 33.2118 38.1663 34.1009 38.1955C34.6492 38.1955 34.9455 38.5754 34.9307 39.2184C34.9275 39.5295 34.8237 39.8315 34.6343 40.0804L34.0119 39.7882C34.1053 39.7283 34.1816 39.6458 34.2335 39.5486C34.2854 39.4514 34.3112 39.3427 34.3083 39.2329C34.3083 39.0284 34.3083 38.9115 34.1157 38.9115C33.76 38.9115 34.0268 39.9928 33.0784 39.9635C32.9591 39.9588 32.8421 39.9292 32.7353 39.8767C32.6284 39.8242 32.534 39.7499 32.4584 39.6587C32.3828 39.5676 32.3276 39.4617 32.2966 39.348C32.2655 39.2343 32.2592 39.1154 32.2782 38.9991C32.2832 38.6996 32.3815 38.4089 32.5597 38.1663L33.1673 38.4439C33.0876 38.508 33.0226 38.588 32.9766 38.6787C32.9306 38.7693 32.9047 38.8686 32.9006 38.9699Z" fill="url(#paint50_radial_5_959)"/>
<path d="M35.2282 37.4649C35.0503 38.0347 34.6058 38.4 33.6426 38.1078C32.6794 37.8156 32.4867 37.3188 32.6794 36.6466C32.7179 36.4429 32.8283 36.2593 32.991 36.1282C33.1538 35.9971 33.3584 35.9271 33.5685 35.9307L33.7611 36.6174C33.4796 36.6174 33.3462 36.6174 33.2869 36.8366C33.2277 37.0558 33.4351 37.2019 33.8649 37.3334C34.2946 37.4649 34.5465 37.4649 34.6206 37.2165C34.6947 36.9681 34.6206 36.9389 34.3539 36.7927L34.9021 36.3252C35.0838 36.447 35.2161 36.628 35.2757 36.8365C35.3353 37.045 35.3185 37.2674 35.2282 37.4649Z" fill="url(#paint51_radial_5_959)"/>
<path d="M33.6715 34.6739C33.7231 34.5548 33.8009 34.4484 33.8991 34.3624C33.9974 34.2764 34.1138 34.213 34.2399 34.1767C34.366 34.1403 34.4987 34.132 34.6285 34.1523C34.7583 34.1726 34.8819 34.221 34.9904 34.294C35.1125 34.3636 35.2139 34.4637 35.2841 34.5843C35.3544 34.7049 35.3911 34.8417 35.3905 34.9808C35.498 34.9953 35.6075 34.9782 35.7051 34.9313C35.8027 34.8845 35.884 34.8102 35.9388 34.7177L36.4574 35.0977C36.1462 35.5799 35.9091 35.6091 35.3312 35.6383H35.1386L35.0645 35.7552L35.7165 36.1789L35.3164 36.778L33.2122 35.4191C33.3604 35.1707 33.4937 34.9369 33.6715 34.6739ZM34.5607 34.9223C34.5318 34.8955 34.497 34.8757 34.459 34.8646C34.4209 34.8536 34.3808 34.8515 34.3418 34.8587C34.3028 34.8658 34.266 34.8819 34.2346 34.9056C34.2031 34.9294 34.1777 34.9601 34.1605 34.9954V35.1415L34.6348 35.4483L34.7088 35.346C34.7378 35.3113 34.7572 35.2698 34.7653 35.2256C34.7734 35.1814 34.7698 35.1358 34.7549 35.0933C34.7401 35.0508 34.7144 35.0128 34.6804 34.9828C34.6464 34.9529 34.6052 34.9321 34.5607 34.9223Z" fill="url(#paint52_radial_5_959)"/>
<path d="M35.4502 32.8914C35.9096 32.4969 36.5172 32.4823 37.1247 33.1983C37.7323 33.9143 37.6138 34.4987 37.1247 34.8786C36.6357 35.2586 36.0578 35.2732 35.4502 34.5572C34.8427 33.8412 34.9909 33.2713 35.4502 32.8914ZM36.7246 34.3526C36.8876 34.2211 36.8284 33.9727 36.5468 33.6513C36.2653 33.3298 36.0282 33.2129 35.8652 33.3444C35.7022 33.4759 35.7763 33.7243 36.0578 34.0604C36.3394 34.3965 36.5764 34.528 36.7246 34.4549V34.3526Z" fill="url(#paint53_radial_5_959)"/>
<path d="M38.1326 33.4465L38.918 33.0959L39.1551 33.6803L37.6732 34.3233L36.6359 32.073L37.3028 31.7662L38.1326 33.4465Z" fill="url(#paint54_radial_5_959)"/>
<path d="M39.5839 32.9936L40.4434 32.8329L40.5175 33.4612L39.0356 33.7388L38.5911 31.2986L39.3172 31.1671L39.5839 32.9936Z" fill="url(#paint55_radial_5_959)"/>
<path d="M41.5852 31.6054C42.2668 31.7077 42.5187 32.0584 42.4002 32.7598C42.2816 33.4611 41.926 33.7241 41.2443 33.6219L40.6664 33.4904L40.9924 31.5324L41.5852 31.6054ZM41.4814 32.1023L41.3184 33.1104H41.3925C41.6445 33.1104 41.7334 33.0228 41.8075 32.6575C41.8815 32.2922 41.8075 32.1461 41.5704 32.1023H41.4814Z" fill="url(#paint56_radial_5_959)"/>
<path d="M43.4672 32.1899C43.9118 32.3945 44.1192 32.8182 43.8081 33.505C43.4969 34.1917 43.0227 34.294 42.5781 34.0894C42.1336 33.8849 41.9261 33.4757 42.2373 32.789C42.5485 32.1022 43.0227 32 43.4672 32.1899ZM42.8004 33.6511C42.9486 33.7242 43.1116 33.6511 43.2598 33.2858C43.408 32.9205 43.408 32.7598 43.2598 32.6867C43.1116 32.6137 42.9486 32.7597 42.8004 33.0666C42.6522 33.3734 42.6374 33.5488 42.8004 33.6218V33.6511Z" fill="url(#paint57_radial_5_959)"/>
<path d="M43.882 34.0019C43.719 34.1772 43.7041 34.2649 43.7634 34.3234C43.8227 34.3818 43.9264 34.3234 44.0894 34.1919L44.9193 33.3298L45.3342 33.7389L44.5043 34.601C44.3413 34.7617 44.3265 34.8494 44.3858 34.9078C44.4451 34.9663 44.5488 34.9078 44.7118 34.7763L45.5417 33.9289L45.9566 34.3234L45.2008 35.1124C44.7266 35.5946 44.371 35.653 44.045 35.3462C44.0523 35.2554 44.039 35.1643 44.0061 35.0792C43.9733 34.9942 43.9216 34.9174 43.855 34.8545C43.7883 34.7916 43.7083 34.744 43.6207 34.7153C43.5331 34.6867 43.4401 34.6775 43.3485 34.6887C43.0077 34.3672 43.067 34.0165 43.5263 33.5343L44.2969 32.7453L44.7118 33.1544L43.882 34.0019Z" fill="url(#paint58_radial_5_959)"/>
<path d="M45.5566 35.9159L46.4754 35.4776L46.6976 35.9159L44.9046 36.7927L44.6527 36.2959L45.3492 35.4338L44.4452 35.8721L44.2081 35.4191L46.016 34.5424L46.2679 35.0538L45.5566 35.9159Z" fill="url(#paint59_radial_5_959)"/>
<defs>
<radialGradient id="paint0_radial_5_959" cx="0" cy="0" r="1" gradientUnits="userSpaceOnUse" gradientTransform="translate(40.0193 37.6) rotate(97.0902) scale(26.5971 30.1207)">
<stop stop-color="#1B4A5A" stop-opacity="0"/>
<stop offset="0.483398" stop-color="#040C0F"/>
</radialGradient>
<radialGradient id="paint1_radial_5_959" cx="0" cy="0" r="1" gradientUnits="userSpaceOnUse" gradientTransform="translate(40.0193 37.6) rotate(97.0902) scale(26.5971 30.1207)">
<stop stop-color="#1B4A5A" stop-opacity="0"/>
<stop offset="0.483398" stop-color="#040C0F"/>
</radialGradient>
<radialGradient id="paint2_radial_5_959" cx="0" cy="0" r="1" gradientUnits="userSpaceOnUse" gradientTransform="translate(40.0193 37.6) rotate(97.0902) scale(26.5971 30.1207)">
<stop stop-color="#1B4A5A" stop-opacity="0"/>
<stop offset="0.483398" stop-color="#040C0F"/>
</radialGradient>
<radialGradient id="paint3_radial_5_959" cx="0" cy="0" r="1" gradientUnits="userSpaceOnUse" gradientTransform="translate(40.0193 37.6) rotate(97.0902) scale(26.5971 30.1207)">
<stop stop-color="#1B4A5A" stop-opacity="0"/>
<stop offset="0.483398" stop-color="#040C0F"/>
</radialGradient>
<radialGradient id="paint4_radial_5_959" cx="0" cy="0" r="1" gradientUnits="userSpaceOnUse" gradientTransform="translate(40.0193 37.6) rotate(97.0902) scale(26.5971 30.1207)">
<stop stop-color="#1B4A5A" stop-opacity="0"/>
<stop offset="0.483398" stop-color="#040C0F"/>
</radialGradient>
<radialGradient id="paint5_radial_5_959" cx="0" cy="0" r="1" gradientUnits="userSpaceOnUse" gradientTransform="translate(40.0193 37.6) rotate(97.0902) scale(26.5971 30.1207)">
<stop stop-color="#1B4A5A" stop-opacity="0"/>
<stop offset="0.483398" stop-color="#040C0F"/>
</radialGradient>
<radialGradient id="paint6_radial_5_959" cx="0" cy="0" r="1" gradientUnits="userSpaceOnUse" gradientTransform="translate(40.0193 37.6) rotate(97.0902) scale(26.5971 30.1207)">
<stop stop-color="#1B4A5A" stop-opacity="0"/>
<stop offset="0.483398" stop-color="#040C0F"/>
</radialGradient>
<radialGradient id="paint7_radial_5_959" cx="0" cy="0" r="1" gradientUnits="userSpaceOnUse" gradientTransform="translate(40.0193 37.6) rotate(97.0902) scale(26.5971 30.1207)">
<stop stop-color="#1B4A5A" stop-opacity="0"/>
<stop offset="0.483398" stop-color="#040C0F"/>
</radialGradient>
<radialGradient id="paint8_radial_5_959" cx="0" cy="0" r="1" gradientUnits="userSpaceOnUse" gradientTransform="translate(40.0193 37.6) rotate(97.0902) scale(26.5971 30.1207)">
<stop stop-color="#1B4A5A" stop-opacity="0"/>
<stop offset="0.483398" stop-color="#040C0F"/>
</radialGradient>
<radialGradient id="paint9_radial_5_959" cx="0" cy="0" r="1" gradientUnits="userSpaceOnUse" gradientTransform="translate(40.0193 37.6) rotate(97.0902) scale(26.5971 30.1207)">
<stop stop-color="#1B4A5A" stop-opacity="0"/>
<stop offset="0.483398" stop-color="#040C0F"/>
</radialGradient>
<radialGradient id="paint10_radial_5_959" cx="0" cy="0" r="1" gradientUnits="userSpaceOnUse" gradientTransform="translate(40.0193 37.6) rotate(97.0902) scale(26.5971 30.1207)">
<stop stop-color="#1B4A5A" stop-opacity="0"/>
<stop offset="0.483398" stop-color="#040C0F"/>
</radialGradient>
<radialGradient id="paint11_radial_5_959" cx="0" cy="0" r="1" gradientUnits="userSpaceOnUse" gradientTransform="translate(40.0193 37.6) rotate(97.0902) scale(26.5971 30.1207)">
<stop stop-color="#1B4A5A" stop-opacity="0"/>
<stop offset="0.483398" stop-color="#040C0F"/>
</radialGradient>
<radialGradient id="paint12_radial_5_959" cx="0" cy="0" r="1" gradientUnits="userSpaceOnUse" gradientTransform="translate(40.0193 37.6) rotate(97.0902) scale(26.5971 30.1207)">
<stop stop-color="#1B4A5A" stop-opacity="0"/>
<stop offset="0.483398" stop-color="#040C0F"/>
</radialGradient>
<radialGradient id="paint13_radial_5_959" cx="0" cy="0" r="1" gradientUnits="userSpaceOnUse" gradientTransform="translate(40.0193 37.6) rotate(97.0902) scale(26.5971 30.1207)">
<stop stop-color="#1B4A5A" stop-opacity="0"/>
<stop offset="0.483398" stop-color="#040C0F"/>
</radialGradient>
<radialGradient id="paint14_radial_5_959" cx="0" cy="0" r="1" gradientUnits="userSpaceOnUse" gradientTransform="translate(40.0193 37.6) rotate(97.0902) scale(26.5971 30.1207)">
<stop stop-color="#1B4A5A" stop-opacity="0"/>
<stop offset="0.483398" stop-color="#040C0F"/>
</radialGradient>
<radialGradient id="paint15_radial_5_959" cx="0" cy="0" r="1" gradientUnits="userSpaceOnUse" gradientTransform="translate(40.0193 37.6) rotate(97.0902) scale(26.5971 30.1207)">
<stop stop-color="#1B4A5A" stop-opacity="0"/>
<stop offset="0.483398" stop-color="#040C0F"/>
</radialGradient>
<radialGradient id="paint16_radial_5_959" cx="0" cy="0" r="1" gradientUnits="userSpaceOnUse" gradientTransform="translate(40.0193 37.6) rotate(97.0902) scale(26.5971 30.1207)">
<stop stop-color="#1B4A5A" stop-opacity="0"/>
<stop offset="0.483398" stop-color="#040C0F"/>
</radialGradient>
<radialGradient id="paint17_radial_5_959" cx="0" cy="0" r="1" gradientUnits="userSpaceOnUse" gradientTransform="translate(40.0193 37.6) rotate(97.0902) scale(26.5971 30.1207)">
<stop stop-color="#1B4A5A" stop-opacity="0"/>
<stop offset="0.483398" stop-color="#040C0F"/>
</radialGradient>
<radialGradient id="paint18_radial_5_959" cx="0" cy="0" r="1" gradientUnits="userSpaceOnUse" gradientTransform="translate(40.0193 37.6) rotate(97.0902) scale(26.5971 30.1207)">
<stop stop-color="#1B4A5A" stop-opacity="0"/>
<stop offset="0.483398" stop-color="#040C0F"/>
</radialGradient>
<radialGradient id="paint19_radial_5_959" cx="0" cy="0" r="1" gradientUnits="userSpaceOnUse" gradientTransform="translate(40.0193 37.6) rotate(97.0902) scale(26.5971 30.1207)">
<stop stop-color="#1B4A5A" stop-opacity="0"/>
<stop offset="0.483398" stop-color="#040C0F"/>
</radialGradient>
<radialGradient id="paint20_radial_5_959" cx="0" cy="0" r="1" gradientUnits="userSpaceOnUse" gradientTransform="translate(40.0193 37.6) rotate(97.0902) scale(26.5971 30.1207)">
<stop stop-color="#1B4A5A" stop-opacity="0"/>
<stop offset="0.483398" stop-color="#040C0F"/>
</radialGradient>
<radialGradient id="paint21_radial_5_959" cx="0" cy="0" r="1" gradientUnits="userSpaceOnUse" gradientTransform="translate(40.0193 37.6) rotate(97.0902) scale(26.5971 30.1207)">
<stop stop-color="#1B4A5A" stop-opacity="0"/>
<stop offset="0.483398" stop-color="#040C0F"/>
</radialGradient>
<radialGradient id="paint22_radial_5_959" cx="0" cy="0" r="1" gradientUnits="userSpaceOnUse" gradientTransform="translate(40.0193 37.6) rotate(97.0902) scale(26.5971 30.1207)">
<stop stop-color="#1B4A5A" stop-opacity="0"/>
<stop offset="0.483398" stop-color="#040C0F"/>
</radialGradient>
<radialGradient id="paint23_radial_5_959" cx="0" cy="0" r="1" gradientUnits="userSpaceOnUse" gradientTransform="translate(40.0193 37.6) rotate(97.0902) scale(26.5971 30.1207)">
<stop stop-color="#1B4A5A" stop-opacity="0"/>
<stop offset="0.483398" stop-color="#040C0F"/>
</radialGradient>
<radialGradient id="paint24_radial_5_959" cx="0" cy="0" r="1" gradientUnits="userSpaceOnUse" gradientTransform="translate(40.0193 37.6) rotate(97.0902) scale(26.5971 30.1207)">
<stop stop-color="#1B4A5A" stop-opacity="0"/>
<stop offset="0.483398" stop-color="#040C0F"/>
</radialGradient>
<radialGradient id="paint25_radial_5_959" cx="0" cy="0" r="1" gradientUnits="userSpaceOnUse" gradientTransform="translate(40.0193 37.6) rotate(97.0902) scale(26.5971 30.1207)">
<stop stop-color="#1B4A5A" stop-opacity="0"/>
<stop offset="0.483398" stop-color="#040C0F"/>
</radialGradient>
<radialGradient id="paint26_radial_5_959" cx="0" cy="0" r="1" gradientUnits="userSpaceOnUse" gradientTransform="translate(40.0193 37.6) rotate(97.0902) scale(26.5971 30.1207)">
<stop stop-color="#1B4A5A" stop-opacity="0"/>
<stop offset="0.483398" stop-color="#040C0F"/>
</radialGradient>
<radialGradient id="paint27_radial_5_959" cx="0" cy="0" r="1" gradientUnits="userSpaceOnUse" gradientTransform="translate(40.0193 37.6) rotate(97.0902) scale(26.5971 30.1207)">
<stop stop-color="#1B4A5A" stop-opacity="0"/>
<stop offset="0.483398" stop-color="#040C0F"/>
</radialGradient>
<radialGradient id="paint28_radial_5_959" cx="0" cy="0" r="1" gradientUnits="userSpaceOnUse" gradientTransform="translate(40.0193 37.6) rotate(97.0902) scale(26.5971 30.1207)">
<stop stop-color="#1B4A5A" stop-opacity="0"/>
<stop offset="0.483398" stop-color="#040C0F"/>
</radialGradient>
<radialGradient id="paint29_radial_5_959" cx="0" cy="0" r="1" gradientUnits="userSpaceOnUse" gradientTransform="translate(40.0193 37.6) rotate(97.0902) scale(26.5971 30.1207)">
<stop stop-color="#1B4A5A" stop-opacity="0"/>
<stop offset="0.483398" stop-color="#040C0F"/>
</radialGradient>
<radialGradient id="paint30_radial_5_959" cx="0" cy="0" r="1" gradientUnits="userSpaceOnUse" gradientTransform="translate(40.0193 37.6) rotate(97.0902) scale(26.5971 30.1207)">
<stop stop-color="#1B4A5A" stop-opacity="0"/>
<stop offset="0.483398" stop-color="#040C0F"/>
</radialGradient>
<radialGradient id="paint31_radial_5_959" cx="0" cy="0" r="1" gradientUnits="userSpaceOnUse" gradientTransform="translate(40.0193 37.6) rotate(97.0902) scale(26.5971 30.1207)">
<stop stop-color="#1B4A5A" stop-opacity="0"/>
<stop offset="0.483398" stop-color="#040C0F"/>
</radialGradient>
<radialGradient id="paint32_radial_5_959" cx="0" cy="0" r="1" gradientUnits="userSpaceOnUse" gradientTransform="translate(40.0193 37.6) rotate(97.0902) scale(26.5971 30.1207)">
<stop stop-color="#1B4A5A" stop-opacity="0"/>
<stop offset="0.483398" stop-color="#040C0F"/>
</radialGradient>
<radialGradient id="paint33_radial_5_959" cx="0" cy="0" r="1" gradientUnits="userSpaceOnUse" gradientTransform="translate(40.0193 37.6) rotate(97.0902) scale(26.5971 30.1207)">
<stop stop-color="#1B4A5A" stop-opacity="0"/>
<stop offset="0.483398" stop-color="#040C0F"/>
</radialGradient>
<radialGradient id="paint34_radial_5_959" cx="0" cy="0" r="1" gradientUnits="userSpaceOnUse" gradientTransform="translate(40.0193 37.6) rotate(97.0902) scale(26.5971 30.1207)">
<stop stop-color="#1B4A5A" stop-opacity="0"/>
<stop offset="0.483398" stop-color="#040C0F"/>
</radialGradient>
<radialGradient id="paint35_radial_5_959" cx="0" cy="0" r="1" gradientUnits="userSpaceOnUse" gradientTransform="translate(40.0193 37.6) rotate(97.0902) scale(26.5971 30.1207)">
<stop stop-color="#1B4A5A" stop-opacity="0"/>
<stop offset="0.483398" stop-color="#040C0F"/>
</radialGradient>
<radialGradient id="paint36_radial_5_959" cx="0" cy="0" r="1" gradientUnits="userSpaceOnUse" gradientTransform="translate(40.0193 37.6) rotate(97.0902) scale(26.5971 30.1207)">
<stop stop-color="#1B4A5A" stop-opacity="0"/>
<stop offset="0.483398" stop-color="#040C0F"/>
</radialGradient>
<radialGradient id="paint37_radial_5_959" cx="0" cy="0" r="1" gradientUnits="userSpaceOnUse" gradientTransform="translate(40.0193 37.6) rotate(97.0902) scale(26.5971 30.1207)">
<stop stop-color="#1B4A5A" stop-opacity="0"/>
<stop offset="0.483398" stop-color="#040C0F"/>
</radialGradient>
<radialGradient id="paint38_radial_5_959" cx="0" cy="0" r="1" gradientUnits="userSpaceOnUse" gradientTransform="translate(40.0193 37.6) rotate(97.0902) scale(26.5971 30.1207)">
<stop stop-color="#1B4A5A" stop-opacity="0"/>
<stop offset="0.483398" stop-color="#040C0F"/>
</radialGradient>
<radialGradient id="paint39_radial_5_959" cx="0" cy="0" r="1" gradientUnits="userSpaceOnUse" gradientTransform="translate(40.0193 37.6) rotate(97.0902) scale(26.5971 30.1207)">
<stop stop-color="#1B4A5A" stop-opacity="0"/>
<stop offset="0.483398" stop-color="#040C0F"/>
</radialGradient>
<radialGradient id="paint40_radial_5_959" cx="0" cy="0" r="1" gradientUnits="userSpaceOnUse" gradientTransform="translate(40.0193 37.6) rotate(97.0902) scale(26.5971 30.1207)">
<stop stop-color="#1B4A5A" stop-opacity="0"/>
<stop offset="0.483398" stop-color="#040C0F"/>
</radialGradient>
<radialGradient id="paint41_radial_5_959" cx="0" cy="0" r="1" gradientUnits="userSpaceOnUse" gradientTransform="translate(40.0193 37.6) rotate(97.0902) scale(26.5971 30.1207)">
<stop stop-color="#1B4A5A" stop-opacity="0"/>
<stop offset="0.483398" stop-color="#040C0F"/>
</radialGradient>
<radialGradient id="paint42_radial_5_959" cx="0" cy="0" r="1" gradientUnits="userSpaceOnUse" gradientTransform="translate(40.0193 37.6) rotate(97.0902) scale(26.5971 30.1207)">
<stop stop-color="#1B4A5A" stop-opacity="0"/>
<stop offset="0.483398" stop-color="#040C0F"/>
</radialGradient>
<radialGradient id="paint43_radial_5_959" cx="0" cy="0" r="1" gradientUnits="userSpaceOnUse" gradientTransform="translate(40.0193 37.6) rotate(97.0902) scale(26.5971 30.1207)">
<stop stop-color="#1B4A5A" stop-opacity="0"/>
<stop offset="0.483398" stop-color="#040C0F"/>
</radialGradient>
<radialGradient id="paint44_radial_5_959" cx="0" cy="0" r="1" gradientUnits="userSpaceOnUse" gradientTransform="translate(40.0193 37.6) rotate(97.0902) scale(26.5971 30.1207)">
<stop stop-color="#1B4A5A" stop-opacity="0"/>
<stop offset="0.483398" stop-color="#040C0F"/>
</radialGradient>
<radialGradient id="paint45_radial_5_959" cx="0" cy="0" r="1" gradientUnits="userSpaceOnUse" gradientTransform="translate(40.0193 37.6) rotate(97.0902) scale(26.5971 30.1207)">
<stop stop-color="#1B4A5A" stop-opacity="0"/>
<stop offset="0.483398" stop-color="#040C0F"/>
</radialGradient>
<radialGradient id="paint46_radial_5_959" cx="0" cy="0" r="1" gradientUnits="userSpaceOnUse" gradientTransform="translate(40.0193 37.6) rotate(97.0902) scale(26.5971 30.1207)">
<stop stop-color="#1B4A5A" stop-opacity="0"/>
<stop offset="0.483398" stop-color="#040C0F"/>
</radialGradient>
<radialGradient id="paint47_radial_5_959" cx="0" cy="0" r="1" gradientUnits="userSpaceOnUse" gradientTransform="translate(40.0193 37.6) rotate(97.0902) scale(26.5971 30.1207)">
<stop stop-color="#1B4A5A" stop-opacity="0"/>
<stop offset="0.483398" stop-color="#040C0F"/>
</radialGradient>
<radialGradient id="paint48_radial_5_959" cx="0" cy="0" r="1" gradientUnits="userSpaceOnUse" gradientTransform="translate(40.0193 37.6) rotate(97.0902) scale(26.5971 30.1207)">
<stop stop-color="#1B4A5A" stop-opacity="0"/>
<stop offset="0.483398" stop-color="#040C0F"/>
</radialGradient>
<radialGradient id="paint49_radial_5_959" cx="0" cy="0" r="1" gradientUnits="userSpaceOnUse" gradientTransform="translate(40.0193 37.6) rotate(97.0902) scale(26.5971 30.1207)">
<stop stop-color="#1B4A5A" stop-opacity="0"/>
<stop offset="0.483398" stop-color="#040C0F"/>
</radialGradient>
<radialGradient id="paint50_radial_5_959" cx="0" cy="0" r="1" gradientUnits="userSpaceOnUse" gradientTransform="translate(40.0193 37.6) rotate(97.0902) scale(26.5971 30.1207)">
<stop stop-color="#1B4A5A" stop-opacity="0"/>
<stop offset="0.483398" stop-color="#040C0F"/>
</radialGradient>
<radialGradient id="paint51_radial_5_959" cx="0" cy="0" r="1" gradientUnits="userSpaceOnUse" gradientTransform="translate(40.0193 37.6) rotate(97.0902) scale(26.5971 30.1207)">
<stop stop-color="#1B4A5A" stop-opacity="0"/>
<stop offset="0.483398" stop-color="#040C0F"/>
</radialGradient>
<radialGradient id="paint52_radial_5_959" cx="0" cy="0" r="1" gradientUnits="userSpaceOnUse" gradientTransform="translate(40.0193 37.6) rotate(97.0902) scale(26.5971 30.1207)">
<stop stop-color="#1B4A5A" stop-opacity="0"/>
<stop offset="0.483398" stop-color="#040C0F"/>
</radialGradient>
<radialGradient id="paint53_radial_5_959" cx="0" cy="0" r="1" gradientUnits="userSpaceOnUse" gradientTransform="translate(40.0193 37.6) rotate(97.0902) scale(26.5971 30.1207)">
<stop stop-color="#1B4A5A" stop-opacity="0"/>
<stop offset="0.483398" stop-color="#040C0F"/>
</radialGradient>
<radialGradient id="paint54_radial_5_959" cx="0" cy="0" r="1" gradientUnits="userSpaceOnUse" gradientTransform="translate(40.0193 37.6) rotate(97.0902) scale(26.5971 30.1207)">
<stop stop-color="#1B4A5A" stop-opacity="0"/>
<stop offset="0.483398" stop-color="#040C0F"/>
</radialGradient>
<radialGradient id="paint55_radial_5_959" cx="0" cy="0" r="1" gradientUnits="userSpaceOnUse" gradientTransform="translate(40.0193 37.6) rotate(97.0902) scale(26.5971 30.1207)">
<stop stop-color="#1B4A5A" stop-opacity="0"/>
<stop offset="0.483398" stop-color="#040C0F"/>
</radialGradient>
<radialGradient id="paint56_radial_5_959" cx="0" cy="0" r="1" gradientUnits="userSpaceOnUse" gradientTransform="translate(40.0193 37.6) rotate(97.0902) scale(26.5971 30.1207)">
<stop stop-color="#1B4A5A" stop-opacity="0"/>
<stop offset="0.483398" stop-color="#040C0F"/>
</radialGradient>
<radialGradient id="paint57_radial_5_959" cx="0" cy="0" r="1" gradientUnits="userSpaceOnUse" gradientTransform="translate(40.0193 37.6) rotate(97.0902) scale(26.5971 30.1207)">
<stop stop-color="#1B4A5A" stop-opacity="0"/>
<stop offset="0.483398" stop-color="#040C0F"/>
</radialGradient>
<radialGradient id="paint58_radial_5_959" cx="0" cy="0" r="1" gradientUnits="userSpaceOnUse" gradientTransform="translate(40.0193 37.6) rotate(97.0902) scale(26.5971 30.1207)">
<stop stop-color="#1B4A5A" stop-opacity="0"/>
<stop offset="0.483398" stop-color="#040C0F"/>
</radialGradient>
<radialGradient id="paint59_radial_5_959" cx="0" cy="0" r="1" gradientUnits="userSpaceOnUse" gradientTransform="translate(40.0193 37.6) rotate(97.0902) scale(26.5971 30.1207)">
<stop stop-color="#1B4A5A" stop-opacity="0"/>
<stop offset="0.483398" stop-color="#040C0F"/>
</radialGradient>
</defs>
</svg>
