<svg width="64" height="32" viewBox="0 0 64 32" fill="none" xmlns="http://www.w3.org/2000/svg">
<mask id="mask0_38_2601" style="mask-type:alpha" maskUnits="userSpaceOnUse" x="0" y="0" width="64" height="32">
<rect x="1" y="1" width="62" height="30" rx="15" stroke="#040C0F" stroke-width="2"/>
</mask>
<g mask="url(#mask0_38_2601)">
<path fill-rule="evenodd" clip-rule="evenodd" d="M-1.63489 -2.25442L-3.39615 -0.390823L-3.73302 -1.04301L-1.33025 -4.85658L-0.952685 -4.25734L-1.44897 -3.46966L0.312297 -5.33325L0.649169 -4.68106L-1.21641 -1.72011L1.90521 -5.32337L2.25102 -4.68106L-0.464817 -0.370625L3.49915 -5.31387L3.85287 -4.68106L0.288132 0.976712L5.09623 -5.30778L5.45473 -4.68106L1.04178 2.32294L6.69489 -5.30354L7.05658 -4.68106L1.79584 3.66852L8.29447 -5.30044L8.65843 -4.68106L2.55016 5.01368L9.89461 -5.29806L10.2603 -4.68106L3.30465 6.35858L11.4951 -5.29618L11.8621 -4.68106L4.05926 7.70327L13.0959 -5.29467L13.464 -4.68106L4.81397 9.04782L14.6969 -5.29341L15.0658 -4.68106L5.56874 10.3923L16.298 -5.29236L16.6677 -4.68106L6.32356 11.7366L17.8993 -5.29146L18.2696 -4.68106L7.07843 13.0809L19.5006 -5.29069L19.8714 -4.68106L8.11566 13.9771L21.1022 -5.29023L21.4743 -4.68272L9.08563 15.1984L22.7027 -5.28821L23.0771 -4.6843L10.3399 15.9711L24.3034 -5.28649L24.6809 -4.68751L11.816 16.6188L25.9032 -5.28338L26.2828 -4.68751L13.4179 16.6188L27.5051 -5.28338L27.8846 -4.68751L15.0197 16.6188L29.1069 -5.28338L29.4885 -4.69088L16.7846 16.8163L30.7068 -5.28031L31.0924 -4.69436L18.5559 17.0117L32.3067 -5.27714L32.6963 -4.69795L20.3337 17.2048L33.9065 -5.27387L34.3002 -4.70166L22.1179 17.3956L35.5064 -5.27049L35.9031 -4.70356L23.8133 17.4901L37.1072 -5.26877L37.5081 -4.70942L25.7053 17.77L38.706 -5.26342L39.1121 -4.71349L27.5084 17.9533L40.3058 -5.25972L40.716 -4.71768L29.3176 18.1341L41.9056 -5.25589L42.32 -4.722L31.133 18.3122L43.5053 -5.25195L43.924 -4.72645L32.9544 18.4874L45.1051 -5.24789L45.528 -4.73104L34.7818 18.6597L46.7048 -5.2437L47.132 -4.73576L36.6151 18.8291L48.3045 -5.23938L48.736 -4.74063L38.4543 18.9955L49.9042 -5.23493L50.34 -4.74564L40.2992 19.1586L51.504 -5.23034L51.944 -4.7508L42.1498 19.3185L53.1037 -5.22561L53.5479 -4.75611L44.0059 19.4752L54.7034 -5.22074L55.1519 -4.76157L45.8676 19.6283L56.3031 -5.21573L56.7559 -4.76718L47.7347 19.7778L57.9028 -5.21057L58.3598 -4.77295L49.607 19.9238L59.5026 -5.20526L59.9637 -4.77887L51.4845 20.0661L61.1023 -5.1998L61.5676 -4.78495L53.3672 20.2043L62.702 -5.19419L63.1714 -4.79119L54.8417 21.6499L64.3024 -4.76635L64.7728 -4.36587L56.7596 20.8054L65.6374 -3.9193L66.1087 -3.52164L59.8613 16.5249L66.4358 -2.64092L66.9122 -2.25912L60.1899 20.6038L67.2353 -0.517916L67.715 -0.146721L62.6087 17.9816L67.4994 2.45695L67.9852 2.80728L64.5771 15.9921L67.4954 5.86012L67.9885 6.18383L64.5362 20.9357L67.4932 10.1051L67.9915 10.4076L64.9627 24.8291L67.4918 15.1954L67.9945 15.477L65.9723 26.4811L67.4894 20.2895L67.9981 20.5402L66.6793 29.4362L67.4903 26.218L68 26.4584L67.1991 32.8144L66.6755 32.6482L66.9061 30.8178L65.8503 35.0073L65.3425 34.7529L66.605 26.2372L64.2494 35.851L63.7443 35.5787L66.1364 22.5617L62.6451 35.8604L62.1454 35.5634L65.5489 19.3581L61.0418 35.8659L60.5466 35.5498L64.9472 16.7454L59.4378 35.8736L58.948 35.5366L64.7659 13.0288L57.565 35.8869L57.0824 35.5245L63.9514 11.1383L55.6933 35.8956L55.2154 35.5182L62.7841 9.77675L53.823 35.9L53.3492 35.5095L61.595 9.05052L51.9516 35.9072L51.4814 35.5063L59.3857 10.677L50.3499 35.9068L49.879 35.5079L58.9888 6.5909L48.2126 35.9109L47.7452 35.5017L57.1989 6.69312L46.0747 35.9165L45.6115 35.4956L55.4054 6.79824L43.9368 35.922L43.4777 35.4896L53.6079 6.90635L41.7989 35.9273L41.344 35.4839L51.8066 7.01709L39.6609 35.9324L39.2103 35.4783L50.0012 7.13049L37.523 35.9374L37.0766 35.4728L48.1917 7.24661L35.3851 35.9423L34.9429 35.4675L46.3781 7.36532L33.2471 35.947L32.8093 35.4623L44.5603 7.48638L31.1092 35.9516L30.6756 35.4573L42.7382 7.60984L28.9712 35.9561L28.5419 35.4525L40.9117 7.73572L26.8333 35.9604L26.4083 35.4477L39.0808 7.86384L24.6954 35.9646L24.2746 35.4432L37.2455 7.99414L22.5575 35.9687L22.1409 35.4387L35.4057 8.12655L20.4196 35.9726L20.0073 35.4344L33.5612 8.26106L18.2817 35.9764L17.8736 35.4302L31.7122 8.39757L16.1438 35.9801L15.7399 35.4261L30.6303 7.06605L13.738 35.9855L13.3402 35.4203L26.8244 10.6668L11.8681 35.9872L11.4724 35.4184L26.137 8.81849L9.73031 35.9906L9.3387 35.4147L24.2691 8.96245L7.59251 35.9938L7.20495 35.4111L22.3964 9.10808L5.45473 35.997L5.07118 35.4076L20.5188 9.2554L3.31697 36.0001L2.93739 35.4042L15.8023 14.0979L1.71511 36.0001L1.33554 35.4042L14.2005 14.0979L0.113261 36.0001L-0.266316 35.4042L15.5221 9.25608L-1.49061 35.1557L-1.86621 34.5535L12.733 10.8787L-2.55965 33.8863L-2.93314 33.2808L11.5225 10.0827L-3.09496 31.7696L-3.46605 31.1605L8.79297 11.7036L-3.62922 30.0752L-4 29.4655L7.94599 10.5055L-3.62974 27.5336L-4 26.9232L7.09896 9.30746L-3.63035 24.9921L-4 24.3808L6.25188 8.10952L-3.63107 22.4508L-4 21.8384L5.40473 6.91169L-3.63194 19.9096L-4 19.296L4.55749 5.71401L-3.633 17.3688L-4 16.7536L3.71013 4.51652L-3.63433 14.8283L-4 14.2113L2.8626 3.3193L-3.63604 12.2883L-4 11.6689L2.0148 2.1225L-3.63831 9.74899L-4 9.12651L1.16659 0.926352L-3.6415 7.21084L-4 6.58413L0.317691 -0.268691L-3.64628 4.67456L-4 4.04175L-0.532568 -1.46158L-3.65419 2.14168L-4 1.49937L-1.63489 -2.25442Z" fill="#89989D"/>
<rect x="32.333" width="32" height="32" rx="16" transform="rotate(90 32.333 0)" fill="#040C0F"/>
</g>
<mask id="mask1_38_2601" style="mask-type:alpha" maskUnits="userSpaceOnUse" x="8" y="7" width="19" height="18">
<path d="M21.7775 16C21.7775 18.4546 19.7876 20.4444 17.333 20.4444C14.8784 20.4444 12.8886 18.4546 12.8886 16C12.8886 13.5454 14.8784 11.5555 17.333 11.5555C19.7876 11.5555 21.7775 13.5454 21.7775 16Z" fill="#040C0F"/>
<path d="M17.3327 9.42993C17.5461 9.42993 17.7192 9.25688 17.7192 9.04344V7.49757C17.7192 7.28413 17.5461 7.11108 17.3327 7.11108C17.1193 7.11108 16.9462 7.28413 16.9462 7.49757V9.04348C16.9463 9.25688 17.1193 9.42993 17.3327 9.42993Z" fill="#040C0F"/>
<path d="M17.3327 22.57C17.1193 22.57 16.9462 22.7431 16.9462 22.9565V24.5024C16.9462 24.7158 17.1193 24.8889 17.3327 24.8889C17.5461 24.8889 17.7192 24.7158 17.7192 24.5024V22.9565C17.7192 22.743 17.5461 22.57 17.3327 22.57Z" fill="#040C0F"/>
<path d="M25.8355 15.6135H24.2897C24.0762 15.6135 23.9032 15.7865 23.9032 16C23.9032 16.2134 24.0762 16.3865 24.2897 16.3865H25.8355C26.049 16.3865 26.222 16.2134 26.222 16C26.222 15.7865 26.049 15.6135 25.8355 15.6135Z" fill="#040C0F"/>
<path d="M10.763 16C10.763 15.7865 10.59 15.6135 10.3765 15.6135H8.83069C8.61725 15.6135 8.44421 15.7865 8.44421 16C8.44421 16.2134 8.61725 16.3865 8.83069 16.3865H10.3766C10.59 16.3865 10.763 16.2134 10.763 16Z" fill="#040C0F"/>
<path d="M13.5207 10.1688C13.5898 10.2886 13.7178 10.3623 13.8561 10.362C13.924 10.3622 13.9907 10.3444 14.0493 10.3102C14.2342 10.2035 14.2975 9.96712 14.1908 9.78227L13.4179 8.44354C13.3099 8.25941 13.0732 8.19763 12.889 8.30557C12.7066 8.41249 12.644 8.64618 12.7485 8.82999L13.5207 10.1688Z" fill="#040C0F"/>
<path d="M21.146 21.8308C21.038 21.6467 20.8012 21.585 20.6171 21.6929C20.4348 21.7999 20.3721 22.0335 20.4766 22.2173L21.2495 23.556C21.3187 23.6759 21.4466 23.7496 21.585 23.7493C21.6529 23.7495 21.7196 23.7317 21.7782 23.6975C21.9631 23.5908 22.0264 23.3544 21.9197 23.1696L21.146 21.8308Z" fill="#040C0F"/>
<path d="M23.3578 12.9084C23.4256 12.9086 23.4924 12.8908 23.551 12.8566L24.8897 12.0837C25.0788 11.9847 25.1519 11.7512 25.053 11.5621C24.954 11.3729 24.7205 11.2998 24.5314 11.3988C24.5218 11.4038 24.5124 11.4092 24.5032 11.4151L23.1645 12.188C22.9797 12.2947 22.9164 12.5311 23.0231 12.7159C23.0921 12.8355 23.2197 12.9084 23.3578 12.9084Z" fill="#040C0F"/>
<path d="M11.1153 19.1434L9.77655 19.9163C9.5917 20.0231 9.5284 20.2594 9.6351 20.4443C9.70412 20.5638 9.83169 20.6375 9.96977 20.6375C10.0376 20.6377 10.1044 20.6199 10.163 20.5857L11.5017 19.8128C11.6908 19.7138 11.7639 19.4803 11.665 19.2912C11.566 19.1021 11.3325 19.0289 11.1434 19.1279C11.1338 19.1329 11.1244 19.1376 11.1153 19.1434Z" fill="#040C0F"/>
<path d="M9.77643 12.0834L11.1151 12.8563C11.1736 12.8903 11.24 12.9082 11.3076 12.9081C11.521 12.9081 11.694 12.735 11.694 12.5216C11.694 12.3835 11.6204 12.256 11.5008 12.1869L10.1621 11.414C9.98197 11.2995 9.74313 11.3527 9.62864 11.5328C9.51415 11.7129 9.56734 11.9518 9.74744 12.0663C9.75661 12.0721 9.76679 12.0783 9.77643 12.0834Z" fill="#040C0F"/>
<path d="M24.8888 19.9164L23.5501 19.1434C23.3699 19.0289 23.1311 19.0821 23.0166 19.2622C22.9021 19.4424 22.9553 19.6812 23.1354 19.7957C23.1446 19.8016 23.154 19.807 23.1636 19.812L24.5023 20.585C24.561 20.6191 24.6277 20.637 24.6955 20.6367C24.909 20.6367 25.082 20.4637 25.082 20.2502C25.082 20.1122 25.0083 19.9854 24.8888 19.9164Z" fill="#040C0F"/>
<path d="M20.6174 10.3105C20.6761 10.3446 20.7428 10.3625 20.8106 10.3623C20.949 10.3625 21.0769 10.2888 21.1461 10.169L21.919 8.83029C22.0245 8.64475 21.9596 8.40881 21.774 8.30334C21.5902 8.19888 21.3566 8.26145 21.2497 8.44384L20.4767 9.78258C20.3699 9.96718 20.4329 10.2035 20.6174 10.3105Z" fill="#040C0F"/>
<path d="M14.0479 21.6899C13.8631 21.5832 13.6267 21.6465 13.52 21.8313L12.7471 23.1701C12.6404 23.3549 12.7037 23.5913 12.8885 23.698C12.9472 23.7322 13.0139 23.75 13.0817 23.7498C13.2201 23.7501 13.348 23.6763 13.4172 23.5566L14.1901 22.2178C14.2966 22.0328 14.2329 21.7964 14.0479 21.6899V21.6899Z" fill="#040C0F"/>
</mask>
<g mask="url(#mask1_38_2601)">
<path fill-rule="evenodd" clip-rule="evenodd" d="M8.19804 7.67882L7.71967 8.56052L7.62818 8.25196L8.28078 6.44769L8.38333 6.7312L8.24854 7.10387L8.7269 6.22217L8.8184 6.53073L8.3117 7.93161L9.15955 6.22684L9.25347 6.53073L8.51584 8.57008L9.59247 6.23134L9.68854 6.53073L8.72034 9.20753L10.0262 6.23422L10.1236 6.53073L8.92504 9.84445L10.4604 6.23622L10.5587 6.53073L9.12984 10.4811L10.8949 6.23769L10.9938 6.53073L9.33472 11.1175L11.3295 6.23882L11.4288 6.53073L9.53964 11.7538L11.7642 6.23971L11.8639 6.53073L9.7446 12.39L12.199 6.24042L12.299 6.53073L9.94958 13.0261L12.6338 6.24102L12.734 6.53073L10.1546 13.6622L13.0687 6.24151L13.1691 6.53073L10.3596 14.2982L13.5036 6.24194L13.6042 6.53073L10.5646 14.9342L13.9385 6.2423L14.0393 6.53073L10.8463 15.3582L14.3735 6.24252L14.4746 6.52994L11.1098 15.9361L14.8082 6.24348L14.9099 6.5292L11.4504 16.3017L15.243 6.24429L15.3455 6.52768L11.8514 16.6081L15.6775 6.24576L15.7806 6.52768L12.2864 16.6081L16.1126 6.24576L16.2157 6.52768L12.7215 16.6081L16.5477 6.24576L16.6513 6.52609L13.2009 16.7015L16.9822 6.24722L17.0869 6.52444L13.682 16.794L17.4167 6.24872L17.5226 6.52274L14.1648 16.8853L17.8513 6.25026L17.9582 6.52099L14.6494 16.9756L18.2858 6.25186L18.3935 6.52009L15.1099 17.0203L18.7206 6.25268L18.8295 6.51731L15.6238 17.1527L19.1548 6.25521L19.2651 6.51539L16.1135 17.2395L19.5893 6.25696L19.7008 6.51341L16.6049 17.325L20.0238 6.25877L20.1364 6.51136L17.0979 17.4093L20.4583 6.26063L20.5721 6.50926L17.5927 17.4921L20.8928 6.26256L21.0077 6.50709L18.089 17.5737L21.3273 6.26454L21.4434 6.50485L18.5869 17.6538L21.7618 6.26658L21.879 6.50255L19.0865 17.7325L22.1963 6.26869L22.3147 6.50018L19.5876 17.8097L22.6308 6.27086L22.7503 6.49774L20.0902 17.8854L23.0653 6.2731L23.186 6.49522L20.5943 17.9595L23.4998 6.2754L23.6216 6.49264L21.0999 18.0319L23.9343 6.27777L24.0573 6.48999L21.6071 18.1027L24.3688 6.28021L24.4929 6.48726L22.1156 18.1717L24.8033 6.28272L24.9285 6.48446L22.6255 18.2391L25.2378 6.2853L25.3641 6.48158L23.1369 18.3045L25.6723 6.28796L25.7998 6.47863L23.5374 18.9884L26.1069 6.49038L26.2347 6.67985L24.0583 18.5889L26.4695 6.89113L26.5975 7.07928L24.9007 16.5637L26.6864 7.49596L26.8158 7.6766L24.99 18.4935L26.9035 8.50039L27.0338 8.67601L25.6469 17.2529L26.9753 9.90786L27.1072 10.0736L26.1815 16.3116L26.9742 11.518L27.1081 11.6711L26.1704 18.6505L26.9736 13.5263L27.1089 13.6694L26.2863 20.4925L26.9732 15.9346L27.1097 16.0679L26.5605 21.2741L26.9725 18.3448L27.1107 18.4634L26.7525 22.6722L26.9728 21.1496L27.1112 21.2634L26.8937 24.2705L26.7515 24.1919L26.8141 23.3259L26.5273 25.308L26.3894 25.1876L26.7323 21.1587L26.0925 25.7072L25.9553 25.5784L26.605 19.4198L25.6568 25.7116L25.5211 25.5711L26.4455 17.9041L25.2213 25.7142L25.0868 25.5647L26.2821 16.668L24.7857 25.7179L24.6526 25.5584L26.2328 14.9096L24.277 25.7242L24.146 25.5527L26.0116 14.0152L23.7687 25.7283L23.6389 25.5497L25.6946 13.371L23.2607 25.7304L23.132 25.5456L25.3716 13.0274L22.7524 25.7338L22.6247 25.5441L24.7715 13.7969L22.3174 25.7336L22.1895 25.5449L24.6637 11.8637L21.7369 25.7355L21.6099 25.5419L24.1776 11.9121L21.1562 25.7382L21.0304 25.539L23.6905 11.9618L20.5755 25.7408L20.4508 25.5362L23.2023 12.0129L19.9949 25.7433L19.8713 25.5335L22.713 12.0653L19.4142 25.7457L19.2918 25.5308L22.2227 12.119L18.8335 25.7481L18.7123 25.5283L21.7312 12.1739L18.2528 25.7504L18.1328 25.5257L21.2386 12.2301L17.6722 25.7526L17.5532 25.5233L20.7449 12.2874L17.0915 25.7548L16.9737 25.5209L20.25 12.3458L16.5108 25.7569L16.3942 25.5186L19.7539 12.4053L15.9301 25.7589L15.8147 25.5164L19.2566 12.466L15.3495 25.7609L15.2352 25.5142L18.7581 12.5276L14.7688 25.7629L14.6557 25.5121L18.2584 12.5902L14.1881 25.7647L14.0762 25.5101L17.7575 12.6539L13.6075 25.7665L13.4966 25.5081L17.2553 12.7185L13.0268 25.7683L12.9171 25.5062L16.9614 12.0885L12.3734 25.7708L12.2654 25.5034L15.9277 13.7921L11.8655 25.7716L11.7581 25.5025L15.741 12.9176L11.2849 25.7732L11.1785 25.5007L15.2337 12.9857L10.7042 25.7748L10.599 25.499L14.7251 13.0546L10.1236 25.7763L10.0194 25.4974L14.2151 13.1243L9.54299 25.7777L9.43989 25.4958L12.9341 15.4154L9.10792 25.7777L9.00482 25.4958L12.499 15.4154L8.67285 25.7777L8.56975 25.4958L12.858 13.1246L8.23723 25.3782L8.13521 25.0933L12.1004 13.8924L7.94687 24.7776L7.84543 24.4912L11.7716 13.5157L7.80148 23.7762L7.70069 23.488L11.0303 14.2826L7.65637 22.9745L7.55566 22.6861L10.8003 13.7158L7.65623 21.7721L7.55566 21.4833L10.5702 13.149L7.65606 20.5696L7.55566 20.2804L10.3401 12.5822L7.65587 19.3673L7.55566 19.0776L10.11 12.0155L7.65563 18.165L7.55566 17.8747L9.87992 11.4488L7.65534 16.9629L7.55566 16.6719L9.64977 10.8823L7.65498 15.7609L7.55566 15.469L9.41958 10.3158L7.65452 14.5592L7.55566 14.2662L9.18931 9.74962L7.6539 13.3579L7.55566 13.0633L8.95894 9.1837L7.65303 12.157L7.55566 11.8605L8.72837 8.6183L7.65174 10.957L7.55566 10.6577L8.49744 8.05392L7.64959 9.75869L7.55566 9.45481L8.19804 7.67882Z" fill="#040C0F"/>
</g>
<mask id="mask2_38_2601" style="mask-type:alpha" maskUnits="userSpaceOnUse" x="41" y="9" width="12" height="14">
<path d="M41.0667 20.3617C41.7732 21.0458 42.6319 21.5647 43.5771 21.8786C44.5223 22.1925 45.5291 22.2933 46.5207 22.1731C47.5122 22.0529 48.4623 21.715 49.2985 21.1852C50.1346 20.6554 50.8347 19.9477 51.3453 19.116C51.856 18.2843 52.1637 17.3507 52.2449 16.3864C52.3262 15.422 52.1789 14.4525 51.8142 13.5517C51.4495 12.6508 50.8772 11.8426 50.1408 11.1886C49.4044 10.5345 48.5234 10.052 47.5651 9.77783L47.6232 9.93669C49.3423 14.6381 46.1697 19.6827 41.0667 20.3617Z" fill="white"/>
</mask>
<g mask="url(#mask2_38_2601)">
<path fill-rule="evenodd" clip-rule="evenodd" d="M40.6362 10.2019L40.3073 10.7888L40.2444 10.5834L40.6931 9.3823L40.7636 9.57104L40.6709 9.81911L40.9998 9.23218L41.0627 9.43758L40.7144 10.3701L41.2973 9.23529L41.3619 9.43758L40.8547 10.7952L41.5949 9.23828L41.661 9.43758L40.9953 11.2195L41.8932 9.2402L41.9601 9.43758L41.1361 11.6435L42.1917 9.24153L42.2592 9.43758L41.2769 12.0673L42.4904 9.24251L42.5583 9.43758L41.4177 12.4909L42.7892 9.24326L42.8575 9.43758L41.5586 12.9145L43.0881 9.24385L43.1566 9.43758L41.6995 13.338L43.387 9.24433L43.4557 9.43758L41.8405 13.7615L43.6859 9.24473L43.7548 9.43758L41.9814 14.1849L43.9849 9.24506L44.054 9.43758L42.1223 14.6083L44.2839 9.24534L44.3531 9.43758L42.2633 15.0317L44.583 9.24558L44.6522 9.43758L42.457 15.3139L44.882 9.24573L44.9515 9.43706L42.6381 15.6986L45.1809 9.24636L45.2508 9.43656L42.8723 15.942L45.4798 9.24691L45.5503 9.43555L43.148 16.146L45.7785 9.24788L45.8494 9.43555L43.4471 16.146L46.0777 9.24788L46.1486 9.43555L43.7462 16.146L46.3768 9.24788L46.448 9.43449L44.0758 16.2082L46.6755 9.24885L46.7475 9.4334L44.4066 16.2697L46.9743 9.24985L47.0471 9.43226L44.7385 16.3305L47.273 9.25088L47.3466 9.4311L45.0717 16.3906L47.5718 9.25194L47.6459 9.4305L45.3883 16.4204L47.8707 9.25249L47.9456 9.42865L45.7416 16.5085L48.1693 9.25417L48.2451 9.42737L46.0783 16.5663L48.468 9.25534L48.5446 9.42605L46.4161 16.6232L48.7667 9.25654L48.8441 9.42469L46.7551 16.6793L49.0655 9.25778L49.1437 9.42329L47.0953 16.7344L49.3642 9.25906L49.4432 9.42184L47.4365 16.7887L49.6629 9.26038L49.7427 9.42036L47.7788 16.8421L49.9617 9.26174L50.0422 9.41882L48.1223 16.8945L50.2604 9.26315L50.3417 9.41724L48.4668 16.9458L50.5591 9.26459L50.6413 9.41562L48.8124 16.9962L50.8578 9.26608L50.9408 9.41395L49.159 17.0456L51.1565 9.26761L51.2403 9.41223L49.5066 17.0938L51.4553 9.26919L51.5398 9.41046L49.8552 17.1409L51.754 9.27082L51.8393 9.40864L50.2049 17.1869L52.0527 9.27249L52.1388 9.40678L50.5555 17.2317L52.3514 9.27421L52.4383 9.40486L50.907 17.2752L52.6502 9.27597L52.7378 9.4029L51.1824 17.7305L52.949 9.41072L53.0368 9.53685L51.5405 17.4645L53.1983 9.6775L53.2863 9.80274L52.1197 16.1164L53.3474 10.0801L53.4364 10.2004L52.1811 17.401L53.4967 10.7488L53.5863 10.8657L52.6327 16.5752L53.546 11.6857L53.6367 11.796L53.0003 15.9486L53.5453 12.7575L53.6373 12.8595L52.9927 17.5056L53.5449 14.0945L53.6379 14.1897L53.0723 18.7318L53.5446 15.6976L53.6385 15.7863L53.2608 19.2521L53.5441 17.302L53.6391 17.381L53.3929 20.1828L53.5443 19.1692L53.6395 19.2449L53.4899 21.2467L53.3921 21.1944L53.4352 20.6179L53.2381 21.9374L53.1432 21.8572L53.379 19.1753L52.9391 22.2031L52.8448 22.1174L53.2915 18.0177L52.6395 22.206L52.5462 22.1125L53.1818 17.0087L52.3401 22.2078L52.2477 22.1083L53.0694 16.1858L52.0406 22.2102L51.9492 22.1041L53.0356 15.0153L51.6909 22.2144L51.6008 22.1003L52.8835 14.4199L51.3414 22.2172L51.2522 22.0983L52.6655 13.9911L50.9921 22.2185L50.9037 22.0956L52.4434 13.7623L50.6427 22.2208L50.5549 22.0945L52.0309 14.2746L50.3436 22.2207L50.2557 22.095L51.9568 12.9877L49.9445 22.222L49.8572 22.0931L51.6225 13.0199L49.5453 22.2237L49.4588 22.0912L51.2876 13.053L49.146 22.2254L49.0603 22.0893L50.952 13.087L48.7468 22.2271L48.6619 22.0875L50.6156 13.1219L48.3476 22.2287L48.2634 22.0857L50.2785 13.1576L47.9484 22.2303L47.865 22.084L49.9406 13.1942L47.5491 22.2319L47.4666 22.0823L49.6019 13.2316L47.1499 22.2333L47.0681 22.0807L49.2625 13.2697L46.7507 22.2348L46.6697 22.0791L48.9222 13.3086L46.3515 22.2362L46.2713 22.0776L48.5812 13.3482L45.9522 22.2376L45.8729 22.0761L48.2393 13.3886L45.553 22.2389L45.4744 22.0746L47.8965 13.4296L45.1538 22.2402L45.076 22.0732L47.553 13.4713L44.7546 22.2414L44.6776 22.0719L47.2086 13.5137L44.3553 22.2426L44.2791 22.0706L46.8633 13.5567L43.9561 22.2438L43.8807 22.0693L46.6613 13.1373L43.5069 22.2454L43.4326 22.0674L45.9506 14.2714L43.1577 22.246L43.0838 22.0668L45.8222 13.6892L42.7585 22.2471L42.6854 22.0657L45.4734 13.7346L42.3593 22.2481L42.2869 22.0645L45.1237 13.7805L41.9601 22.2491L41.8885 22.0634L44.7731 13.8269L41.5609 22.2501L41.49 22.0624L43.8924 15.352L41.2618 22.2501L41.1909 22.0624L43.5932 15.352L40.9627 22.2501L40.8918 22.0624L43.84 13.8271L40.6632 21.9841L40.593 21.7945L43.3192 14.3381L40.4635 21.5843L40.3938 21.3936L43.0932 14.0874L40.3636 20.9177L40.2943 20.7258L42.5835 14.5979L40.2638 20.384L40.1946 20.192L42.4253 14.2206L40.2637 19.5835L40.1946 19.3913L42.2671 13.8432L40.2636 18.7831L40.1946 18.5906L42.109 13.466L40.2635 17.9827L40.1946 17.7899L41.9508 13.0887L40.2633 17.1824L40.1946 16.9891L41.7926 12.7115L40.2631 16.3821L40.1946 16.1884L41.6343 12.3343L40.2629 15.582L40.1946 15.3877L41.4761 11.9573L40.2625 14.782L40.1946 14.587L41.3178 11.5804L40.2621 13.9823L40.1946 13.7863L41.1594 11.2036L40.2615 13.1829L40.1946 12.9855L41.0008 10.8273L40.2606 12.3841L40.1946 12.1848L40.8421 10.4516L40.2592 11.5864L40.1946 11.3841L40.6362 10.2019Z" fill="#89989D"/>
</g>
</svg>
