<svg width="80" height="40" viewBox="0 0 80 40" fill="none" xmlns="http://www.w3.org/2000/svg">
<path d="M43.7293 40C42.3189 40 41.0521 39.1528 40.2105 38.0261C39.366 39.1528 38.0963 40 36.6917 40C34.1083 40 32 37.4642 32 34.3664V0H34.3459V34.3664C34.3459 35.9427 35.381 37.1818 36.6917 37.1818C38.0025 37.1818 39.0376 35.9427 39.0376 34.3664V0H41.3835V34.3664C41.3835 35.9427 42.4156 37.1818 43.7293 37.1818C45.043 37.1818 46.0752 35.9427 46.0752 34.3664V0H48.421V34.3664C48.4269 37.4786 46.3127 40 43.7293 40Z" fill="white"/>
<path d="M58.2105 40H53.4737V0H58.2105C60.8187 0 62.9474 2.57216 62.9474 5.71428V34.2857C62.9533 37.4308 60.8187 40 58.2105 40ZM60.5789 5.71428C60.5789 4.2879 59.3947 2.8586 58.2105 2.8586H55.8421V37.1385H58.2105C59.3947 37.1385 60.5789 35.7092 60.5789 34.2799V5.71428Z" fill="white"/>
<path d="M77.6 40V11.3146L74 22.0007L70.4 11.3146V40H68V0H70.4V4.67665L74 15.3043L77.6 4.67665V0H80V40H77.6Z" fill="white"/>
<path fill-rule="evenodd" clip-rule="evenodd" d="M26.2494 11.6318C26.2494 11.6318 26.2499 11.6328 25.2263 12.0478L26.2499 11.6328L26.4 12.4318L26.3323 39.926L25.2911 39.9866L25.2263 38.8927C25.2911 39.9866 25.2895 39.9867 25.2895 39.9867L25.2874 39.9868L25.2816 39.9871L25.2632 39.988C25.2481 39.9888 25.2272 39.9897 25.2007 39.9908C25.1478 39.9929 25.0724 39.9953 24.9761 39.9972C24.7836 40.0009 24.5072 40.0022 24.1589 39.9934C23.4628 39.9758 22.4769 39.9177 21.2976 39.7566C18.944 39.435 15.7904 38.6991 12.6287 37.032C9.45804 35.3601 6.28323 32.7529 3.91701 28.7108C1.55231 24.6713 0 19.6364 0 12.4318L2.27947 12.0531C2.24586 18.9589 3.69815 23.9688 5.83046 27.6113C7.96125 31.2512 10.8082 33.5895 13.6679 35.0973C16.5366 36.61 19.4219 37.288 21.5998 37.5856C22.6324 37.7266 23.4992 37.7812 24.1203 37.7999L24.188 12.4318C24.1367 12.3311 23.9945 12.053 23.8959 11.8932C23.6702 11.5273 23.3312 11.0637 22.8734 10.6482C21.9963 9.85231 20.672 9.20227 18.6604 9.8322C16.6863 10.4504 15.6118 12.1047 15.0251 13.8085C14.7361 14.6478 14.728 15.4514 14.649 16.0482C14.6097 16.3449 14.6598 16.5864 14.649 16.7503C14.6436 16.8322 14.6505 16.8943 14.649 16.9341C14.6482 16.9539 14.6492 16.9681 14.649 16.9763V16.9833C14.649 16.9833 14.649 15.288 13.5431 15.2727C12.4372 15.2574 12.2112 16.9511 12.2112 16.9511V16.9501V16.9476V16.9408V16.92C12.2116 16.903 12.21 16.8798 12.2112 16.8506C12.2134 16.7923 12.2044 16.7103 12.2112 16.6076C12.2247 16.4023 12.1649 16.113 12.2112 15.7632C12.3033 15.0668 12.5827 14.1141 12.9316 13.1009C13.6207 11.0997 15.0513 8.664 17.9938 7.74254C20.8988 6.83279 23.024 7.81297 24.3674 9.03218C25.0198 9.62425 25.4837 10.2645 25.7834 10.7505C25.9344 10.9954 26.047 11.2063 26.1235 11.36C26.1618 11.437 26.1913 11.5001 26.2122 11.5464C26.2227 11.5696 26.231 11.5886 26.2373 11.6031L26.2451 11.6215L26.2479 11.628L26.2494 11.6318ZM24.2036 12.4651L24.2039 12.4659L24.2045 12.4672L24.2036 12.4651Z" fill="white"/>
<path fill-rule="evenodd" clip-rule="evenodd" d="M2.18978 13.3327C2.18978 13.3327 2.19013 13.3319 1.1776 12.891C0.165077 12.4502 0.165484 12.4492 0.165484 12.4492L0.165947 12.4482L0.167043 12.4457L0.169916 12.4394L0.178386 12.4208C0.185245 12.4059 0.194537 12.386 0.206272 12.3615C0.229731 12.3125 0.263024 12.245 0.306231 12.1619C0.392507 11.996 0.519112 11.7667 0.686826 11.4992C1.01985 10.9681 1.52741 10.2664 2.21969 9.60991C3.62283 8.27934 5.85565 7.09145 8.82882 8.00346C11.7823 8.90941 13.2254 11.3085 13.9221 13.2901C14.2741 14.2913 14.556 15.2327 14.649 15.9209C14.6957 16.2665 14.6353 16.5525 14.649 16.7556C14.6558 16.8572 14.6467 16.9383 14.649 16.9961C14.6501 17.0251 14.6485 17.112 14.649 17.1289C14.649 17.1289 14.649 17.1133 13.5431 17.1289C12.4372 17.1446 12.2112 17.1289 12.2112 17.1289C12.211 17.1237 12.2115 17.1393 12.2112 17.1289C12.211 17.1237 12.2114 17.1355 12.2112 17.1289C12.2096 17.0901 12.2166 16.9816 12.2112 16.9013C12.2003 16.7405 12.2506 16.5033 12.2112 16.2117C12.1319 15.6252 12.1231 14.8356 11.8332 14.011C11.246 12.3407 10.1685 10.7086 8.17462 10.097C6.20048 9.49142 4.77124 10.2239 3.74915 11.1932C3.22882 11.6866 2.83297 12.2296 2.56574 12.6558C2.43332 12.8669 2.33559 13.0444 2.27256 13.1656C2.24111 13.2261 2.21851 13.2722 2.20474 13.3009C2.19786 13.3153 2.1932 13.3253 2.19076 13.3306L2.18904 13.3344L2.18948 13.3334L2.18978 13.3327Z" fill="white"/>
<path d="M19.4422 15.7275C20.4355 15.7275 21.2408 14.9245 21.2408 13.934C21.2408 12.9435 20.4355 12.1405 19.4422 12.1405C18.4489 12.1405 17.6437 12.9435 17.6437 13.934C17.6437 14.9245 18.4489 15.7275 19.4422 15.7275Z" fill="white"/>
<path d="M7.54438 15.7275C8.53767 15.7275 9.3429 14.9245 9.3429 13.934C9.3429 12.9435 8.53767 12.1405 7.54438 12.1405C6.55108 12.1405 5.74586 12.9435 5.74586 13.934C5.74586 14.9245 6.55108 15.7275 7.54438 15.7275Z" fill="white"/>
<path fill-rule="evenodd" clip-rule="evenodd" d="M21.0786 39.5399L1.51243 20.5103L3.06198 18.9464L22.6281 37.976L21.0786 39.5399Z" fill="white"/>
<path fill-rule="evenodd" clip-rule="evenodd" d="M24.7284 35.2624L14.0507 24.6147L15.6199 23.07L26.2975 33.7178L24.7284 35.2624Z" fill="white"/>
<path fill-rule="evenodd" clip-rule="evenodd" d="M24.7311 27.2607L20.1961 22.7384L21.7653 21.1937L26.3003 25.7161L24.7311 27.2607Z" fill="white"/>
<path fill-rule="evenodd" clip-rule="evenodd" d="M13.2 22.672C19.3755 22.672 24.188 17.984 24.188 12.4318C24.188 6.87962 19.3755 2.19156 13.2 2.19156C7.02448 2.19156 2.21195 6.87962 2.21195 12.4318C2.21195 17.984 7.02448 22.672 13.2 22.672ZM13.2 24.8636C20.4902 24.8636 26.4 19.2977 26.4 12.4318C26.4 5.56591 20.4902 0 13.2 0C5.90982 0 0 5.56591 0 12.4318C0 19.2977 5.90982 24.8636 13.2 24.8636Z" fill="white"/>
</svg>
