<svg width="68" height="85" viewBox="0 0 68 85" fill="none" xmlns="http://www.w3.org/2000/svg">
<path d="M33.5173 0.970703C30.5454 4.14157 29.9452 13.3998 31.1468 17.8872C35.2987 33.3923 38.1216 29.5743 38.2231 29.4407C39.5136 27.7407 34.3683 20.3037 28.7331 16.5936C20.5934 11.2348 6.68085 17.7744 4.25191 34.0756C1.69928 51.2069 20.5222 56.1632 41.3828 58.4446C55.9783 60.0409 66.2929 75.6327 65.7689 83.0202M11.7122 16.0879C3.49941 18.5 -8.50029 45 12.4994 54.5M65.7689 83.0202C66.4009 79.9652 65.9505 74.1531 67.2518 70.7955C64.1181 77.279 56.1698 77.3102 54.8912 77.2365C60.6443 78.792 64.8962 81.7481 65.7689 83.0202Z" stroke="url(#paint0_linear_127_13372)" stroke-linecap="round"/>
<defs>
<linearGradient id="paint0_linear_127_13372" x1="34.0136" y1="0.970703" x2="34.0136" y2="83.0202" gradientUnits="userSpaceOnUse">
<stop stop-color="#164554"/>
<stop offset="1" stop-color="#040C0F"/>
</linearGradient>
</defs>
</svg>
