<svg width="134" height="46" viewBox="0 0 134 46" fill="none" xmlns="http://www.w3.org/2000/svg">
<path d="M1 5L0.667818 4.6263L1.20307 5.45691L1 5ZM5.5 3L5.87165 3.33448L5.29693 2.54309L5.5 3ZM1 8L0.628353 7.66552L1.20307 8.45691L1 8ZM5.5 6L5.87165 6.33448L5.29693 5.54309L5.5 6ZM1 11L0.628353 10.6655L1.24282 11.4371L1 11ZM5.5 8.5L5.88698 8.81662L5.25718 8.06292L5.5 8.5ZM1 14L0.613021 13.6834L1.24282 14.4371L1 14ZM5.5 11.5L5.88698 11.8166L5.25718 11.0629L5.5 11.5ZM1 17L0.613021 16.6834L1.24282 17.4371L1 17ZM5.5 14.5L5.88698 14.8166L5.25718 14.0629L5.5 14.5ZM1 20L0.613021 19.6834L1.24282 20.4371L1 20ZM5.5 17.5L5.88698 17.8166L5.25718 17.0629L5.5 17.5ZM1 23L0.613021 22.6834L1.24282 23.4371L1 23ZM5.5 20.5L5.88698 20.8166L5.25718 20.0629L5.5 20.5ZM1 26L0.613021 25.6834L1.27735 26.416L1 26ZM5.5 23L5.9 23.3L5.22265 22.584L5.5 23ZM1 29L0.6 28.7L1.27735 29.416L1 29ZM5.5 26L5.9 26.3L5.22265 25.584L5.5 26ZM1 32L0.6 31.7L1.27735 32.416L1 32ZM5.5 29L5.9 29.3L5.22265 28.584L5.5 29ZM1 35L0.6 34.7L1.27735 35.416L1 35ZM5.5 32L5.9 32.3L5.22265 31.584L5.5 32ZM1 38L0.6 37.7L1.27735 38.416L1 38ZM5.5 35L5.90962 35.2867L5.22265 34.584L5.5 35ZM2 40L1.59038 39.7133L2.27735 40.416L2 40ZM6.5 37L6.92183 37.2684L6.22265 36.584L6.5 37ZM3 42.5L2.57817 42.2316L3.31235 42.8904L3 42.5ZM8 38.5L8.43895 38.7394L7.68765 38.1096L8 38.5ZM5 44L4.56105 43.7606L5.31235 44.3904L5 44ZM10 40L10.4642 40.1857L9.68765 39.6096L10 40ZM8 45L7.53576 44.8143L8.35355 45.3536L8 45ZM12.5 40.5L12.9743 40.6581L12.1464 40.1464L12.5 40.5ZM11 45L10.5257 44.8419L11.3536 45.3536L11 45ZM15.5 40.5L15.9743 40.6581L15.1464 40.1464L15.5 40.5ZM14 45L13.5257 44.8419L14.3536 45.3536L14 45ZM18.5 40.5L18.9743 40.6581L18.1464 40.1464L18.5 40.5ZM17 45L16.5257 44.8419L17.3536 45.3536L17 45ZM21.5 40.5L21.9743 40.6581L21.1464 40.1464L21.5 40.5ZM20 45L19.5257 44.8419L20.3345 45.3716L20 45ZM25 40.5L25.4881 40.6085L24.6655 40.1284L25 40.5ZM24 45L23.5119 44.8915L24.3345 45.3716L24 45ZM29 40.5L29.4881 40.6085L28.6655 40.1284L29 40.5ZM28 45L27.5119 44.8915L28.3345 45.3716L28 45ZM33 40.5L33.4743 40.6581L32.6655 40.1284L33 40.5ZM31.5 45L31.0257 44.8419L31.8166 45.387L31.5 45ZM37 40.5L37.4881 40.6085L36.6834 40.113L37 40.5ZM36 45L35.5119 44.8915L36.3345 45.3716L36 45ZM41 40.5L41.4881 40.6085L40.6655 40.1284L41 40.5ZM40 45L39.5119 44.8915L40.3536 45.3536L40 45ZM44.5 40.5L44.9969 40.5552L44.1464 40.1464L44.5 40.5ZM44 45L43.5031 44.9448L44.3536 45.3536L44 45ZM48.5 40.5L48.9969 40.5552L48.1464 40.1464L48.5 40.5ZM48 45L47.5031 44.9448L48.3536 45.3536L48 45ZM52.5 40.5L52.9969 40.5552L52.1464 40.1464L52.5 40.5ZM52 45L51.5031 44.9448L52.3345 45.3716L52 45ZM57 40.5L57.4881 40.6085L56.6655 40.1284L57 40.5ZM56 45L55.5119 44.8915L56.3345 45.3716L56 45ZM61 40.5H61.5L60.6655 40.1284L61 40.5ZM61 45H60.5L61.3536 45.3536L61 45ZM65.5 40.5L65.9969 40.4448L65.1464 40.1464L65.5 40.5ZM66 45L65.5031 45.0552L66.3737 45.3322L66 45ZM70 40.5H70.5L69.6263 40.1678L70 40.5ZM70 45H69.5L70.3737 45.3322L70 45ZM74 40.5H74.5L73.6263 40.1678L74 40.5ZM74 45H73.5L74.3737 45.3322L74 45ZM78 40.5H78.5L77.6263 40.1678L78 40.5ZM78 45H77.5L78.3737 45.3322L78 45ZM82 40.5L82.4881 40.6085L81.6263 40.1678L82 40.5ZM81 45L80.5119 44.8915L81.3345 45.3716L81 45ZM86 40.5L86.4881 40.6085L85.6655 40.1284L86 40.5ZM85 45L84.5119 44.8915L85.3345 45.3716L85 45ZM90 40.5L90.4881 40.6085L89.6655 40.1284L90 40.5ZM89 45L88.5119 44.8915L89.3345 45.3716L89 45ZM94 40.5L94.4881 40.6085L93.6655 40.1284L94 40.5ZM93 45L92.5119 44.8915L93.3345 45.3716L93 45ZM98 40.5L98.4881 40.6085L97.6655 40.1284L98 40.5ZM97 45L96.5119 44.8915L97.3536 45.3536L97 45ZM101.5 40.5L101.997 40.5552L101.146 40.1464L101.5 40.5ZM101 45L100.503 44.9448L101.354 45.3536L101 45ZM105.5 40.5L105.974 40.6581L105.146 40.1464L105.5 40.5ZM104 45L103.526 44.8419L104.334 45.3716L104 45ZM109 40.5L109.497 40.5552L108.666 40.1284L109 40.5ZM108.5 45L108.003 44.9448L108.854 45.3536L108.5 45ZM113 40.5L113.488 40.6085L112.646 40.1464L113 40.5ZM112 45L111.512 44.8915L112.354 45.3536L112 45ZM116.5 40.5L116.988 40.6085L116.146 40.1464L116.5 40.5ZM115.5 45L115.012 44.8915L115.854 45.3536L115.5 45ZM120 40.5H120.5L119.646 40.1464L120 40.5ZM120 45H119.5L120.395 45.307L120 45ZM123.5 40.5L123.997 40.5552L123.105 40.193L123.5 40.5ZM123 45L122.503 44.9448L123.395 45.307L123 45ZM126.5 40.5L126.997 40.5552L126.105 40.193L126.5 40.5ZM126 45L125.503 44.9448L126.395 45.307L126 45ZM129.5 40.5H130L129.105 40.193L129.5 40.5ZM129.5 45H129L129.91 45.2867L129.5 45ZM5.16782 0.626295L0.667818 4.6263L1.33218 5.3737L5.83218 1.3737L5.16782 0.626295ZM1.20307 5.45691L5.70307 3.45691L5.29693 2.54309L0.796931 4.54309L1.20307 5.45691ZM5.12835 2.66552L0.628353 7.66552L1.37165 8.33448L5.87165 3.33448L5.12835 2.66552ZM1.20307 8.45691L5.70307 6.45691L5.29693 5.54309L0.796931 7.54309L1.20307 8.45691ZM5.12835 5.66552L0.628353 10.6655L1.37165 11.3345L5.87165 6.33448L5.12835 5.66552ZM1.24282 11.4371L5.74282 8.93708L5.25718 8.06292L0.757179 10.5629L1.24282 11.4371ZM5.11302 8.18338L0.613021 13.6834L1.38698 14.3166L5.88698 8.81662L5.11302 8.18338ZM1.24282 14.4371L5.74282 11.9371L5.25718 11.0629L0.757179 13.5629L1.24282 14.4371ZM5.11302 11.1834L0.613021 16.6834L1.38698 17.3166L5.88698 11.8166L5.11302 11.1834ZM1.24282 17.4371L5.74282 14.9371L5.25718 14.0629L0.757179 16.5629L1.24282 17.4371ZM5.11302 14.1834L0.613021 19.6834L1.38698 20.3166L5.88698 14.8166L5.11302 14.1834ZM1.24282 20.4371L5.74282 17.9371L5.25718 17.0629L0.757179 19.5629L1.24282 20.4371ZM5.11302 17.1834L0.613021 22.6834L1.38698 23.3166L5.88698 17.8166L5.11302 17.1834ZM1.24282 23.4371L5.74282 20.9371L5.25718 20.0629L0.757179 22.5629L1.24282 23.4371ZM5.11302 20.1834L0.613021 25.6834L1.38698 26.3166L5.88698 20.8166L5.11302 20.1834ZM1.27735 26.416L5.77735 23.416L5.22265 22.584L0.72265 25.584L1.27735 26.416ZM5.1 22.7L0.6 28.7L1.4 29.3L5.9 23.3L5.1 22.7ZM1.27735 29.416L5.77735 26.416L5.22265 25.584L0.72265 28.584L1.27735 29.416ZM5.1 25.7L0.6 31.7L1.4 32.3L5.9 26.3L5.1 25.7ZM1.27735 32.416L5.77735 29.416L5.22265 28.584L0.72265 31.584L1.27735 32.416ZM5.1 28.7L0.6 34.7L1.4 35.3L5.9 29.3L5.1 28.7ZM1.27735 35.416L5.77735 32.416L5.22265 31.584L0.72265 34.584L1.27735 35.416ZM5.1 31.7L0.6 37.7L1.4 38.3L5.9 32.3L5.1 31.7ZM1.27735 38.416L5.77735 35.416L5.22265 34.584L0.72265 37.584L1.27735 38.416ZM5.09038 34.7133L1.59038 39.7133L2.40962 40.2867L5.90962 35.2867L5.09038 34.7133ZM2.27735 40.416L6.77735 37.416L6.22265 36.584L1.72265 39.584L2.27735 40.416ZM6.07817 36.7316L2.57817 42.2316L3.42183 42.7684L6.92183 37.2684L6.07817 36.7316ZM3.31235 42.8904L8.31235 38.8904L7.68765 38.1096L2.68765 42.1096L3.31235 42.8904ZM7.56105 38.2606L4.56105 43.7606L5.43895 44.2394L8.43895 38.7394L7.56105 38.2606ZM5.31235 44.3904L10.3123 40.3904L9.68765 39.6096L4.68765 43.6096L5.31235 44.3904ZM9.53576 39.8143L7.53576 44.8143L8.46424 45.1857L10.4642 40.1857L9.53576 39.8143ZM8.35355 45.3536L12.8536 40.8536L12.1464 40.1464L7.64645 44.6464L8.35355 45.3536ZM12.0257 40.3419L10.5257 44.8419L11.4743 45.1581L12.9743 40.6581L12.0257 40.3419ZM11.3536 45.3536L15.8536 40.8536L15.1464 40.1464L10.6464 44.6464L11.3536 45.3536ZM15.0257 40.3419L13.5257 44.8419L14.4743 45.1581L15.9743 40.6581L15.0257 40.3419ZM14.3536 45.3536L18.8536 40.8536L18.1464 40.1464L13.6464 44.6464L14.3536 45.3536ZM18.0257 40.3419L16.5257 44.8419L17.4743 45.1581L18.9743 40.6581L18.0257 40.3419ZM17.3536 45.3536L21.8536 40.8536L21.1464 40.1464L16.6464 44.6464L17.3536 45.3536ZM21.0257 40.3419L19.5257 44.8419L20.4743 45.1581L21.9743 40.6581L21.0257 40.3419ZM20.3345 45.3716L25.3345 40.8716L24.6655 40.1284L19.6655 44.6284L20.3345 45.3716ZM24.5119 40.3915L23.5119 44.8915L24.4881 45.1085L25.4881 40.6085L24.5119 40.3915ZM24.3345 45.3716L29.3345 40.8716L28.6655 40.1284L23.6655 44.6284L24.3345 45.3716ZM28.5119 40.3915L27.5119 44.8915L28.4881 45.1085L29.4881 40.6085L28.5119 40.3915ZM28.3345 45.3716L33.3345 40.8716L32.6655 40.1284L27.6655 44.6284L28.3345 45.3716ZM32.5257 40.3419L31.0257 44.8419L31.9743 45.1581L33.4743 40.6581L32.5257 40.3419ZM31.8166 45.387L37.3166 40.887L36.6834 40.113L31.1834 44.613L31.8166 45.387ZM36.5119 40.3915L35.5119 44.8915L36.4881 45.1085L37.4881 40.6085L36.5119 40.3915ZM36.3345 45.3716L41.3345 40.8716L40.6655 40.1284L35.6655 44.6284L36.3345 45.3716ZM40.5119 40.3915L39.5119 44.8915L40.4881 45.1085L41.4881 40.6085L40.5119 40.3915ZM40.3536 45.3536L44.8536 40.8536L44.1464 40.1464L39.6464 44.6464L40.3536 45.3536ZM44.0031 40.4448L43.5031 44.9448L44.4969 45.0552L44.9969 40.5552L44.0031 40.4448ZM44.3536 45.3536L48.8536 40.8536L48.1464 40.1464L43.6464 44.6464L44.3536 45.3536ZM48.0031 40.4448L47.5031 44.9448L48.4969 45.0552L48.9969 40.5552L48.0031 40.4448ZM48.3536 45.3536L52.8536 40.8536L52.1464 40.1464L47.6464 44.6464L48.3536 45.3536ZM52.0031 40.4448L51.5031 44.9448L52.4969 45.0552L52.9969 40.5552L52.0031 40.4448ZM52.3345 45.3716L57.3345 40.8716L56.6655 40.1284L51.6655 44.6284L52.3345 45.3716ZM56.5119 40.3915L55.5119 44.8915L56.4881 45.1085L57.4881 40.6085L56.5119 40.3915ZM56.3345 45.3716L61.3345 40.8716L60.6655 40.1284L55.6655 44.6284L56.3345 45.3716ZM60.5 40.5V45H61.5V40.5H60.5ZM61.3536 45.3536L65.8536 40.8536L65.1464 40.1464L60.6464 44.6464L61.3536 45.3536ZM65.0031 40.5552L65.5031 45.0552L66.4969 44.9448L65.9969 40.4448L65.0031 40.5552ZM66.3737 45.3322L70.3737 40.8322L69.6263 40.1678L65.6263 44.6678L66.3737 45.3322ZM69.5 40.5V45H70.5V40.5H69.5ZM70.3737 45.3322L74.3737 40.8322L73.6263 40.1678L69.6263 44.6678L70.3737 45.3322ZM73.5 40.5V45H74.5V40.5H73.5ZM74.3737 45.3322L78.3737 40.8322L77.6263 40.1678L73.6263 44.6678L74.3737 45.3322ZM77.5 40.5V45H78.5V40.5H77.5ZM78.3737 45.3322L82.3737 40.8322L81.6263 40.1678L77.6263 44.6678L78.3737 45.3322ZM81.5119 40.3915L80.5119 44.8915L81.4881 45.1085L82.4881 40.6085L81.5119 40.3915ZM81.3345 45.3716L86.3345 40.8716L85.6655 40.1284L80.6655 44.6284L81.3345 45.3716ZM85.5119 40.3915L84.5119 44.8915L85.4881 45.1085L86.4881 40.6085L85.5119 40.3915ZM85.3345 45.3716L90.3345 40.8716L89.6655 40.1284L84.6655 44.6284L85.3345 45.3716ZM89.5119 40.3915L88.5119 44.8915L89.4881 45.1085L90.4881 40.6085L89.5119 40.3915ZM89.3345 45.3716L94.3345 40.8716L93.6655 40.1284L88.6655 44.6284L89.3345 45.3716ZM93.5119 40.3915L92.5119 44.8915L93.4881 45.1085L94.4881 40.6085L93.5119 40.3915ZM93.3345 45.3716L98.3345 40.8716L97.6655 40.1284L92.6655 44.6284L93.3345 45.3716ZM97.5119 40.3915L96.5119 44.8915L97.4881 45.1085L98.4881 40.6085L97.5119 40.3915ZM97.3536 45.3536L101.854 40.8536L101.146 40.1464L96.6464 44.6464L97.3536 45.3536ZM101.003 40.4448L100.503 44.9448L101.497 45.0552L101.997 40.5552L101.003 40.4448ZM101.354 45.3536L105.854 40.8536L105.146 40.1464L100.646 44.6464L101.354 45.3536ZM105.026 40.3419L103.526 44.8419L104.474 45.1581L105.974 40.6581L105.026 40.3419ZM104.334 45.3716L109.334 40.8716L108.666 40.1284L103.666 44.6284L104.334 45.3716ZM108.503 40.4448L108.003 44.9448L108.997 45.0552L109.497 40.5552L108.503 40.4448ZM108.854 45.3536L113.354 40.8536L112.646 40.1464L108.146 44.6464L108.854 45.3536ZM112.512 40.3915L111.512 44.8915L112.488 45.1085L113.488 40.6085L112.512 40.3915ZM112.354 45.3536L116.854 40.8536L116.146 40.1464L111.646 44.6464L112.354 45.3536ZM116.012 40.3915L115.012 44.8915L115.988 45.1085L116.988 40.6085L116.012 40.3915ZM115.854 45.3536L120.354 40.8536L119.646 40.1464L115.146 44.6464L115.854 45.3536ZM119.5 40.5V45H120.5V40.5H119.5ZM120.395 45.307L123.895 40.807L123.105 40.193L119.605 44.693L120.395 45.307ZM123.003 40.4448L122.503 44.9448L123.497 45.0552L123.997 40.5552L123.003 40.4448ZM123.395 45.307L126.895 40.807L126.105 40.193L122.605 44.693L123.395 45.307ZM126.003 40.4448L125.503 44.9448L126.497 45.0552L126.997 40.5552L126.003 40.4448ZM126.395 45.307L129.895 40.807L129.105 40.193L125.605 44.693L126.395 45.307ZM129 40.5V45H130V40.5H129ZM129.91 45.2867L133.41 40.2867L132.59 39.7133L129.09 44.7133L129.91 45.2867Z" fill="url(#paint0_linear_758_1181)"/>
<defs>
<linearGradient id="paint0_linear_758_1181" x1="67" y1="1" x2="67" y2="45" gradientUnits="userSpaceOnUse">
<stop stop-color="#164554"/>
<stop offset="1" stop-color="#040C0F"/>
</linearGradient>
</defs>
</svg>
