<svg width="20" height="20" viewBox="0 0 20 20" fill="none" xmlns="http://www.w3.org/2000/svg">
<mask id="mask0_24_1661" style="mask-type:alpha" maskUnits="userSpaceOnUse" x="0" y="0" width="20" height="20">
<path fill-rule="evenodd" clip-rule="evenodd" d="M0 10C0 17.4995 2.50054 20 10 20C17.4995 20 20 17.4995 20 10C20 2.50054 17.4995 0 10 0C2.50054 0 0 2.50054 0 10Z" fill="#89989D"/>
</mask>
<g mask="url(#mask0_24_1661)">
<path fill-rule="evenodd" clip-rule="evenodd" d="M-0.277327 0.638734L-0.815491 1.63065L-0.918424 1.28352L-0.184242 -0.746287L-0.068876 -0.427334L-0.220519 -0.0080865L0.317646 -1L0.420579 -0.652868L-0.149459 0.923124L0.804371 -0.994742L0.910034 -0.652868L0.0801948 1.6414L1.29141 -0.989686L1.39949 -0.652868L0.310263 2.35853L1.7794 -0.986441L1.88894 -0.652868L0.540544 3.07507L2.26788 -0.984188L2.3784 -0.652868L0.77095 3.79127L2.75664 -0.982534L2.86785 -0.652868L1.00144 4.50724L3.24558 -0.981269L3.35731 -0.652868L1.23197 5.22307L3.73463 -0.98027L3.84676 -0.652868L1.46255 5.93879L4.22376 -0.979462L4.33622 -0.652868L1.69316 6.65444L4.71295 -0.978795L4.82567 -0.652868L1.92378 7.37003L5.20218 -0.978235L5.31513 -0.652868L2.15442 8.08558L5.69145 -0.977758L5.80458 -0.652868L2.38508 8.80109L6.18074 -0.977347L6.29404 -0.652868L2.70201 9.27807L6.6701 -0.977103L6.78381 -0.653752L2.99839 9.92815L7.15915 -0.976027L7.27357 -0.654592L3.38162 10.3394L7.64825 -0.975108L7.76362 -0.656297L3.83267 10.6842L8.13709 -0.973457L8.25307 -0.656297L4.32212 10.6842L8.62655 -0.973457L8.74253 -0.656297L4.81158 10.6842L9.116 -0.973457L9.2326 -0.658093L5.35085 10.7893L9.60486 -0.971821L9.72268 -0.659946L5.89209 10.8933L10.0937 -0.970134L10.2128 -0.661858L6.43531 10.9961L10.5826 -0.968393L10.7028 -0.66383L6.98048 11.0976L11.0714 -0.966596L11.1926 -0.664839L7.49851 11.1479L11.5605 -0.965677L11.683 -0.667961L8.07662 11.2969L12.0491 -0.962832L12.1731 -0.670125L8.62756 11.3945L12.5379 -0.96086L12.6632 -0.672355L9.18038 11.4907L13.0267 -0.958826L13.1533 -0.674655L9.73507 11.5855L13.5155 -0.956728L13.6434 -0.677024L10.2916 11.6787L14.0043 -0.954565L14.1336 -0.679466L10.85 11.7705L14.4931 -0.952334L14.6237 -0.681982L11.4102 11.8606L14.9819 -0.950035L15.1138 -0.684573L11.9721 11.9492L15.4707 -0.947665L15.6039 -0.687241L12.5359 12.036L15.9595 -0.945223L16.094 -0.689987L13.1013 12.1211L16.4483 -0.942707L16.5841 -0.692812L13.6685 12.2045L16.9371 -0.940116L17.0742 -0.695718L14.2373 12.286L17.4259 -0.937448L17.5643 -0.698705L14.8078 12.3656L17.9148 -0.934702L18.0544 -0.701774L15.3799 12.4433L18.4036 -0.931877L18.5445 -0.704927L15.9536 12.519L18.8924 -0.928972L19.0345 -0.708163L16.5289 12.5926L19.3812 -0.925985L19.5246 -0.711483L16.9794 13.362L19.8702 -0.698262L20.0139 -0.485102L17.5654 12.9125L20.2781 -0.247413L20.4221 -0.0357522L18.5132 10.6342L20.5221 0.433014L20.6676 0.636232L18.6136 12.8052L20.7663 1.563L20.9129 1.76057L19.3527 11.4095L20.847 3.1464L20.9955 3.33286L19.9541 10.3506L20.8458 4.95776L20.9965 5.13006L19.9416 12.9819L20.8452 7.21719L20.9974 7.37819L20.0719 15.0542L20.8447 9.92653L20.9983 10.0764L20.3804 15.9334L20.844 12.6379L20.9994 12.7713L20.5964 17.5063L20.8443 15.7934L21 15.9214L20.7553 19.3044L20.5953 19.2159L20.6658 18.2417L20.3431 20.4716L20.188 20.3362L20.5737 15.8036L19.854 20.9206L19.6996 20.7757L20.4306 13.8473L19.3638 20.9256L19.2111 20.7676L20.251 12.1421L18.8739 20.9286L18.7226 20.7604L20.0672 10.7516L18.3838 20.9327L18.2341 20.7533L20.0118 8.77337L17.8115 20.9398L17.6641 20.7468L19.7629 7.76711L17.2396 20.9444L17.0936 20.7435L19.4063 7.04242L16.6681 20.9467L16.5234 20.7389L19.0429 6.65588L16.0963 20.9506L15.9526 20.7372L18.3679 7.5216L15.6069 20.9503L15.463 20.738L18.2466 5.34673L14.9539 20.9525L14.811 20.7347L17.6997 5.40113L14.3006 20.9555L14.1591 20.7315L17.1516 5.45708L13.6474 20.9584L13.5071 20.7283L16.6024 5.51463L12.9941 20.9612L12.8551 20.7253L16.052 5.57357L12.3408 20.964L12.2031 20.7223L15.5004 5.63393L11.6876 20.9667L11.5512 20.7194L14.9475 5.69573L11.0343 20.9693L10.8992 20.7165L14.3933 5.75892L10.3811 20.9718L10.2473 20.7138L13.8379 5.82335L9.7278 20.9742L9.59532 20.7111L13.2811 5.88907L9.07454 20.9766L8.94337 20.7085L12.723 5.95607L8.42129 20.9789L8.29142 20.706L12.1636 6.02426L7.76803 20.9811L7.63946 20.7036L11.6028 6.09361L7.11478 20.9833L6.98751 20.7012L11.0406 6.16409L6.46154 20.9854L6.33555 20.6989L10.477 6.23568L5.80829 20.9874L5.68359 20.6967L9.91207 6.30834L5.15506 20.9894L5.03163 20.6945L9.58149 5.59963L4.41994 20.9922L4.2984 20.6914L8.41857 7.51617L3.84859 20.9931L3.72769 20.6904L8.20853 6.53238L3.19537 20.9949L3.07571 20.6884L7.63778 6.609L2.54216 20.9967L2.42373 20.6865L7.06556 6.68652L1.88894 20.9984L1.77175 20.6846L6.49185 6.76493L1.23574 21L1.11976 20.6828L5.05071 9.34238L0.746285 21L0.630303 20.6828L4.56125 9.34238L0.25683 21L0.140848 20.6828L4.9651 6.76529L-0.233242 20.5506L-0.34801 20.2301L4.11285 7.62897L-0.559893 19.8749L-0.674014 19.5526L3.74297 7.20525L-0.723459 18.7483L-0.836848 18.4241L2.90896 8.06799L-0.886705 17.8464L-1 17.5219L2.65016 7.4303L-0.886865 16.4936L-1 16.1687L2.39135 6.79264L-0.887052 15.1409L-1 14.8155L2.13252 6.15503L-0.887272 13.7883L-1 13.4623L1.87367 5.51747L-0.887537 12.4357L-1 12.1091L1.61479 4.87999L-0.887862 11.0833L-1 10.7559L1.35587 4.24262L-0.888267 9.73113L-1 9.40273L1.0969 3.60539L-0.888789 8.37919L-1 8.04953L0.837855 2.96839L-0.889485 7.02764L-1 6.69632L0.578682 2.33172L-0.890459 5.6767L-1 5.34312L0.319294 1.69565L-0.891918 4.32674L-1 3.98992L0.0594932 1.06073L-0.894337 2.97859L-1 2.63672L-0.277327 0.638734Z" fill="white"/>
<path fill-rule="evenodd" clip-rule="evenodd" d="M14.5504 5.1255C14.9933 5.39716 15.1326 6.02154 14.8617 6.5201L10.5733 14.4123C10.3024 14.9108 9.72379 15.0948 9.28096 14.8231C8.83813 14.5514 8.69875 13.9271 8.96966 13.4285L13.2581 5.53635C13.529 5.03779 14.1076 4.85385 14.5504 5.1255Z" fill="#040C0F"/>
<path fill-rule="evenodd" clip-rule="evenodd" d="M5.26918 9.02436C5.63579 8.64561 6.23917 8.67316 6.61688 9.0859L10.2607 13.2999C10.6384 13.7126 10.6474 14.3543 10.2808 14.733C9.91419 15.1118 9.3108 15.0842 8.93309 14.6715L5.28927 10.4575C4.91157 10.0447 4.90257 9.40312 5.26918 9.02436Z" fill="#040C0F"/>
</g>
</svg>
