<svg width="24" height="24" viewBox="0 0 24 24" fill="none" xmlns="http://www.w3.org/2000/svg">
<mask id="mask0_74_5416" style="mask-type:alpha" maskUnits="userSpaceOnUse" x="1" y="1" width="22" height="22">
<path fill-rule="evenodd" clip-rule="evenodd" d="M2 12C2 19.4995 4.50054 22 12 22C19.4995 22 22 19.4995 22 12C22 4.50054 19.4995 2 12 2C4.50054 2 2 4.50054 2 12Z" stroke="black" stroke-width="2" stroke-linecap="round" stroke-linejoin="round"/>
</mask>
<g mask="url(#mask0_74_5416)">
<path fill-rule="evenodd" clip-rule="evenodd" d="M1.72267 2.63873L1.18451 3.63065L1.08158 3.28352L1.81576 1.25371L1.93112 1.57267L1.77948 1.99191L2.31765 1L2.42058 1.34713L1.85054 2.92312L2.80437 1.00526L2.91003 1.34713L2.08019 3.6414L3.29141 1.01031L3.39949 1.34713L2.31026 4.35853L3.7794 1.01356L3.88894 1.34713L2.54054 5.07507L4.26788 1.01581L4.3784 1.34713L2.77095 5.79127L4.75664 1.01747L4.86785 1.34713L3.00144 6.50724L5.24558 1.01873L5.35731 1.34713L3.23197 7.22307L5.73463 1.01973L5.84676 1.34713L3.46255 7.93879L6.22376 1.02054L6.33622 1.34713L3.69316 8.65444L6.71295 1.02121L6.82567 1.34713L3.92378 9.37003L7.20218 1.02177L7.31513 1.34713L4.15442 10.0856L7.69145 1.02224L7.80458 1.34713L4.38508 10.8011L8.18074 1.02265L8.29404 1.34713L4.70201 11.2781L8.67011 1.0229L8.78381 1.34625L4.99839 11.9281L9.15915 1.02397L9.27357 1.34541L5.38162 12.3394L9.64825 1.02489L9.76362 1.3437L5.83267 12.6842L10.1371 1.02654L10.2531 1.3437L6.32212 12.6842L10.6265 1.02654L10.7425 1.3437L6.81158 12.6842L11.116 1.02654L11.2326 1.34191L7.35085 12.7893L11.6049 1.02818L11.7227 1.34005L7.89209 12.8933L12.0937 1.02987L12.2128 1.33814L8.43531 12.9961L12.5826 1.03161L12.7028 1.33617L8.98048 13.0976L13.0714 1.0334L13.1926 1.33516L9.49851 13.1479L13.5605 1.03432L13.683 1.33204L10.0766 13.2969L14.0491 1.03717L14.1731 1.32988L10.6276 13.3945L14.5379 1.03914L14.6632 1.32764L11.1804 13.4907L15.0267 1.04117L15.1533 1.32535L11.7351 13.5855L15.5155 1.04327L15.6434 1.32298L12.2916 13.6787L16.0043 1.04544L16.1336 1.32053L12.85 13.7705L16.4931 1.04767L16.6237 1.31802L13.4102 13.8606L16.9819 1.04997L17.1138 1.31543L13.9721 13.9492L17.4707 1.05234L17.6039 1.31276L14.5359 14.036L17.9595 1.05478L18.094 1.31001L15.1013 14.1211L18.4483 1.05729L18.5841 1.30719L15.6685 14.2045L18.9371 1.05988L19.0742 1.30428L16.2373 14.286L19.4259 1.06255L19.5643 1.3013L16.8078 14.3656L19.9148 1.0653L20.0544 1.29823L17.3799 14.4433L20.4036 1.06812L20.5445 1.29507L17.9536 14.519L20.8924 1.07103L21.0345 1.29184L18.5289 14.5926L21.3812 1.07402L21.5246 1.28852L18.9794 15.362L21.8702 1.30174L22.0139 1.5149L19.5654 14.9125L22.2781 1.75259L22.4221 1.96425L20.5132 12.6342L22.5221 2.43301L22.6676 2.63623L20.6136 14.8052L22.7663 3.563L22.9129 3.76057L21.3527 13.4095L22.847 5.1464L22.9955 5.33286L21.9541 12.3506L22.8458 6.95776L22.9965 7.13006L21.9416 14.9819L22.8452 9.21719L22.9974 9.37819L22.0719 17.0542L22.8447 11.9265L22.9983 12.0764L22.3804 17.9334L22.844 14.6379L22.9994 14.7713L22.5964 19.5063L22.8443 17.7934L23 17.9214L22.7553 21.3044L22.5953 21.2159L22.6658 20.2417L22.3431 22.4716L22.188 22.3362L22.5737 17.8036L21.854 22.9206L21.6996 22.7757L22.4306 15.8473L21.3638 22.9256L21.2111 22.7676L22.251 14.1421L20.8739 22.9286L20.7226 22.7604L22.0672 12.7516L20.3838 22.9327L20.2341 22.7533L22.0118 10.7734L19.8115 22.9398L19.6641 22.7468L21.7629 9.76711L19.2396 22.9444L19.0936 22.7435L21.4063 9.04242L18.6681 22.9467L18.5234 22.7389L21.0429 8.65588L18.0963 22.9506L17.9526 22.7372L20.3679 9.5216L17.6069 22.9503L17.463 22.738L20.2466 7.34673L16.9539 22.9525L16.811 22.7347L19.6997 7.40114L16.3006 22.9555L16.1591 22.7315L19.1516 7.45708L15.6474 22.9584L15.5071 22.7283L18.6024 7.51463L14.9941 22.9612L14.8551 22.7253L18.052 7.57357L14.3408 22.964L14.2031 22.7223L17.5004 7.63393L13.6876 22.9667L13.5512 22.7194L16.9475 7.69573L13.0343 22.9693L12.8992 22.7165L16.3933 7.75892L12.3811 22.9718L12.2473 22.7138L15.8379 7.82335L11.7278 22.9742L11.5953 22.7111L15.2811 7.88907L11.0745 22.9766L10.9434 22.7085L14.723 7.95607L10.4213 22.9789L10.2914 22.706L14.1636 8.02426L9.76803 22.9811L9.63946 22.7036L13.6028 8.09361L9.11478 22.9833L8.98751 22.7012L13.0406 8.16409L8.46154 22.9854L8.33555 22.6989L12.477 8.23568L7.80829 22.9874L7.68359 22.6967L11.9121 8.30834L7.15506 22.9894L7.03163 22.6945L11.5815 7.59963L6.41994 22.9922L6.2984 22.6914L10.4186 9.51617L5.84859 22.9931L5.72769 22.6904L10.2085 8.53238L5.19537 22.9949L5.07571 22.6884L9.63778 8.609L4.54216 22.9967L4.42373 22.6865L9.06556 8.68652L3.88894 22.9984L3.77175 22.6846L8.49185 8.76493L3.23574 23L3.11976 22.6828L7.05071 11.3424L2.74628 23L2.6303 22.6828L6.56125 11.3424L2.25683 23L2.14085 22.6828L6.9651 8.76529L1.76676 22.5506L1.65199 22.2301L6.11285 9.62897L1.44011 21.8749L1.32599 21.5526L5.74297 9.20525L1.27654 20.7483L1.16315 20.4241L4.90896 10.068L1.1133 19.8464L1 19.5219L4.65016 9.4303L1.11314 18.4936L1 18.1687L4.39135 8.79264L1.11295 17.1409L1 16.8155L4.13252 8.15503L1.11273 15.7883L1 15.4623L3.87367 7.51747L1.11246 14.4357L1 14.1091L3.61479 6.87999L1.11214 13.0833L1 12.7559L3.35587 6.24262L1.11173 11.7311L1 11.4027L3.0969 5.60539L1.11121 10.3792L1 10.0495L2.83786 4.96839L1.11052 9.02764L1 8.69632L2.57868 4.33172L1.10954 7.6767L1 7.34312L2.31929 3.69565L1.10808 6.32674L1 5.98992L2.05949 3.06073L1.10566 4.97859L1 4.63672L1.72267 2.63873Z" fill="white"/>
</g>
</svg>
