<svg width="123" height="88" viewBox="0 0 123 88" fill="none" xmlns="http://www.w3.org/2000/svg">
<path d="M45.0235 0.524448C40.9571 4.45068 39.566 16.4816 40.8287 22.4179C45.1915 42.9287 49.1073 38.1481 49.2478 37.981C51.0349 35.8547 44.8496 25.7952 37.7818 20.5614C27.5732 13.0016 7.9485 21.8053 4.85596 41.6394C-0.753526 77.6162 46.4859 119.985 122.428 46.2052M122.428 46.2052C120.807 47.5901 111.195 49.0778 106.52 48.6221C115.759 50.2794 118.515 60.2207 118.859 61.8474C118.853 54.1 121.124 47.7427 122.428 46.2052ZM15.7269 18.7066C7.33044 24.056 -6.32181 41.4558 6.24074 68.2595" stroke="url(#paint0_linear_127_12925)" stroke-linecap="round"/>
<defs>
<linearGradient id="paint0_linear_127_12925" x1="48.4114" y1="-0.383331" x2="70.5886" y2="82.3833" gradientUnits="userSpaceOnUse">
<stop stop-color="#DD400E"/>
<stop offset="1" stop-color="#C00000"/>
</linearGradient>
</defs>
</svg>
