<svg width="72" height="64" viewBox="0 0 72 64" fill="none" xmlns="http://www.w3.org/2000/svg">
<g clip-path="url(#clip0_5_1780)">
<path d="M1.67044 43.9442C1.78973 44.4719 1.96993 44.7319 2.27691 44.6796C3.27987 44.5498 2.17832 41.423 4.81432 41.1303C6.44894 40.9071 7.53295 41.8074 7.79622 43.7108C7.9573 44.6196 7.82349 45.5551 7.41381 46.3841L5.40736 45.8355C5.63945 45.6029 5.81301 45.32 5.91413 45.0093C6.01526 44.6986 6.04113 44.3689 5.98968 44.0464C5.85103 43.4331 5.6467 43.1335 5.26416 43.1873C4.20335 43.3298 5.55401 46.4171 2.71227 46.7399C2.36412 46.7889 2.00932 46.7648 1.67122 46.6689C1.33312 46.573 1.01942 46.4076 0.750764 46.1835C0.482107 45.9595 0.264595 45.6819 0.112572 45.3691C-0.0394518 45.0563 -0.122541 44.7153 -0.131227 44.3686C-0.304535 43.4841 -0.169165 42.5682 0.252849 41.7697L2.18853 42.274C1.98983 42.5019 1.84121 42.768 1.75204 43.0555C1.66287 43.3429 1.63509 43.6455 1.67044 43.9442Z" fill="url(#paint0_radial_5_1780)"/>
<path d="M7.43403 37.1437C7.37733 38.9075 6.4299 40.3574 3.36282 40.2206C0.295733 40.0837 -0.577946 38.838 -0.513312 36.9078C-0.445188 35.396 0.245382 34.4215 1.49259 34.1634L2.57721 36.0066C1.73337 36.1015 1.41051 36.4865 1.39797 36.9683C1.38542 37.4501 2.11713 37.9335 3.44172 38.0178C4.7663 38.102 5.51683 37.8629 5.54688 37.1228C5.55786 36.7013 5.27308 36.3145 4.43707 36.1083L5.64792 34.3463C6.22186 34.5459 6.71068 34.9309 7.03493 35.4387C7.35918 35.9466 7.49983 36.5474 7.43403 37.1437Z" fill="url(#paint1_radial_5_1780)"/>
<path d="M0.464789 29.688C0.913525 27.6438 2.20221 26.8976 3.73271 27.2212C4.14867 27.2855 4.53985 27.4579 4.86603 27.7206C5.19221 27.9833 5.44163 28.3268 5.58867 28.7159C5.89896 28.6399 6.17999 28.4764 6.39738 28.2454C6.61477 28.0143 6.75909 27.7258 6.81268 27.415L8.69052 27.932C8.32351 29.5991 7.7113 29.9128 6.12844 30.6335L5.59333 30.8854L5.50034 31.28L7.81377 31.7764L7.36348 33.8808L-0.0205185 32.3091C0.096018 31.4278 0.257984 30.5529 0.464789 29.688ZM3.21496 29.4302C3.10751 29.3905 2.99232 29.3754 2.87813 29.3861C2.76394 29.3968 2.65375 29.433 2.55589 29.4919C2.45803 29.5509 2.37509 29.631 2.31333 29.7263C2.25158 29.8215 2.21265 29.9294 2.19947 30.0417C2.16932 30.204 2.15062 30.3681 2.14353 30.5329L3.82032 30.8993L3.90204 30.5222C3.95117 30.4063 3.9715 30.2804 3.96133 30.1551C3.95115 30.0299 3.91079 29.9088 3.84357 29.802C3.77636 29.6952 3.68423 29.6057 3.57489 29.541C3.46555 29.4763 3.34216 29.4383 3.21496 29.4302Z" fill="url(#paint2_radial_5_1780)"/>
<path d="M2.8087 21.9895C3.49882 20.3415 5.08158 19.486 7.71046 20.572C10.3393 21.658 10.8387 23.33 10.1374 24.9954C9.43604 26.6609 7.8822 27.51 5.25332 26.424C2.62444 25.338 2.10735 23.6549 2.8087 21.9895ZM8.3446 24.2503C8.57891 23.6751 8.08668 23.1093 6.85184 22.6162C5.617 22.1231 4.85027 22.1563 4.61596 22.7315C4.38165 23.3067 4.87713 23.8868 6.11196 24.3798C7.3468 24.8729 8.09583 24.8287 8.34138 24.236L8.3446 24.2503Z" fill="url(#paint3_radial_5_1780)"/>
<path d="M11.0618 18.6707L12.4524 16.4951L14.0332 17.6459L11.5475 21.5582L5.0894 17.5683L6.19733 15.7539L11.0618 18.6707Z" fill="url(#paint4_radial_5_1780)"/>
<path d="M14.4144 14.1646L16.0977 12.2094L17.4874 13.5217L14.4548 17.0298L8.6986 12.1827L10.1185 10.5395L14.4144 14.1646Z" fill="url(#paint5_radial_5_1780)"/>
<path d="M18.2241 4.1645C20.4172 3.17089 21.8546 3.71153 22.9067 5.99098C23.9588 8.27043 23.455 9.7024 21.2767 10.696C20.6403 10.9826 19.9871 11.2315 19.3206 11.4412L16.3569 5.12888C16.9623 4.77644 17.5855 4.45455 18.2241 4.1645ZM18.9502 5.83027L20.432 9.08873L20.6839 8.97181C21.4545 8.62113 21.5138 8.06588 20.9507 6.8677C20.3876 5.66953 19.943 5.4065 19.1576 5.71335L18.9502 5.83027Z" fill="url(#paint6_radial_5_1780)"/>
<path d="M25.6778 1.40264C27.3227 0.964283 28.849 1.63642 29.5454 4.17889C30.2419 6.72135 29.2343 8.03641 27.5894 8.46015C25.9446 8.8839 24.4183 8.241 23.7218 5.69853C23.0253 3.15607 24.033 1.841 25.6778 1.40264ZM27.1597 6.72134C27.7376 6.57522 27.871 5.87389 27.545 4.70494C27.219 3.53599 26.7596 2.99534 26.1965 3.14146C25.6334 3.28757 25.4852 4.00353 25.8112 5.17248C26.1372 6.34143 26.5521 6.88208 27.1152 6.69213L27.1597 6.72134Z" fill="url(#paint7_radial_5_1780)"/>
<path d="M32.7456 4.4566C32.7456 5.24564 32.9827 5.50865 33.2939 5.49403C33.6051 5.47942 33.7533 5.2018 33.7088 4.39814L33.4718 0.263003L35.5315 0.160709L35.7538 4.29585C35.7538 5.08489 35.9909 5.34794 36.2873 5.33332C36.5836 5.31871 36.7466 5.04109 36.7022 4.23743L36.4799 0.102249L38.5249 0L38.7471 3.81368C38.8657 6.09313 38.184 7.14518 36.5688 7.23285C36.3493 7.00395 36.0816 6.82514 35.7846 6.7089C35.4877 6.59265 35.1685 6.54178 34.8495 6.55987C34.5305 6.57796 34.2194 6.66458 33.9379 6.81364C33.6564 6.9627 33.4113 7.1706 33.2198 7.42281C31.6046 7.51048 30.8044 6.53147 30.6859 4.25202L30.4784 0.423712L32.5234 0.321463L32.7456 4.4566Z" fill="url(#paint8_radial_5_1780)"/>
<path d="M43.83 4.41274L44.4968 0.935102L46.2602 1.25657L44.9562 8.15337L42.9853 7.78807L42.0073 4.0036L41.3405 7.48124L39.5771 7.14515L40.8811 0.321429L42.852 0.686725L43.83 4.41274Z" fill="url(#paint9_radial_5_1780)"/>
<path d="M52.1879 5.62564C51.7582 5.40646 51.4619 5.45032 51.3433 5.69872C50.958 6.47315 53.7735 7.1599 52.8252 9.2494C52.188 10.506 51.0025 10.8275 49.491 10.0969C48.7544 9.7651 48.1426 9.21295 47.7424 8.5188L49.0761 7.36445C49.1367 7.63928 49.2604 7.89676 49.4376 8.11712C49.6149 8.33749 49.841 8.51487 50.0986 8.63568C50.5876 8.88408 50.9284 8.84025 51.0914 8.54801C51.4915 7.72975 48.5871 7.17451 49.6836 4.99734C49.8216 4.72492 50.0164 4.48433 50.2552 4.29127C50.494 4.09821 50.7715 3.95706 51.0694 3.87706C51.3674 3.79705 51.6791 3.77997 51.9842 3.82698C52.2893 3.87399 52.581 3.98405 52.84 4.14987C53.5694 4.46114 54.1702 5.00717 54.5441 5.69872L53.2401 6.8092C53.1565 6.55128 53.0199 6.31313 52.8389 6.1095C52.6579 5.90588 52.4363 5.74115 52.1879 5.62564Z" fill="url(#paint10_radial_5_1780)"/>
<path d="M54.2482 13.019C53.0035 12.0985 52.4552 10.725 54.0408 8.63545C55.6263 6.54596 57.0045 6.54597 58.3529 7.55419C58.8349 7.81258 59.2029 8.23756 59.3861 8.74738C59.5694 9.2572 59.555 9.81586 59.3458 10.3159L57.4787 10.1697C57.8195 9.52681 57.7009 9.11768 57.3601 8.85467C57.0193 8.59165 56.3228 8.85464 55.6263 9.7898C54.9299 10.725 54.7076 11.324 55.2262 11.704C55.7449 12.0839 55.9523 11.9231 56.5154 11.441L57.2119 13.1798C56.7752 13.4948 56.2413 13.651 55.7009 13.6217C55.1606 13.5924 54.6473 13.3794 54.2482 13.019Z" fill="url(#paint11_radial_5_1780)"/>
<path d="M63.0648 11.8357C63.336 12.0407 63.5577 12.3025 63.7139 12.6022C63.8701 12.9019 63.957 13.232 63.9684 13.5688C63.9797 13.9056 63.9152 14.2406 63.7795 14.5499C63.6437 14.8591 63.4401 15.1348 63.1834 15.3571C62.9304 15.6176 62.6122 15.8074 62.2609 15.9075C61.9096 16.0076 61.5377 16.0143 61.1829 15.927C61.0948 16.1744 61.0758 16.4406 61.128 16.6977C61.1801 16.9548 61.3014 17.1933 61.4792 17.3882L60.1752 18.4403C59.1527 17.3298 59.2416 16.7599 59.5232 15.2841L59.6121 14.7873L59.375 14.5243L57.8932 15.8978L56.6188 14.5097L61.4496 10.1261C61.9979 10.7544 62.4869 11.222 63.0648 11.8357ZM61.8645 13.8814C61.9442 13.8229 62.009 13.7468 62.0536 13.6593C62.0982 13.5718 62.1214 13.4752 62.1214 13.3773C62.1214 13.2793 62.0982 13.1827 62.0536 13.0952C62.009 13.0077 61.9442 12.9316 61.8645 12.8732C61.7683 12.7682 61.6643 12.6705 61.5533 12.5809L60.442 13.5745L60.6642 13.8229C60.7241 13.9227 60.8081 14.0064 60.9087 14.0663C61.0094 14.1263 61.1236 14.1607 61.241 14.1665C61.3585 14.1723 61.4756 14.1493 61.5818 14.0995C61.688 14.0498 61.7801 13.9748 61.8497 13.8814H61.8645Z" fill="url(#paint12_radial_5_1780)"/>
<path d="M67.391 17.4175C68.2061 18.7472 68.0134 20.3399 65.9092 21.538C63.805 22.7362 62.3379 22.2686 61.4636 20.9389C60.5893 19.6093 60.8413 18.1042 62.9455 16.833C65.0497 15.5618 66.576 16.0878 67.391 17.4175ZM62.9455 20.0768C63.227 20.5444 63.8939 20.4714 64.8571 19.8869C65.8203 19.3024 66.2056 18.7472 65.924 18.2942C65.6424 17.8412 64.9608 17.8997 63.9976 18.4842C63.0344 19.0686 62.6639 19.6093 62.9603 20.0768H62.9455Z" fill="url(#paint13_radial_5_1780)"/>
<path d="M65.4648 24.7671L66.265 26.842L64.6794 27.3388L63.1975 23.6128L69.2583 21.3041L69.94 23.0429L65.4648 24.7671Z" fill="url(#paint14_radial_5_1780)"/>
<path d="M66.8436 29.3553L67.3178 31.5324L65.6582 31.7809L64.8283 27.8648L71.2299 26.5352L71.6152 28.3763L66.8436 29.3553Z" fill="url(#paint15_radial_5_1780)"/>
<path d="M71.9859 35.916C71.9859 37.947 70.9782 38.8383 68.8147 38.8383C66.6512 38.8383 65.7028 37.8593 65.7473 35.8283C65.7664 35.2369 65.8158 34.6468 65.8955 34.0603L71.9266 34.1918C71.9792 34.7649 71.999 35.3406 71.9859 35.916ZM70.4151 35.8283H67.3032V35.916C67.3032 36.6319 67.7033 36.8804 68.7851 36.895C69.8668 36.9096 70.341 36.705 70.3559 35.9744L70.4151 35.8283Z" fill="url(#paint16_radial_5_1780)"/>
<path d="M71.1557 42.7398C70.8 44.1279 69.6738 44.99 67.4511 44.4347C65.2283 43.8795 64.6504 42.6083 65.006 41.2055C65.3617 39.8028 66.4879 38.9553 68.7106 39.5105C70.9334 40.0658 71.5113 41.3517 71.1557 42.7398ZM66.5175 41.5854C66.3989 42.0676 66.8732 42.4621 67.8808 42.7105C68.8885 42.9589 69.5256 42.8567 69.6442 42.3599C69.7627 41.8631 69.2886 41.4832 68.2661 41.2348C67.2436 40.9864 66.636 41.1032 66.5175 41.5854Z" fill="url(#paint17_radial_5_1780)"/>
<path d="M65.8062 46.6702C65.1987 46.3342 64.9171 46.3342 64.7986 46.568C64.68 46.8018 64.7986 47.0356 65.4061 47.3716L68.5328 49.1251L67.6734 50.5863L64.5318 48.8328C63.9243 48.4967 63.6427 48.5114 63.5242 48.7305C63.4057 48.9497 63.5242 49.1981 64.1317 49.5342L67.2584 51.2876L66.399 52.7488L63.5094 51.1415C61.7756 50.1625 61.3162 49.1981 62.0275 47.9999C62.3026 47.9582 62.5649 47.8568 62.7954 47.703C63.026 47.5493 63.2191 47.347 63.3608 47.1109C63.5025 46.8747 63.5894 46.6104 63.6151 46.3371C63.6407 46.0639 63.6046 45.7884 63.5094 45.5305C64.191 44.347 65.2728 44.2301 67.0065 45.2091L69.9702 46.8164L69.0959 48.2776L65.8062 46.6702Z" fill="url(#paint18_radial_5_1780)"/>
<path d="M60.65 54.4145L62.8283 56.5478L61.7465 57.6291L57.4047 53.4501L58.605 52.2519L61.8502 53.4501L59.6571 51.3022L60.7537 50.2355L65.0362 54.4291L63.8211 55.6273L60.65 54.4145Z" fill="url(#paint19_radial_5_1780)"/>
<path d="M55.3886 59.7333C55.7442 59.5434 55.8628 59.3242 55.759 59.1343C55.4034 58.4913 53.5066 60.0256 52.5879 58.3306C52.0248 57.2785 52.3804 56.3142 53.64 55.6566C54.2356 55.3157 54.9264 55.1723 55.6108 55.2475L55.7442 56.7087C55.5265 56.6072 55.2886 56.5546 55.0477 56.5546C54.8069 56.5546 54.569 56.6072 54.3513 56.7087C53.9512 56.9279 53.803 57.1762 53.9364 57.4247C54.3068 58.1114 56.1147 56.4164 57.0927 58.2283C57.2175 58.4554 57.2916 58.7063 57.3101 58.964C57.3285 59.2217 57.2909 59.4802 57.1997 59.7224C57.1084 59.9645 56.9658 60.1847 56.7812 60.368C56.5966 60.5514 56.3744 60.6937 56.1295 60.7854C55.554 61.121 54.8803 61.2549 54.2179 61.1653L54.0845 59.7041C54.2879 59.7981 54.5089 59.8493 54.7334 59.8543C54.958 59.8593 55.1811 59.8181 55.3886 59.7333Z" fill="url(#paint20_radial_5_1780)"/>
<path d="M49.269 57.4539C50.5286 57.074 51.7437 57.4539 52.4105 59.4996C53.0774 61.5452 52.4105 62.5242 51.0027 62.9479C50.58 63.1433 50.0986 63.1767 49.6522 63.0417C49.2059 62.9067 48.8263 62.6129 48.5873 62.2174L49.6246 61.0484C49.9062 61.5891 50.247 61.7206 50.5878 61.6183C50.9287 61.516 51.0917 60.9023 50.8101 59.9817C50.5286 59.0612 50.2025 58.6082 49.6839 58.769C49.1652 58.9297 49.1801 59.1489 49.2245 59.7626L47.7427 59.368C47.7351 58.9246 47.8828 58.4921 48.1608 58.1434C48.4388 57.7948 48.8302 57.5513 49.269 57.4539Z" fill="url(#paint21_radial_5_1780)"/>
<path d="M45.6974 63.9416C44.2155 64.0877 43.3412 63.3717 43.2227 62.2466C43.1675 61.9438 43.1962 61.632 43.3057 61.344C43.4153 61.056 43.6016 60.8024 43.8451 60.6101C43.7239 60.4101 43.5448 60.2505 43.331 60.1515C43.1171 60.0526 42.8781 60.0189 42.6447 60.0548V58.5936C43.9191 58.4767 44.2748 58.8274 45.1491 59.748L45.4454 60.0694H45.7418L45.5788 58.3598L47.1644 58.2137L47.7127 63.6494C47.031 63.7809 46.4087 63.8685 45.6974 63.9416ZM44.912 62.1005C44.9052 62.183 44.9182 62.2659 44.95 62.3425C44.9818 62.4192 45.0315 62.4873 45.095 62.5414C45.1585 62.5955 45.2341 62.634 45.3156 62.6539C45.3971 62.6738 45.4822 62.6744 45.564 62.6557C45.687 62.671 45.8114 62.671 45.9344 62.6557L45.8011 61.4137H45.5195C45.0453 61.4284 44.8675 61.6621 44.912 62.1005Z" fill="url(#paint22_radial_5_1780)"/>
<path d="M39.6221 63.9709C38.2885 63.8102 37.3697 62.875 37.6216 60.8293C37.8735 58.7837 38.9998 58.0969 40.3334 58.2577C41.6671 58.4184 42.571 59.3389 42.3191 61.3992C42.0672 63.4595 40.9854 64.1316 39.6221 63.9709ZM40.1556 59.6604C39.6962 59.6604 39.385 60.0841 39.2665 61.0193C39.1479 61.9544 39.2665 62.4805 39.7999 62.5681C40.3334 62.6558 40.5557 62.1298 40.6743 61.1946C40.7928 60.2595 40.6594 59.7188 40.2001 59.6604H40.1556Z" fill="url(#paint23_radial_5_1780)"/>
<path d="M35.7837 58.7251L33.9906 58.0822L34.5537 56.7963L37.7694 57.9653L35.8578 63.094L34.3759 62.5388L35.7837 58.7251Z" fill="url(#paint24_radial_5_1780)"/>
<path d="M32.2132 56.9718L30.598 55.9782L31.4131 54.8385L34.3767 56.6357L31.4131 61.2677L30.0497 60.4348L32.2132 56.9718Z" fill="url(#paint25_radial_5_1780)"/>
<path d="M25.2327 56.022C24.9598 55.801 24.7451 55.5182 24.6067 55.1978C24.4684 54.8774 24.4106 54.5288 24.4383 54.1816C24.4659 53.8344 24.5782 53.499 24.7655 53.2037C24.9529 52.9085 25.2097 52.6623 25.5143 52.4859C26.9961 51.2585 27.989 51.3608 29.1152 52.6321C29.4532 52.995 29.7651 53.3807 30.0487 53.7864L26.2849 57.0741C25.9155 56.742 25.5643 56.3909 25.2327 56.022ZM26.2404 55.1891L28.1816 53.4942L28.0483 53.348C27.6333 52.9097 27.2481 52.9827 26.5664 53.611C25.8848 54.2393 25.7218 54.59 26.1219 55.0722L26.2404 55.1891Z" fill="url(#paint26_radial_5_1780)"/>
<path d="M21.8399 51.4338C21.262 50.3817 21.4695 49.2128 23.144 48.3214C24.8185 47.4301 25.915 47.8685 26.493 48.9352C27.0709 50.0018 26.8782 51.1415 25.2038 52.0329C23.5293 52.9242 22.4031 52.4858 21.8399 51.4338ZM25.3519 49.5488C25.1445 49.1835 24.6258 49.1982 23.8701 49.6219C23.1143 50.0457 22.7883 50.4548 22.981 50.8201C23.1736 51.1854 23.7071 51.1416 24.4628 50.7324C25.2186 50.3233 25.5446 49.9141 25.3371 49.5488H25.3519Z" fill="url(#paint27_radial_5_1780)"/>
<path d="M22.9069 46.1442C23.47 46.0127 23.633 45.852 23.5886 45.6474C23.5441 45.4428 23.3219 45.3551 22.7439 45.4867L19.7802 46.1296L19.4542 44.6684L22.4179 44.0109C22.981 43.894 23.144 43.7187 23.0996 43.5141C23.0551 43.3095 22.8328 43.2364 22.2697 43.3533L19.306 44.0109L18.9801 42.5497L21.6918 41.9506C23.307 41.5853 24.1369 41.9506 24.3888 43.0465C24.4575 43.2667 24.4677 43.5005 24.4184 43.7257C24.3691 43.9508 24.262 44.1598 24.1072 44.3323C24.3222 44.4173 24.5107 44.5565 24.6537 44.736C24.7968 44.9156 24.8894 45.1291 24.9223 45.3552C25.1742 46.4803 24.5814 47.1378 22.9514 47.5031L20.2544 48.1022L19.9284 46.641L22.9069 46.1442Z" fill="url(#paint28_radial_5_1780)"/>
<path d="M21.7214 38.4877L19.1726 38.3269L19.2467 37.0703L24.2702 37.3918L24.1813 38.853L21.5436 39.8612L24.1072 40.0219L24.0183 41.2931L18.9948 40.9717L19.0985 39.5105L21.7214 38.4877Z" fill="url(#paint29_radial_5_1780)"/>
<path d="M22.5513 32.0584C22.4031 32.3507 22.4327 32.5406 22.5513 32.6283C23.0996 32.8913 23.633 30.9772 25.0556 31.6785C25.2685 31.7649 25.4581 31.899 25.6093 32.0701C25.7605 32.2413 25.8691 32.4449 25.9267 32.6647C25.9842 32.8845 25.989 33.1145 25.9407 33.3365C25.8924 33.5584 25.7923 33.7662 25.6484 33.9434C25.412 34.4462 25.0238 34.8646 24.537 35.1415L23.722 34.221C23.9164 34.1837 24.0993 34.1022 24.2562 33.983C24.4131 33.8637 24.5397 33.7101 24.6259 33.5342C24.7889 33.1982 24.7741 32.9644 24.6259 32.8621C24.048 32.5699 23.6479 34.5571 22.1216 33.8119C21.9272 33.7218 21.755 33.5912 21.6169 33.4291C21.4788 33.267 21.3781 33.0773 21.3217 32.873C21.2654 32.6687 21.2547 32.4547 21.2904 32.246C21.3262 32.0372 21.4075 31.8386 21.5288 31.6639C21.758 31.1685 22.1424 30.7588 22.6254 30.495L23.396 31.3863C23.0383 31.4969 22.7365 31.7371 22.5513 32.0584Z" fill="url(#paint30_radial_5_1780)"/>
<path d="M27.7667 30.875C27.0851 31.6786 26.1071 32.0001 24.6993 30.875C23.2915 29.7499 23.3508 28.8001 24.0918 27.9526C24.282 27.6249 24.5934 27.3826 24.9608 27.2764C25.3282 27.1702 25.7231 27.2083 26.0626 27.3828L25.8996 28.6394C25.4551 28.391 25.1587 28.4494 24.9809 28.6394C24.803 28.8293 24.9809 29.3407 25.5736 29.8375C26.1663 30.3343 26.6109 30.5243 26.8925 30.1882C27.174 29.8521 27.0703 29.706 26.7591 29.2969L27.989 28.8878C28.185 29.1951 28.2697 29.5587 28.2293 29.9196C28.189 30.2804 28.0259 30.6172 27.7667 30.875Z" fill="url(#paint31_radial_5_1780)"/>
<path d="M27.323 24.8694C27.4859 24.7015 27.6843 24.5712 27.9042 24.4877C28.124 24.4042 28.3598 24.3696 28.5948 24.3864C28.8298 24.4031 29.0581 24.4708 29.2635 24.5846C29.4689 24.6984 29.6462 24.8555 29.7829 25.0447C29.9532 25.244 30.0664 25.4845 30.1107 25.7415C30.155 25.9984 30.1288 26.2623 30.0348 26.5059C30.2079 26.5956 30.4038 26.6338 30.5985 26.6156C30.7933 26.5974 30.9784 26.5238 31.1314 26.4036L31.7686 27.368C30.9239 27.9817 30.5238 27.8794 29.5162 27.5872L29.1753 27.4849L28.9679 27.631L29.8125 28.7707L28.7604 29.5306L26.0635 25.9361C26.4624 25.5571 26.8829 25.201 27.323 24.8694ZM28.6567 25.8338C28.6249 25.7741 28.5796 25.7225 28.5243 25.6829C28.469 25.6433 28.4052 25.6169 28.3378 25.6056C28.2704 25.5942 28.2013 25.5984 28.1358 25.6177C28.0703 25.637 28.0103 25.6709 27.9602 25.7169C27.8799 25.7727 27.8055 25.8364 27.7379 25.9068L28.3455 26.7397L28.5382 26.5936C28.6071 26.5605 28.6668 26.5114 28.7123 26.4506C28.7577 26.3898 28.7876 26.319 28.7992 26.2443C28.8109 26.1696 28.804 26.0932 28.7792 26.0217C28.7544 25.9502 28.7123 25.8857 28.6567 25.8338Z" fill="url(#paint32_radial_5_1780)"/>
<path d="M31.6345 22.4291C32.6421 22.0346 33.6794 22.3268 34.3166 23.8903C34.9538 25.4538 34.4352 26.3743 33.4275 26.8127C32.4199 27.251 31.3825 26.9296 30.7453 25.3515C30.1082 23.7734 30.6268 22.8382 31.6345 22.4291ZM32.983 25.7168C33.3386 25.5707 33.3682 25.1177 33.0719 24.4017C32.7755 23.6857 32.4347 23.3643 32.079 23.5104C31.7234 23.6565 31.6938 24.1095 31.9901 24.8255C32.2865 25.5415 32.6421 25.8629 32.983 25.6876V25.7168Z" fill="url(#paint33_radial_5_1780)"/>
<path d="M36.4362 24.6793L37.918 24.4455L38.0365 25.5706L35.2655 25.9944L34.569 21.6108L35.8582 21.4063L36.4362 24.6793Z" fill="url(#paint34_radial_5_1780)"/>
<path d="M39.6212 24.4895L41.1772 24.5772L41.1031 25.6877L38.3024 25.527L38.5395 21.1434L39.8583 21.2165L39.6212 24.4895Z" fill="url(#paint35_radial_5_1780)"/>
<path d="M44.9119 22.7654C45.1855 22.8326 45.4386 22.9639 45.6496 23.1483C45.8606 23.3327 46.0233 23.5647 46.1237 23.8245C46.2241 24.0843 46.2594 24.3641 46.2264 24.6403C46.1934 24.9164 46.0932 25.1805 45.9344 25.4102C45.3416 26.7837 44.5414 27.0613 43.2819 26.5353C42.9161 26.3806 42.5599 26.205 42.2149 26.0093L43.7857 22.3563C44.1685 22.4719 44.5445 22.6085 44.9119 22.7654ZM44.4822 23.7006L43.6671 25.5855H43.8153C44.2599 25.7755 44.5118 25.5855 44.8082 24.8842C45.1045 24.1828 45.0749 23.8906 44.6304 23.7006H44.4822Z" fill="url(#paint36_radial_5_1780)"/>
<path d="M48.9577 24.9864C49.7134 25.5855 49.9209 26.5206 48.9577 27.6896C47.9945 28.8586 47.0461 28.8586 46.2904 28.2595C45.5346 27.6604 45.3124 26.7983 46.2904 25.5709C47.2684 24.3435 48.202 24.3873 48.9577 24.9864ZM47.0313 27.4558C47.298 27.6604 47.6685 27.4558 48.0982 26.9444C48.528 26.433 48.6465 26.0092 48.3798 25.8047C48.113 25.6001 47.7426 25.8047 47.298 26.3161C46.8535 26.8275 46.6905 27.2512 47.0313 27.4558Z" fill="url(#paint37_radial_5_1780)"/>
<path d="M49.7126 29.2092C49.3274 29.4576 49.2385 29.633 49.3422 29.7645C49.4459 29.896 49.6237 29.9106 50.009 29.6622L52.0243 28.391L52.6615 29.3699L50.6314 30.6412C50.2461 30.8896 50.172 31.0503 50.2609 31.1964C50.3498 31.3425 50.5425 31.3426 50.9278 31.0942L52.9579 29.8229L53.5803 30.8019L51.7132 31.9708C50.6018 32.6722 49.8757 32.643 49.3718 31.8686C49.2637 31.7203 49.1949 31.5477 49.1716 31.3665C49.1483 31.1854 49.1713 31.0013 49.2385 30.8311C49.0539 30.8237 48.8745 30.7685 48.7184 30.671C48.5624 30.5735 48.4351 30.4373 48.3494 30.2759C47.8455 29.5015 48.1123 28.8147 49.2385 28.1425L51.1056 26.959L51.7428 27.938L49.7126 29.2092Z" fill="url(#paint38_radial_5_1780)"/>
<path d="M52.5428 34.5862L54.5285 34.1041L54.7804 35.083L50.8683 36.0328L50.5868 34.9369L52.3502 33.5488L50.3645 34.031L50.1126 33.0374L54.0247 32.0876L54.3062 33.1835L52.5428 34.5862Z" fill="url(#paint39_radial_5_1780)"/>
<path d="M53.492 38.7507C53.492 38.5023 53.492 38.3708 53.2994 38.3562C52.84 38.3562 52.9734 39.8173 51.8176 39.7004C51.047 39.7004 50.6617 39.0867 50.7655 38.2393C50.7982 37.8082 50.9695 37.3987 51.2545 37.0703L52.0843 37.5379C51.956 37.6202 51.8482 37.73 51.7687 37.859C51.6892 37.9879 51.64 38.1329 51.6249 38.2831C51.6249 38.5753 51.6249 38.7361 51.8472 38.7507C52.351 38.7507 52.0991 37.2895 53.418 37.4064C53.5889 37.421 53.7544 37.473 53.9024 37.5586C54.0504 37.6441 54.1773 37.7611 54.2738 37.901C54.3703 38.0409 54.4339 38.2002 54.4602 38.3674C54.4865 38.5346 54.4747 38.7054 54.4256 38.8676C54.3971 39.2838 54.2305 39.6792 53.9514 39.9927L53.1364 39.5543C53.25 39.4529 53.3405 39.3288 53.4019 39.1902C53.4632 39.0517 53.4939 38.9018 53.492 38.7507Z" fill="url(#paint40_radial_5_1780)"/>
<path d="M49.9951 40.8255C50.3063 40.0656 50.9435 39.5981 52.2623 40.1095C53.5812 40.6209 53.7442 41.3223 53.4478 42.1552C53.3774 42.4375 53.2041 42.6845 52.9608 42.8489C52.7176 43.0133 52.4214 43.0836 52.129 43.0465L51.9363 42.0821C52.3216 42.0821 52.5291 42.0821 52.618 41.8337C52.7069 41.5853 52.455 41.3077 51.8771 41.0885C51.2991 40.8693 50.9435 40.8255 50.8249 41.0885C50.7064 41.3515 50.8249 41.483 51.1361 41.7022L50.3211 42.3013C50.1098 42.1248 49.9634 41.8846 49.9045 41.6179C49.8455 41.3511 49.8774 41.0726 49.9951 40.8255Z" fill="url(#paint41_radial_5_1780)"/>
<path d="M51.7437 45.1213C51.6577 45.2813 51.5369 45.4205 51.3899 45.529C51.2429 45.6375 51.0734 45.7126 50.8936 45.7489C50.7137 45.7852 50.5279 45.7818 50.3495 45.739C50.1712 45.6962 50.0046 45.615 49.8618 45.5013C49.6983 45.3932 49.5669 45.2442 49.481 45.0697C49.3951 44.8951 49.3577 44.7011 49.3727 44.5077C49.2258 44.4815 49.0744 44.4963 48.9356 44.5506C48.7969 44.6048 48.6762 44.6962 48.5874 44.8145L47.9057 44.23C48.4095 43.6017 48.7207 43.5871 49.5357 43.6017H49.8025L49.921 43.441L49.0467 42.7835L49.6839 41.9944L52.455 44.1131C52.2327 44.4638 52.0252 44.756 51.7437 45.1213ZM50.5286 44.683C50.562 44.7228 50.6038 44.7549 50.6512 44.7769C50.6986 44.7989 50.7503 44.8103 50.8027 44.8103C50.8551 44.8103 50.9068 44.7989 50.9542 44.7769C51.0016 44.7549 51.0435 44.7228 51.0769 44.683C51.1278 44.6244 51.1725 44.5607 51.2102 44.493L50.573 43.9962L50.4693 44.1424C50.4346 44.1805 50.4083 44.2255 50.3924 44.2743C50.3764 44.3231 50.371 44.3747 50.3766 44.4257C50.3822 44.4767 50.3986 44.526 50.4248 44.5703C50.451 44.6146 50.4864 44.653 50.5286 44.683Z" fill="url(#paint42_radial_5_1780)"/>
<path d="M49.0459 47.7662C48.3643 48.263 47.5641 48.2192 46.749 47.1672C45.934 46.1151 46.1859 45.3115 46.8676 44.8147C47.5492 44.3179 48.3495 44.3617 49.1645 45.4138C49.9795 46.4658 49.7276 47.2694 49.0459 47.7662ZM47.4011 45.5453C47.164 45.7206 47.2381 46.0713 47.5937 46.5535C47.9494 47.0357 48.2754 47.211 48.5124 47.0356C48.7495 46.8603 48.6754 46.5097 48.3198 46.0275C47.9642 45.5453 47.6382 45.3699 47.4011 45.5453Z" fill="url(#paint43_radial_5_1780)"/>
<path d="M45.1049 46.875L43.9787 47.3133L43.6972 46.4658L45.7273 45.6914L47.0017 48.9352L46.0533 49.3005L45.1049 46.875Z" fill="url(#paint44_radial_5_1780)"/>
<path d="M42.7337 47.4739L41.5334 47.6346V46.7579L43.6972 46.4658L44.1562 49.9141L43.1486 50.0456L42.7337 47.4739Z" fill="url(#paint45_radial_5_1780)"/>
<path d="M39.2217 49.505C38.2141 49.2858 37.8733 48.7306 38.1103 47.6785C38.3474 46.6265 38.8957 46.2174 39.9034 46.495C40.1996 46.5604 40.4916 46.6433 40.7777 46.7434L40.1108 49.6658C39.8112 49.6313 39.5142 49.5776 39.2217 49.505ZM39.4144 48.7452L39.7552 47.284H39.6366C39.281 47.211 39.118 47.3863 38.9995 47.927C38.8809 48.4676 38.9995 48.7014 39.2958 48.7891L39.4144 48.7452Z" fill="url(#paint46_radial_5_1780)"/>
<path d="M36.0658 48.3653C35.4286 48.0146 35.1619 47.3571 35.725 46.3781C36.2881 45.3991 36.9994 45.2822 37.6366 45.6475C38.2738 46.0128 38.5405 46.6557 37.9774 47.6347C37.4143 48.6137 36.6585 48.716 36.0658 48.3653ZM37.2513 46.305C37.029 46.1881 36.7771 46.3051 36.5103 46.8165C36.2436 47.3279 36.2288 47.5763 36.5103 47.6932C36.7919 47.8101 36.9845 47.6932 37.2513 47.1964C37.518 46.6996 37.4735 46.4365 37.2513 46.305Z" fill="url(#paint47_radial_5_1780)"/>
<path d="M35.1765 45.3407C35.4432 45.1215 35.4877 44.99 35.3988 44.8877C35.3098 44.7854 35.1765 44.8146 34.9098 45.0338L33.5316 46.1589L32.9685 45.5014L34.3467 44.3617C34.6134 44.1425 34.6578 44.011 34.5689 43.9087C34.48 43.8064 34.3466 43.8357 34.0799 44.0548L32.7018 45.1946L32.1387 44.5224L33.4131 43.4704C34.1836 42.8421 34.7171 42.7982 35.1617 43.3242C35.1381 43.4574 35.1441 43.5939 35.1792 43.7245C35.2143 43.8552 35.2776 43.9768 35.365 44.0809C35.4523 44.1851 35.5615 44.2693 35.685 44.3279C35.8085 44.3864 35.9434 44.4179 36.0804 44.4201C36.525 44.9462 36.3916 45.4576 35.6359 46.0859L34.3467 47.1379L33.7835 46.4804L35.1765 45.3407Z" fill="url(#paint48_radial_5_1780)"/>
<path d="M32.7463 41.7607L31.2645 42.2575L31.0126 41.5415L33.8429 40.5625L34.1393 41.3516L32.9241 42.5205L34.406 42.0237L34.6579 42.7397L31.8128 43.7187L31.5312 42.9296L32.7463 41.7607Z" fill="url(#paint49_radial_5_1780)"/>
<path d="M31.9008 38.9699C31.9008 39.1453 31.9008 39.2476 32.049 39.2476C32.3898 39.2476 32.212 38.1663 33.1011 38.1955C33.6494 38.1955 33.9458 38.5754 33.931 39.2184C33.9278 39.5295 33.824 39.8315 33.6346 40.0804L33.0122 39.7882C33.1056 39.7283 33.1819 39.6458 33.2337 39.5486C33.2856 39.4514 33.3114 39.3427 33.3086 39.2329C33.3086 39.0284 33.3086 38.9115 33.1159 38.9115C32.7603 38.9115 33.027 39.9928 32.0786 39.9635C31.9593 39.9588 31.8424 39.9292 31.7355 39.8767C31.6286 39.8242 31.5343 39.7499 31.4587 39.6587C31.383 39.5676 31.3279 39.4617 31.2968 39.348C31.2657 39.2343 31.2595 39.1154 31.2784 38.9991C31.2835 38.6996 31.3818 38.4089 31.56 38.1663L32.1676 38.4439C32.0879 38.508 32.0229 38.588 31.9769 38.6787C31.9309 38.7693 31.905 38.8686 31.9008 38.9699Z" fill="url(#paint50_radial_5_1780)"/>
<path d="M34.2284 37.4649C34.0506 38.0347 33.606 38.4 32.6428 38.1078C31.6796 37.8156 31.487 37.3188 31.6796 36.6466C31.7181 36.4429 31.8285 36.2593 31.9913 36.1282C32.154 35.9971 32.3586 35.9271 32.5687 35.9307L32.7614 36.6174C32.4798 36.6174 32.3465 36.6174 32.2872 36.8366C32.2279 37.0558 32.4354 37.2019 32.8651 37.3334C33.2948 37.4649 33.5467 37.4649 33.6208 37.2165C33.6949 36.9681 33.6208 36.9389 33.3541 36.7927L33.9024 36.3252C34.084 36.447 34.2163 36.628 34.2759 36.8365C34.3356 37.045 34.3187 37.2674 34.2284 37.4649Z" fill="url(#paint51_radial_5_1780)"/>
<path d="M32.6718 34.6739C32.7234 34.5548 32.8011 34.4484 32.8994 34.3624C32.9977 34.2764 33.114 34.213 33.2402 34.1767C33.3663 34.1403 33.499 34.132 33.6288 34.1523C33.7585 34.1726 33.8821 34.221 33.9906 34.294C34.1128 34.3636 34.2141 34.4637 34.2844 34.5843C34.3547 34.7049 34.3913 34.8417 34.3907 34.9807C34.4983 34.9953 34.6078 34.9782 34.7054 34.9313C34.803 34.8845 34.8843 34.8102 34.939 34.7177L35.4577 35.0977C35.1465 35.5799 34.9094 35.6091 34.3314 35.6383H34.1388L34.0647 35.7552L34.7167 36.1789L34.3166 36.778L32.2124 35.4191C32.3606 35.1707 32.494 34.9369 32.6718 34.6739ZM33.5609 34.9223C33.5321 34.8955 33.4972 34.8757 33.4592 34.8646C33.4212 34.8536 33.381 34.8515 33.342 34.8587C33.303 34.8658 33.2663 34.8819 33.2348 34.9056C33.2033 34.9294 33.178 34.9601 33.1608 34.9954V35.1415L33.635 35.4483L33.7091 35.346C33.738 35.3113 33.7575 35.2698 33.7655 35.2256C33.7736 35.1814 33.77 35.1358 33.7552 35.0933C33.7403 35.0508 33.7147 35.0128 33.6806 34.9828C33.6466 34.9529 33.6054 34.9321 33.5609 34.9223Z" fill="url(#paint52_radial_5_1780)"/>
<path d="M34.4505 32.8914C34.9099 32.4969 35.5174 32.4823 36.125 33.1983C36.7325 33.9143 36.614 34.4987 36.125 34.8786C35.636 35.2586 35.058 35.2732 34.4505 34.5572C33.8429 33.8412 33.9911 33.2713 34.4505 32.8914ZM35.7249 34.3526C35.8879 34.2211 35.8286 33.9727 35.5471 33.6513C35.2655 33.3298 35.0284 33.2129 34.8654 33.3444C34.7024 33.4759 34.7765 33.7243 35.058 34.0604C35.3396 34.3965 35.5767 34.528 35.7249 34.4549V34.3526Z" fill="url(#paint53_radial_5_1780)"/>
<path d="M37.1329 33.4465L37.9182 33.0959L38.1553 33.6803L36.6735 34.3233L35.6362 32.073L36.303 31.7662L37.1329 33.4465Z" fill="url(#paint54_radial_5_1780)"/>
<path d="M38.5842 32.9936L39.4436 32.8329L39.5177 33.4612L38.0359 33.7388L37.5913 31.2986L38.3174 31.1671L38.5842 32.9936Z" fill="url(#paint55_radial_5_1780)"/>
<path d="M40.5854 31.6054C41.2671 31.7077 41.519 32.0584 41.4004 32.7598C41.2819 33.4611 40.9262 33.7241 40.2446 33.6219L39.6667 33.4904L39.9927 31.5324L40.5854 31.6054ZM40.4817 32.1023L40.3187 33.1104H40.3928C40.6447 33.1104 40.7336 33.0228 40.8077 32.6575C40.8818 32.2922 40.8077 32.1461 40.5706 32.1023H40.4817Z" fill="url(#paint56_radial_5_1780)"/>
<path d="M42.4675 32.1899C42.912 32.3945 43.1195 32.8182 42.8083 33.505C42.4971 34.1917 42.0229 34.294 41.5784 34.0894C41.1338 33.8849 40.9264 33.4757 41.2375 32.789C41.5487 32.1022 42.0229 32 42.4675 32.1899ZM41.8007 33.6511C41.9488 33.7242 42.1118 33.6511 42.26 33.2858C42.4082 32.9205 42.4082 32.7598 42.26 32.6867C42.1118 32.6137 41.9488 32.7597 41.8007 33.0666C41.6525 33.3734 41.6377 33.5488 41.8007 33.6219V33.6511Z" fill="url(#paint57_radial_5_1780)"/>
<path d="M42.8822 34.0019C42.7192 34.1772 42.7044 34.2649 42.7637 34.3234C42.8229 34.3818 42.9267 34.3234 43.0897 34.1919L43.9195 33.3298L44.3344 33.7389L43.5046 34.601C43.3416 34.7617 43.3268 34.8494 43.386 34.9078C43.4453 34.9663 43.549 34.9078 43.7121 34.7763L44.5419 33.9289L44.9568 34.3234L44.2011 35.1124C43.7269 35.5946 43.3712 35.653 43.0452 35.3462C43.0525 35.2554 43.0392 35.1643 43.0064 35.0792C42.9735 34.9942 42.9219 34.9174 42.8552 34.8545C42.7885 34.7916 42.7085 34.744 42.6209 34.7153C42.5333 34.6867 42.4404 34.6775 42.3488 34.6887C42.0079 34.3672 42.0672 34.0165 42.5266 33.5343L43.2971 32.7453L43.7121 33.1544L42.8822 34.0019Z" fill="url(#paint58_radial_5_1780)"/>
<path d="M44.5569 35.9159L45.4756 35.4776L45.6979 35.9159L43.9048 36.7927L43.6529 36.2959L44.3494 35.4338L43.4455 35.8721L43.2084 35.4191L45.0162 34.5424L45.2681 35.0538L44.5569 35.9159Z" fill="url(#paint59_radial_5_1780)"/>
</g>
<defs>
<radialGradient id="paint0_radial_5_1780" cx="0" cy="0" r="1" gradientUnits="userSpaceOnUse" gradientTransform="translate(39.0195 37.6) rotate(97.0902) scale(26.5971 30.1207)">
<stop stop-color="white" stop-opacity="0"/>
<stop offset="1" stop-color="white"/>
</radialGradient>
<radialGradient id="paint1_radial_5_1780" cx="0" cy="0" r="1" gradientUnits="userSpaceOnUse" gradientTransform="translate(39.0195 37.6) rotate(97.0902) scale(26.5971 30.1207)">
<stop stop-color="white" stop-opacity="0"/>
<stop offset="1" stop-color="white"/>
</radialGradient>
<radialGradient id="paint2_radial_5_1780" cx="0" cy="0" r="1" gradientUnits="userSpaceOnUse" gradientTransform="translate(39.0195 37.6) rotate(97.0902) scale(26.5971 30.1207)">
<stop stop-color="white" stop-opacity="0"/>
<stop offset="1" stop-color="white"/>
</radialGradient>
<radialGradient id="paint3_radial_5_1780" cx="0" cy="0" r="1" gradientUnits="userSpaceOnUse" gradientTransform="translate(39.0195 37.6) rotate(97.0902) scale(26.5971 30.1207)">
<stop stop-color="white" stop-opacity="0"/>
<stop offset="1" stop-color="white"/>
</radialGradient>
<radialGradient id="paint4_radial_5_1780" cx="0" cy="0" r="1" gradientUnits="userSpaceOnUse" gradientTransform="translate(39.0195 37.6) rotate(97.0902) scale(26.5971 30.1207)">
<stop stop-color="white" stop-opacity="0"/>
<stop offset="1" stop-color="white"/>
</radialGradient>
<radialGradient id="paint5_radial_5_1780" cx="0" cy="0" r="1" gradientUnits="userSpaceOnUse" gradientTransform="translate(39.0195 37.6) rotate(97.0902) scale(26.5971 30.1207)">
<stop stop-color="white" stop-opacity="0"/>
<stop offset="1" stop-color="white"/>
</radialGradient>
<radialGradient id="paint6_radial_5_1780" cx="0" cy="0" r="1" gradientUnits="userSpaceOnUse" gradientTransform="translate(39.0195 37.6) rotate(97.0902) scale(26.5971 30.1207)">
<stop stop-color="white" stop-opacity="0"/>
<stop offset="1" stop-color="white"/>
</radialGradient>
<radialGradient id="paint7_radial_5_1780" cx="0" cy="0" r="1" gradientUnits="userSpaceOnUse" gradientTransform="translate(39.0195 37.6) rotate(97.0902) scale(26.5971 30.1207)">
<stop stop-color="white" stop-opacity="0"/>
<stop offset="1" stop-color="white"/>
</radialGradient>
<radialGradient id="paint8_radial_5_1780" cx="0" cy="0" r="1" gradientUnits="userSpaceOnUse" gradientTransform="translate(39.0195 37.6) rotate(97.0902) scale(26.5971 30.1207)">
<stop stop-color="white" stop-opacity="0"/>
<stop offset="1" stop-color="white"/>
</radialGradient>
<radialGradient id="paint9_radial_5_1780" cx="0" cy="0" r="1" gradientUnits="userSpaceOnUse" gradientTransform="translate(39.0195 37.6) rotate(97.0902) scale(26.5971 30.1207)">
<stop stop-color="white" stop-opacity="0"/>
<stop offset="1" stop-color="white"/>
</radialGradient>
<radialGradient id="paint10_radial_5_1780" cx="0" cy="0" r="1" gradientUnits="userSpaceOnUse" gradientTransform="translate(39.0195 37.6) rotate(97.0902) scale(26.5971 30.1207)">
<stop stop-color="white" stop-opacity="0"/>
<stop offset="1" stop-color="white"/>
</radialGradient>
<radialGradient id="paint11_radial_5_1780" cx="0" cy="0" r="1" gradientUnits="userSpaceOnUse" gradientTransform="translate(39.0195 37.6) rotate(97.0902) scale(26.5971 30.1207)">
<stop stop-color="white" stop-opacity="0"/>
<stop offset="1" stop-color="white"/>
</radialGradient>
<radialGradient id="paint12_radial_5_1780" cx="0" cy="0" r="1" gradientUnits="userSpaceOnUse" gradientTransform="translate(39.0195 37.6) rotate(97.0902) scale(26.5971 30.1207)">
<stop stop-color="white" stop-opacity="0"/>
<stop offset="1" stop-color="white"/>
</radialGradient>
<radialGradient id="paint13_radial_5_1780" cx="0" cy="0" r="1" gradientUnits="userSpaceOnUse" gradientTransform="translate(39.0195 37.6) rotate(97.0902) scale(26.5971 30.1207)">
<stop stop-color="white" stop-opacity="0"/>
<stop offset="1" stop-color="white"/>
</radialGradient>
<radialGradient id="paint14_radial_5_1780" cx="0" cy="0" r="1" gradientUnits="userSpaceOnUse" gradientTransform="translate(39.0195 37.6) rotate(97.0902) scale(26.5971 30.1207)">
<stop stop-color="white" stop-opacity="0"/>
<stop offset="1" stop-color="white"/>
</radialGradient>
<radialGradient id="paint15_radial_5_1780" cx="0" cy="0" r="1" gradientUnits="userSpaceOnUse" gradientTransform="translate(39.0195 37.6) rotate(97.0902) scale(26.5971 30.1207)">
<stop stop-color="white" stop-opacity="0"/>
<stop offset="1" stop-color="white"/>
</radialGradient>
<radialGradient id="paint16_radial_5_1780" cx="0" cy="0" r="1" gradientUnits="userSpaceOnUse" gradientTransform="translate(39.0195 37.6) rotate(97.0902) scale(26.5971 30.1207)">
<stop stop-color="white" stop-opacity="0"/>
<stop offset="1" stop-color="white"/>
</radialGradient>
<radialGradient id="paint17_radial_5_1780" cx="0" cy="0" r="1" gradientUnits="userSpaceOnUse" gradientTransform="translate(39.0195 37.6) rotate(97.0902) scale(26.5971 30.1207)">
<stop stop-color="white" stop-opacity="0"/>
<stop offset="1" stop-color="white"/>
</radialGradient>
<radialGradient id="paint18_radial_5_1780" cx="0" cy="0" r="1" gradientUnits="userSpaceOnUse" gradientTransform="translate(39.0195 37.6) rotate(97.0902) scale(26.5971 30.1207)">
<stop stop-color="white" stop-opacity="0"/>
<stop offset="1" stop-color="white"/>
</radialGradient>
<radialGradient id="paint19_radial_5_1780" cx="0" cy="0" r="1" gradientUnits="userSpaceOnUse" gradientTransform="translate(39.0195 37.6) rotate(97.0902) scale(26.5971 30.1207)">
<stop stop-color="white" stop-opacity="0"/>
<stop offset="1" stop-color="white"/>
</radialGradient>
<radialGradient id="paint20_radial_5_1780" cx="0" cy="0" r="1" gradientUnits="userSpaceOnUse" gradientTransform="translate(39.0195 37.6) rotate(97.0902) scale(26.5971 30.1207)">
<stop stop-color="white" stop-opacity="0"/>
<stop offset="1" stop-color="white"/>
</radialGradient>
<radialGradient id="paint21_radial_5_1780" cx="0" cy="0" r="1" gradientUnits="userSpaceOnUse" gradientTransform="translate(39.0195 37.6) rotate(97.0902) scale(26.5971 30.1207)">
<stop stop-color="white" stop-opacity="0"/>
<stop offset="1" stop-color="white"/>
</radialGradient>
<radialGradient id="paint22_radial_5_1780" cx="0" cy="0" r="1" gradientUnits="userSpaceOnUse" gradientTransform="translate(39.0195 37.6) rotate(97.0902) scale(26.5971 30.1207)">
<stop stop-color="white" stop-opacity="0"/>
<stop offset="1" stop-color="white"/>
</radialGradient>
<radialGradient id="paint23_radial_5_1780" cx="0" cy="0" r="1" gradientUnits="userSpaceOnUse" gradientTransform="translate(39.0195 37.6) rotate(97.0902) scale(26.5971 30.1207)">
<stop stop-color="white" stop-opacity="0"/>
<stop offset="1" stop-color="white"/>
</radialGradient>
<radialGradient id="paint24_radial_5_1780" cx="0" cy="0" r="1" gradientUnits="userSpaceOnUse" gradientTransform="translate(39.0195 37.6) rotate(97.0902) scale(26.5971 30.1207)">
<stop stop-color="white" stop-opacity="0"/>
<stop offset="1" stop-color="white"/>
</radialGradient>
<radialGradient id="paint25_radial_5_1780" cx="0" cy="0" r="1" gradientUnits="userSpaceOnUse" gradientTransform="translate(39.0195 37.6) rotate(97.0902) scale(26.5971 30.1207)">
<stop stop-color="white" stop-opacity="0"/>
<stop offset="1" stop-color="white"/>
</radialGradient>
<radialGradient id="paint26_radial_5_1780" cx="0" cy="0" r="1" gradientUnits="userSpaceOnUse" gradientTransform="translate(39.0195 37.6) rotate(97.0902) scale(26.5971 30.1207)">
<stop stop-color="white" stop-opacity="0"/>
<stop offset="1" stop-color="white"/>
</radialGradient>
<radialGradient id="paint27_radial_5_1780" cx="0" cy="0" r="1" gradientUnits="userSpaceOnUse" gradientTransform="translate(39.0195 37.6) rotate(97.0902) scale(26.5971 30.1207)">
<stop stop-color="white" stop-opacity="0"/>
<stop offset="1" stop-color="white"/>
</radialGradient>
<radialGradient id="paint28_radial_5_1780" cx="0" cy="0" r="1" gradientUnits="userSpaceOnUse" gradientTransform="translate(39.0195 37.6) rotate(97.0902) scale(26.5971 30.1207)">
<stop stop-color="white" stop-opacity="0"/>
<stop offset="1" stop-color="white"/>
</radialGradient>
<radialGradient id="paint29_radial_5_1780" cx="0" cy="0" r="1" gradientUnits="userSpaceOnUse" gradientTransform="translate(39.0195 37.6) rotate(97.0902) scale(26.5971 30.1207)">
<stop stop-color="white" stop-opacity="0"/>
<stop offset="1" stop-color="white"/>
</radialGradient>
<radialGradient id="paint30_radial_5_1780" cx="0" cy="0" r="1" gradientUnits="userSpaceOnUse" gradientTransform="translate(39.0195 37.6) rotate(97.0902) scale(26.5971 30.1207)">
<stop stop-color="white" stop-opacity="0"/>
<stop offset="1" stop-color="white"/>
</radialGradient>
<radialGradient id="paint31_radial_5_1780" cx="0" cy="0" r="1" gradientUnits="userSpaceOnUse" gradientTransform="translate(39.0195 37.6) rotate(97.0902) scale(26.5971 30.1207)">
<stop stop-color="white" stop-opacity="0"/>
<stop offset="1" stop-color="white"/>
</radialGradient>
<radialGradient id="paint32_radial_5_1780" cx="0" cy="0" r="1" gradientUnits="userSpaceOnUse" gradientTransform="translate(39.0195 37.6) rotate(97.0902) scale(26.5971 30.1207)">
<stop stop-color="white" stop-opacity="0"/>
<stop offset="1" stop-color="white"/>
</radialGradient>
<radialGradient id="paint33_radial_5_1780" cx="0" cy="0" r="1" gradientUnits="userSpaceOnUse" gradientTransform="translate(39.0195 37.6) rotate(97.0902) scale(26.5971 30.1207)">
<stop stop-color="white" stop-opacity="0"/>
<stop offset="1" stop-color="white"/>
</radialGradient>
<radialGradient id="paint34_radial_5_1780" cx="0" cy="0" r="1" gradientUnits="userSpaceOnUse" gradientTransform="translate(39.0195 37.6) rotate(97.0902) scale(26.5971 30.1207)">
<stop stop-color="white" stop-opacity="0"/>
<stop offset="1" stop-color="white"/>
</radialGradient>
<radialGradient id="paint35_radial_5_1780" cx="0" cy="0" r="1" gradientUnits="userSpaceOnUse" gradientTransform="translate(39.0195 37.6) rotate(97.0902) scale(26.5971 30.1207)">
<stop stop-color="white" stop-opacity="0"/>
<stop offset="1" stop-color="white"/>
</radialGradient>
<radialGradient id="paint36_radial_5_1780" cx="0" cy="0" r="1" gradientUnits="userSpaceOnUse" gradientTransform="translate(39.0195 37.6) rotate(97.0902) scale(26.5971 30.1207)">
<stop stop-color="white" stop-opacity="0"/>
<stop offset="1" stop-color="white"/>
</radialGradient>
<radialGradient id="paint37_radial_5_1780" cx="0" cy="0" r="1" gradientUnits="userSpaceOnUse" gradientTransform="translate(39.0195 37.6) rotate(97.0902) scale(26.5971 30.1207)">
<stop stop-color="white" stop-opacity="0"/>
<stop offset="1" stop-color="white"/>
</radialGradient>
<radialGradient id="paint38_radial_5_1780" cx="0" cy="0" r="1" gradientUnits="userSpaceOnUse" gradientTransform="translate(39.0195 37.6) rotate(97.0902) scale(26.5971 30.1207)">
<stop stop-color="white" stop-opacity="0"/>
<stop offset="1" stop-color="white"/>
</radialGradient>
<radialGradient id="paint39_radial_5_1780" cx="0" cy="0" r="1" gradientUnits="userSpaceOnUse" gradientTransform="translate(39.0195 37.6) rotate(97.0902) scale(26.5971 30.1207)">
<stop stop-color="white" stop-opacity="0"/>
<stop offset="1" stop-color="white"/>
</radialGradient>
<radialGradient id="paint40_radial_5_1780" cx="0" cy="0" r="1" gradientUnits="userSpaceOnUse" gradientTransform="translate(39.0195 37.6) rotate(97.0902) scale(26.5971 30.1207)">
<stop stop-color="white" stop-opacity="0"/>
<stop offset="1" stop-color="white"/>
</radialGradient>
<radialGradient id="paint41_radial_5_1780" cx="0" cy="0" r="1" gradientUnits="userSpaceOnUse" gradientTransform="translate(39.0195 37.6) rotate(97.0902) scale(26.5971 30.1207)">
<stop stop-color="white" stop-opacity="0"/>
<stop offset="1" stop-color="white"/>
</radialGradient>
<radialGradient id="paint42_radial_5_1780" cx="0" cy="0" r="1" gradientUnits="userSpaceOnUse" gradientTransform="translate(39.0195 37.6) rotate(97.0902) scale(26.5971 30.1207)">
<stop stop-color="white" stop-opacity="0"/>
<stop offset="1" stop-color="white"/>
</radialGradient>
<radialGradient id="paint43_radial_5_1780" cx="0" cy="0" r="1" gradientUnits="userSpaceOnUse" gradientTransform="translate(39.0195 37.6) rotate(97.0902) scale(26.5971 30.1207)">
<stop stop-color="white" stop-opacity="0"/>
<stop offset="1" stop-color="white"/>
</radialGradient>
<radialGradient id="paint44_radial_5_1780" cx="0" cy="0" r="1" gradientUnits="userSpaceOnUse" gradientTransform="translate(39.0195 37.6) rotate(97.0902) scale(26.5971 30.1207)">
<stop stop-color="white" stop-opacity="0"/>
<stop offset="1" stop-color="white"/>
</radialGradient>
<radialGradient id="paint45_radial_5_1780" cx="0" cy="0" r="1" gradientUnits="userSpaceOnUse" gradientTransform="translate(39.0195 37.6) rotate(97.0902) scale(26.5971 30.1207)">
<stop stop-color="white" stop-opacity="0"/>
<stop offset="1" stop-color="white"/>
</radialGradient>
<radialGradient id="paint46_radial_5_1780" cx="0" cy="0" r="1" gradientUnits="userSpaceOnUse" gradientTransform="translate(39.0195 37.6) rotate(97.0902) scale(26.5971 30.1207)">
<stop stop-color="white" stop-opacity="0"/>
<stop offset="1" stop-color="white"/>
</radialGradient>
<radialGradient id="paint47_radial_5_1780" cx="0" cy="0" r="1" gradientUnits="userSpaceOnUse" gradientTransform="translate(39.0195 37.6) rotate(97.0902) scale(26.5971 30.1207)">
<stop stop-color="white" stop-opacity="0"/>
<stop offset="1" stop-color="white"/>
</radialGradient>
<radialGradient id="paint48_radial_5_1780" cx="0" cy="0" r="1" gradientUnits="userSpaceOnUse" gradientTransform="translate(39.0195 37.6) rotate(97.0902) scale(26.5971 30.1207)">
<stop stop-color="white" stop-opacity="0"/>
<stop offset="1" stop-color="white"/>
</radialGradient>
<radialGradient id="paint49_radial_5_1780" cx="0" cy="0" r="1" gradientUnits="userSpaceOnUse" gradientTransform="translate(39.0195 37.6) rotate(97.0902) scale(26.5971 30.1207)">
<stop stop-color="white" stop-opacity="0"/>
<stop offset="1" stop-color="white"/>
</radialGradient>
<radialGradient id="paint50_radial_5_1780" cx="0" cy="0" r="1" gradientUnits="userSpaceOnUse" gradientTransform="translate(39.0195 37.6) rotate(97.0902) scale(26.5971 30.1207)">
<stop stop-color="white" stop-opacity="0"/>
<stop offset="1" stop-color="white"/>
</radialGradient>
<radialGradient id="paint51_radial_5_1780" cx="0" cy="0" r="1" gradientUnits="userSpaceOnUse" gradientTransform="translate(39.0195 37.6) rotate(97.0902) scale(26.5971 30.1207)">
<stop stop-color="white" stop-opacity="0"/>
<stop offset="1" stop-color="white"/>
</radialGradient>
<radialGradient id="paint52_radial_5_1780" cx="0" cy="0" r="1" gradientUnits="userSpaceOnUse" gradientTransform="translate(39.0195 37.6) rotate(97.0902) scale(26.5971 30.1207)">
<stop stop-color="white" stop-opacity="0"/>
<stop offset="1" stop-color="white"/>
</radialGradient>
<radialGradient id="paint53_radial_5_1780" cx="0" cy="0" r="1" gradientUnits="userSpaceOnUse" gradientTransform="translate(39.0195 37.6) rotate(97.0902) scale(26.5971 30.1207)">
<stop stop-color="white" stop-opacity="0"/>
<stop offset="1" stop-color="white"/>
</radialGradient>
<radialGradient id="paint54_radial_5_1780" cx="0" cy="0" r="1" gradientUnits="userSpaceOnUse" gradientTransform="translate(39.0195 37.6) rotate(97.0902) scale(26.5971 30.1207)">
<stop stop-color="white" stop-opacity="0"/>
<stop offset="1" stop-color="white"/>
</radialGradient>
<radialGradient id="paint55_radial_5_1780" cx="0" cy="0" r="1" gradientUnits="userSpaceOnUse" gradientTransform="translate(39.0195 37.6) rotate(97.0902) scale(26.5971 30.1207)">
<stop stop-color="white" stop-opacity="0"/>
<stop offset="1" stop-color="white"/>
</radialGradient>
<radialGradient id="paint56_radial_5_1780" cx="0" cy="0" r="1" gradientUnits="userSpaceOnUse" gradientTransform="translate(39.0195 37.6) rotate(97.0902) scale(26.5971 30.1207)">
<stop stop-color="white" stop-opacity="0"/>
<stop offset="1" stop-color="white"/>
</radialGradient>
<radialGradient id="paint57_radial_5_1780" cx="0" cy="0" r="1" gradientUnits="userSpaceOnUse" gradientTransform="translate(39.0195 37.6) rotate(97.0902) scale(26.5971 30.1207)">
<stop stop-color="white" stop-opacity="0"/>
<stop offset="1" stop-color="white"/>
</radialGradient>
<radialGradient id="paint58_radial_5_1780" cx="0" cy="0" r="1" gradientUnits="userSpaceOnUse" gradientTransform="translate(39.0195 37.6) rotate(97.0902) scale(26.5971 30.1207)">
<stop stop-color="white" stop-opacity="0"/>
<stop offset="1" stop-color="white"/>
</radialGradient>
<radialGradient id="paint59_radial_5_1780" cx="0" cy="0" r="1" gradientUnits="userSpaceOnUse" gradientTransform="translate(39.0195 37.6) rotate(97.0902) scale(26.5971 30.1207)">
<stop stop-color="white" stop-opacity="0"/>
<stop offset="1" stop-color="white"/>
</radialGradient>
<clipPath id="clip0_5_1780">
<rect width="72" height="64" fill="white"/>
</clipPath>
</defs>
</svg>
