<svg width="32" height="32" viewBox="0 0 32 32" fill="none" xmlns="http://www.w3.org/2000/svg">
<mask id="mask0_58_3610" style="mask-type:alpha" maskUnits="userSpaceOnUse" x="0" y="0" width="32" height="32">
<rect x="1" y="1" width="30" height="30" rx="15" stroke="url(#paint0_linear_58_3610)" stroke-width="2"/>
</mask>
<g mask="url(#mask0_58_3610)">
<path fill-rule="evenodd" clip-rule="evenodd" d="M-33.6349 -2.25442L-35.3962 -0.390823L-35.733 -1.04301L-33.3302 -4.85658L-32.9527 -4.25733L-33.449 -3.46966L-31.6877 -5.33325L-31.3508 -4.68106L-33.2164 -1.72011L-30.0948 -5.32337L-29.749 -4.68106L-32.4648 -0.370625L-28.5008 -5.31387L-28.1471 -4.68106L-31.7119 0.976712L-26.9038 -5.30778L-26.5453 -4.68106L-30.9582 2.32294L-25.3051 -5.30354L-24.9434 -4.68106L-30.2042 3.66852L-23.7055 -5.30044L-23.3416 -4.68106L-29.4498 5.01368L-22.1054 -5.29806L-21.7397 -4.68106L-28.6954 6.35857L-20.5049 -5.29618L-20.1379 -4.68106L-27.9407 7.70327L-18.9041 -5.29467L-18.536 -4.68106L-27.186 9.04782L-17.3031 -5.29341L-16.9342 -4.68106L-26.4313 10.3923L-15.702 -5.29236L-15.3323 -4.68106L-25.6764 11.7366L-14.1007 -5.29146L-13.7304 -4.68106L-24.9216 13.0809L-12.4994 -5.29069L-12.1286 -4.68106L-23.8843 13.9771L-10.8978 -5.29023L-10.5257 -4.68272L-22.9144 15.1984L-9.29734 -5.28821L-8.92287 -4.6843L-21.6601 15.9711L-7.69662 -5.28649L-7.31907 -4.68751L-20.184 16.6188L-6.09679 -5.28338L-5.71721 -4.68751L-18.5821 16.6188L-4.49494 -5.28338L-4.11536 -4.68751L-16.9803 16.6188L-2.89309 -5.28338L-2.51149 -4.69088L-15.2154 16.8163L-1.29319 -5.28031L-0.907604 -4.69436L-13.4441 17.0117L0.30669 -5.27714L0.696301 -4.69795L-11.6663 17.2048L1.90655 -5.27387L2.30022 -4.70166L-9.88207 17.3956L3.50639 -5.27049L3.90311 -4.70356L-8.18668 17.4901L5.10722 -5.26877L5.5081 -4.70942L-6.29471 17.77L6.70601 -5.26342L7.11206 -4.71349L-4.49163 17.9533L8.30579 -5.25972L8.71603 -4.71768L-2.68239 18.1341L9.90556 -5.25589L10.32 -4.722L-0.867039 18.3122L11.5053 -5.25195L11.924 -4.72645L0.954418 18.4874L13.1051 -5.24789L13.528 -4.73104L2.78182 18.6597L14.7048 -5.2437L15.132 -4.73576L4.61514 18.8291L16.3045 -5.23938L16.736 -4.74063L6.45429 18.9955L17.9042 -5.23493L18.34 -4.74564L8.29922 19.1586L19.504 -5.23034L19.944 -4.7508L10.1498 19.3185L21.1037 -5.22561L21.5479 -4.75611L12.0059 19.4752L22.7034 -5.22074L23.1519 -4.76157L13.8676 19.6283L24.3031 -5.21573L24.7559 -4.76718L15.7347 19.7778L25.9028 -5.21057L26.3598 -4.77295L17.607 19.9238L27.5026 -5.20526L27.9637 -4.77887L19.4845 20.0661L29.1023 -5.1998L29.5676 -4.78495L21.3672 20.2043L30.702 -5.19419L31.1714 -4.79119L22.8417 21.6499L32.3024 -4.76635L32.7728 -4.36587L24.7596 20.8054L33.6374 -3.9193L34.1087 -3.52164L27.8613 16.525L34.4358 -2.64092L34.9122 -2.25912L28.1899 20.6038L35.2353 -0.517916L35.715 -0.14672L30.6087 17.9816L35.4994 2.45695L35.9852 2.80728L32.5771 15.9921L35.4954 5.86012L35.9885 6.18383L32.5362 20.9357L35.4932 10.1051L35.9915 10.4076L32.9627 24.8291L35.4918 15.1954L35.9945 15.477L33.9723 26.4811L35.4894 20.2895L35.9981 20.5402L34.6793 29.4362L35.4903 26.218L36 26.4584L35.1991 32.8144L34.6755 32.6482L34.9061 30.8178L33.8503 35.0073L33.3425 34.7529L34.605 26.2372L32.2494 35.851L31.7443 35.5787L34.1364 22.5617L30.6451 35.8604L30.1454 35.5634L33.5489 19.3581L29.0418 35.8659L28.5466 35.5498L32.9472 16.7454L27.4378 35.8736L26.948 35.5366L32.7659 13.0288L25.565 35.8869L25.0824 35.5245L31.9514 11.1383L23.6933 35.8956L23.2154 35.5182L30.7841 9.77675L21.823 35.9L21.3492 35.5095L29.595 9.05052L19.9516 35.9072L19.4814 35.5063L27.3857 10.677L18.3499 35.9068L17.879 35.5079L26.9888 6.5909L16.2126 35.9109L15.7452 35.5017L25.1989 6.69312L14.0747 35.9165L13.6115 35.4956L23.4054 6.79824L11.9368 35.922L11.4777 35.4896L21.6079 6.90635L9.79889 35.9273L9.34401 35.4839L19.8066 7.01709L7.66095 35.9324L7.2103 35.4783L18.0012 7.13049L5.523 35.9374L5.07661 35.4728L16.1917 7.24661L3.38506 35.9423L2.94293 35.4675L14.3781 7.36532L1.24712 35.947L0.809261 35.4623L12.5603 7.48638L-0.890823 35.9516L-1.3244 35.4573L10.7382 7.60984L-3.02876 35.9561L-3.45807 35.4525L8.91172 7.73572L-5.16669 35.9604L-5.59173 35.4477L7.08084 7.86384L-7.30461 35.9646L-7.7254 35.4432L5.24551 7.99413L-9.44253 35.9687L-9.85907 35.4387L3.40567 8.12655L-11.5804 35.9726L-11.9927 35.4344L1.56125 8.26106L-13.7183 35.9764L-14.1264 35.4302L-0.287785 8.39757L-15.8562 35.9801L-16.2601 35.4261L-1.36966 7.06605L-18.262 35.9855L-18.6598 35.4203L-5.17559 10.6668L-20.1319 35.9872L-20.5276 35.4184L-5.86298 8.81849L-22.2697 35.9906L-22.6613 35.4147L-7.7309 8.96245L-24.4075 35.9938L-24.7951 35.4111L-9.60362 9.10808L-26.5453 35.997L-26.9288 35.4076L-11.4812 9.2554L-28.683 36.0001L-29.0626 35.4042L-16.1977 14.0979L-30.2849 36.0001L-30.6645 35.4042L-17.7995 14.0979L-31.8867 36.0001L-32.2663 35.4042L-16.4779 9.25608L-33.4906 35.1557L-33.8662 34.5535L-19.267 10.8787L-34.5597 33.8863L-34.9331 33.2808L-20.4775 10.0827L-35.095 31.7696L-35.466 31.1605L-23.207 11.7036L-35.6292 30.0752L-36 29.4655L-24.054 10.5055L-35.6297 27.5336L-36 26.9232L-24.901 9.30746L-35.6304 24.9921L-36 24.3808L-25.7481 8.10952L-35.6311 22.4508L-36 21.8384L-26.5953 6.91169L-35.6319 19.9096L-36 19.296L-27.4425 5.71401L-35.633 17.3688L-36 16.7536L-28.2899 4.51652L-35.6343 14.8283L-36 14.2113L-29.1374 3.3193L-35.636 12.2883L-36 11.6689L-29.9852 2.1225L-35.6383 9.74899L-36 9.12651L-30.8334 0.926352L-35.6415 7.21084L-36 6.58413L-31.6823 -0.268691L-35.6463 4.67456L-36 4.04175L-32.5326 -1.46158L-35.6542 2.14168L-36 1.49937L-33.6349 -2.25442Z" fill="#89989D"/>
<rect x="30.9995" y="1" width="30" height="30" rx="15" transform="rotate(90 30.9995 1)" fill="white"/>
</g>
<mask id="mask1_58_3610" style="mask-type:alpha" maskUnits="userSpaceOnUse" x="10" y="9" width="12" height="13">
<path d="M10.0664 20.0282C10.773 20.7124 11.6317 21.2312 12.5769 21.5451C13.5221 21.859 14.5289 21.9598 15.5204 21.8396C16.512 21.7194 17.4621 21.3816 18.2982 20.8517C19.1344 20.3219 19.8345 19.6142 20.3451 18.7825C20.8557 17.9508 21.1634 17.0172 21.2447 16.0529C21.3259 15.0885 21.1786 14.119 20.8139 13.2182C20.4493 12.3174 19.8769 11.5091 19.1405 10.8551C18.4041 10.201 17.5231 9.71852 16.5648 9.44434L16.6229 9.60319C18.3421 14.3046 15.1695 19.3492 10.0664 20.0282Z" fill="white"/>
</mask>
<g mask="url(#mask1_58_3610)">
<path fill-rule="evenodd" clip-rule="evenodd" d="M9.63598 9.86836L9.3071 10.4553L9.24419 10.2499L9.69287 9.04881L9.76338 9.23754L9.6707 9.48562L9.99959 8.89868L10.0625 9.10409L9.71413 10.0366L10.297 8.90179L10.3616 9.10409L9.85448 10.4617L10.5947 8.90478L10.6607 9.10409L9.99508 10.886L10.8929 8.9067L10.9599 9.10409L10.1358 11.31L11.1914 8.90804L11.259 9.10409L10.2766 11.7338L11.4901 8.90902L11.5581 9.10409L10.4175 12.1574L11.7889 8.90977L11.8572 9.10409L10.5584 12.581L12.0878 8.91036L12.1563 9.10409L10.6993 13.0045L12.3867 8.91083L12.4555 9.10409L10.8402 13.428L12.6857 8.91123L12.7546 9.10409L10.9812 13.8514L12.9847 8.91156L13.0537 9.10409L11.1221 14.2748L13.2837 8.91184L13.3528 9.10409L11.2631 14.6982L13.5827 8.91209L13.652 9.10409L11.4568 14.9804L13.8818 8.91223L13.9513 9.10356L11.6379 15.3651L14.1807 8.91287L14.2506 9.10307L11.8721 15.6085L14.4796 8.91341L14.5501 9.10206L12.1477 15.8125L14.7783 8.91439L14.8492 9.10206L12.4469 15.8125L15.0774 8.91439L15.1483 9.10206L12.746 15.8125L15.3765 8.91439L15.4478 9.101L13.0755 15.8747L15.6753 8.91536L15.7473 9.0999L13.4063 15.9362L15.9741 8.91635L16.0468 9.09877L13.7383 15.997L16.2728 8.91738L16.3463 9.0976L14.0715 16.0571L16.5716 8.91845L16.6456 9.097L14.3881 16.0869L16.8705 8.91899L16.9453 9.09516L14.7413 16.175L17.169 8.92067L17.2449 9.09388L15.078 16.2328L17.4678 8.92184L17.5444 9.09256L15.4159 16.2897L17.7665 8.92305L17.8439 9.0912L15.7549 16.3458L18.0652 8.92429L18.1434 9.08979L16.095 16.401L18.364 8.92557L18.4429 9.08835L16.4363 16.4552L18.6627 8.92689L18.7425 9.08686L16.7786 16.5086L18.9614 8.92825L19.042 9.08533L17.122 16.561L19.2601 8.92965L19.3415 9.08375L17.4665 16.6124L19.5589 8.93109L19.641 9.08212L17.8121 16.6627L19.8576 8.93258L19.9405 9.08045L18.1587 16.7121L20.1563 8.93412L20.2401 9.07873L18.5064 16.7603L20.455 8.93569L20.5396 9.07696L18.855 16.8074L20.7537 8.93732L20.8391 9.07515L19.2046 16.8534L21.0525 8.93899L21.1386 9.07328L19.5552 16.8982L21.3512 8.94071L21.4381 9.07137L19.9068 16.9417L21.6499 8.94248L21.7376 9.0694L20.1821 17.397L21.9488 9.07723L22.0366 9.20336L20.5403 17.131L22.1981 9.344L22.2861 9.46925L21.1195 15.7829L22.3472 9.74663L22.4361 9.86688L21.1808 17.0675L22.4964 10.4153L22.586 10.5322L21.6325 16.2417L22.5458 11.3522L22.6365 11.4625L22.0001 15.6151L22.545 12.424L22.6371 12.526L21.9924 17.1721L22.5446 13.761L22.6377 13.8562L22.0721 18.3983L22.5443 15.3641L22.6382 15.4528L22.2606 18.9186L22.5439 16.9685L22.6389 17.0475L22.3926 19.8493L22.5441 18.8357L22.6392 18.9114L22.4897 20.9132L22.3919 20.8609L22.435 20.2844L22.2378 21.6039L22.143 21.5238L22.3787 18.8418L21.9389 21.8696L21.8445 21.7839L22.2912 17.6842L21.6393 21.8726L21.546 21.779L22.1815 16.6752L21.3399 21.8743L21.2474 21.7748L22.0692 15.8523L21.0404 21.8767L20.9489 21.7706L22.0353 14.6818L20.6907 21.8809L20.6006 21.7668L21.8832 14.0864L20.3412 21.8837L20.2519 21.7648L21.6653 13.6576L19.9919 21.885L19.9034 21.7621L21.4432 13.4288L19.6425 21.8873L19.5546 21.761L21.0307 13.9411L19.3434 21.8872L19.2554 21.7615L20.9565 12.6542L18.9443 21.8885L18.857 21.7596L20.6223 12.6864L18.545 21.8902L18.4585 21.7577L20.2874 12.7195L18.1458 21.892L18.0601 21.7558L19.9517 12.7535L17.7466 21.8936L17.6616 21.754L19.6154 12.7884L17.3474 21.8953L17.2632 21.7522L19.2782 12.8241L16.9481 21.8968L16.8648 21.7505L18.9404 12.8607L16.5489 21.8984L16.4663 21.7488L18.6017 12.8981L16.1497 21.8999L16.0679 21.7472L18.2622 12.9362L15.7504 21.9013L15.6695 21.7456L17.922 12.9751L15.3512 21.9027L15.271 21.7441L17.5809 13.0147L14.952 21.9041L14.8726 21.7426L17.239 13.0551L14.5528 21.9054L14.4742 21.7412L16.8963 13.0961L14.1535 21.9067L14.0758 21.7398L16.5527 13.1378L13.7543 21.9079L13.6773 21.7384L16.2083 13.1802L13.3551 21.9091L13.2789 21.7371L15.863 13.2232L12.9559 21.9103L12.8805 21.7358L15.661 12.8038L12.5066 21.912L12.4324 21.7339L14.9503 13.9379L12.1575 21.9125L12.0836 21.7333L14.822 13.3558L11.7583 21.9136L11.6851 21.7322L14.4732 13.4011L11.3591 21.9146L11.2867 21.731L14.1235 13.447L10.9599 21.9156L10.8882 21.7299L13.7728 13.4934L10.5607 21.9166L10.4898 21.7289L12.8921 15.0185L10.2615 21.9166L10.1907 21.7289L12.593 15.0185L9.96242 21.9166L9.89154 21.7289L12.8398 13.4936L9.66293 21.6506L9.59279 21.461L12.319 14.0046L9.4633 21.2508L9.39356 21.0601L12.0929 13.7539L9.36334 20.5842L9.29404 20.3923L11.5832 14.2644L9.26357 20.0505L9.19434 19.8585L11.4251 13.8871L9.26348 19.25L9.19434 19.0578L11.2669 13.5098L9.26336 18.4496L9.19434 18.2571L11.1087 13.1325L9.26323 17.6492L9.19434 17.4564L10.9505 12.7552L9.26307 16.8489L9.19434 16.6556L10.7923 12.378L9.26287 16.0487L9.19434 15.8549L10.6341 12.0009L9.26262 15.2485L9.19434 15.0542L10.4758 11.6238L9.2623 14.4486L9.19434 14.2535L10.3175 11.2469L9.26188 13.6488L9.19434 13.4528L10.1591 10.8701L9.26128 12.8494L9.19434 12.652L10.0006 10.4938L9.26039 12.0506L9.19434 11.8513L9.84183 10.1181L9.25891 11.2529L9.19434 11.0506L9.63598 9.86836Z" fill="white"/>
</g>
<defs>
<linearGradient id="paint0_linear_58_3610" x1="16" y1="0" x2="16" y2="32" gradientUnits="userSpaceOnUse">
<stop stop-color="#191A1D"/>
<stop offset="1" stop-color="#373C42"/>
</linearGradient>
</defs>
</svg>
