<svg width="27" height="22" viewBox="0 0 27 22" fill="none" xmlns="http://www.w3.org/2000/svg">
<mask id="mask0_901_9117" style="mask-type:alpha" maskUnits="userSpaceOnUse" x="0" y="0" width="27" height="22">
<path fill-rule="evenodd" clip-rule="evenodd" d="M0.349335 13.0311C0.349335 13.0311 0.351845 13.0311 0.351845 10.9993C0.351846 8.9676 0.349335 8.9676 0.349335 8.9676L0.347009 8.96761L0.342908 8.96762L0.336878 8.96766C0.333818 8.96769 0.333335 8.9677 0.333335 8.9677C0.333335 8.9677 0.343372 8.9675 0.358861 8.96688C0.389912 8.96565 0.447814 8.96269 0.528668 8.95581C0.691138 8.94199 0.941405 8.91274 1.24945 8.85158C1.87246 8.72788 2.68631 8.48273 3.48567 8.00659C4.95038 7.13414 6.7474 4.76224 6.7474 0.332682L11.0111 0.332682C11.0111 3.97496 10.0142 7.10919 8.56866 8.9676L27 8.9676L27 13.0311L8.56866 13.0311C10.0142 14.8895 11.0111 18.0237 11.0111 21.666L6.7474 21.666C6.7474 17.2365 4.95038 14.8646 3.48567 13.9921C2.6863 13.516 1.87246 13.2708 1.24945 13.1471C0.941405 13.086 0.691138 13.0567 0.528667 13.0429C0.447813 13.036 0.389912 13.033 0.35886 13.0318C0.343372 13.0312 0.333335 13.031 0.333335 13.031C0.333335 13.031 0.333817 13.031 0.336877 13.031L0.342908 13.0311L0.347009 13.0311L0.349335 13.0311Z" fill="url(#paint0_linear_901_9117)"/>
</mask>
<g mask="url(#mask0_901_9117)">
<path fill-rule="evenodd" clip-rule="evenodd" d="M-0.0364355 -1.48226L-0.753988 -0.159706L-0.891232 -0.622548L0.0876779 -3.32895L0.241499 -2.90368L0.0393086 -2.34468L0.756862 -3.66724L0.894106 -3.20439L0.134054 -1.10307L1.40583 -3.66023L1.54671 -3.20439L0.44026 -0.145371L2.05521 -3.65348L2.19932 -3.20439L0.747017 0.810803L2.70587 -3.64916L2.85193 -3.20439L1.05406 1.76619L3.35718 -3.64615L3.50453 -3.20439L1.36127 2.72112L4.00886 -3.64395L4.15714 -3.20439L1.66858 3.67575L4.66077 -3.64226L4.80975 -3.20439L1.97597 4.63019L5.31283 -3.64093L5.46235 -3.20439L2.2834 5.58449L5.96501 -3.63985L6.11496 -3.20439L2.59088 6.53868L6.61726 -3.63896L6.76757 -3.20439L2.89837 7.49281L7.26957 -3.63822L7.42017 -3.20439L3.2059 8.44687L7.92193 -3.63758L8.07278 -3.20439L3.51343 9.40088L8.57433 -3.63703L8.72539 -3.20439L3.93601 10.0369L9.22681 -3.63671L9.37842 -3.20557L4.33118 10.9036L9.87886 -3.63527L10.0314 -3.20669L4.84216 11.452L10.531 -3.63405L10.6848 -3.20897L5.44356 11.9117L11.1828 -3.63185L11.3374 -3.20897L6.09617 11.9117L11.8354 -3.63185L11.99 -3.20897L6.74877 11.9117L12.488 -3.63185L12.6435 -3.21136L7.4678 12.0518L13.1398 -3.62966L13.2969 -3.21383L8.18945 12.1905L13.7916 -3.62741L13.9503 -3.21638L8.91374 12.3275L14.4434 -3.62509L14.6038 -3.21901L9.64064 12.4629L15.0952 -3.6227L15.2568 -3.22035L10.3314 12.53L15.7474 -3.62147L15.9107 -3.22452L11.1022 12.7286L16.3987 -3.61768L16.5642 -3.2274L11.8367 12.8587L17.0505 -3.61505L17.2176 -3.23038L12.5738 12.987L17.7023 -3.61234L17.8711 -3.23344L13.3134 13.1134L18.354 -3.60954L18.5246 -3.2366L14.0555 13.2377L19.0058 -3.60666L19.1781 -3.23986L14.8 13.36L19.6575 -3.60368L19.8315 -3.24321L15.5469 13.4803L20.3093 -3.60062L20.485 -3.24667L16.2962 13.5983L20.961 -3.59746L21.1385 -3.25022L17.0478 13.7141L21.6127 -3.5942L21.792 -3.25389L17.8018 13.8276L22.2645 -3.59085L22.4455 -3.25765L18.558 13.9388L22.9162 -3.58739L23.0989 -3.26153L19.3164 14.0474L23.5679 -3.58383L23.7524 -3.26551L20.0771 14.1535L24.2197 -3.58017L24.4058 -3.2696L20.8399 14.2571L24.8714 -3.57641L25.0593 -3.27381L21.6048 14.3581L25.5232 -3.57253L25.7127 -3.27812L22.3718 14.4562L26.1749 -3.56855L26.3661 -3.28255L22.9725 15.4821L26.8269 -3.26492L27.0185 -2.98071L23.7539 14.8828L27.3708 -2.66379L27.5628 -2.38157L25.0176 11.845L27.6961 -1.75655L27.8902 -1.48559L25.1514 14.7397L28.0218 -0.249901L28.2172 0.0135281L26.1369 12.8788L28.1294 1.8613L28.3273 2.10992L26.9388 11.4669L28.1278 4.27645L28.3286 4.50618L26.9222 14.9753L28.1269 7.28902L28.3299 7.50368L27.0959 17.7383L28.1263 10.9015L28.3311 11.1013L27.5072 18.9107L28.1253 14.5167L28.3326 14.6945L27.7952 21.0079L28.1257 18.7239L28.3333 18.8946L28.007 23.4053L27.7937 23.2873L27.8877 21.9883L27.4575 24.9615L27.2507 24.781L27.765 18.7376L26.8053 25.5603L26.5995 25.3671L27.5741 16.1292L26.1517 25.5669L25.9481 25.3562L27.3347 13.8556L25.4985 25.5709L25.2968 25.3466L27.0896 12.0015L24.845 25.5763L24.6455 25.3371L27.0158 9.36392L24.082 25.5858L23.8854 25.3286L26.6839 8.02225L23.3195 25.592L23.1248 25.3241L26.2083 7.05599L22.5575 25.5951L22.3645 25.318L25.7239 6.5406L21.7951 25.6002L21.6035 25.3157L24.8238 7.69489L21.1426 25.5999L20.9507 25.3168L24.6621 4.79507L20.2718 25.6028L20.0814 25.3124L23.9329 4.86761L19.4008 25.6068L19.2121 25.3081L23.2022 4.94221L18.5298 25.6107L18.3428 25.3039L22.4699 5.01893L17.6588 25.6144L17.4735 25.2998L21.736 5.09752L16.7878 25.6181L16.6042 25.2958L21.0005 5.178L15.9168 25.6216L15.7349 25.2919L20.2633 5.26041L15.0458 25.6251L14.8656 25.2881L19.5244 5.34466L14.1748 25.6285L13.9964 25.2845L18.7838 5.43057L13.3037 25.6317L13.1271 25.2809L18.0415 5.51818L12.4327 25.6349L12.2578 25.2775L17.2974 5.60752L11.5617 25.6379L11.3886 25.2741L16.5515 5.69844L10.6907 25.6409L10.5193 25.2709L15.8037 5.79091L9.81971 25.6438L9.65001 25.2677L15.0542 5.88488L8.94872 25.6466L8.78073 25.2646L14.3027 5.98034L8.07773 25.6493L7.91145 25.2617L13.5494 6.07722L7.20674 25.6519L7.04217 25.2588L13.1087 5.13227L6.22658 25.6557L6.06454 25.2546L11.5581 7.68765L5.46479 25.657L5.30359 25.2533L11.278 6.37594L4.59383 25.6593L4.43429 25.2506L10.517 6.4781L3.72287 25.6617L3.56498 25.2481L9.75408 6.58145L2.85193 25.6639L2.69566 25.2456L8.98914 6.686L1.98099 25.6661L1.82634 25.2432L7.06761 10.1226L1.32838 25.6661L1.17374 25.2432L6.415 10.1226L0.675773 25.6661L0.52113 25.2432L6.95346 6.68648L0.0223445 25.0669L-0.13068 24.6395L5.81713 7.83805L-0.413191 24.166L-0.565353 23.7363L5.32396 7.27309L-0.631278 22.6638L-0.782464 22.2315L4.21195 8.42341L-0.84894 21.4613L-1 21.0287L3.86688 7.57316L-0.849153 19.6576L-1 19.2244L3.5218 6.72295L-0.849402 17.854L-1 17.4201L3.17669 5.8728L-0.849696 16.0504L-1 15.6159L2.83156 5.02272L-0.85005 14.2471L-1 13.8116L2.48639 4.17275L-0.850482 12.4439L-1 12.0073L2.14116 3.32293L-0.851023 10.6409L-1 10.2031L1.79587 2.47329L-0.851718 8.83835L-1 8.3988L1.45047 1.62395L-0.852646 7.03629L-1 6.59453L1.10491 0.775063L-0.853945 5.23502L-1 4.79026L0.759059 -0.0730316L-0.85589 3.43508L-1 2.98599L0.412658 -0.919601L-0.859115 1.63755L-1 1.18172L-0.0364355 -1.48226Z" fill="#89989D"/>
</g>
<defs>
<linearGradient id="paint0_linear_901_9117" x1="13.6667" y1="21.666" x2="13.6667" y2="0.332682" gradientUnits="userSpaceOnUse">
<stop stop-color="#FFD87E"/>
<stop offset="1" stop-color="#FFB200"/>
</linearGradient>
</defs>
</svg>
