<svg width="27" height="22" viewBox="0 0 27 22" fill="none" xmlns="http://www.w3.org/2000/svg">
<mask id="mask0_901_4462" style="mask-type:alpha" maskUnits="userSpaceOnUse" x="0" y="0" width="27" height="22">
<path fill-rule="evenodd" clip-rule="evenodd" d="M26.6507 8.96891C26.6507 8.96891 26.6482 8.9689 26.6482 11.0007C26.6482 13.0324 26.6507 13.0324 26.6507 13.0324L26.653 13.0324L26.6571 13.0324L26.6631 13.0323C26.6662 13.0323 26.6667 13.0323 26.6667 13.0323C26.6667 13.0323 26.6566 13.0325 26.6411 13.0331C26.6101 13.0343 26.5522 13.0373 26.4713 13.0442C26.3089 13.058 26.0586 13.0873 25.7505 13.1484C25.1275 13.2721 24.3137 13.5173 23.5143 13.9934C22.0496 14.8659 20.2526 17.2378 20.2526 21.6673H15.9889C15.9889 18.025 16.9858 14.8908 18.4313 13.0324H0V8.9689H18.4313C16.9858 7.11049 15.9889 3.97626 15.9889 0.333984H20.2526C20.2526 4.76354 22.0496 7.13544 23.5143 8.00789C24.3137 8.48404 25.1275 8.72918 25.7505 8.85288C26.0586 8.91404 26.3089 8.94329 26.4713 8.95711C26.5522 8.96399 26.6101 8.96695 26.6411 8.96819C26.6566 8.9688 26.6667 8.96901 26.6667 8.96901C26.6667 8.96901 26.6662 8.96899 26.6631 8.96897L26.6571 8.96892L26.653 8.96891L26.6507 8.96891Z" fill="url(#paint0_linear_901_4462)"/>
</mask>
<g mask="url(#mask0_901_4462)">
<path fill-rule="evenodd" clip-rule="evenodd" d="M27.0364 23.4823L27.754 22.1597L27.8912 22.6225L26.9123 25.329L26.7585 24.9037L26.9607 24.3447L26.2431 25.6672L26.1059 25.2044L26.8659 23.1031L25.5942 25.6602L25.4533 25.2044L26.5597 22.1454L24.9448 25.6535L24.8007 25.2044L26.253 21.1892L24.2941 25.6492L24.1481 25.2044L25.9459 20.2338L23.6428 25.6462L23.4955 25.2044L25.6387 19.2789L22.9911 25.6439L22.8429 25.2044L25.3314 18.3243L22.3392 25.6423L22.1903 25.2044L25.024 17.3698L21.6872 25.6409L21.5376 25.2044L24.7166 16.4155L21.035 25.6399L20.885 25.2044L24.4091 15.4613L20.3827 25.639L20.2324 25.2044L24.1016 14.5072L19.7304 25.6382L19.5798 25.2044L23.7941 13.5531L19.0781 25.6376L18.9272 25.2044L23.4866 12.5991L18.4257 25.637L18.2746 25.2044L23.064 11.9631L17.7732 25.6367L17.6216 25.2056L22.6688 11.0964L17.1211 25.6353L16.9686 25.2067L22.1578 10.548L16.469 25.634L16.3152 25.209L21.5564 10.0883L15.8172 25.6318L15.6626 25.209L20.9038 10.0883L15.1646 25.6318L15.01 25.209L20.2512 10.0883L14.512 25.6318L14.3565 25.2114L19.5322 9.94818L13.8602 25.6297L13.7031 25.2138L18.8105 9.80951L13.2084 25.6274L13.0497 25.2164L18.0863 9.67247L12.5566 25.6251L12.3962 25.219L17.3594 9.53707L11.9048 25.6227L11.7432 25.2204L16.6686 9.46999L11.2526 25.6215L11.0893 25.2245L15.8978 9.27141L10.6013 25.6177L10.4358 25.2274L15.1633 9.14127L9.94949 25.6151L9.78236 25.2304L14.4262 9.01298L9.29774 25.6123L9.12889 25.2334L13.6866 8.88661L8.64598 25.6095L8.47541 25.2366L12.9445 8.76228L7.99423 25.6067L7.82193 25.2399L12.2 8.63996L7.34249 25.6037L7.16845 25.2432L11.4531 8.51973L6.69075 25.6006L6.51497 25.2467L10.7038 8.40169L6.03901 25.5975L5.8615 25.2502L9.95217 8.28593L5.38728 25.5942L5.20802 25.2539L9.19823 8.17244L4.73554 25.5908L4.55455 25.2577L8.44203 8.06123L4.08381 25.5874L3.90108 25.2615L7.68357 7.95258L3.43207 25.5838L3.24762 25.2655L6.9229 7.84649L2.78033 25.5802L2.59416 25.2696L6.1601 7.74287L2.12859 25.5764L1.94072 25.2738L5.39519 7.64188L1.47684 25.5725L1.28728 25.2781L4.62818 7.54378L0.825094 25.5686L0.633858 25.2825L4.02745 6.5179L0.173096 25.2649L-0.0185414 24.9807L3.24609 7.1172L-0.370802 24.6638L-0.562794 24.3816L1.98243 10.155L-0.696078 23.7566L-0.890169 23.4856L1.84856 7.2603L-1.02178 22.2499L-1.21721 21.9865L0.863131 9.1212L-1.12939 20.1387L-1.32731 19.8901L0.0611769 10.5331L-1.12775 17.7236L-1.32864 17.4938L0.077843 7.02474L-1.12688 14.711L-1.32986 14.4963L-0.0959015 4.26167L-1.12628 11.0985L-1.33109 10.8987L-0.507237 3.08933L-1.1253 7.48333L-1.33255 7.30546L-0.79525 0.992125L-1.12569 3.27605L-1.33333 3.1054L-1.00703 -1.40528L-0.793717 -1.28733L-0.887688 0.0116564L-0.457522 -2.96154L-0.250659 -2.78098L-0.764984 3.26238L0.194698 -3.56028L0.400487 -3.36708L-0.574074 5.8708L0.848275 -3.56694L1.05186 -3.35619L-0.334726 8.14438L1.50148 -3.57085L1.70324 -3.34658L-0.0896105 9.99849L2.15497 -3.5763L2.35452 -3.33715L-0.015752 12.6361L2.91798 -3.58577L3.11456 -3.32855L0.316104 13.9778L3.68051 -3.59198L3.8752 -3.32412L0.791656 14.944L4.44249 -3.59507L4.63551 -3.31796L1.27612 15.4594L5.20489 -3.60017L5.39647 -3.31567L2.1762 14.3051L5.85743 -3.59988L6.04928 -3.3168L2.33791 17.2049L6.72819 -3.6028L6.91861 -3.31237L3.0671 17.1324L7.59918 -3.60678L7.78792 -3.30806L3.79781 17.0578L8.47019 -3.61066L8.65722 -3.30385L4.53011 16.9811L9.34119 -3.61443L9.52652 -3.29976L5.264 16.9025L10.2122 -3.61809L10.3958 -3.29578L5.99951 16.822L11.0832 -3.62164L11.2651 -3.2919L6.7367 16.7396L11.9542 -3.6251L12.1344 -3.28814L7.47559 16.6553L12.8252 -3.62845L13.0036 -3.28448L8.21618 16.5694L13.6963 -3.63171L13.8729 -3.28092L8.95851 16.4818L14.5673 -3.63487L14.7422 -3.27746L9.70263 16.3925L15.4383 -3.63794L15.6114 -3.27411L10.4485 16.3016L16.3093 -3.64091L16.4807 -3.27086L11.1963 16.2091L17.1803 -3.64379L17.35 -3.2677L11.9458 16.1151L18.0513 -3.64659L18.2193 -3.26463L12.6973 16.0197L18.9223 -3.6493L19.0885 -3.26166L13.4506 15.9228L19.7933 -3.65193L19.9578 -3.25877L13.8913 16.8677L20.7734 -3.65573L20.9355 -3.25461L15.4419 14.3123L21.5352 -3.65695L21.6964 -3.25326L15.722 15.6241L22.4062 -3.65935L22.5657 -3.25063L16.483 15.5219L23.2771 -3.66167L23.435 -3.24809L17.2459 15.4185L24.1481 -3.66392L24.3043 -3.24561L18.0109 15.314L25.019 -3.6661L25.1737 -3.24322L19.9324 11.8774L25.6716 -3.6661L25.8263 -3.24322L20.585 11.8774L26.3242 -3.6661L26.4789 -3.24322L20.0465 15.3135L26.9777 -3.06688L27.1307 -2.63952L21.1829 14.1619L27.4132 -2.16597L27.5654 -1.73627L21.676 14.7269L27.6313 -0.663847L27.7825 -0.231531L22.788 13.5766L27.8489 0.538675L28 0.971313L23.1331 14.4268L27.8492 2.3424L28 2.77558L23.4782 15.2771L27.8494 4.14603L28 4.57985L23.8233 16.1272L27.8497 5.94955L28 6.38412L24.1684 16.9773L27.85 7.75293L28 8.18839L24.5136 17.8272L27.8505 9.55613L28 9.99266L24.8588 18.6771L27.851 11.3591L28 11.7969L25.2041 19.5267L27.8517 13.1616L28 13.6012L25.5495 20.3761L27.8526 14.9637L28 15.4055L25.8951 21.2249L27.8539 16.765L28 17.2097L26.2409 22.073L27.8559 18.5649L28 19.014L26.5873 22.9196L27.8591 20.3624L28 20.8183L27.0364 23.4823Z" fill="white"/>
</g>
<defs>
<linearGradient id="paint0_linear_901_4462" x1="13.3333" y1="0.333984" x2="13.3333" y2="21.6673" gradientUnits="userSpaceOnUse">
<stop stop-color="#FFD87E"/>
<stop offset="1" stop-color="#FFB200"/>
</linearGradient>
</defs>
</svg>
