<svg width="27" height="22" viewBox="0 0 27 22" fill="none" xmlns="http://www.w3.org/2000/svg">
<mask id="mask0_901_9128" style="mask-type:alpha" maskUnits="userSpaceOnUse" x="0" y="0" width="27" height="22">
<path fill-rule="evenodd" clip-rule="evenodd" d="M0.0153494 12.6983C0.0153494 12.6983 0.01786 12.6983 0.01786 10.6666C0.01786 8.63484 0.0153494 8.63484 0.0153494 8.63484L0.013024 8.63485L0.00892238 8.63486L0.00289207 8.6349C-0.000167738 8.63493 -0.000650031 8.63494 -0.000650031 8.63494C-0.000650031 8.63494 0.00938695 8.63474 0.024875 8.63412C0.0559265 8.63289 0.113828 8.62993 0.194682 8.62305C0.357153 8.60922 0.607419 8.57998 0.915466 8.51882C1.53847 8.39512 2.35232 8.14997 3.15169 7.67383C4.61639 6.80137 6.41342 4.42948 6.41342 -8.01086e-05H10.6771C10.6771 3.6422 9.68017 6.77643 8.23468 8.63484L26.666 8.63484V12.6983L8.23468 12.6983C9.68017 14.5567 10.6771 17.691 10.6771 21.3333H6.41342C6.41342 16.9037 4.61639 14.5318 3.15169 13.6593C2.35232 13.1832 1.53847 12.9381 0.915466 12.8144C0.607419 12.7532 0.357153 12.7239 0.194682 12.7101C0.113828 12.7032 0.0559265 12.7003 0.024875 12.6991C0.00938695 12.6984 -0.000650031 12.6982 -0.000650031 12.6982C-0.000650031 12.6982 -0.000167738 12.6982 0.00289207 12.6983L0.00892238 12.6983L0.013024 12.6983L0.0153494 12.6983Z" fill="url(#paint0_linear_901_9128)"/>
</mask>
<g mask="url(#mask0_901_9128)">
<path fill-rule="evenodd" clip-rule="evenodd" d="M-0.37042 -1.81502L-1.08797 -0.49247L-1.22522 -0.955312L-0.246306 -3.66172L-0.0924856 -3.23645L-0.294676 -2.67745L0.422877 -4L0.560121 -3.53716L-0.19993 -1.43584L1.07184 -3.99299L1.21273 -3.53716L0.106276 -0.478135L1.72123 -3.98625L1.86533 -3.53716L0.413033 0.478039L2.37189 -3.98192L2.51794 -3.53716L0.720075 1.43343L3.02319 -3.97892L3.17055 -3.53716L1.02728 2.38836L3.67487 -3.97671L3.82315 -3.53716L1.3346 3.34299L4.32678 -3.97503L4.47576 -3.53716L1.64198 4.29743L4.97885 -3.97369L5.12837 -3.53716L1.94942 5.25172L5.63102 -3.97262L5.78097 -3.53716L2.25689 6.20592L6.28328 -3.97173L6.43358 -3.53716L2.56439 7.16004L6.93559 -3.97098L7.08619 -3.53716L2.87191 8.1141L7.58795 -3.97034L7.7388 -3.53716L3.17945 9.06812L8.24034 -3.9698L8.3914 -3.53716L3.60203 9.70409L8.89282 -3.96947L9.04443 -3.53834L3.9972 10.5709L9.54488 -3.96804L9.69744 -3.53946L4.50818 11.1192L10.197 -3.96681L10.3508 -3.54173L5.10958 11.5789L10.8488 -3.96461L11.0034 -3.54173L5.76218 11.5789L11.5014 -3.96461L11.6561 -3.54173L6.41479 11.5789L12.154 -3.96461L12.3095 -3.54412L7.13382 11.7191L12.8058 -3.96243L12.9629 -3.5466L7.85547 11.8577L13.4576 -3.96018L13.6164 -3.54914L8.57976 11.9948L14.1094 -3.95786L14.2698 -3.55177L9.30665 12.1302L14.7612 -3.95546L14.9228 -3.55312L9.99737 12.1973L15.4134 -3.95424L15.5767 -3.55728L10.7682 12.3958L16.0648 -3.95044L16.2302 -3.56017L11.5028 12.526L16.7165 -3.94781L16.8837 -3.56314L12.2399 12.6543L17.3683 -3.9451L17.5371 -3.56621L12.9794 12.7806L18.02 -3.94231L18.1906 -3.56937L13.7215 12.905L18.6718 -3.93942L18.8441 -3.57262L14.466 13.0273L19.3235 -3.93645L19.4976 -3.57598L15.2129 13.1475L19.9753 -3.93338L20.151 -3.57943L15.9622 13.2655L20.627 -3.93022L20.8045 -3.58299L16.7138 13.3813L21.2787 -3.92697L21.458 -3.58665L17.4678 13.4948L21.9305 -3.92361L22.1115 -3.59042L18.224 13.606L22.5822 -3.92016L22.7649 -3.59429L18.9824 13.7147L23.2339 -3.9166L23.4184 -3.59828L19.7431 13.8208L23.8857 -3.91294L24.0719 -3.60237L20.5059 13.9244L24.5374 -3.90917L24.7253 -3.60657L21.2708 14.0254L25.1892 -3.9053L25.3787 -3.61089L22.0378 14.1235L25.8409 -3.90132L26.0322 -3.61531L22.6386 15.1493L26.4929 -3.59769L26.6846 -3.31347L23.4199 14.55L27.0368 -2.99655L27.2288 -2.71434L24.6836 11.5123L27.3621 -2.08932L27.5562 -1.81836L24.8175 14.4069L27.6878 -0.582667L27.8832 -0.319238L25.8029 12.546L27.7954 1.52853L27.9933 1.77715L26.6048 11.1341L27.7938 3.94368L27.9947 4.17341L26.5882 14.6425L27.7929 6.95626L27.9959 7.17092L26.7619 17.4056L27.7923 10.5687L27.9971 10.7686L27.1733 18.5779L27.7913 14.1839L27.9986 14.3618L27.4613 20.6751L27.7917 18.3912L27.9993 18.5618L27.673 23.0725L27.4597 22.9546L27.5537 21.6556L27.1235 24.6288L26.9167 24.4482L27.431 18.4049L26.4713 25.2275L26.2655 25.0343L27.2401 15.7964L25.8177 25.2342L25.6142 25.0234L27.0007 13.5229L25.1645 25.2381L24.9628 25.0138L26.7556 11.6687L24.511 25.2435L24.3115 25.0044L26.6818 9.03115L23.748 25.253L23.5515 24.9958L26.3499 7.68948L22.9855 25.2592L22.7908 24.9914L25.8744 6.72323L22.2235 25.2623L22.0305 24.9852L25.3899 6.20784L21.4611 25.2674L21.2695 24.9829L24.4898 7.36213L20.8086 25.2671L20.6167 24.984L24.3281 4.4623L19.9378 25.27L19.7474 24.9796L23.5989 4.53484L19.0668 25.274L18.8781 24.9753L22.8682 4.60944L18.1958 25.2779L18.0088 24.9711L22.1359 4.68617L17.3248 25.2817L17.1395 24.967L21.402 4.76476L16.4538 25.2853L16.2702 24.963L20.6665 4.84524L15.5828 25.2889L15.4009 24.9591L19.9293 4.92764L14.7118 25.2923L14.5317 24.9554L19.1904 5.01189L13.8408 25.2957L13.6624 24.9517L18.4498 5.0978L12.9698 25.2989L12.7931 24.9482L17.7075 5.18542L12.0987 25.3021L11.9238 24.9447L16.9634 5.27475L11.2277 25.3052L11.0546 24.9413L16.2175 5.36567L10.3567 25.3081L10.1853 24.9381L15.4697 5.45814L9.48573 25.311L9.31603 24.9349L14.7202 5.55212L8.61473 25.3138L8.44675 24.9319L13.9687 5.64758L7.74374 25.3165L7.57747 24.9289L13.2154 5.74446L6.87276 25.3192L6.70819 24.926L12.7747 4.79951L5.8926 25.323L5.73056 24.9218L11.2241 7.35489L5.13081 25.3242L4.9696 24.9205L10.9441 6.04317L4.25985 25.3266L4.1003 24.9179L10.1831 6.14533L3.38889 25.3289L3.231 24.9153L9.4201 6.24869L2.51794 25.3312L2.36168 24.9128L8.65515 6.35324L1.647 25.3333L1.49236 24.9105L6.73363 9.78984L0.994398 25.3333L0.839755 24.9105L6.08102 9.78984L0.341791 25.3333L0.187148 24.9105L6.61948 6.35372L-0.311637 24.7341L-0.464662 24.3068L5.48315 7.50529L-0.747173 23.8332L-0.899335 23.4035L4.98998 6.94033L-0.96526 22.3311L-1.11645 21.8988L3.87797 8.09065L-1.18292 21.1286L-1.33398 20.6959L3.5329 7.24039L-1.18314 19.3248L-1.33398 18.8917L3.18782 6.39018L-1.18338 17.5212L-1.33398 17.0874L2.84271 5.54004L-1.18368 15.7177L-1.33398 15.2831L2.49757 4.68996L-1.18403 13.9143L-1.33398 13.4788L2.1524 3.83999L-1.18447 12.1111L-1.33398 11.6746L1.80718 2.99016L-1.18501 10.3082L-1.33398 9.87031L1.46189 2.14052L-1.1857 8.50559L-1.33398 8.06604L1.11649 1.29118L-1.18663 6.70353L-1.33398 6.26177L0.770925 0.4423L-1.18793 4.90226L-1.33398 4.4575L0.425075 -0.405795L-1.18987 3.10232L-1.33398 2.65323L0.0786734 -1.25236L-1.1931 1.30479L-1.33398 0.848957L-0.37042 -1.81502Z" fill="white"/>
</g>
<defs>
<linearGradient id="paint0_linear_901_9128" x1="13.3327" y1="21.3333" x2="13.3327" y2="-8.01086e-05" gradientUnits="userSpaceOnUse">
<stop stop-color="#FFD87E"/>
<stop offset="1" stop-color="#FFB200"/>
</linearGradient>
</defs>
</svg>
