<svg width="32" height="32" viewBox="0 0 32 32" fill="none" xmlns="http://www.w3.org/2000/svg">
<mask id="mask0_44_3553" style="mask-type:alpha" maskUnits="userSpaceOnUse" x="3" y="5" width="27" height="22">
<path fill-rule="evenodd" clip-rule="evenodd" d="M3.01633 18.0328C3.01633 18.0328 3.01884 18.0328 3.01884 16.001C3.01884 13.9693 3.01633 13.9693 3.01633 13.9693L3.014 13.9693L3.0099 13.9693L3.00387 13.9693C3.00081 13.9694 3.00033 13.9694 3.00033 13.9694C3.00033 13.9694 3.01036 13.9692 3.02585 13.9685C3.0569 13.9673 3.1148 13.9644 3.19566 13.9575C3.35813 13.9437 3.6084 13.9144 3.91644 13.8532C4.53945 13.7295 5.3533 13.4844 6.15266 13.0083C7.61737 12.1358 9.41439 9.76391 9.41439 5.33435L13.6781 5.33435C13.6781 8.97662 12.6811 12.1109 11.2357 13.9693L29.667 13.9693L29.667 18.0328L11.2357 18.0328C12.6811 19.8912 13.6781 23.0254 13.6781 26.6677L9.41439 26.6677C9.41439 22.2381 7.61737 19.8662 6.15266 18.9938C5.3533 18.5176 4.53945 18.2725 3.91644 18.1488C3.6084 18.0876 3.35813 18.0584 3.19566 18.0445C3.1148 18.0377 3.0569 18.0347 3.02585 18.0335C3.01036 18.0329 3.00033 18.0327 3.00033 18.0327C3.00033 18.0327 3.00081 18.0327 3.00387 18.0327L3.0099 18.0327L3.014 18.0328L3.01633 18.0328Z" fill="url(#paint0_linear_44_3553)"/>
</mask>
<g mask="url(#mask0_44_3553)">
<path fill-rule="evenodd" clip-rule="evenodd" d="M30.0364 28.4823L30.754 27.1598L30.8912 27.6226L29.9123 30.329L29.7585 29.9038L29.9607 29.3448L29.2431 30.6673L29.1059 30.2045L29.8659 28.1032L28.5942 30.6603L28.4533 30.2045L29.5597 27.1455L27.9448 30.6536L27.8007 30.2045L29.253 26.1893L27.2941 30.6492L27.1481 30.2045L28.9459 25.2339L26.6428 30.6462L26.4955 30.2045L28.6387 24.279L25.9911 30.644L25.8429 30.2045L28.3314 23.3243L25.3392 30.6424L25.1903 30.2045L28.024 22.3699L24.6872 30.641L24.5376 30.2045L27.7166 21.4156L24.035 30.6399L23.885 30.2045L27.4091 20.4614L23.3827 30.6391L23.2324 30.2045L27.1016 19.5073L22.7304 30.6383L22.5798 30.2045L26.7941 18.5532L22.0781 30.6377L21.9272 30.2045L26.4866 17.5992L21.4257 30.6371L21.2746 30.2045L26.064 16.9632L20.7732 30.6368L20.6216 30.2057L25.6688 16.0965L20.1211 30.6354L19.9686 30.2068L25.1578 15.5481L19.469 30.6341L19.3152 30.2091L24.5564 15.0884L18.8172 30.6319L18.6626 30.2091L23.9038 15.0884L18.1646 30.6319L18.01 30.2091L23.2512 15.0884L17.512 30.6319L17.3565 30.2115L22.5322 14.9483L16.8602 30.6298L16.7031 30.2139L21.8105 14.8096L16.2084 30.6275L16.0497 30.2165L21.0863 14.6726L15.5566 30.6252L15.3962 30.2191L20.3594 14.5372L14.9048 30.6228L14.7432 30.2204L19.6686 14.4701L14.2526 30.6216L14.0893 30.2246L18.8978 14.2715L13.6013 30.6178L13.4358 30.2275L18.1633 14.1414L12.9495 30.6151L12.7824 30.2305L17.4262 14.0131L12.2977 30.6124L12.1289 30.2335L16.6866 13.8867L11.646 30.6096L11.4754 30.2367L15.9445 13.7624L10.9942 30.6067L10.8219 30.24L15.2 13.64L10.3425 30.6038L10.1685 30.2433L14.4531 13.5198L9.69075 30.6007L9.51497 30.2468L13.7038 13.4018L9.03901 30.5975L8.8615 30.2503L12.9522 13.286L8.38728 30.5943L8.20802 30.254L12.1982 13.1725L7.73554 30.5909L7.55455 30.2577L11.442 13.0613L7.08381 30.5875L6.90108 30.2616L10.6836 12.9527L6.43207 30.5839L6.24762 30.2656L9.9229 12.8466L5.78033 30.5803L5.59416 30.2697L9.1601 12.743L5.12859 30.5765L4.94072 30.2739L8.39519 12.642L4.47684 30.5726L4.28728 30.2782L7.62818 12.5439L3.82509 30.5686L3.63386 30.2826L7.02745 11.518L3.1731 30.265L2.98146 29.9808L6.24609 12.1173L2.6292 29.6639L2.43721 29.3817L4.98243 15.1551L2.30392 28.7566L2.10983 28.4857L4.84856 12.2604L1.97822 27.25L1.78279 26.9866L3.86313 14.1213L1.87061 25.1388L1.67269 24.8902L3.06118 15.5332L1.87225 22.7236L1.67136 22.4939L3.07784 12.0248L1.87312 19.7111L1.67014 19.4964L2.9041 9.26176L1.87372 16.0986L1.66891 15.8988L2.49276 8.08942L1.8747 12.4834L1.66745 12.3056L2.20475 5.99222L1.87431 8.27614L1.66667 8.10549L1.99297 3.59481L2.20628 3.71276L2.11231 5.01175L2.54248 2.03855L2.74934 2.21911L2.23502 8.26247L3.1947 1.43982L3.40049 1.63301L2.42593 10.8709L3.84828 1.43315L4.05186 1.6439L2.66527 13.1445L4.50148 1.42924L4.70324 1.65352L2.91039 14.9986L5.15497 1.42379L5.35452 1.66295L2.98425 17.6362L5.91798 1.41433L6.11456 1.67154L3.3161 18.9778L6.68051 1.40811L6.8752 1.67598L3.79166 19.9441L7.44249 1.40502L7.63551 1.68213L4.27612 20.4595L8.20489 1.39992L8.39647 1.68442L5.1762 19.3052L8.85743 1.40021L9.04928 1.68329L5.33791 22.205L9.72819 1.39729L9.91861 1.68772L6.0671 22.1325L10.5992 1.39331L10.7879 1.69203L6.79781 22.0579L11.4702 1.38943L11.6572 1.69624L7.53011 21.9812L12.3412 1.38567L12.5265 1.70033L8.264 21.9026L13.2122 1.382L13.3958 1.70431L8.99951 21.8221L14.0832 1.37845L14.2651 1.70819L9.7367 21.7397L14.9542 1.37499L15.1344 1.71195L10.4756 21.6554L15.8252 1.37164L16.0036 1.71562L11.2162 21.5695L16.6963 1.36838L16.8729 1.71917L11.9585 21.4819L17.5673 1.36522L17.7422 1.72263L12.7026 21.3926L18.4383 1.36215L18.6114 1.72598L13.4485 21.3017L19.3093 1.35918L19.4807 1.72923L14.1963 21.2092L20.1803 1.3563L20.35 1.73239L14.9458 21.1152L21.0513 1.3535L21.2193 1.73546L15.6973 21.0198L21.9223 1.35079L22.0885 1.73843L16.4506 20.9229L22.7933 1.34816L22.9578 1.74132L16.8913 21.8678L23.7734 1.34436L23.9355 1.74548L18.4419 19.3124L24.5352 1.34314L24.6964 1.74683L18.722 20.6242L25.4062 1.34074L25.5657 1.74946L19.483 20.522L26.2771 1.33842L26.435 1.75201L20.2459 20.4186L27.1481 1.33617L27.3043 1.75448L21.0109 20.3141L28.019 1.33399L28.1737 1.75687L22.9324 16.8775L28.6716 1.33399L28.8263 1.75687L23.585 16.8775L29.3242 1.33399L29.4789 1.75687L23.0465 20.3136L29.9777 1.93321L30.1307 2.36057L24.1829 19.162L30.4132 2.83412L30.5654 3.26382L24.676 19.727L30.6313 4.33624L30.7825 4.76856L25.788 18.5767L30.8489 5.53877L31 5.97141L26.1331 19.4269L30.8492 7.34249L31 7.77567L26.4782 20.2771L30.8494 9.14612L31 9.57994L26.8233 21.1273L30.8497 10.9496L31 11.3842L27.1684 21.9774L30.85 12.753L31 13.1885L27.5136 22.8273L30.8505 14.5562L31 14.9928L27.8588 23.6772L30.851 16.3592L31 16.797L28.2041 24.5268L30.8517 18.1617L31 18.6013L28.5495 25.3761L30.8526 19.9638L31 20.4056L28.8951 26.225L30.8539 21.7651L31 22.2098L29.2409 27.0731L30.8559 23.565L31 24.0141L29.5873 27.9197L30.8591 25.3625L31 25.8184L30.0364 28.4823Z" fill="#89989D"/>
</g>
<defs>
<linearGradient id="paint0_linear_44_3553" x1="16.3337" y1="26.6677" x2="16.3337" y2="5.33435" gradientUnits="userSpaceOnUse">
<stop stop-color="#FFD87E"/>
<stop offset="1" stop-color="#FFB200"/>
</linearGradient>
</defs>
</svg>
