<svg width="44" height="65" viewBox="0 0 44 65" fill="none" xmlns="http://www.w3.org/2000/svg">
<path d="M12.7578 29.343C13.4668 29.7001 14.3514 29.5216 15.2337 28.9848L15.9416 28.6266C16.2961 28.6266 17.1795 26.6592 17.1795 25.7643C17.1795 23.6172 14.7037 21.8284 12.7522 22.5437C11.6898 22.9019 11.3365 23.259 10.8053 24.154C10.103 26.1225 10.8109 28.448 12.7578 29.343ZM13.289 28.2695C13.1123 28.8062 12.5811 28.8063 12.7578 28.448C12.7578 27.9113 12.9356 27.5531 13.289 27.7327C13.4668 27.9117 13.4668 28.0906 13.289 28.2695ZM13.9981 28.9848C13.8203 28.9848 13.6436 28.8063 13.8202 28.448V27.9113C13.9981 27.3745 14.1747 27.7327 14.3514 28.2695C14.3514 28.8062 14.3514 28.9848 13.9981 28.9848ZM14.706 28.0898C14.706 27.5531 14.7059 27.5531 15.0604 27.9113C15.2371 28.0898 15.2371 28.2695 15.2371 28.448C15.0604 28.6266 14.706 28.448 14.706 28.0898ZM15.4138 27.3745C15.0605 27.196 15.0604 27.0163 15.2371 26.8378C15.4138 26.4795 16.1228 26.8378 16.1228 27.3745C16.1228 27.9113 15.7683 27.9113 15.4138 27.3745ZM16.6518 25.7643C16.6518 26.4792 16.4746 26.6581 16.1205 26.301C15.9427 26.1225 15.766 25.9428 15.5894 25.9428C15.4127 25.9428 15.5893 25.406 16.1205 25.2275C16.2972 25.0489 16.6518 25.0489 16.6518 25.0489V25.7643ZM15.4138 23.7958C15.7683 23.7958 16.4761 24.3325 16.2994 24.6907C16.1227 24.8693 15.5917 24.8693 15.4138 24.3325C15.0605 23.9754 15.0605 23.7965 15.4138 23.7958ZM14.1759 23.259C14.3526 23.0805 14.8837 23.0805 14.7071 23.4387C14.7071 23.4387 14.3526 23.6172 14.1759 23.6172C13.9992 23.6172 13.998 23.4387 14.1747 23.2556L14.1759 23.259ZM12.7589 23.0805C12.7589 22.9019 12.759 22.9019 13.1135 22.9019H13.468C13.2902 22.9019 13.2902 23.0805 13.2902 23.259C13.2902 23.6172 12.9367 23.7958 12.7589 23.6172V23.0805ZM13.1135 24.5122C13.2053 24.5056 13.2918 24.4657 13.3569 24.3999C13.422 24.3341 13.4615 24.2468 13.468 24.154C13.468 23.7958 13.9992 23.7957 14.706 24.3325C15.0605 24.8693 15.2371 24.8693 15.0604 25.5834C15.0604 25.9405 14.8826 26.4773 14.5292 26.6569C14.1747 27.1937 13.6436 27.3722 13.1124 27.014C12.05 26.301 12.05 24.5122 13.1124 24.5122H13.1135ZM12.2278 23.4387V23.9754C12.0511 24.5122 11.6966 24.5122 11.5199 24.154C11.3409 23.9754 12.05 23.2556 12.2267 23.4387H12.2278ZM11.6966 24.8693C11.6966 25.0489 11.6966 25.2275 11.5199 25.2275C11.3432 25.2275 11.3432 25.2275 11.3432 25.0489C11.3409 24.6907 11.5188 24.6907 11.6955 24.8693H11.6966ZM11.3432 26.6592C11.3432 26.1225 11.3432 25.9428 11.5199 25.7643C11.8744 25.5857 12.0511 26.301 11.6966 26.8378C11.5188 27.3745 11.341 27.3745 11.341 26.6592H11.3432ZM11.8744 27.3745C11.9661 27.2726 12.0921 27.2089 12.2278 27.196C12.4056 27.196 12.4056 27.196 12.4056 27.3745V27.9113C12.2278 28.2695 12.2278 28.2695 11.8744 27.9113C11.6955 27.5531 11.6955 27.5531 11.8733 27.3745H11.8744Z" fill="white"/>
<path d="M15.7682 33.9944C15.0603 33.2791 13.6434 32.7435 12.9355 32.5638C11.8732 32.3842 10.2796 32.9209 9.2217 33.8148C7.98376 35.0657 7.80479 35.7833 7.45029 38.467C7.2736 41.3294 7.45034 42.2198 8.51272 43.6549C9.39841 44.7285 9.92957 45.0867 11.3464 45.4449C11.8776 45.6234 12.7622 45.6234 13.2934 45.6234C14.3558 45.6234 14.3558 45.4449 15.0648 44.7285C15.9494 43.8346 16.835 42.2266 17.1895 40.9757C17.5429 39.5451 17.5429 37.5766 17.3663 36.6816C17.1896 35.7867 16.476 34.7109 15.7682 33.9944ZM11.6954 33.2791H12.0498C12.4043 32.9209 12.7577 33.2791 12.581 33.6374C12.4801 33.73 12.4172 33.8573 12.4044 33.9944C12.5811 34.3527 12.7577 34.1741 12.9355 33.8159C13.1122 33.2791 13.2889 33.2791 14.1735 33.6374C14.7047 33.8159 16.1216 35.2476 15.9438 35.4262C15.7949 35.5504 15.6054 35.6141 15.4125 35.6047C15.1648 35.6124 14.9197 35.5506 14.7046 35.4262C14.5279 35.068 14.5279 35.068 14.7046 35.068C14.7964 35.0616 14.8828 35.022 14.948 34.9564C15.0131 34.8908 15.0526 34.8036 15.0592 34.7109C15.0592 34.3527 14.3502 34.3527 14.1735 34.7109C13.9968 34.8894 12.2254 34.5312 11.872 34.3526C11.6953 34.173 11.5187 33.1006 11.6954 33.2791ZM10.633 33.6374C11.1642 33.4577 11.1641 33.4577 11.3419 33.8159C11.3419 34.1741 11.3419 34.3527 11.1641 34.5312C10.6329 34.8894 10.6329 34.8894 10.4562 34.3526C10.2795 33.8159 10.2796 33.8159 10.633 33.6374ZM9.39502 34.7109L9.92618 33.9944L10.1029 34.5312C10.2807 35.068 10.1029 35.2476 9.92618 35.6047C9.57167 35.9629 9.39497 35.9629 9.04047 35.6047C8.86491 35.2476 8.86498 35.2476 9.39392 34.7109H9.39502ZM8.33259 36.6782C8.50928 35.7844 8.50932 35.7844 8.68713 35.9629C9.04051 36.3211 9.04051 36.3211 8.68713 37.3947C8.33263 38.6456 8.15596 38.8253 7.97815 38.6456C7.97703 38.4682 7.97699 38.11 8.33149 36.6748L8.33259 36.6782ZM7.97815 40.0785V39.5417C7.97769 39.518 7.98202 39.4944 7.99079 39.4724C7.99956 39.4504 8.01254 39.4304 8.02915 39.4136C8.04575 39.3968 8.06561 39.3836 8.08739 39.3747C8.10918 39.3659 8.1325 39.3616 8.15597 39.362C8.33266 39.362 8.33259 39.7202 8.33259 39.8988C8.34189 40.0937 8.27896 40.2851 8.15597 40.4355C7.97703 40.6152 7.80036 40.4355 7.97705 40.0785H7.97815ZM8.15597 41.3294V40.7949C8.26851 40.8017 8.72656 40.8324 8.86386 40.9712C8.86386 41.1508 8.86382 41.3294 8.68713 41.5079C8.33151 41.6887 8.33156 41.6887 8.15487 41.3305L8.15597 41.3294ZM8.68713 42.7611C8.50932 42.2243 9.21833 41.5102 9.39502 42.0447C9.57171 42.2243 9.57167 42.4029 9.21829 42.7611C8.86492 43.1193 8.86497 43.1193 8.68603 42.7622L8.68713 42.7611ZM11.343 44.9081C10.9885 45.0867 9.74955 44.3714 9.57174 44.0132C9.21836 43.4764 9.57167 42.7622 9.92618 42.7622C10.1029 42.7622 10.2807 42.7622 10.1029 43.1193C9.92621 44.0143 9.92621 44.1928 10.1029 44.1928C10.2796 44.1928 10.4574 44.1928 10.4574 44.0143C10.4574 43.299 10.6341 43.1193 10.9886 43.299C11.1512 43.3826 11.2872 43.5108 11.3812 43.6689C11.4751 43.8269 11.5231 44.0085 11.5198 44.1928C11.5082 44.4413 11.4474 44.685 11.3408 44.9093L11.343 44.9081ZM12.581 45.2652C12.2265 45.2652 11.8732 45.0867 11.8732 44.9081C11.6954 44.5499 12.0499 43.8346 12.2266 43.8346C12.4032 43.8346 12.581 43.6549 12.7577 43.6549C12.9344 43.6549 12.9355 43.8346 12.9355 44.3714C13.1122 45.0901 12.9355 45.2664 12.5788 45.2664L12.581 45.2652ZM12.9355 42.9396C12.2265 43.2979 12.0498 43.2979 11.3419 42.9396C10.4563 42.5814 9.92511 41.8661 9.39392 40.7926C8.86273 39.7191 8.86269 39.0038 9.21719 37.7506C9.39388 37.0353 9.74839 36.6771 10.4551 35.9618C11.3408 35.0668 11.3409 35.0668 12.2255 35.2465C13.9968 35.425 14.528 35.6036 14.8814 36.6771C15.4126 37.928 15.2358 39.7191 14.7046 40.9712C14.1746 42.0458 13.9979 42.2255 12.9355 42.9408V42.9396ZM15.5914 43.2979C15.2369 43.6549 15.237 43.6549 14.8825 43.4764C14.3513 43.1182 14.1746 43.2979 14.3513 43.6549C14.8825 44.1917 14.8825 44.5499 14.5291 44.7285C14.5291 44.9081 14.1746 45.0867 13.8201 45.0867L13.2889 45.2652L13.4667 44.1917C13.4667 43.2979 13.4668 43.1182 13.998 42.9408C14.1747 42.7622 14.5291 42.5826 14.5291 42.404C14.7058 42.2255 14.8825 42.2255 15.0603 42.2255C15.9448 42.7622 15.9448 42.7622 15.5914 43.299V43.2979ZM16.2993 41.8661C16.2993 42.4029 16.1226 42.4029 15.5914 41.8661C15.2369 41.6876 15.0603 41.3294 15.237 41.3294C15.237 41.152 16.476 41.6887 16.2993 41.8673V41.8661ZM16.6539 40.6152C16.4761 41.152 16.4761 41.152 15.9449 40.9723C15.5915 40.6152 15.4136 40.6152 15.5914 40.0785C15.6023 39.8301 15.6624 39.5865 15.7682 39.362C15.9449 39.1835 16.8306 39.5417 16.8306 39.8988C16.8306 40.0784 16.8306 40.4355 16.6539 40.6152ZM16.8306 39.1835C16.8306 38.8253 16.6538 38.8253 16.2993 38.8253C15.7681 38.8253 15.7682 38.6467 15.7682 38.2885C15.7682 37.7517 15.7681 37.7517 16.2993 37.7517C16.6538 37.7517 16.8306 37.5732 16.8306 37.3947C16.8306 37.2161 16.4761 37.215 16.1227 37.215C15.5915 37.215 15.5915 37.0364 15.4137 36.6782C15.2359 36.32 15.5915 35.9629 16.1227 36.1415C16.4761 36.1415 16.6539 36.3211 16.8306 36.8579C17.0073 37.215 17.0072 37.9314 17.0072 38.6467C17.0072 39.1835 17.0073 39.362 16.8306 39.1835Z" fill="white"/>
<path d="M21.6114 22.9022C21.2569 22.7226 20.549 22.3655 20.1945 22.0073C19.826 21.651 19.4092 21.3497 18.9566 21.1123C18.6021 20.9337 17.8943 20.397 17.1864 20.0388C16.837 19.7027 16.4122 19.4573 15.9484 19.3235C15.7718 19.3235 14.5327 18.4285 14.5327 18.2499C14.1782 17.8917 10.1053 15.7481 9.7519 15.7481C9.7519 15.7481 9.22071 15.391 8.51396 14.8543C7.27602 13.9593 6.7437 13.7808 6.03807 13.7808C4.80013 13.9593 4.26666 14.6746 4.26666 16.4645C4.26666 17.5381 4.08997 17.8951 3.55878 17.8951H3.02762V19.6851C3.02762 20.5789 2.85089 21.8321 2.85089 22.5474C2.67308 23.4424 2.49646 24.5159 2.49646 25.2312C2.49646 26.4821 2.67312 26.6629 3.02762 27.02C3.38212 27.5568 3.38215 27.5568 3.20434 29.7038C3.02765 30.9547 2.85089 32.3876 2.85089 32.7458C2.85089 33.104 2.85099 33.4611 2.67318 33.4611C2.49649 33.6408 2.31973 33.9979 2.31973 34.8929C2.14192 37.5766 1.96526 39.3655 1.78857 39.8965C1.78857 40.2547 1.96523 40.4333 2.31973 40.613C2.67311 40.613 2.67315 40.7915 2.49646 42.2232C2.49646 43.1171 2.49649 44.0121 2.67318 44.1906C2.67318 44.3703 3.38217 44.907 4.09005 45.4415C4.79793 45.976 5.86031 46.6924 6.56594 47.2303C7.09713 47.5886 7.98167 48.1253 8.51286 48.3038C8.86736 48.6621 9.75083 49.0191 10.2843 49.3774C10.8177 49.7356 12.2311 50.4509 13.2935 50.9876C14.5315 51.5244 15.7694 52.4182 16.304 52.7765C16.8385 53.1347 17.7209 53.6714 18.0743 53.85C18.4288 54.2082 18.7833 54.3867 18.96 54.5653C18.96 54.7449 19.3145 54.9235 19.4912 54.9235C19.6678 54.9235 20.0223 54.9235 20.0223 55.102C20.199 55.2817 20.3768 55.2817 20.7302 54.9235C20.908 54.5653 21.0848 54.5653 21.2615 54.5653C21.4382 54.5653 22.1471 53.4917 22.3238 53.1347C22.855 50.6328 23.0317 46.3353 23.2095 41.1474C23.3862 33.6328 23.3861 32.5593 23.7407 30.2303C23.9173 28.9794 23.9173 26.4776 23.7407 25.5792C23.3828 24.691 22.6738 23.9757 21.6114 22.9022ZM4.25886 18.6082C4.61336 18.7867 4.61336 18.7867 4.25886 18.7867C4.08217 18.7867 3.90541 18.7867 3.90541 18.6082C3.55091 18.2522 3.90548 18.2522 4.25886 18.6082ZM4.08213 19.3235C4.43664 19.502 4.61329 19.502 4.61329 20.397C4.61329 20.9337 4.43668 21.4705 4.43668 21.6479C4.25887 22.0061 4.25878 22.0061 3.72759 21.6479C3.37421 21.4694 3.37425 21.4694 3.37425 20.9326C3.72763 19.3235 3.55094 19.3235 4.08213 19.3235ZM3.19643 22.7226C3.19643 22.1858 3.37425 22.0073 3.37425 22.0073C3.55094 22.1858 3.7276 22.3655 3.90541 22.3655C4.25879 22.544 4.43668 22.544 4.43668 23.439C4.42561 23.6871 4.36512 23.9304 4.25886 24.1543C3.37429 23.9757 3.01974 23.439 3.19643 22.7226ZM3.0197 24.8696L3.19643 24.3328L3.72759 24.5125C4.25878 24.8696 4.25886 24.8696 4.25886 25.586C4.25886 25.9431 4.25882 26.4799 4.08213 26.6595C3.90545 27.0166 3.90544 27.0166 3.37425 26.6595C3.19644 26.4799 3.0197 26.1228 3.0197 24.8696ZM2.66527 35.4262C2.84308 34.7109 2.84305 34.7109 3.19643 34.7109C3.72762 34.7109 3.72766 34.8894 3.55097 35.9618C3.37429 37.215 2.48858 36.4997 2.66527 35.4239V35.4262ZM3.0197 37.0365C3.37421 37.0365 3.55097 37.0365 3.55097 37.3947C3.55097 37.5732 3.37425 37.9314 3.37425 38.11C3.19644 38.6467 2.48854 38.11 2.48854 37.3947C2.48854 37.0365 2.48851 37.0365 3.0197 37.0365ZM2.48854 39.362C2.48854 38.8253 2.48859 38.6468 2.84309 38.8253C2.97724 38.8443 3.10141 38.9074 3.19643 39.005V39.5417C3.01974 40.257 2.48854 40.0785 2.48854 39.362ZM23.205 32.0271C22.8505 32.921 22.8505 35.2477 22.6738 41.5091C22.4971 46.5196 22.1426 51.1753 21.7881 52.6025C21.7881 52.9595 21.4347 53.4963 21.0802 53.8534C20.3724 54.5687 20.1945 54.5687 20.1945 54.3901C20.1945 54.2116 20.0179 54.2116 19.8412 54.2116C19.4867 54.2116 16.8307 52.4216 16.2995 51.8849C16.1228 51.7063 15.7683 51.7063 15.7683 51.7063C15.5916 51.7063 15.5917 51.5278 15.4139 51.5278C15.4139 51.3481 14.5292 50.8125 13.4668 50.2769C12.2289 49.7401 10.6331 48.8452 9.753 48.3084C9.14294 48.0514 8.55117 47.7524 7.9817 47.4134C7.62832 47.2349 7.27375 47.0563 4.6178 45.0878L3.20093 44.0143V42.4041C3.20093 41.1531 3.20094 40.7938 3.37876 40.7938C3.90995 40.7938 4.08667 40.0785 4.26336 35.963L4.44119 33.8159L3.90992 33.6374C3.55541 33.6374 3.55548 33.4577 3.55548 32.5639C3.55548 32.0271 3.55541 31.1321 3.73209 30.4168C3.73209 29.7004 3.90992 28.8066 3.90992 28.4484C3.90992 27.5534 4.2633 27.3748 4.6178 27.3748C4.79449 27.3748 4.79453 26.1239 4.97235 23.6221C4.97235 21.475 5.14907 19.6862 5.14907 19.328C5.32576 18.7913 5.14903 18.6127 4.97235 18.433C4.44116 17.8963 4.44115 17.5392 4.79452 16.286C4.97234 15.0351 5.14903 14.6757 6.03247 14.6757C6.74035 14.4972 6.91701 14.4972 7.97939 15.2125C8.6884 15.7492 10.1042 16.4634 11.1666 17.0024C12.229 17.5415 13.8225 18.433 14.7082 18.9698C17.1841 20.7598 17.7186 21.1168 18.422 21.4716C19.1254 21.8264 20.0156 22.5451 20.5468 23.0819L20.9013 23.4401C21.3016 23.5998 21.6636 23.8437 21.9636 24.1554C23.2016 25.2289 23.3794 25.7657 23.3794 28.9862C23.3828 30.2372 23.205 31.6712 23.205 32.0271Z" fill="#C2C9F9"/>
<path d="M42.3277 51.5288C42.6811 50.8135 43.0356 46.6979 43.0356 40.9721C43.0356 37.2194 42.8588 35.0678 42.8588 34.174C42.681 33.279 42.5044 30.237 42.5044 24.5078C42.5044 19.677 42.3277 15.74 42.3277 15.5614C42.3277 15.2032 41.9732 15.0247 41.6187 14.8461C40.941 14.4767 40.2903 14.0587 39.6718 13.5952C38.7861 13.0585 37.9004 12.5217 37.547 12.3443C37.0158 11.9861 36.4845 11.629 36.13 11.2708C35.7755 10.9126 34.7132 10.1973 33.8287 9.48197C33.1197 8.94521 32.2351 8.40845 32.0573 8.23105C32.0573 8.05137 31.8806 8.05137 31.7039 8.05137C31.7039 7.87283 31.1727 7.69429 30.8182 7.33607C30.2335 6.77499 29.5785 6.29366 28.8701 5.90434C28.1095 5.44203 27.3975 4.90247 26.7453 4.29406C26.0375 3.40023 25.683 3.22054 24.9751 2.68379C24.7658 2.47154 24.5274 2.29077 24.2673 2.14703C23.9128 1.61027 21.9658 0.179677 21.7914 0C21.6147 0 20.9068 0.179674 20.3756 0.536755C19.6666 0.894972 18.9587 1.2532 18.782 1.2532C18.4275 1.2532 15.417 2.14703 15.0682 2.3267C14.8904 2.50524 14.7137 2.68379 14.537 2.68379C14.1825 2.68379 13.6512 3.042 13.12 3.22054C12.5888 3.39908 11.8821 3.7573 11.3498 3.93698C10.8175 4.11666 9.75627 4.47374 9.04726 4.83082C7.45369 5.54725 5.86007 5.90434 4.44431 5.90434H3.20637C2.49849 5.90434 1.25948 6.62077 1.43617 6.97785C1.61286 7.69429 1.61286 13.9557 1.43617 15.2078C0.550474 20.2183 0.550461 19.86 0.550461 30.7737C0.550461 42.2253 0.373803 46.3397 0.0193006 46.5194C-0.157388 46.5194 0.90498 47.5929 2.14405 48.6664C2.49855 48.845 2.49849 49.2032 2.49849 50.6338C2.49849 52.6023 2.67525 53.1356 3.02976 53.1356C3.38426 53.1356 4.44658 53.4927 4.79996 54.0295C4.97777 54.3877 5.50894 54.2091 5.50894 53.8509C5.50894 53.4927 5.6857 53.3142 5.86239 53.1356C6.15804 52.8216 6.39786 52.4585 6.57137 52.0621C6.57137 51.5254 6.7481 51.3457 6.7481 51.3457C7.1026 51.3457 8.69616 52.4192 9.58073 53.1356C10.1119 53.4927 11.3521 54.2091 12.0566 54.7459C15.0671 56.1765 17.1918 57.4297 17.723 57.6082C18.0484 57.8876 18.405 58.1277 18.7854 58.3235C19.2377 58.5615 19.6545 58.8628 20.0234 59.2185L20.7312 59.7553L20.5545 61.7238V63.6911L21.6168 64.4075C22.6792 65.1228 22.8548 65.1228 23.3872 64.7646C23.5638 64.5861 23.5638 64.5861 23.9183 64.5861C24.095 64.5861 24.095 64.0493 24.095 63.6911C24.095 63.1544 24.095 62.6176 24.2729 62.6176C24.4495 62.439 26.5743 63.1543 26.5743 63.334C26.5739 63.3576 26.5781 63.381 26.5869 63.4029C26.5956 63.4248 26.6085 63.4446 26.625 63.4613C26.6415 63.478 26.6612 63.4911 26.6828 63.4999C26.7044 63.5087 26.7276 63.513 26.7509 63.5126C27.1054 63.5126 27.2822 63.1543 27.2822 62.7973C27.6367 62.2605 28.8758 61.0073 30.8238 59.9338C31.1996 59.6355 31.6167 59.3944 32.0618 59.2185C32.2396 59.2185 34.7177 57.4297 36.1346 56.1765C37.7281 54.9256 40.0296 53.4927 40.2074 53.4927C40.5563 53.4961 42.1499 52.0655 42.3277 51.5288ZM4.08197 6.62077C5.31991 6.79931 6.91461 6.44109 9.03374 5.36985C9.74275 5.01277 10.6273 4.65456 10.9818 4.65456C12.1354 4.11201 13.3178 3.63403 14.5235 3.22282C16.1171 2.50752 17.8873 1.9719 18.4184 1.79223C18.9496 1.79223 19.6564 1.43401 20.1888 1.25547C21.4267 0.718714 21.7823 0.718708 22.6646 1.43401C23.018 1.97076 23.727 2.50752 24.2582 2.86574C25.3206 3.58103 26.7341 5.01277 27.622 5.72807C27.9765 5.90661 28.5077 6.44337 28.86 6.62305C29.9224 7.51688 33.8185 10.3758 35.4121 11.6267C36.2966 12.342 37.359 13.0573 37.5368 13.237C38.068 13.4155 41.0773 15.384 41.2506 15.5626C41.4239 15.7411 40.7195 16.0993 38.0636 17.5311C37.5324 17.7096 37.0012 18.0678 36.8256 18.0678C36.6489 18.2464 36.1177 18.4249 35.5877 18.7831C35.0565 18.9617 34.3497 19.4984 33.8174 19.8566C33.1281 20.1991 32.4185 20.498 31.6926 20.7516C31.1614 21.1087 30.099 21.4669 29.39 21.8251C27.4431 22.8986 27.4431 22.719 27.0886 22.5404C26.7341 22.1822 26.2029 21.6454 26.0262 21.6454L25.6717 21.2884C25.495 21.1087 24.7871 20.7516 24.2559 20.3934C23.1936 19.8566 20.8921 18.2464 19.2985 16.8146C18.5895 16.2779 17.3505 15.5637 16.6426 15.0258C15.9336 14.6676 15.049 14.1308 14.6945 13.9523C13.9866 13.4155 10.6216 11.4505 8.67469 10.3747C7.789 9.83791 6.90335 9.30115 6.72667 9.12374C6.37216 8.9452 5.84092 8.58699 5.66424 8.22991C4.95636 7.87169 4.77856 7.69315 4.24737 7.33493C4.24737 7.15639 3.71617 6.97672 3.53949 6.79818L2.8316 6.61963L4.08197 6.62077ZM26.5686 48.4868C26.3919 52.0655 26.2142 55.1064 26.2142 55.1064C26.0375 55.4646 26.0375 60.474 26.2142 61.5475V62.4425C26.0375 62.4425 25.6829 62.2639 25.1517 62.0842C23.9138 61.5475 23.5582 61.7272 23.5582 62.8007C23.5582 63.3374 23.3815 63.8742 23.3815 64.0516C23.027 64.4098 22.8503 64.4098 21.9658 63.873C21.6113 63.6934 21.4346 63.5148 21.2568 62.9781C21.2568 62.4413 21.0801 59.9361 21.2568 59.3993C21.2568 59.2208 21.0801 58.8626 20.5489 58.684C18.6008 57.4331 17.0072 56.537 14.5291 55.2849C13.1122 54.5685 11.6953 53.8532 11.5186 53.6747C11.3351 53.4703 11.0826 53.3426 10.8108 53.3164C10.6329 53.3164 10.4563 53.1379 10.2796 52.9582C10.1018 52.6011 7.26907 50.6326 6.73788 50.4564C6.38337 50.2778 6.20672 50.6349 6.20672 51.3502C6.03003 52.0667 5.32104 53.1402 4.78985 52.9605C4.25866 52.9605 3.37407 52.4237 3.19626 51.887C3.19626 51.7084 3.01954 50.8146 3.01954 49.9196C3.01954 48.8461 2.84291 48.3094 2.6651 48.3094C2.48729 48.3094 2.13386 47.7726 1.60267 47.4144L0.718172 46.5205L0.894786 44.9103C1.07147 44.0153 1.07151 39.1845 1.07151 34.1751C1.07151 22.545 1.2493 18.6091 1.78049 16.2824C1.95718 14.8518 2.13394 13.7806 2.13394 11.0945C2.13394 8.76895 2.13384 7.51575 2.31165 7.34176C2.66503 6.98355 4.61314 8.05706 6.20672 9.66733C6.56122 9.84701 7.44465 10.3838 8.33146 10.9182C9.21716 11.2753 11.1641 12.3488 12.581 13.2438C13.9978 14.1388 15.5914 15.0326 16.2948 15.3908C17.3572 16.1061 18.9509 17.1797 19.1275 17.3582C19.3054 17.7164 22.1379 20.042 23.2003 20.5787C26.7408 22.3687 27.6265 23.6208 27.4498 25.7678C27.4498 26.3045 27.272 29.1669 27.272 32.3874C27.272 35.608 27.0953 38.65 26.9187 39.902C26.742 41.1541 26.5686 44.5509 26.5686 48.4868ZM36.3068 55.4646C35.5989 55.8228 34.8911 56.5381 34.5366 56.7155C34.0054 57.0737 33.4742 57.432 33.2986 57.6105C32.7674 57.9687 30.4649 59.579 30.2882 59.579C30.1115 59.579 28.3401 60.8299 27.8123 61.3678C27.1044 61.9045 27.1044 61.9046 26.9277 61.726C26.5732 61.0096 26.5732 56.537 26.7498 53.3108C26.9277 52.4158 27.1044 49.3749 27.1044 46.6911C27.2811 42.2185 27.281 39.7133 27.6356 36.6713C27.8122 35.061 28.1667 28.2628 28.1667 26.4729C28.1667 25.3993 27.9901 24.3258 27.9901 24.1473C27.8123 23.6105 27.8123 23.432 27.9901 23.2523C28.1668 22.8952 30.466 21.8217 31.5306 21.4635C32.5952 21.1053 34.0065 20.39 34.1865 20.2126C34.1865 20.0329 34.7178 19.8543 35.249 19.4961C35.958 19.1391 41.2699 16.4553 41.9778 16.2756V22.3596C41.9778 28.4425 41.9777 31.3048 42.3322 36.3153C42.5089 37.7459 42.5089 40.0681 42.5089 41.6829C42.3322 46.5137 42.1544 50.271 42.1544 50.6281C41.9777 51.3434 41.4465 51.879 39.145 53.3119C38.0781 54.0329 36.838 54.9278 36.3068 55.4646Z" fill="#C2C9F9"/>
</svg>
