<svg width="72" height="74" viewBox="0 0 72 74" fill="none" xmlns="http://www.w3.org/2000/svg">
<path d="M57.3476 12.5056C53.7574 9.68617 49.6143 7.9902 45.5215 6.16542C42.9509 5.02045 40.3085 4.06868 37.7595 2.85932C36.7327 2.37271 35.7346 2.14372 35.3181 0.827007C35.0094 -0.1319 33.9323 -0.267858 33.5589 0.476369C32.8409 1.95051 31.5843 2.4228 30.0765 2.53014C29.7316 2.56555 29.3919 2.63998 29.064 2.75198C24.6552 4.0186 20.2106 5.17788 15.8593 6.60192C11.788 7.93294 7.6449 9.11368 3.81775 11.0887C2.32423 11.8616 0.82355 12.5844 0.651221 14.5737C0.536694 15.3069 0.346577 16.0263 0.0839417 16.7206C-0.00506771 16.947 -0.0238967 17.1949 0.0298608 17.4322C0.0836184 17.6694 0.207525 17.8852 0.38555 18.0516C1.24511 19.0703 2.29646 19.9114 3.4803 20.5275C5.63559 21.6266 7.67949 22.9303 9.58363 24.4204C11.0054 25.4919 12.601 26.3124 14.3011 26.8463C14.9114 27.0395 15.3782 27.1898 15.7372 26.3812C15.8519 26.1124 16.0236 25.8716 16.2405 25.6752C16.4574 25.4788 16.7144 25.3315 16.9938 25.2434C17.1073 25.4632 17.1718 25.7049 17.183 25.9519C17.1942 26.1989 17.1516 26.4454 17.0584 26.6746C16.8143 27.476 17.2523 27.8482 17.8195 28.1845C19.8394 29.2204 21.9747 30.0154 24.1813 30.5531C26.0195 31.1042 27.9223 31.419 29.8036 31.8126C30.5847 31.9209 31.3477 32.1327 32.0726 32.4423C31.1463 32.8788 31.2325 33.5157 31.3545 34.1812C31.3525 34.4254 31.2692 34.6621 31.1176 34.8539C30.7299 35.5337 31.3689 36.6071 30.2847 37.0365C30.2847 37.0365 30.2847 37.1581 30.2847 37.1725C31.1822 37.7449 30.7514 38.2745 30.2416 38.8112C30.2416 38.847 30.2919 38.9829 30.3134 39.0688C30.6294 40.1923 30.6294 40.1923 29.5954 40.8006C29.9329 41.0868 30.4929 41.094 30.457 41.7881C30.4211 42.4822 29.6743 42.4107 29.4302 42.8472C30.4714 43.5628 30.5145 43.7989 29.5882 44.4788C29.2723 44.7077 29.2866 44.7865 29.5882 44.9582C29.738 45.0395 29.8652 45.1564 29.9587 45.2986C30.0521 45.4407 30.1089 45.6037 30.1238 45.7731C30.1387 45.9424 30.1114 46.1127 30.0442 46.269C29.9771 46.4252 29.8722 46.5624 29.739 46.6685C29.3656 47.0692 29.6025 47.0835 29.739 47.3841C30.2272 48.4718 29.0999 49.5309 29.5307 50.6401C29.5763 50.8872 29.5276 51.1424 29.3943 51.3557C29.3081 51.506 29.0784 51.5704 28.906 51.6562C28.7337 51.7421 28.6332 51.8638 28.784 52.0856C29.581 53.2664 29.5451 53.5168 28.4896 54.2897C28.5542 54.6546 29.064 54.5043 29.1358 54.8121C29.245 55.1385 29.2325 55.4933 29.1007 55.8113C28.9688 56.1294 28.7264 56.3894 28.4178 56.5438C28.5628 56.6299 28.6852 56.749 28.7752 56.8912C28.8652 57.0335 28.9201 57.195 28.9355 57.3625C28.9509 57.5299 28.9264 57.6987 28.8638 57.8549C28.8013 58.0111 28.7026 58.1503 28.5757 58.2613C28.4393 58.4187 28.1593 58.3758 28.346 58.7693C28.9347 59.9715 28.8342 60.2006 27.6926 60.9519C27.9511 61.2167 28.4824 61.2024 28.4537 61.7391C28.4527 61.9476 28.3875 62.1507 28.2667 62.321C28.146 62.4912 27.9756 62.6204 27.7787 62.6908C27.5705 62.8053 28.4537 63.1918 28.3244 63.8215C28.2167 64.3153 27.6064 64.3224 27.6064 64.6516C27.6064 64.9808 28.3675 65.0523 28.2383 65.6678C28.1378 66.1472 28.2383 66.6911 27.5705 66.7984C27.3407 66.8342 27.0392 66.7984 27.0751 67.2635C27.7428 67.4424 28.4681 67.7001 28.0301 68.6947C26.3068 68.7663 25.4738 68.0364 25.6749 66.276C26.1703 61.9824 26.4432 57.6888 26.9745 53.3594C27.3982 49.9961 27.8362 46.6184 28.0301 43.2336C28.1878 39.7447 28.5329 36.2666 29.064 32.8144C29.064 32.5855 29.3584 32.2276 28.784 32.0988C28.2526 33.0077 28.2885 34.0596 28.1521 35.0614C27.5346 39.4982 27.5059 43.985 26.9673 48.4289C26.4575 52.5794 25.9477 56.7299 25.6533 60.909C25.5025 62.9628 25.2799 65.0166 25.0717 67.0775C25.0286 67.4854 25.1292 68.0078 24.4542 68.0579C22.9248 68.1867 21.7113 69.117 20.3542 69.6894C20.0913 69.7886 19.8696 69.9732 19.725 70.2134C19.5803 70.4536 19.5212 70.7355 19.5572 71.0133C22.3073 69.0239 25.0502 67.8861 28.2311 69.7109C27.8003 70.7557 27.1253 71.7504 27.2474 73.1243C27.8649 72.6735 27.8505 72.101 28.0372 71.6287C28.3228 70.7115 28.7955 69.863 29.4257 69.1365C30.0559 68.4099 30.8299 67.821 31.6992 67.4067C32.6043 67.0096 33.5825 66.8049 34.5714 66.8056C34.8012 66.8056 34.9663 66.734 34.9591 66.4979C34.9579 66.448 34.9458 66.399 34.9237 66.3542C34.9016 66.3095 34.87 66.2701 34.831 66.2387C34.7921 66.2074 34.7467 66.1849 34.6982 66.1728C34.6496 66.1607 34.599 66.1593 34.5498 66.1687C33.7129 66.2184 32.8855 66.3722 32.087 66.6267C30.9261 67.0987 29.8382 67.7324 28.8558 68.5087C28.6787 66.5415 28.6955 64.5617 28.906 62.5978C29.3297 57.9035 29.8467 53.2163 30.3421 48.5219C30.737 44.6076 31.0602 40.6861 31.5125 36.7717C31.6549 35.6499 31.8586 34.5367 32.1228 33.437C32.3813 32.3064 32.4172 32.2491 33.5589 32.3779C36.9463 32.7555 40.3714 32.6228 43.7192 31.9843C44.7349 31.8083 45.7324 31.54 46.6991 31.1829C46.8663 31.1461 47.0243 31.076 47.1637 30.9768C47.3031 30.8776 47.4209 30.7514 47.5101 30.6057C47.5993 30.46 47.6581 30.2978 47.6828 30.1289C47.7075 29.96 47.6977 29.7879 47.654 29.6229C47.475 28.8509 47.5636 28.0412 47.9054 27.3258C48.6234 27.9483 49.2912 28.5208 49.9518 29.1076C50.2175 29.3366 50.4544 29.5799 50.8493 29.5084C52.1131 29.2937 53.3912 29.3295 54.6549 29.0146C56.2992 28.6067 57.7712 27.7766 59.3868 27.3258C61.3146 26.7045 63.1898 25.9316 64.9947 25.0144C66.2513 24.4419 66.3877 23.9911 66.1292 22.66C66.0287 22.1806 65.9856 21.6868 65.921 21.2288C65.85 20.4953 65.516 19.8118 64.9803 19.3039C62.4887 16.9424 60.0187 14.6525 57.3476 12.5056ZM32.4532 3.10978C32.8337 2.5373 33.1712 1.92903 33.5877 1.38518C34.1047 0.719666 34.6647 0.827012 35.0884 1.77161C35.2248 2.60171 35.3971 3.61786 35.5335 4.63402C35.5982 5.14925 35.232 5.34962 34.8155 5.34962C34.172 5.36791 33.5345 5.22261 32.963 4.92742C31.7782 4.40503 31.7279 4.21181 32.4532 3.10978ZM13.7841 25.9375C12.6322 25.5174 11.5447 24.9394 10.553 24.2201C8.78938 22.8811 6.92131 21.6846 4.9666 20.642C3.66491 20.0463 2.46737 19.2466 1.41948 18.2734C1.09941 18.0456 0.870996 17.7118 0.774984 17.3317C0.678972 16.9516 0.721628 16.5498 0.89533 16.1982C1.22563 15.4468 1.18974 14.5594 1.67801 13.7436C2.79815 14.309 3.50899 15.3251 4.39218 16.1266C6.53764 18.0798 8.83541 19.8601 11.2638 21.4507C12.6569 22.2959 14.1842 22.8985 15.7803 23.2325C16.3462 23.3753 16.9423 23.3428 17.4892 23.1395C16.7712 23.7048 16.4624 24.5707 15.8952 25.2291C14.8756 26.4527 14.7176 26.2524 13.7841 25.9375ZM16.9579 25.0859C16.9579 25.0859 17.0368 25.0287 17.044 25.0358C17.0512 25.043 17.0441 25.1647 16.9866 25.1933C16.9723 25.0645 16.8286 25.2147 16.9579 25.0859ZM47.0652 29.9019C47.0078 30.3456 46.6775 30.4029 46.3831 30.5674C45.0548 31.326 43.511 31.3618 42.0749 31.6265C38.9656 32.1462 35.7934 32.1728 32.6758 31.7052C30.8878 31.4691 29.0855 31.0755 27.3192 30.6748C25.1539 30.2064 23.0158 29.6211 20.9143 28.9216C20.5409 28.7928 20.1962 28.6854 19.7941 28.5423C17.7118 27.7408 17.64 27.6335 17.719 25.4652C17.719 25.0001 17.4892 24.4991 17.8482 23.9911C18.4514 24.3632 19.0258 24.7067 19.6074 25.0859C23.0058 26.9993 26.7717 28.1747 30.6581 28.5351C32.0223 28.6926 33.401 28.7999 34.7652 29.0003C38.7826 29.5685 42.8795 29.0316 46.6129 27.4474C46.699 27.4116 46.7924 27.3973 47.0222 27.3329C47.1908 28.1798 47.2054 29.0499 47.0652 29.9019ZM47.3669 24.8927C46.3153 20.9915 44.5611 17.3132 42.1898 14.037C41.005 12.3482 39.5976 10.8168 38.2765 9.2282C38.0395 8.9348 37.7882 8.59846 37.3143 8.73443C37.1994 9.20673 37.5728 9.36416 37.781 9.60746C39.6694 11.8759 41.723 14.0084 43.2166 16.5917C44.4784 18.821 45.5542 21.1497 46.4334 23.5545C47.4602 26.2953 47.1514 26.9107 44.3583 27.6693C41.2801 28.5856 38.0399 28.8296 34.8586 28.3849C33.3004 28.1416 31.7136 28.0986 30.1554 27.8768C26.9228 27.4808 23.7824 26.5344 20.8712 25.0788C20.0651 24.6061 19.2838 24.0925 18.5304 23.5402C18.2216 23.3399 17.9703 22.9749 17.518 23.1252C19.8659 18.896 22.1996 14.6739 25.8472 11.3535C27.1612 10.1585 28.3819 8.87754 29.6456 7.63239C29.7662 7.55936 29.8625 7.45253 29.9225 7.32526C29.9826 7.19799 30.0036 7.05592 29.9831 6.91679C29.2911 7.10546 28.6774 7.50902 28.2311 8.0689C26.3139 9.97956 24.4183 11.9117 22.6376 13.944C20.8785 16.0739 19.3592 18.3896 18.1068 20.8496C16.9723 22.9248 16.8645 22.9033 14.5596 22.2092C11.9747 21.4292 9.93547 19.8048 7.87469 18.2162C5.73254 16.6332 3.7444 14.853 1.9365 12.8992C2.53424 12.4332 3.18206 12.0348 3.86802 11.7113C7.39309 10.0548 11.0392 8.66731 14.775 7.56083C18.3652 6.43018 21.9554 5.35678 25.5456 4.39072C27.5274 3.86833 29.4446 3.05968 31.5412 3.05968C31.1032 4.28336 31.412 4.99897 32.6686 5.49989C33.4412 5.84257 34.2896 5.9806 35.1314 5.90063C36.2013 5.75035 36.4096 5.44265 36.187 4.39072C36.1306 4.09994 36.0922 3.80598 36.0721 3.51052C36.0765 3.34134 36.1006 3.17326 36.1439 3.00961C37.2497 3.15988 38.1472 3.80391 39.1381 4.17602C41.443 5.0419 43.7264 5.98651 45.981 6.98836C51.5387 9.45718 56.9527 12.1478 61.2178 16.6561C62.0292 17.5077 63.0057 18.209 63.853 19.0176C64.571 19.6688 64.5064 19.8191 63.7597 20.3773C61.6563 21.8665 59.3495 23.0474 56.9096 23.8837C54.2722 24.8545 51.5336 25.5267 48.7455 25.8874C47.6684 26.0449 47.6541 26.0234 47.3669 24.9214V24.8927ZM65.6697 23.4043C65.7199 23.8766 65.2101 24.2558 64.7362 24.4491C62.9196 25.1647 61.2034 26.188 59.2719 26.6746C58.5121 26.8826 57.7759 27.1679 57.0747 27.5261C55.3066 28.2868 53.4183 28.7325 51.4956 28.8428C51.2783 28.8914 51.0525 28.8869 50.8374 28.8296C50.6224 28.7722 50.4244 28.6638 50.2605 28.5137C49.7005 27.9126 48.8819 27.5619 48.3721 26.4885C54.3506 25.8378 60.0715 23.7102 65.0162 20.2986C65.4592 21.2839 65.6821 22.3533 65.6697 23.4329V23.4043Z" fill="#725000"/>
<path d="M36.4742 67.7716C35.3175 67.4214 34.074 67.4899 32.963 67.9648C32.5178 68.1079 32.245 68.5731 32.4245 69.3173C33.5375 67.929 35.1458 68.3226 36.4742 67.7716Z" fill="white"/>
<path d="M67.113 20.2198C67.2218 19.9116 67.2651 19.5842 67.24 19.2584C67.215 18.9326 67.1222 18.6156 66.9675 18.3275C66.8128 18.0394 66.5997 17.7866 66.3417 17.5851C66.0836 17.3836 65.7863 17.2378 65.4686 17.157C66.1174 18.121 66.6682 19.147 67.113 20.2198Z" fill="white"/>
<path d="M68.5489 19.2539C68.6135 17.6367 68.4484 17.3361 67.2852 16.9067C67.5024 17.7823 67.9369 18.5894 68.5489 19.2539Z" fill="white"/>
<path d="M26.6874 71.8005C26.5223 70.8273 25.9694 70.8129 25.4452 70.8201C24.9211 70.8273 24.2892 70.5625 23.765 70.9704C23.7148 71.0062 23.7076 71.1565 23.765 71.2352C23.8297 71.4355 23.9876 71.5715 24.203 71.4713C24.9857 71.0706 25.7396 71.2709 26.6874 71.8005Z" fill="white"/>
<path d="M19.3563 15.7046C20.1317 14.7528 20.7923 13.708 21.5606 12.7563C22.3289 11.8045 23.5998 11.2607 24.002 9.97974C20.8282 12.1265 18.7244 15.1965 17.1591 18.66C18.2361 17.9301 18.5808 16.6563 19.3563 15.7046Z" fill="white"/>
<path d="M48.0131 22.8105C48.0254 22.8704 48.0508 22.9269 48.0875 22.9759C48.1243 23.025 48.1714 23.0653 48.2256 23.094C48.2798 23.1227 48.3397 23.1391 48.4011 23.1421C48.4624 23.145 48.5236 23.1344 48.5804 23.111C48.846 23.018 48.7383 22.8105 48.688 22.6244C48.4295 21.6798 48.1998 20.7281 47.8982 19.7978C47.2716 17.8691 46.1993 16.1141 44.7676 14.6741C44.7029 15.0677 44.6526 15.1678 44.6814 15.2465C44.7316 15.434 44.8196 15.6093 44.9399 15.7618C46.4901 17.617 47.503 19.8586 47.8695 22.2451C47.8986 22.4378 47.9468 22.6272 48.0131 22.8105Z" fill="white"/>
<path d="M64.1162 58.676L64.0455 58.6053L64.0455 58.6053L64.0454 58.6054L64.045 58.6058L64.0435 58.6072L64.0379 58.6129L64.0164 58.6345L63.9383 58.7129C63.873 58.7787 63.7841 58.8685 63.6898 58.9646C63.5025 59.1556 63.29 59.3756 63.2014 59.4797L63.2012 59.4799L52.8882 71.6681C52.8882 71.6682 52.8881 71.6682 52.8881 71.6682C52.3225 72.3333 52.7979 73.3517 53.6713 73.3517H53.9459C54.2524 73.3517 54.5431 73.2152 54.7381 72.9794L54.7382 72.9792L54.661 72.9156C54.7382 72.9792 54.7382 72.9792 54.7383 72.9791L54.7386 72.9787L54.74 72.9771L54.7452 72.9708L54.7658 72.9457L54.8464 72.848L55.1524 72.4766C55.4163 72.1563 55.7937 71.6981 56.2478 71.1467C57.1558 70.0437 58.3706 68.5675 59.5972 67.0742C60.8238 65.5809 62.0623 64.0705 63.0179 62.8993C63.9711 61.7311 64.6477 60.8945 64.7454 60.7542C64.8401 60.6181 64.8981 60.5314 64.9312 60.4764C64.9474 60.4496 64.9604 60.4259 64.9684 60.4054C64.9723 60.3955 64.9773 60.3808 64.9789 60.3637C64.9805 60.3466 64.9795 60.3155 64.9576 60.2864C64.9467 60.2719 64.9339 60.2623 64.9218 60.2561C64.941 59.876 64.759 59.4699 64.5808 59.1657C64.4861 59.0041 64.3893 58.8658 64.3162 58.7681C64.2796 58.7191 64.2488 58.6801 64.2271 58.6532C64.2162 58.6398 64.2076 58.6293 64.2016 58.6222L64.1947 58.6139L64.1928 58.6117L64.1922 58.6111L64.1921 58.6109L64.192 58.6108L64.1162 58.676ZM64.1162 58.676L64.0455 58.6053L64.1217 58.5291L64.192 58.6108L64.1162 58.676ZM64.8688 60.443C64.8688 60.443 64.8686 60.4431 64.8681 60.4431L64.8684 60.443C64.8687 60.443 64.8688 60.443 64.8688 60.443ZM64.9178 60.3105C64.9178 60.3105 64.9178 60.3101 64.9178 60.3092C64.9179 60.3101 64.9178 60.3105 64.9178 60.3105ZM53.3233 72.0362L53.3235 72.036L63.6365 59.8478C63.6365 59.8478 63.6365 59.8478 63.6366 59.8477C63.7186 59.7513 63.8392 59.6956 63.9664 59.6956C64.3324 59.6956 64.5316 60.1189 64.3002 60.3987L64.2999 60.3991L54.2979 72.6173C54.2979 72.6174 54.2978 72.6175 54.2977 72.6175C54.2112 72.722 54.0822 72.7827 53.9459 72.7827H53.6713C53.2823 72.7827 53.0731 72.3303 53.3233 72.0362Z" fill="#725000" stroke="#725000" stroke-width="0.2"/>
<path d="M63.5371 58.3917L63.7069 58.3917L64.1305 58.3917L64.1896 58.3917L64.2183 58.4432L69.9105 68.6747L69.9107 68.6751C70.0969 69.0136 70.5964 68.9809 70.7359 68.6198L70.8344 68.3646C70.8833 68.238 70.8727 68.0964 70.8058 67.9785L70.8057 67.9784L65.4925 58.6L65.4212 58.4741L65.5644 58.4523L65.9562 58.3928L66.0246 58.3824L66.0587 58.4425L71.3026 67.6987C71.3026 67.6987 71.3026 67.6987 71.3026 67.6987L71.3026 67.6988L71.2154 67.7477C71.3517 67.9877 71.3732 68.2757 71.2738 68.533L71.1753 68.7882C70.8921 69.5215 69.8768 69.5893 69.4979 68.9002L63.5371 58.3917ZM63.5371 58.3917L63.6195 58.5398L69.4101 68.9481L63.5371 58.3917ZM53.1609 39.7412L53.1609 39.7412L53.1612 39.7417L57.5435 47.6186L57.6649 47.8369L57.728 47.5957L57.8635 47.0777L57.8736 47.039L57.8541 47.0041L53.6616 39.4683C53.6616 39.4682 53.6615 39.4681 53.6615 39.4681C53.6007 39.3573 53.5918 39.2254 53.6373 39.1075C53.7685 38.7677 54.2372 38.7338 54.4167 39.0497C54.4167 39.0497 54.4167 39.0498 54.4167 39.0498L58.2166 45.7571L58.2455 45.808L58.304 45.808L58.7295 45.808L58.9008 45.808L58.8165 45.6592L54.9136 38.77L54.9135 38.7699C54.4959 38.0349 53.4085 38.1156 53.1045 38.903C52.9987 39.177 53.0193 39.4836 53.1609 39.7412ZM58.6961 49.6564L58.6938 49.6863L58.7084 49.7125L62.864 57.1818L62.8926 57.2334L62.9517 57.2334L63.3754 57.2334L63.5452 57.2334L63.4627 57.0852L58.9346 48.9462L58.7725 48.6548L58.7472 48.9867L58.6961 49.6564ZM58.9259 46.9284L58.906 46.974L58.9306 47.0174L64.6548 57.1213L64.6886 57.1809L64.7565 57.1711L65.1498 57.1143L65.2944 57.0934L65.2225 56.9665L59.2902 46.4954L59.1914 46.3209L59.1112 46.5043L58.9259 46.9284Z" fill="#725000" stroke="#725000" stroke-width="0.2"/>
<path d="M41.7932 65.1749L41.7453 64.986L41.6198 65.1351L36.8233 70.8333C36.2937 71.4624 36.737 72.4292 37.5591 72.4292H37.8152C38.1035 72.4292 38.3765 72.2994 38.5596 72.0758L43.558 65.9681L43.6514 65.8539L43.5108 65.8094L43.1551 65.6969L43.0905 65.6764L43.0475 65.7289L38.138 71.728C38.0584 71.8252 37.94 71.8814 37.8152 71.8814H37.5591C37.2038 71.8814 37.0086 71.4618 37.24 71.1869L41.8777 65.6774L41.9107 65.6382L41.8981 65.5884L41.7932 65.1749ZM43.2654 63.7395L43.2026 64.1034L43.4404 63.8209L48.0276 58.3714L48.0898 58.2976L48.0183 58.2329L47.7612 58.0001L47.6844 57.9305L47.6176 58.0098L43.4041 63.0154L43.3867 63.0361L43.3821 63.0628L43.2654 63.7395ZM44.4175 64.8264L44.4793 64.8423L44.5198 64.7929L49.1122 59.1813L49.179 59.0996L49.0938 59.0373L48.8138 58.8324L48.7373 58.7764L48.6773 58.8497L43.995 64.5711L43.8958 64.6924L44.0475 64.7313L44.4175 64.8264Z" fill="#725000" stroke="#725000" stroke-width="0.2"/>
<path d="M42.8428 64.2878L42.6591 64.3867C42.6293 64.3747 42.6026 64.3643 42.5781 64.3547C42.5366 64.3385 42.5015 64.3248 42.4684 64.3103C42.4089 64.2843 42.382 64.2661 42.3677 64.2499C42.3574 64.2381 42.3474 64.2203 42.346 64.1753C42.3446 64.1266 42.3535 64.0566 42.3756 63.9492L42.3756 63.9492L42.376 63.9469L44.3611 52.9943L44.3664 52.965L44.3547 52.9376L44.1277 52.4039L44.0403 52.1983L43.9449 52.4C43.9133 52.4671 43.8894 52.5383 43.8741 52.6124L43.8741 52.6124L43.8737 52.6146L41.8397 63.8372L41.8343 63.8635C41.812 63.9724 41.8019 64.0213 41.7962 64.0584C41.792 64.0857 41.79 64.1084 41.7869 64.1424C41.7854 64.1587 41.7837 64.1778 41.7814 64.2011L41.7782 64.2338L41.7951 64.2621C41.9253 64.4801 42.2752 64.6958 42.6638 64.6043L42.6712 64.6074L42.6883 64.5981C42.7301 64.5869 42.7723 64.5722 42.8146 64.5534L42.9256 64.6539L42.9782 64.7016L43.0406 64.668C43.078 64.6478 43.1045 64.6469 43.1248 64.65C43.1477 64.6534 43.167 64.6622 43.196 64.6753C43.1986 64.6765 43.2012 64.6777 43.2039 64.6789C43.2179 64.6852 43.2399 64.695 43.2633 64.7002C43.2888 64.7058 43.326 64.7082 43.3639 64.6883C43.4003 64.6691 43.4212 64.6378 43.4338 64.6106C43.4464 64.5834 43.4551 64.5512 43.4618 64.5161C43.4618 64.516 43.4618 64.5159 43.4618 64.5158L45.2669 55.3326L45.2735 55.299L45.2581 55.2685L45.0095 54.7756L44.8771 54.513L44.8217 54.8013L43.0533 63.9999L43.0533 64C43.0298 64.1232 42.9524 64.2287 42.8428 64.2878Z" fill="#725000" stroke="#725000" stroke-width="0.2"/>
<path d="M57.4336 66.8393L57.506 66.7704L57.506 66.7704L57.5059 66.7703L57.5056 66.77L57.5047 66.7691L57.5014 66.7657L57.4894 66.7535C57.4791 66.7431 57.4641 66.7284 57.4455 66.7107C57.4083 66.6754 57.356 66.6277 57.2954 66.5785C57.235 66.5295 57.165 66.4779 57.0926 66.4354C57.0214 66.3936 56.9415 66.357 56.8623 66.3442L56.8611 66.344L41.8958 64.1123L41.8158 64.1004L41.7874 64.1758L41.2315 65.6518L41.1418 65.8901L41.3644 65.7793L41.5349 65.7203C41.5412 65.7263 41.5471 65.7307 41.5515 65.7338C41.5625 65.7416 41.5743 65.7476 41.5848 65.7525C41.6058 65.7622 41.633 65.7719 41.6658 65.7822C41.7466 65.8077 41.9764 65.867 42.1946 65.921C42.4098 65.9743 42.6273 66.0258 42.6833 66.0342C42.6836 66.0342 42.6838 66.0343 42.6841 66.0343L56.1834 68.2027L56.1942 68.2044L56.2052 68.2038C56.2719 68.1999 56.3393 68.1665 56.3986 68.1283C56.4608 68.0882 56.5274 68.034 56.5949 67.9723C56.73 67.8488 56.8774 67.6877 57.0127 67.5296C57.1484 67.371 57.2737 67.2133 57.3651 67.0954C57.4108 67.0364 57.448 66.9872 57.4739 66.9528L57.5038 66.9127L57.5117 66.9021L57.5137 66.8993L57.5143 66.8986L57.5144 66.8984L57.5145 66.8983L57.4336 66.8393ZM57.4336 66.8393L57.506 66.7705L57.5639 66.8309L57.5145 66.8983L57.4336 66.8393ZM56.6295 67.6533C56.6252 67.6568 56.6218 67.6593 56.6192 67.6609L42.7683 65.4956L42.7684 65.4953L42.7615 65.4947C42.5003 65.4721 42.3046 65.4437 42.1516 65.4196C42.1218 65.4148 42.0932 65.4102 42.0659 65.4058C42.0013 65.3953 41.9433 65.3859 41.8909 65.379C41.9091 65.3096 41.9258 65.2295 41.9423 65.1505C41.9482 65.1221 41.9541 65.0938 41.96 65.0662C41.9833 64.9579 42.0073 64.8585 42.0366 64.7822C42.0512 64.7443 42.0656 64.7161 42.0793 64.697C42.0931 64.6775 42.1018 64.6735 42.1028 64.6732C42.1025 64.6733 42.1024 64.6733 42.1024 64.6733C42.1024 64.6734 42.1071 64.672 42.119 64.672C42.1324 64.672 42.1503 64.6736 42.1733 64.6774C42.2196 64.6849 42.2767 64.6993 42.3435 64.7175C42.3628 64.7227 42.3829 64.7283 42.4036 64.7341C42.5204 64.7665 42.656 64.8041 42.7788 64.82L56.7714 66.8819C56.7716 66.8819 56.7718 66.8819 56.772 66.882C56.7905 66.8851 56.8176 66.8957 56.8518 66.9158C56.8852 66.9353 56.9197 66.9605 56.9515 66.9864C56.9742 67.0048 56.9948 67.0229 57.012 67.0387C57.0048 67.0534 56.9965 67.0703 56.9871 67.0889C56.9526 67.1578 56.9052 67.2492 56.853 67.3403C56.8004 67.432 56.7447 67.5202 56.6939 67.5843C56.6684 67.6165 56.6466 67.6394 56.6295 67.6533Z" fill="#725000" stroke="#725000" stroke-width="0.2"/>
<path d="M61.4172 56.8651L61.6299 56.8598L66.7943 56.731L66.796 56.731L66.796 56.731C67.0855 56.7288 67.36 56.8555 67.5439 57.0769L67.7072 57.2733M61.4172 56.8651L67.7072 57.2733M61.4172 56.8651L61.557 57.0255M61.4172 56.8651L61.557 57.0255M67.7072 57.2733C68.2325 57.9055 67.7647 58.8608 66.9423 58.8556M67.7072 57.2733L66.9423 58.8556M61.557 57.0255L61.8518 57.3637L61.8827 57.3992L61.9297 57.398L66.7973 57.2766C66.9232 57.2759 67.0418 57.3311 67.121 57.4264L67.2842 57.6229C67.5093 57.8938 67.3118 58.3117 66.9501 58.31L63.1386 58.23L62.8009 58.2229L63.0803 58.4127L63.6054 58.7694L63.6299 58.7861L63.6595 58.7867L66.9408 58.8556L66.9408 58.8556M61.557 57.0255L66.9408 58.8556M66.9408 58.8556L66.9423 58.8556M66.9408 58.8556L66.9423 58.8556" fill="#725000" stroke="#725000" stroke-width="0.2"/>
<path d="M53.3961 40.3135C53.4781 40.3175 53.5636 40.3217 53.64 40.324L53.64 40.4102L53.64 40.422L53.6427 40.4334C53.6736 40.5631 53.7792 40.6637 53.8615 40.7342C53.8834 40.7529 53.9052 40.7707 53.9254 40.7872C53.9267 40.7883 53.928 40.7893 53.9293 40.7904C53.9483 40.8059 53.9656 40.82 53.9815 40.8335C53.9966 40.8464 54.0086 40.8572 54.0179 40.8663C54.0086 40.8698 53.9969 40.8736 53.9823 40.8778C53.8644 40.9111 53.6368 40.9409 53.2346 40.9667L44.9466 40.8549L44.9459 40.8549C44.9299 40.8548 44.882 40.8567 44.8198 40.8591C44.7642 40.8612 44.6973 40.8638 44.6316 40.8659C44.5599 40.8681 44.4876 40.8697 44.4273 40.8698C44.4118 40.8698 44.3976 40.8697 44.3849 40.8695C44.3923 40.8536 44.3991 40.8328 44.3998 40.8085C44.4007 40.7742 44.389 40.7418 44.3669 40.7153C44.324 40.6636 44.2767 40.6179 44.2361 40.5796C44.2301 40.5739 44.2243 40.5684 44.2187 40.5632C44.1921 40.5382 44.1706 40.5179 44.1536 40.4999C44.1821 40.4924 44.2272 40.4843 44.2867 40.4764C44.3569 40.4671 44.4401 40.4591 44.5254 40.4524C44.6961 40.4391 44.8702 40.4318 44.9558 40.4312L44.9566 40.4312L53.0849 40.3024C53.085 40.3024 53.0851 40.3024 53.0853 40.3024C53.1597 40.3018 53.2737 40.3075 53.3961 40.3135ZM44.1109 40.5165C44.1108 40.5165 44.1112 40.5161 44.1123 40.5154C44.1115 40.5161 44.1109 40.5165 44.1109 40.5165ZM43.8563 39.9636L43.8194 39.9936L43.8194 40.0412C43.8194 40.1448 43.8455 40.3482 43.9056 40.5668C43.9655 40.7849 44.0629 41.0313 44.2131 41.2121C44.2368 41.2406 44.2498 41.2618 44.2587 41.2778C44.262 41.2838 44.2641 41.2878 44.2664 41.2922C44.2681 41.2954 44.2699 41.2988 44.2724 41.3035C44.277 41.3119 44.284 41.3246 44.2939 41.3371C44.3197 41.3698 44.3528 41.3864 44.3902 41.3938C44.4199 41.3997 44.4569 41.4005 44.4981 41.4006C44.5228 41.4006 44.5767 41.4005 44.6392 41.4005C44.7519 41.4004 44.8924 41.4003 44.9384 41.4005C44.9385 41.4005 44.9387 41.4005 44.9388 41.4006L53.2299 41.5123L53.2299 41.5124L53.2313 41.5124C53.7371 41.5124 54.0504 41.5034 54.2367 41.4862C54.3283 41.4777 54.3971 41.4667 54.4443 41.4506C54.4672 41.4429 54.4956 41.4305 54.5184 41.4083C54.5461 41.3813 54.5631 41.3413 54.5548 41.2967C54.5483 41.2613 54.528 41.2362 54.516 41.2232C54.5024 41.2084 54.4867 41.1955 54.4733 41.1851C54.4598 41.1747 54.4449 41.1642 54.4316 41.1548L54.4309 41.1543C54.4167 41.1443 54.4038 41.1351 54.3917 41.1259C54.3776 41.1152 54.3677 41.1066 54.3611 41.1001C54.4401 40.9588 54.3838 40.8119 54.3096 40.6933C54.25 40.5983 54.1626 40.4958 54.0764 40.3948C54.0511 40.3651 54.0259 40.3355 54.0015 40.3063L53.8274 39.9927L53.8229 39.9845L53.8169 39.9773C53.7892 39.944 53.7868 39.9258 53.7855 39.9161L53.7855 39.9159C53.7851 39.9127 53.7849 39.9105 53.7846 39.9075C53.7844 39.9055 53.7841 39.9032 53.7838 39.8999C53.7831 39.8938 53.7819 39.8827 53.7788 39.8707C53.7707 39.8396 53.7516 39.8081 53.7148 39.7875C53.687 39.7719 53.6554 39.7665 53.6295 39.7635C53.6012 39.7603 53.5653 39.7586 53.5208 39.7577C53.4549 39.7564 53.3627 39.7565 53.235 39.7566C53.1896 39.7567 53.1398 39.7567 53.0851 39.7567L53.0835 39.7568L44.9553 39.8856C44.9552 39.8856 44.9551 39.8856 44.9549 39.8856C44.8872 39.886 44.7993 39.8823 44.6999 39.8781L44.6994 39.878C44.6011 39.8738 44.4929 39.8692 44.3885 39.8684C44.2845 39.8676 44.1808 39.8705 44.0919 39.8821C44.0083 39.8931 43.9174 39.914 43.8563 39.9636Z" fill="#725000" stroke="#725000" stroke-width="0.2"/>
<path d="M43.2969 42.7988C43.4224 43.289 43.5087 43.5897 43.5716 43.765L43.6908 44.0977L43.7636 43.7518L43.9232 42.9924L43.929 42.9649L43.9197 42.9384C43.8915 42.8588 43.8609 42.7684 43.8276 42.6664L43.0014 39.4388C43.0013 39.4387 43.0013 39.4386 43.0013 39.4385C42.9732 39.3254 42.9966 39.2065 43.0648 39.1133C43.1222 39.0349 43.1667 39.0003 43.1957 38.9877C43.2176 38.9783 43.2306 38.9805 43.2468 38.9911C43.2694 39.0058 43.2992 39.0396 43.3312 39.1032C43.3623 39.165 43.3913 39.2462 43.4171 39.3439L43.4168 39.344L43.419 39.3505L44.1769 41.5879L44.2513 41.8074L44.36 41.6028L44.583 41.183L44.6032 41.1449L44.5894 41.104L43.9462 39.2052C43.8506 38.846 43.6542 38.5725 43.401 38.475C43.2719 38.4253 43.1326 38.4239 42.9959 38.4779C42.8608 38.5312 42.734 38.6362 42.6212 38.7902C42.4578 39.0134 42.4024 39.2976 42.4695 39.5669L42.4695 39.5669L42.4697 39.5675L43.2969 42.7988ZM43.2969 42.7988L43.3938 42.774M43.2969 42.7988L43.2969 42.7988L43.3938 42.774M43.3938 42.774L42.5665 39.5427C42.5066 39.302 42.5561 39.0484 42.7019 38.8493C43.1212 38.2768 43.6684 38.5444 43.8504 39.234M43.3938 42.774C43.4815 43.1167 43.5496 43.3647 43.6035 43.5412L43.5678 43.7107L43.6657 43.7313L43.7598 43.6975C43.744 43.6533 43.7264 43.6001 43.7067 43.5365L43.8254 42.9718C43.7966 42.8904 43.7654 42.7982 43.7316 42.6943L43.8504 39.234M43.8504 39.234L44.4946 41.1361L44.3361 41.4345L44.3664 41.5238L44.2716 41.5558L44.1833 41.5089L44.2276 41.4257M43.8504 39.234L44.2276 41.4257M44.2276 41.4257L43.5138 39.3184L44.2276 41.4257Z" fill="#725000" stroke="#725000" stroke-width="0.2"/>
<path d="M57.2624 66.2494L59.2914 46.4646C59.375 45.7565 58.5961 45.2625 57.9958 45.643C57.787 45.7753 57.6478 45.9934 57.6154 46.2393L57.2624 66.2494ZM57.2624 66.2494C57.2552 66.3106 57.2532 66.3656 57.2513 66.4159M57.2624 66.2494L57.2513 66.4159M57.2513 66.4159C57.2453 66.5769 57.2411 66.6888 57.0751 66.794L57.2513 66.4159ZM57.5162 46.2263L57.5162 46.2263L57.516 46.228L55.227 66.1438L55.2264 66.1437L55.2264 66.1552C55.2264 66.4169 55.441 66.599 55.7454 66.7041L55.7668 66.7115L55.7893 66.7089C55.8419 66.7029 55.9018 66.7071 55.9719 66.7166C56.0027 66.7208 56.034 66.7257 56.0669 66.7309L56.08 66.733C56.1172 66.7389 56.1564 66.7449 56.196 66.7498C56.338 66.7673 56.5008 66.7719 56.6569 66.6933L57.0297 66.8832L57.0805 66.909L57.1286 66.8785C57.1919 66.8384 57.24 66.7942 57.2748 66.7429C57.3098 66.6913 57.3277 66.6377 57.3375 66.5842C57.3469 66.5326 57.349 66.4783 57.351 66.4272L57.3512 66.4204C57.3531 66.3696 57.355 66.3181 57.3618 66.261L57.3619 66.2595L59.3908 46.4763C59.3908 46.476 59.3908 46.4757 59.3909 46.4755C59.4834 45.6854 58.6145 45.1325 57.9423 45.5586C57.7083 45.7069 57.5525 45.9512 57.5162 46.2263ZM55.932 66.404C55.886 66.3886 55.835 66.3767 55.7806 66.3767C55.7663 66.3323 55.761 66.2792 55.7693 66.2167L55.7694 66.2151L58.0583 46.3001C58.0738 46.1848 58.1391 46.0828 58.2368 46.0208C58.5185 45.8423 58.8873 46.074 58.8478 46.4092L58.8477 46.4107L56.8188 66.1939C56.8188 66.1942 56.8188 66.1944 56.8187 66.1947C56.8055 66.3051 56.7491 66.4045 56.6629 66.4719L56.6492 66.4649L56.6256 66.4799L56.4671 66.4799L56.438 66.4799L56.4135 66.4954C56.3198 66.5548 56.237 66.5354 56.1207 66.4843C56.1065 66.4781 56.0912 66.4711 56.0752 66.4637C56.0305 66.4432 55.98 66.4201 55.932 66.404Z" fill="#725000" stroke="#725000" stroke-width="0.2"/>
<path d="M44.2585 41.0532L44.2124 41.0685L44.1959 41.1141C43.9165 41.887 43.5168 43.1923 43.2239 44.601C42.9315 46.0077 42.7433 47.5276 42.8937 48.7252C43.1585 50.8346 43.6158 52.0196 43.9882 52.9847C44.1384 53.3738 44.2747 53.7271 44.3791 54.0909C44.5677 54.7481 44.9431 55.5412 45.4104 56.2626C45.8771 56.9828 46.4419 57.6414 47.014 58.0212C47.3176 58.2227 47.6651 58.4674 48.0406 58.7318C49.0276 59.4269 50.2074 60.2577 51.2865 60.7949C52.1826 61.2411 54.1464 62.0185 55.934 62.5687L56.0458 62.6031L56.0624 62.4873L56.1202 62.0838L56.1325 61.998L56.0494 61.9736C55.9693 61.9501 55.8886 61.926 55.8072 61.9013C49.1569 59.8779 46.4526 56.8736 45.4869 55.3025C44.9587 54.4431 44.3595 52.8398 43.915 51.238C43.6932 50.4385 43.5108 49.6427 43.3954 48.9443C43.2797 48.2436 43.2328 47.6488 43.2776 47.2478C43.3696 46.4232 43.6466 44.9515 43.9473 43.6616C44.0976 43.017 44.2532 42.4201 44.394 41.9739C44.4645 41.7505 44.5305 41.5672 44.5894 41.4354C44.6189 41.3693 44.6454 41.3188 44.6686 41.2834C44.6896 41.2512 44.7022 41.2403 44.7048 41.2381C44.7054 41.2376 44.7055 41.2375 44.7051 41.2377C44.7437 41.2185 44.776 41.2 44.7991 41.1819C44.8099 41.1734 44.8257 41.1597 44.8375 41.1404C44.85 41.12 44.8671 41.0763 44.8416 41.0295C44.821 40.9916 44.7858 40.9789 44.7733 40.975C44.757 40.9698 44.741 40.968 44.7288 40.9673C44.7037 40.9657 44.6744 40.9674 44.6459 40.9702C44.5317 40.9818 44.3577 41.0203 44.2585 41.0532ZM62.581 62.8784L62.4969 63.0489L62.685 63.0216C63.3042 62.9318 63.9638 62.7798 64.5115 62.5611C65.0528 62.345 65.5106 62.0538 65.6893 61.6702C65.72 61.6043 65.7111 61.5419 65.6851 61.4909C65.6626 61.447 65.6265 61.4097 65.6009 61.3836L65.5931 61.3755C65.5673 61.3493 65.5479 61.3293 65.5329 61.308C65.5178 61.2865 65.5133 61.2716 65.5133 61.2589C65.5133 61.189 65.5063 61.1182 65.4738 61.0677C65.4546 61.0379 65.4242 61.0118 65.3822 61.003C65.3435 60.9949 65.3088 61.0045 65.2842 61.0152C65.2372 61.0357 65.1921 61.0759 65.1531 61.1156C65.1117 61.1578 65.0669 61.2104 65.0208 61.2669C64.9846 61.3113 64.948 61.3577 64.9106 61.405C64.8499 61.4818 64.7874 61.5609 64.7223 61.6374C64.6172 61.7608 64.5187 61.8604 64.4349 61.9115C63.9686 62.1956 63.6952 62.2717 63.1979 62.41C63.0775 62.4435 62.9438 62.4807 62.7912 62.5254L62.749 62.5377L62.7296 62.5772L62.581 62.8784ZM57.4087 62.913L57.4203 62.9781L57.4848 62.9929C58.0522 63.1235 58.5544 63.2039 58.9281 63.2039C58.9889 63.2039 59.0541 63.2041 59.1231 63.2042C59.503 63.2048 60.0006 63.2056 60.5489 63.1896L60.6068 63.1879L60.6341 63.1368L60.7285 62.9606L60.8083 62.8117L60.6394 62.8134C59.7524 62.8223 58.6979 62.7223 57.4671 62.4528L57.3211 62.4208L57.3473 62.568L57.4087 62.913ZM54.7557 42.0258L54.6562 41.8276L54.5736 42.0334C54.4442 42.3555 54.3506 42.8752 54.3118 43.471C54.2728 44.069 54.2883 44.7525 54.3821 45.4059C54.6066 46.9712 54.941 48.1938 55.5072 49.1334C55.7336 49.5092 56.0777 49.9449 56.3998 50.3438C56.4429 50.3972 56.4856 50.4499 56.5275 50.5017C56.8023 50.841 57.0454 51.1412 57.1758 51.349L57.3605 51.6432V51.2958V50.9268V50.8956L57.3427 50.87C57.186 50.6429 57.0115 50.4098 56.8297 50.167C56.2119 49.3419 55.5099 48.4043 55.1323 47.2067C54.8517 46.3166 54.6684 45.4025 54.6238 44.5757C54.579 43.747 54.6742 43.0159 54.941 42.4845L54.9635 42.4397L54.941 42.3948L54.7557 42.0258ZM58.6541 51.8234L58.5682 51.5025L58.4627 51.8176L58.2774 52.3711L58.2651 52.4077L58.2807 52.443C58.4985 52.9389 58.8787 53.688 59.2699 54.3782C59.4656 54.7235 59.6647 55.0552 59.8481 55.3338C60.0305 55.6108 60.2011 55.841 60.3399 55.9792C60.6146 56.2528 60.89 56.5726 61.1685 56.8961L61.1699 56.8978C61.4468 57.2195 61.7268 57.5448 62.0075 57.8242C62.2052 58.0211 62.5844 58.2876 62.9775 58.5329C63.3724 58.7792 63.7919 59.0107 64.0758 59.1363L64.2163 59.1985V59.0449V58.6759V58.6344L64.1869 58.605C64.1094 58.5279 63.858 58.3618 63.4066 58.212C63.2864 58.1721 63.1247 58.0672 62.9262 57.9039C62.7301 57.7426 62.5069 57.5319 62.2644 57.2905C62.0302 57.0572 61.7795 56.7969 61.5196 56.5269L61.4929 56.4992C61.2237 56.2196 60.9451 55.9306 60.6663 55.653C60.1949 55.1836 59.753 54.4574 59.3967 53.7278C59.0412 52.9995 58.7757 52.2774 58.6541 51.8234Z" fill="#725000" stroke="#725000" stroke-width="0.2"/>
</svg>
