<svg width="99" height="20" viewBox="0 0 99 20" fill="none" xmlns="http://www.w3.org/2000/svg">
<path d="M62.1173 9.49239C61.2649 9.49239 60.4801 9.28511 59.7628 8.87056C59.0455 8.45601 58.4759 7.88494 58.054 7.15736C57.632 6.42978 57.4211 5.62606 57.4211 4.74619C57.4211 3.86633 57.632 3.06261 58.054 2.33503C58.4759 1.60745 59.0455 1.03638 59.7628 0.621828C60.4801 0.207276 61.2649 0 62.1173 0C62.7839 0 63.4084 0.118443 63.9907 0.35533C64.5814 0.592216 65.0666 0.926396 65.4464 1.35787L64.6742 2.13198C64.3873 1.77665 64.0202 1.50592 63.573 1.3198C63.1257 1.12521 62.6447 1.02792 62.1299 1.02792C61.4886 1.02792 60.8894 1.18443 60.3324 1.49746C59.7839 1.80203 59.3409 2.23773 59.0033 2.80457C58.6742 3.36294 58.5097 4.01015 58.5097 4.74619C58.5097 5.48223 58.6742 6.13367 59.0033 6.70051C59.3409 7.25888 59.7881 7.69458 60.3451 8.00761C60.9021 8.31218 61.497 8.46447 62.1299 8.46447C62.7375 8.46447 63.2438 8.3714 63.6489 8.18528C64.0624 7.99069 64.4168 7.73689 64.7122 7.42386C64.9316 7.18697 65.1088 6.90355 65.2438 6.5736C65.3789 6.23519 65.4633 5.86294 65.497 5.45685H62.1426V4.45431H66.497C66.5392 4.6912 66.5603 4.91117 66.5603 5.11421C66.5603 5.67259 66.4717 6.21827 66.2945 6.75127C66.1173 7.2758 65.8346 7.73689 65.4464 8.13452C64.6109 9.03976 63.5012 9.49239 62.1173 9.49239Z" fill="url(#paint0_linear_744_2720)"/>
<path d="M70.859 9.49239C70.226 9.49239 69.6564 9.3401 69.1501 9.03553C68.6438 8.73096 68.2471 8.31641 67.9602 7.79188C67.6817 7.26734 67.5425 6.68782 67.5425 6.0533C67.5425 5.41878 67.6817 4.83926 67.9602 4.31472C68.2471 3.79019 68.6438 3.37563 69.1501 3.07107C69.6564 2.7665 70.226 2.61421 70.859 2.61421C71.4919 2.61421 72.0615 2.7665 72.5678 3.07107C73.0741 3.37563 73.4666 3.79019 73.745 4.31472C74.032 4.83926 74.1754 5.41878 74.1754 6.0533C74.1754 6.68782 74.032 7.26734 73.745 7.79188C73.4666 8.31641 73.0741 8.73096 72.5678 9.03553C72.0615 9.3401 71.4919 9.49239 70.859 9.49239ZM70.859 8.51523C71.2556 8.51523 71.6227 8.41794 71.9602 8.22335C72.3062 8.0203 72.5805 7.73266 72.783 7.36041C72.994 6.98815 73.0995 6.55245 73.0995 6.0533C73.0995 5.55415 72.994 5.11844 72.783 4.74619C72.5805 4.37394 72.3062 4.09052 71.9602 3.89594C71.6227 3.69289 71.2556 3.59137 70.859 3.59137C70.4623 3.59137 70.091 3.69289 69.745 3.89594C69.399 4.09052 69.1206 4.37394 68.9096 4.74619C68.7071 5.11844 68.6058 5.55415 68.6058 6.0533C68.6058 6.55245 68.7071 6.98815 68.9096 7.36041C69.1206 7.73266 69.399 8.0203 69.745 8.22335C70.091 8.41794 70.4623 8.51523 70.859 8.51523Z" fill="url(#paint1_linear_744_2720)"/>
<path d="M78.3995 9.49239C77.7666 9.49239 77.197 9.3401 76.6906 9.03553C76.1843 8.73096 75.7877 8.31641 75.5008 7.79188C75.2223 7.26734 75.0831 6.68782 75.0831 6.0533C75.0831 5.41878 75.2223 4.83926 75.5008 4.31472C75.7877 3.79019 76.1843 3.37563 76.6906 3.07107C77.197 2.7665 77.7666 2.61421 78.3995 2.61421C79.0324 2.61421 79.602 2.7665 80.1084 3.07107C80.6147 3.37563 81.0071 3.79019 81.2856 4.31472C81.5725 4.83926 81.716 5.41878 81.716 6.0533C81.716 6.68782 81.5725 7.26734 81.2856 7.79188C81.0071 8.31641 80.6147 8.73096 80.1084 9.03553C79.602 9.3401 79.0324 9.49239 78.3995 9.49239ZM78.3995 8.51523C78.7961 8.51523 79.1632 8.41794 79.5008 8.22335C79.8468 8.0203 80.121 7.73266 80.3236 7.36041C80.5345 6.98815 80.64 6.55245 80.64 6.0533C80.64 5.55415 80.5345 5.11844 80.3236 4.74619C80.121 4.37394 79.8468 4.09052 79.5008 3.89594C79.1632 3.69289 78.7961 3.59137 78.3995 3.59137C78.0029 3.59137 77.6316 3.69289 77.2856 3.89594C76.9396 4.09052 76.6611 4.37394 76.4501 4.74619C76.2476 5.11844 76.1463 5.55415 76.1463 6.0533C76.1463 6.55245 76.2476 6.98815 76.4501 7.36041C76.6611 7.73266 76.9396 8.0203 77.2856 8.22335C77.6316 8.41794 78.0029 8.51523 78.3995 8.51523Z" fill="url(#paint2_linear_744_2720)"/>
<path d="M85.8008 12.2335C85.0413 12.2335 84.4126 12.0558 83.9147 11.7005C83.4253 11.3452 83.0962 10.9179 82.9274 10.4188L83.9021 10C84.0455 10.3722 84.2818 10.6726 84.6109 10.901C84.9485 11.1379 85.3451 11.2563 85.8008 11.2563C86.4675 11.2563 86.9823 11.0618 87.3451 10.6726C87.7164 10.2834 87.9021 9.7335 87.9021 9.02284V8.29949H87.8515C87.6405 8.62944 87.3409 8.90017 86.9527 9.11167C86.573 9.31472 86.1384 9.41624 85.6489 9.41624C85.092 9.41624 84.5814 9.27242 84.1173 8.98477C83.6616 8.69712 83.2987 8.29526 83.0287 7.77919C82.7586 7.26311 82.6236 6.67513 82.6236 6.01523C82.6236 5.36379 82.7586 4.78003 83.0287 4.26396C83.2987 3.73942 83.6616 3.33333 84.1173 3.04569C84.5814 2.75804 85.092 2.61421 85.6489 2.61421C86.1384 2.61421 86.573 2.71997 86.9527 2.93147C87.3409 3.13452 87.6405 3.40525 87.8515 3.74365H87.9021V2.81726H88.9274V9.03553C88.9274 10.0761 88.6405 10.8672 88.0666 11.4086C87.4928 11.9585 86.7375 12.2335 85.8008 12.2335ZM85.8008 8.43909C86.189 8.43909 86.5392 8.34179 86.8514 8.14721C87.1721 7.95262 87.4253 7.67343 87.6109 7.30964C87.805 6.94585 87.9021 6.51438 87.9021 6.01523C87.9021 5.50761 87.805 5.07191 87.6109 4.70812C87.4253 4.34433 87.1721 4.06937 86.8514 3.88325C86.5392 3.68866 86.189 3.59137 85.8008 3.59137C85.4126 3.59137 85.0582 3.68866 84.7375 3.88325C84.4169 4.07783 84.1595 4.35702 83.9654 4.72081C83.7797 5.0846 83.6869 5.51607 83.6869 6.01523C83.6869 6.51438 83.7797 6.95008 83.9654 7.32233C84.1595 7.68612 84.4169 7.96531 84.7375 8.1599C85.0582 8.34602 85.4126 8.43909 85.8008 8.43909Z" fill="url(#paint3_linear_744_2720)"/>
<path d="M90.5183 0.203046H91.5942V9.28934H90.5183V0.203046Z" fill="url(#paint4_linear_744_2720)"/>
<path d="M96 9.49239C95.384 9.49239 94.8312 9.34433 94.3418 9.04822C93.8523 8.75212 93.4683 8.34602 93.1899 7.82995C92.9198 7.30541 92.7848 6.71743 92.7848 6.06599C92.7848 5.43993 92.9114 4.86464 93.1646 4.3401C93.4262 3.81557 93.7932 3.39679 94.2658 3.08376C94.7384 2.77073 95.2869 2.61421 95.9114 2.61421C96.5443 2.61421 97.0928 2.75804 97.557 3.04569C98.0211 3.32487 98.3755 3.71404 98.6202 4.2132C98.8734 4.71235 99 5.28342 99 5.9264C99 6.0533 98.9873 6.16328 98.962 6.25634H93.8607C93.8861 6.74704 94.0042 7.16159 94.2152 7.5C94.4262 7.83841 94.692 8.09222 95.0126 8.26142C95.3418 8.43063 95.6835 8.51523 96.038 8.51523C96.865 8.51523 97.5021 8.12606 97.9494 7.34772L98.8608 7.79188C98.5823 8.31641 98.2025 8.73096 97.7215 9.03553C97.2489 9.3401 96.6751 9.49239 96 9.49239ZM97.8608 5.36802C97.8439 5.09729 97.7679 4.82657 97.6329 4.55584C97.4979 4.28511 97.2827 4.05668 96.9873 3.87056C96.7004 3.68443 96.3375 3.59137 95.8987 3.59137C95.3924 3.59137 94.962 3.75635 94.6076 4.08629C94.2616 4.40778 94.0337 4.83503 93.924 5.36802H97.8608Z" fill="url(#paint5_linear_744_2720)"/>
<path d="M57.5265 13.8071H59.5603C59.8979 13.8071 60.2101 13.8832 60.497 14.0355C60.7839 14.1878 61.0118 14.4021 61.1805 14.6785C61.3549 14.9492 61.4422 15.2566 61.4422 15.6007C61.4422 15.9447 61.3549 16.2549 61.1805 16.5313C61.0118 16.802 60.7839 17.0135 60.497 17.1658C60.2101 17.3181 59.8979 17.3942 59.5603 17.3942H58.2354V19.8646H57.5265V13.8071ZM59.5772 16.709C59.8022 16.709 59.9991 16.6554 60.1679 16.5482C60.3423 16.4411 60.4773 16.3029 60.573 16.1337C60.6686 15.9645 60.7164 15.7868 60.7164 15.6007C60.7164 15.4146 60.6686 15.2369 60.573 15.0677C60.4773 14.8985 60.3423 14.7603 60.1679 14.6531C59.9991 14.546 59.8022 14.4924 59.5772 14.4924H58.2354V16.709H59.5772Z" fill="url(#paint6_linear_744_2720)"/>
<path d="M63.456 20C63.1409 20 62.8597 19.938 62.6121 19.8139C62.3646 19.6898 62.1733 19.5206 62.0383 19.3063C61.9033 19.0863 61.8357 18.8381 61.8357 18.5618C61.8357 18.1049 62.0073 17.7496 62.3505 17.4958C62.6937 17.2363 63.1269 17.1066 63.6501 17.1066C63.9089 17.1066 64.148 17.1348 64.3674 17.1912C64.5924 17.2476 64.764 17.3125 64.8822 17.3858V17.1235C64.8822 16.802 64.7696 16.5454 64.5446 16.3536C64.3196 16.1562 64.0355 16.0575 63.6923 16.0575C63.4504 16.0575 63.2281 16.1111 63.0256 16.2183C62.8231 16.3198 62.6628 16.4636 62.5446 16.6497L62.0045 16.2437C62.1733 15.9842 62.404 15.7812 62.6965 15.6345C62.9947 15.4879 63.3238 15.4145 63.6838 15.4145C64.2689 15.4145 64.7274 15.5697 65.0594 15.8799C65.3969 16.1844 65.5657 16.6018 65.5657 17.132V19.8646H64.8822V19.247H64.8484C64.7246 19.4557 64.539 19.6334 64.2914 19.78C64.0439 19.9267 63.7654 20 63.456 20ZM63.5235 19.3655C63.7654 19.3655 63.9905 19.3034 64.1986 19.1794C64.4068 19.0553 64.5727 18.8889 64.6965 18.6802C64.8203 18.4715 64.8822 18.2431 64.8822 17.9949C64.7471 17.9047 64.5812 17.8314 64.3843 17.775C64.1874 17.7186 63.9792 17.6904 63.7598 17.6904C63.366 17.6904 63.0678 17.7721 62.8653 17.9357C62.6684 18.0993 62.5699 18.3108 62.5699 18.5702C62.5699 18.8071 62.6599 18.9989 62.84 19.1455C63.02 19.2922 63.2478 19.3655 63.5235 19.3655Z" fill="url(#paint7_linear_744_2720)"/>
<path d="M66.5636 15.5499H67.2471V16.2352H67.2809C67.3822 15.9814 67.5537 15.784 67.7957 15.643C68.0376 15.502 68.302 15.4315 68.5889 15.4315C68.7127 15.4315 68.8168 15.4399 68.9012 15.4569V16.1929C68.8055 16.1703 68.6761 16.1591 68.513 16.1591C68.1473 16.1591 67.8491 16.2803 67.6184 16.5228C67.3934 16.7654 67.2809 17.0812 67.2809 17.4704V19.8646H66.5636V15.5499ZM71.4159 19.9323C71.2415 19.9323 71.0784 19.9041 70.9265 19.8477C70.7802 19.7913 70.6564 19.7152 70.5552 19.6193C70.4426 19.5121 70.3583 19.388 70.302 19.247C70.2457 19.106 70.2176 18.934 70.2176 18.731V16.2014H69.4666V15.5499H70.2176V14.3316H70.9349V15.5499H71.9813V16.2014H70.9349V18.5533C70.9349 18.7902 70.9799 18.965 71.0699 19.0778C71.1768 19.2019 71.3315 19.264 71.5341 19.264C71.6972 19.264 71.8547 19.216 72.0066 19.1201V19.8223C71.9222 19.8618 71.8351 19.89 71.745 19.9069C71.6606 19.9239 71.5509 19.9323 71.4159 19.9323Z" fill="url(#paint8_linear_744_2720)"/>
<path d="M72.8927 15.5499H73.5763V16.1844H73.61C73.7282 15.9701 73.9166 15.7896 74.1754 15.643C74.4342 15.4907 74.7099 15.4145 75.0024 15.4145C75.52 15.4145 75.9138 15.5668 76.1839 15.8714C76.4595 16.1703 76.5974 16.5792 76.5974 17.0981V19.8646H75.8801V17.2081C75.8801 16.8077 75.7844 16.5172 75.5931 16.3367C75.4019 16.1562 75.1403 16.066 74.8083 16.066C74.5777 16.066 74.3695 16.1308 74.1839 16.2606C74.0038 16.3903 73.8632 16.5623 73.7619 16.7766C73.6606 16.9853 73.61 17.2053 73.61 17.4365V19.8646H72.8927V15.5499Z" fill="url(#paint9_linear_744_2720)"/>
<path d="M79.5387 20C79.128 20 78.7595 19.9013 78.4332 19.7039C78.1069 19.5065 77.8509 19.2358 77.6653 18.8917C77.4852 18.542 77.3952 18.15 77.3952 17.7157C77.3952 17.2984 77.4796 16.9148 77.6484 16.5651C77.8228 16.2155 78.0675 15.9363 78.3826 15.7276C78.6976 15.5189 79.0633 15.4145 79.4796 15.4145C79.9016 15.4145 80.2672 15.5104 80.5767 15.7022C80.8861 15.8883 81.1224 16.1478 81.2855 16.4805C81.4543 16.8133 81.5387 17.194 81.5387 17.6227C81.5387 17.7073 81.5302 17.7806 81.5134 17.8426H78.1125C78.1294 18.1698 78.2082 18.4461 78.3488 18.6717C78.4895 18.8973 78.6667 19.0666 78.8805 19.1794C79.0999 19.2922 79.3277 19.3486 79.564 19.3486C80.1153 19.3486 80.5401 19.0891 80.8383 18.5702L81.4459 18.8663C81.2602 19.216 81.007 19.4924 80.6864 19.6954C80.3713 19.8985 79.9888 20 79.5387 20ZM80.7792 17.2504C80.7679 17.0699 80.7173 16.8895 80.6273 16.709C80.5373 16.5285 80.3938 16.3762 80.1969 16.2521C80.0056 16.128 79.7637 16.066 79.4712 16.066C79.1336 16.066 78.8467 16.176 78.6104 16.3959C78.3798 16.6103 78.2279 16.8951 78.1547 17.2504H80.7792Z" fill="url(#paint10_linear_744_2720)"/>
<path d="M82.3781 15.5499H83.0617V16.2437H83.0954C83.1798 16.0068 83.343 15.8122 83.5849 15.6599C83.8268 15.502 84.08 15.423 84.3444 15.423C84.5413 15.423 84.7101 15.4512 84.8507 15.5076V16.286C84.6707 16.1957 84.4682 16.1506 84.2431 16.1506C84.035 16.1506 83.8437 16.2098 83.6693 16.3283C83.4949 16.4467 83.3542 16.6074 83.2473 16.8105C83.1461 17.0079 83.0954 17.2222 83.0954 17.4535V19.8646H82.3781V15.5499Z" fill="url(#paint11_linear_744_2720)"/>
<path d="M39.3138 20C37.4402 20 35.7121 19.5722 34.1296 18.7166C32.5653 17.8431 31.3192 16.6488 30.3915 15.1337C29.4638 13.6007 29 11.8895 29 10C29 8.11052 29.4638 6.4082 30.3915 4.89305C31.3192 3.36007 32.5653 2.16578 34.1296 1.31016C35.7121 0.43672 37.4402 0 39.3138 0C40.8417 0 42.2333 0.26738 43.4884 0.80214C44.7617 1.31907 45.8531 2.05882 46.7626 3.02139L44.2251 5.45455C43.5703 4.77718 42.8427 4.26916 42.0423 3.93048C41.2601 3.5918 40.3415 3.42246 39.2865 3.42246C38.0859 3.42246 36.9854 3.69875 35.985 4.25134C34.9845 4.7861 34.1842 5.5615 33.5839 6.57754C33.0018 7.57576 32.7108 8.71658 32.7108 10C32.7108 11.2834 33.0109 12.4332 33.6112 13.4492C34.2115 14.4474 35.0118 15.2228 36.0123 15.7754C37.0309 16.3102 38.1405 16.5775 39.3411 16.5775C41.1601 16.5775 42.6517 16.0517 43.8158 15C44.1796 14.6791 44.498 14.2692 44.7708 13.7701C45.0437 13.2709 45.2437 12.7273 45.3711 12.139H39.2319V9.06417H48.809C48.9363 9.56328 49 10.1248 49 10.7487C49 12.0143 48.7999 13.1907 48.3997 14.2781C48.0177 15.3654 47.4266 16.3191 46.6262 17.139C45.7531 18.066 44.698 18.779 43.4611 19.2781C42.2242 19.7594 40.8417 20 39.3138 20Z" fill="url(#paint12_linear_744_2720)"/>
<path d="M0 0H4V20H0V0Z" fill="url(#paint13_linear_744_2720)"/>
<defs>
<linearGradient id="paint0_linear_744_2720" x1="49.5" y1="0" x2="49.5" y2="20" gradientUnits="userSpaceOnUse">
<stop stop-color="#FF6B6B"/>
<stop offset="1" stop-color="#C70000"/>
</linearGradient>
<linearGradient id="paint1_linear_744_2720" x1="49.5" y1="0" x2="49.5" y2="20" gradientUnits="userSpaceOnUse">
<stop stop-color="#FF6B6B"/>
<stop offset="1" stop-color="#C70000"/>
</linearGradient>
<linearGradient id="paint2_linear_744_2720" x1="49.5" y1="0" x2="49.5" y2="20" gradientUnits="userSpaceOnUse">
<stop stop-color="#FF6B6B"/>
<stop offset="1" stop-color="#C70000"/>
</linearGradient>
<linearGradient id="paint3_linear_744_2720" x1="49.5" y1="0" x2="49.5" y2="20" gradientUnits="userSpaceOnUse">
<stop stop-color="#FF6B6B"/>
<stop offset="1" stop-color="#C70000"/>
</linearGradient>
<linearGradient id="paint4_linear_744_2720" x1="49.5" y1="0" x2="49.5" y2="20" gradientUnits="userSpaceOnUse">
<stop stop-color="#FF6B6B"/>
<stop offset="1" stop-color="#C70000"/>
</linearGradient>
<linearGradient id="paint5_linear_744_2720" x1="49.5" y1="0" x2="49.5" y2="20" gradientUnits="userSpaceOnUse">
<stop stop-color="#FF6B6B"/>
<stop offset="1" stop-color="#C70000"/>
</linearGradient>
<linearGradient id="paint6_linear_744_2720" x1="49.5" y1="0" x2="49.5" y2="20" gradientUnits="userSpaceOnUse">
<stop stop-color="#FF6B6B"/>
<stop offset="1" stop-color="#C70000"/>
</linearGradient>
<linearGradient id="paint7_linear_744_2720" x1="49.5" y1="0" x2="49.5" y2="20" gradientUnits="userSpaceOnUse">
<stop stop-color="#FF6B6B"/>
<stop offset="1" stop-color="#C70000"/>
</linearGradient>
<linearGradient id="paint8_linear_744_2720" x1="49.5" y1="0" x2="49.5" y2="20" gradientUnits="userSpaceOnUse">
<stop stop-color="#FF6B6B"/>
<stop offset="1" stop-color="#C70000"/>
</linearGradient>
<linearGradient id="paint9_linear_744_2720" x1="49.5" y1="0" x2="49.5" y2="20" gradientUnits="userSpaceOnUse">
<stop stop-color="#FF6B6B"/>
<stop offset="1" stop-color="#C70000"/>
</linearGradient>
<linearGradient id="paint10_linear_744_2720" x1="49.5" y1="0" x2="49.5" y2="20" gradientUnits="userSpaceOnUse">
<stop stop-color="#FF6B6B"/>
<stop offset="1" stop-color="#C70000"/>
</linearGradient>
<linearGradient id="paint11_linear_744_2720" x1="49.5" y1="0" x2="49.5" y2="20" gradientUnits="userSpaceOnUse">
<stop stop-color="#FF6B6B"/>
<stop offset="1" stop-color="#C70000"/>
</linearGradient>
<linearGradient id="paint12_linear_744_2720" x1="49.5" y1="0" x2="49.5" y2="20" gradientUnits="userSpaceOnUse">
<stop stop-color="#FF6B6B"/>
<stop offset="1" stop-color="#C70000"/>
</linearGradient>
<linearGradient id="paint13_linear_744_2720" x1="49.5" y1="0" x2="49.5" y2="20" gradientUnits="userSpaceOnUse">
<stop stop-color="#FF6B6B"/>
<stop offset="1" stop-color="#C70000"/>
</linearGradient>
</defs>
</svg>
