<svg width="66" height="81" viewBox="0 0 66 81" fill="none" xmlns="http://www.w3.org/2000/svg">
<path d="M65.0382 61.1132C60.9864 62.6726 52.1815 59.7744 48.4727 56.9926C35.6584 47.381 40.2541 46.2003 40.4159 46.1566C42.4748 45.5999 47.4399 53.1196 48.7675 59.7017C50.6851 69.209 39.4133 79.6057 23.3962 75.7685C6.5634 71.7358 9.02049 52.5228 14.7197 32.4272C18.7073 18.367 8.12079 3.03775 1.07812 0.766632M42.8609 75.5928C36.463 82.3865 12.4727 83.3814 7.97465 63.4804M1.07812 0.766632C4.14605 1.32271 9.3638 3.90534 12.9629 3.95665C5.78045 4.43025 2.77444 11.7514 2.36387 12.9583C3.0772 7.07085 1.93017 2.04606 1.07812 0.766632ZM15.9714 14.7233C17.4708 18.3718 19.47 28.0569 15.4716 37.6094" stroke="white" stroke-linecap="round"/>
</svg>
