<svg width="86" height="95" viewBox="0 0 86 95" fill="none" xmlns="http://www.w3.org/2000/svg">
<path d="M14.8848 12.0943L42.5726 27.9977L43.1561 35.6668L32.85 53.4257C6.8145 44.5062 10.0251 22.155 14.8848 12.0943Z" fill="url(#paint0_linear_920_1632)"/>
<path fill-rule="evenodd" clip-rule="evenodd" d="M34.7929 25.828C34.0672 25.2857 33.5301 24.5485 33.2555 24.0324L33.4881 23.9094C33.7486 24.3991 34.2625 25.1037 34.9511 25.6183C35.6382 26.1317 36.4858 26.447 37.428 26.1938L37.4961 26.4468C36.4502 26.7279 35.5201 26.3714 34.7929 25.828ZM23.8971 18.4089C24.7712 20.5276 26.8923 20.8067 27.8483 20.6784L27.883 20.9381C26.8676 21.0744 24.5925 20.7843 23.6537 18.5089L23.8971 18.4089ZM28.0875 22.4369C28.6615 22.3939 29.2798 22.2882 29.9448 22.1095L29.8768 21.8565C29.1614 22.0487 28.5051 22.1536 27.9039 22.1863C27.3688 22.2153 26.8772 22.1873 26.4261 22.1127C25.1446 21.901 24.1829 21.3128 23.4779 20.5795C23.0224 20.1056 22.6734 19.5703 22.4154 19.0356C22.1127 18.4081 21.9365 17.7838 21.8604 17.265L21.6001 17.3034C21.674 17.8077 21.8372 18.4023 22.1106 19.005C20.7096 19.3466 19.8388 19.0624 19.3117 18.592C18.7998 18.1352 18.5878 17.4818 18.5482 16.9764C19.2622 16.8873 19.8509 16.6857 20.2173 16.497L20.0968 16.2643C19.7405 16.4478 19.1365 16.6531 18.397 16.7299C17.8561 16.7861 17.2451 16.7733 16.6077 16.6344C16.1143 16.5269 15.6048 16.3438 15.0991 16.0583C14.9978 16.0011 14.8967 15.9398 14.7959 15.8742L14.6517 16.0937C14.7358 16.1484 14.8202 16.2004 14.9048 16.2495C14.9376 17.1838 15.1178 18.2953 15.5171 19.34C15.3017 19.4624 14.9822 19.6181 14.6318 19.7398C14.2226 19.8817 13.7879 19.9712 13.4315 19.9207L13.3939 20.1801C13.8127 20.2395 14.2953 20.1339 14.7179 19.9872C15.068 19.8657 15.3883 19.712 15.6155 19.5853C15.8194 20.0704 16.0735 20.5377 16.3855 20.9611C15.9714 21.1371 15.3749 21.3627 14.7723 21.5345C14.4318 21.6317 14.0917 21.711 13.783 21.7549C13.4723 21.799 13.2027 21.8059 12.999 21.7647L12.9462 22.0215C13.193 22.0714 13.4972 22.0601 13.8197 22.0143C14.1441 21.9682 14.4966 21.8856 14.8443 21.7864C15.4901 21.6022 16.1274 21.3583 16.5513 21.1751C16.8142 21.4977 17.1144 21.7901 17.4557 22.039C16.7134 22.4355 15.4241 23.0137 14.2734 23.2366C13.8602 23.3166 13.471 23.3495 13.1346 23.3147L13.1069 23.5753C13.4349 23.6093 13.7986 23.5843 14.1739 23.5209C14.2175 24.1866 14.4187 24.7044 14.7273 25.0993C15.0584 25.5229 15.5056 25.7958 15.9908 25.9619C16.9136 26.2778 17.9906 26.2135 18.7378 26.0527C18.9282 26.4314 19.1491 26.7958 19.4037 27.1337C18.554 27.5436 17.2919 27.8975 16.0974 27.7152C15.4687 27.6192 14.8604 27.3752 14.3378 26.914C13.8151 26.4528 13.3708 25.768 13.0805 24.7792L12.828 24.8532C13.1296 25.8806 13.5971 26.611 14.1631 27.1103C14.7291 27.6098 15.3864 27.8719 16.0571 27.9742C17.3453 28.1708 18.6889 27.7795 19.5696 27.3442C19.864 27.7011 20.1996 28.0234 20.5808 28.2949C19.912 28.8137 18.6774 29.4028 17.1318 29.4132C16.647 29.4165 16.1315 29.3628 15.593 29.2321C15.004 29.0892 14.3867 28.854 13.7514 28.4996C13.5499 28.3872 13.3466 28.2628 13.1418 28.1256L12.9946 28.3431C13.1825 28.469 13.3694 28.5845 13.5551 28.6903C13.5552 30.3782 13.9988 32.6357 15.3305 34.1598C15.2163 34.2215 15.07 34.2898 14.9126 34.3438C14.68 34.4237 14.4413 34.4661 14.2504 34.4275L14.1975 34.6843C14.4572 34.7368 14.7496 34.6768 14.9979 34.5915C15.1972 34.5231 15.3798 34.4343 15.513 34.3582C15.8216 34.6767 16.1738 34.9574 16.5739 35.1863C16.428 35.2968 16.226 35.4282 15.9888 35.5445C15.6574 35.7069 15.2654 35.8358 14.867 35.8432L14.8714 36.1052C15.3211 36.0969 15.7519 35.9524 16.1046 35.7796C16.3231 35.6725 16.5147 35.5529 16.6659 35.4441C16.5965 38.6002 18.0536 40.4968 19.8043 41.7036C19.7295 41.913 19.6444 42.2196 19.5936 42.563C19.5343 42.9644 19.5203 43.4264 19.6325 43.8462L19.8867 43.7783C19.7873 43.4061 19.7973 42.9834 19.8539 42.6007C19.8984 42.2998 19.9706 42.0301 20.0356 41.8385C20.3828 42.0112 20.7434 42.1341 21.111 42.2145C21.2895 43.573 21.6839 44.5775 22.2158 45.3034C22.7607 46.047 23.4452 46.4918 24.1735 46.7255C25.5785 47.1764 27.137 46.8397 28.1785 46.3814C28.4305 46.7193 28.7198 47.0303 29.0507 47.3017C28.6664 47.5717 28.0933 47.9227 27.478 48.1999C26.7773 48.5156 26.047 48.7239 25.4821 48.6341L25.4401 48.8928C26.0857 48.9955 26.8768 48.7582 27.586 48.4386C28.2542 48.1376 28.8722 47.7531 29.2675 47.4693C29.3182 47.5063 29.3699 47.5424 29.4225 47.5775C29.3614 47.9456 29.3101 48.5067 29.3369 49.1007C29.3658 49.7403 29.486 50.4344 29.7963 50.9658L30.0238 50.8337C29.7449 50.3561 29.6279 49.7118 29.5998 49.0884C29.5764 48.5705 29.6147 48.0783 29.6651 47.7291C30.0545 47.9558 30.4891 48.1327 30.973 48.2467C31.0188 48.6076 31.1105 49.1453 31.2506 49.6946C31.4025 50.2898 31.6147 50.9128 31.8954 51.3373L32.1152 51.1928C31.8597 50.8064 31.6559 50.2186 31.5056 49.6296C31.3796 49.1357 31.2936 48.651 31.2459 48.3033C31.7579 48.3953 32.3207 48.4193 32.9384 48.3624L32.9147 48.1015C32.2471 48.163 31.6516 48.1261 31.1207 48.0112C30.5585 47.8895 30.0672 47.68 29.6383 47.4049C29.5384 47.3409 29.4418 47.2732 29.3485 47.2022C28.9535 46.9018 28.616 46.5416 28.3291 46.1418C27.9966 45.6784 27.7323 45.1622 27.5258 44.6257C27.0453 43.3776 26.8803 42.0278 26.8887 40.9983C27.2863 41.1955 27.7279 41.3424 28.217 41.4272C28.2999 42.4674 28.6558 43.9137 29.4769 44.9933C29.9029 45.5534 30.4564 46.0177 31.1642 46.2716C31.8725 46.5256 32.7246 46.5648 33.7404 46.2918L33.6723 46.0388C32.6999 46.3002 31.9037 46.258 31.2538 46.025C30.6033 45.7917 30.0887 45.3633 29.6868 44.8348C28.9215 43.8287 28.5736 42.471 28.4844 41.4667C28.9157 41.5197 29.3812 41.5259 29.8831 41.4786C29.9543 42.2591 30.2453 43.283 30.9206 43.9531C31.2814 44.3111 31.7511 44.5668 32.3487 44.6277C32.9196 44.6859 33.5975 44.5654 34.3984 44.2017C34.5673 44.4538 34.7644 44.7056 34.9935 44.9536L35.1873 44.776C34.9395 44.5077 34.7313 44.2355 34.5572 43.9642C33.6692 42.5809 33.6633 41.2183 33.815 40.5354C34.2471 40.7563 34.7345 40.9369 35.2831 41.0668C35.2383 41.2309 35.2271 41.4585 35.2806 41.7369C35.3553 42.1259 35.5577 42.6241 35.9871 43.2132L36.2001 43.0589C35.7887 42.4945 35.6051 42.0313 35.539 41.6871C35.4884 41.4237 35.5073 41.2354 35.5404 41.1231C35.995 41.2144 36.4891 41.272 37.0259 41.2907L37.0356 41.0288C36.4706 41.0092 35.9566 40.9453 35.4893 40.8446C34.8372 40.7041 34.2758 40.4917 33.7935 40.227C33.7413 40.1983 33.6901 40.1691 33.6397 40.1392C33.1159 39.8287 32.6893 39.4536 32.3443 39.0403C31.9956 38.6225 31.7296 38.1648 31.5314 37.6941C31.0576 36.5696 30.9719 35.3749 31.0628 34.4877C31.379 34.6513 31.7054 34.7707 32.0373 34.8518C32.4548 37.4674 33.6758 38.6978 35.065 39.144C36.4049 39.5743 37.8685 39.2639 38.8459 38.8342C38.8991 38.9178 38.9543 39.0003 39.0114 39.0818L39.2272 38.9315C39.1509 38.8227 39.0782 38.7117 39.0089 38.5989C38.6999 38.0963 38.4591 37.559 38.2732 37.0216C37.8088 35.6785 37.6905 34.3436 37.7038 33.5681C38.086 33.7763 38.5144 33.9434 38.9933 34.0585C39.0711 34.8578 39.3904 36.5885 40.1418 37.8404L40.3677 37.7056C39.6695 36.5424 39.3532 34.9289 39.2639 34.1169C39.7847 34.2167 40.361 34.2573 40.9979 34.2266C40.9856 34.8469 41.0982 36.076 41.6573 37.0335L41.8848 36.9015C41.352 35.989 41.2465 34.794 41.2614 34.2106C41.5581 34.1902 41.7116 34.1721 41.8774 34.1216C41.9824 34.0896 42.0959 34.0429 42.2605 33.9753C42.371 33.9299 42.5045 33.8751 42.674 33.8088L42.5782 33.5649C42.3901 33.6384 42.2515 33.6955 42.1419 33.7407C41.9915 33.8026 41.8955 33.8421 41.8009 33.871C41.6484 33.9175 41.508 33.9324 41.1268 33.9569C40.3799 34.0049 39.7225 33.9533 39.1449 33.8245C38.572 33.6967 38.0765 33.4928 37.6487 33.2337C37.1626 32.9392 36.7623 32.5725 36.4347 32.1623C36.1751 31.8374 35.9611 31.4849 35.7865 31.1195C35.2404 29.9762 35.0835 28.7117 35.1223 27.7838C35.4567 27.8947 35.8183 27.9781 36.2088 28.0288C36.3152 28.9735 36.6994 30.2818 37.5319 31.2621C37.9653 31.7724 38.5217 32.1954 39.2241 32.4289C39.9267 32.6624 40.7669 32.7034 41.7632 32.4627L41.7016 32.208C40.7462 32.4388 39.957 32.396 39.3078 32.1803C38.6583 31.9644 38.1406 31.5727 37.7329 31.0926C36.9608 30.1834 36.5888 28.9631 36.4772 28.0581C36.9164 28.0969 37.3898 28.0953 37.8996 28.0468C38.0056 28.6928 38.3097 29.5494 38.9124 30.1583C39.2357 30.4849 39.6458 30.7408 40.1558 30.8516C40.6655 30.9623 41.2658 30.9261 41.967 30.6832L41.8809 30.4357C41.2168 30.6659 40.6662 30.6942 40.2124 30.5956C39.7588 30.497 39.3926 30.2698 39.0999 29.9741C38.5512 29.4197 38.2639 28.6272 38.1616 28.0181C38.6422 27.9585 39.154 27.8582 39.6986 27.7118L39.6305 27.4588C39.0461 27.6159 38.5025 27.7183 37.9974 27.7734C37.3926 27.8394 36.8429 27.8377 36.3441 27.7812C35.5983 27.6968 34.9649 27.4897 34.4293 27.2016C33.9285 26.9323 33.5115 26.5913 33.1674 26.211C32.7359 25.7341 32.4187 25.195 32.1955 24.658C31.9462 24.0583 31.8151 23.4635 31.7724 22.9655L31.5102 22.9884C31.5526 23.4821 31.6769 24.062 31.9085 24.6504C31.4453 24.893 30.7492 25.0584 30.0527 24.8309C29.3367 24.597 28.5878 23.9369 28.0875 22.4369ZM32.01 24.8929C31.4997 25.1542 30.7401 25.3314 29.9702 25.0799C29.141 24.8091 28.3333 24.0523 27.8157 22.4528C27.3641 22.4716 26.9411 22.4508 26.5453 22.396C26.6227 23.4369 27.0169 24.7978 27.952 25.704C28.9001 26.6229 30.4327 27.1006 32.8453 26.2415C32.4895 25.8178 32.2154 25.3554 32.01 24.8929ZM33.0324 26.4525C30.4936 27.3848 28.8188 26.9101 27.7683 25.892C26.752 24.9071 26.3476 23.4393 26.2786 22.3532C25.8471 22.2743 25.4505 22.1541 25.0867 22.001C25.1638 22.9776 25.4057 24.1393 25.8788 25.2024C26.3234 26.2016 26.9686 27.1058 27.8648 27.6923C28.263 27.9528 28.7116 28.1513 29.2161 28.2678C29.7321 28.3869 30.3087 28.4208 30.9521 28.3459C31.86 28.2401 32.9015 27.9176 34.0923 27.3117C33.6839 27.0654 33.3326 26.7728 33.0324 26.4525ZM34.3662 27.4652C33.1503 28.1017 32.0734 28.4571 31.1216 28.5884C31.2457 29.1867 31.5907 29.9718 32.2515 30.5309C32.9329 31.1074 33.9655 31.4567 35.4822 31.0882C34.9527 29.9039 34.8122 28.6212 34.8634 27.6904C34.6899 27.6227 34.5243 27.5473 34.3662 27.4652ZM35.5965 31.3298C33.9794 31.7367 32.842 31.3746 32.081 30.7307C31.3576 30.1187 30.9886 29.2643 30.8593 28.6193C30.3115 28.6724 29.807 28.6495 29.3433 28.5623C29.5298 29.7383 30.07 31.24 31.1092 32.1636C31.653 32.647 32.3336 32.9727 33.1776 33.0133C33.9924 33.0525 34.9698 32.8264 36.1335 32.2029C35.9251 31.9254 35.7473 31.6317 35.5965 31.3298ZM36.2987 32.4115C35.0875 33.0676 34.0491 33.3176 33.1644 33.275C32.2541 33.2312 31.5176 32.8782 30.9338 32.3593C29.8007 31.3521 29.244 29.7222 29.068 28.5018C28.6645 28.4002 28.295 28.2485 27.9573 28.0564C28.1384 29.4115 28.4293 30.514 28.7998 31.403C29.053 32.0107 29.3434 32.5181 29.661 32.9383C29.9476 33.3174 30.2567 33.6258 30.5815 33.8729C30.7252 33.9822 30.872 34.0796 31.0215 34.1659C31.3943 34.381 31.7841 34.5274 32.1828 34.6165C32.8479 34.7651 33.5392 34.7545 34.2171 34.6355C35.3741 34.4323 36.4841 33.9146 37.3409 33.3492C36.9355 33.0797 36.5905 32.7612 36.2987 32.4115ZM37.4403 33.5975C36.5952 34.1479 35.5153 34.6523 34.3782 34.8722C34.4285 35.5107 34.6614 36.322 35.1927 36.8372C35.4712 37.1073 35.8335 37.2982 36.3029 37.3419C36.7512 37.3837 37.3055 37.292 37.986 36.994C37.5488 35.6771 37.4307 34.3827 37.4403 33.5975ZM38.0723 37.2423C37.371 37.5465 36.7777 37.6494 36.2779 37.6028C35.7449 37.5532 35.3277 37.3342 35.009 37.0251C34.4217 36.4556 34.175 35.5874 34.1179 34.9173C33.5215 35.0086 32.9113 35.0181 32.3136 34.9103C32.7337 37.3816 33.8886 38.4907 35.1462 38.8945C36.39 39.294 37.7674 39.0149 38.7078 38.6086C38.4491 38.1675 38.2401 37.7049 38.0723 37.2423ZM27.537 27.7851C27.3136 27.623 27.1066 27.4421 26.9149 27.2464C23.7807 28.0756 21.807 27.5163 20.6226 26.4376C19.4759 25.3934 19.0984 23.8881 19.0974 22.7824C18.7014 22.6924 18.3387 22.5564 18.0073 22.3826C18.0978 23.4493 18.3782 24.7137 18.9285 25.8448C19.1455 26.2907 19.4039 26.7149 19.7085 27.0979C20.04 27.5148 20.4259 27.8824 20.8722 28.1762C20.9699 28.2405 21.0704 28.3013 21.174 28.3582C21.5773 28.5801 22.0266 28.745 22.5264 28.837C23.0736 28.9376 23.6831 28.951 24.3611 28.8545C25.2872 28.7227 26.3411 28.3856 27.537 27.7851ZM17.6996 22.2049C17.7102 22.2116 17.7208 22.2183 17.7315 22.2249C17.8038 23.3072 18.0704 24.6184 18.6206 25.8096C17.906 25.9543 16.9146 26.0009 16.0768 25.7141C15.628 25.5605 15.228 25.3129 14.9351 24.9381C14.6585 24.5841 14.4707 24.1082 14.4345 23.4713C15.6563 23.2136 16.9909 22.5955 17.6996 22.2049ZM19.3608 22.8345C19.3736 23.8853 19.7418 25.2801 20.8003 26.2441C21.8819 27.2291 23.7143 27.791 26.7129 27.0281C26.2941 26.5501 25.9564 25.9988 25.6884 25.4197C24.6146 25.7932 23.7694 25.8466 23.1061 25.6991C22.4171 25.5459 21.9362 25.1784 21.6073 24.752C21.28 24.3276 21.104 23.8462 21.0171 23.4596C20.9735 23.266 20.9518 23.0938 20.945 22.9614C20.9433 22.9288 20.9425 22.8982 20.9426 22.8699C20.3681 22.9318 19.8419 22.916 19.3608 22.8345ZM21.2063 22.8364C21.2052 22.8661 21.2055 22.9034 21.2078 22.9475C21.2137 23.0642 21.2333 23.2217 21.2738 23.4018C21.355 23.7629 21.5184 24.206 21.8161 24.5921C22.1123 24.9761 22.5421 25.3051 23.1639 25.4433C23.7626 25.5765 24.5501 25.5352 25.5818 25.1793C25.109 24.0671 24.8774 22.8679 24.814 21.8772C24.7116 21.8272 24.612 21.7745 24.5151 21.7194C23.2703 22.3413 22.1726 22.6958 21.2063 22.8364ZM24.25 21.558C23.9112 21.3381 23.6094 21.0873 23.3419 20.8166C20.7912 21.4836 19.0981 20.9749 18.0243 20.0344C16.9832 19.1225 16.5463 17.8235 16.4562 16.8689C16.0354 16.7697 15.6044 16.6173 15.1746 16.397C15.222 17.3044 15.4104 18.3627 15.8025 19.3476C16.029 19.9166 16.3228 20.4592 16.695 20.9338C17.001 21.3238 17.3596 21.6676 17.7775 21.9427C17.8263 21.9748 17.876 22.006 17.9265 22.0363C18.3175 22.2706 18.759 22.4472 19.2566 22.5484C19.7934 22.6577 20.3973 22.6795 21.0758 22.59C21.9924 22.4691 23.0449 22.1448 24.25 21.558ZM16.7267 16.9258C16.829 17.8237 17.2494 19.0063 18.1983 19.8374C19.1738 20.6919 20.7303 21.1943 23.1373 20.5983C22.7594 20.1735 22.4589 19.7102 22.2259 19.2464C20.7342 19.6226 19.7514 19.3366 19.1359 18.7873C18.5629 18.276 18.3312 17.5564 18.2864 17.0033C17.8067 17.0422 17.278 17.028 16.7267 16.9258ZM21.2127 22.7724C21.2129 22.7717 21.213 22.7714 21.213 22.7714C21.213 22.7715 21.2129 22.7718 21.2127 22.7724ZM27.685 28.004C26.5113 28.5964 25.4623 28.9445 24.5264 29.0945C24.6176 29.7018 24.9101 30.4859 25.5058 31.0153C26.1147 31.5563 27.0627 31.8509 28.504 31.3747C28.1404 30.4643 27.8592 29.3519 27.685 28.004ZM28.6049 31.6172C27.0807 32.126 26.0245 31.8277 25.3304 31.211C24.6749 30.6285 24.3629 29.7799 24.2659 29.1315C23.68 29.2039 23.1402 29.1968 22.6437 29.1223C22.7247 30.1838 23.1407 31.5683 24.1305 32.4813C25.1388 33.4114 26.7728 33.879 29.3469 32.9545C29.0752 32.5724 28.8263 32.1287 28.6049 31.6172ZM29.5105 33.1739C26.8281 34.1578 25.0608 33.697 23.9515 32.6737C22.8751 31.6808 22.448 30.1842 22.3765 29.0749C21.9687 28.9911 21.5925 28.8606 21.2462 28.6914C21.2782 29.7147 21.4764 30.9238 21.9284 32.0149C22.1349 32.5132 22.3936 32.9854 22.7125 33.4037C23.0083 33.7918 23.3556 34.1332 23.7608 34.4063C23.8093 34.439 23.8586 34.4707 23.9087 34.5014C24.3358 34.7628 24.8255 34.9518 25.3861 35.044C25.8853 35.1261 26.4422 35.1316 27.0628 35.0419C27.9833 34.9088 29.0434 34.566 30.2606 33.953C29.9974 33.7336 29.7463 33.4751 29.5105 33.1739ZM30.4885 34.1312C29.2626 34.7598 28.1813 35.1262 27.2293 35.2813C27.3412 36.0226 27.664 36.9664 28.2801 37.5586C28.6027 37.8687 29.0046 38.0816 29.5023 38.1225C29.9781 38.1616 30.5533 38.0444 31.2434 37.6854C30.7705 36.4984 30.7032 35.2541 30.8138 34.3481C30.7038 34.2816 30.5953 34.2094 30.4885 34.1312ZM31.3459 37.9274C30.6321 38.2955 30.0133 38.4275 29.4801 38.3837C28.9138 38.3372 28.457 38.0932 28.0972 37.7474C27.4228 37.0992 27.0852 36.0907 26.9688 35.3189C26.4426 35.385 25.9573 35.3847 25.5104 35.3271C25.6281 36.4762 26.0807 37.9578 27.0635 38.8883C27.5754 39.3729 28.2321 39.7094 29.0676 39.774C29.8722 39.8362 30.8521 39.6467 32.0374 39.0789C31.7525 38.7148 31.525 38.3257 31.3459 37.9274ZM32.2091 39.287C30.9688 39.8903 29.9233 40.103 29.0467 40.0353C28.1461 39.9657 27.4339 39.6009 26.882 39.0784C25.8154 38.0685 25.3517 36.475 25.2418 35.2848C24.7746 35.1976 24.3531 35.0456 23.974 34.8416C24.001 35.9195 24.2254 37.2099 24.7632 38.3488C25.0056 38.8622 25.311 39.3433 25.6893 39.7601C26.0125 40.1163 26.3891 40.4257 26.8258 40.6687C27.2708 40.9164 27.7799 41.096 28.3611 41.1851C28.8503 41.2601 29.3915 41.2712 29.9896 41.2042C30.9416 41.0974 32.0373 40.7928 33.295 40.2336C32.8708 39.9556 32.5115 39.6352 32.2091 39.287ZM33.5647 40.3995C32.2752 40.9886 31.1408 41.3217 30.1447 41.4494C30.2119 42.1976 30.4903 43.1558 31.1064 43.7672C31.4286 44.0869 31.8437 44.3128 32.376 44.3671C32.8809 44.4185 33.5006 44.3163 34.256 43.9784C33.378 42.529 33.3972 41.1105 33.5756 40.4058C33.572 40.4037 33.5683 40.4016 33.5647 40.3995ZM23.4268 34.4905C23.1026 34.2461 22.8173 33.9603 22.5672 33.6452C21.261 34.2308 20.1688 34.425 19.2605 34.3397C18.3281 34.2521 17.5985 33.8708 17.0391 33.3327C15.9557 32.2906 15.5169 30.6684 15.436 29.4632C14.9138 29.3287 14.3727 29.1245 13.8193 28.8347C13.8449 30.5178 14.3182 32.6885 15.6325 34.1024C15.9825 34.4788 16.3918 34.8014 16.8684 35.0477C17.3229 35.2825 17.8401 35.4488 18.4278 35.5252C18.9253 35.5899 19.4742 35.5904 20.079 35.5131C21.0464 35.3895 22.1564 35.0669 23.4268 34.4905ZM15.7045 29.5266C15.7971 30.6877 16.2276 32.1874 17.2221 33.144C17.7415 33.6436 18.4164 33.9972 19.2857 34.0788C20.1246 34.1576 21.1528 33.9839 22.4053 33.4305C22.1411 33.0616 21.9204 32.6588 21.7378 32.2391C20.9888 32.5626 20.3369 32.6663 19.7737 32.61C19.1786 32.5505 18.6913 32.3133 18.3007 31.9829C17.5615 31.3578 17.1695 30.4013 17.0231 29.675C16.6029 29.6707 16.1618 29.625 15.7045 29.5266ZM17.2913 29.6722C17.4379 30.3554 17.8078 31.222 18.4712 31.783C18.8255 32.0826 19.2637 32.2956 19.8004 32.3493C20.3111 32.4003 20.919 32.3079 21.6373 31.9971C21.1833 30.8486 20.9965 29.5927 20.9796 28.5502C20.922 28.5173 20.8653 28.4832 20.8094 28.4481C20.1358 28.9953 18.8764 29.6225 17.2913 29.6722ZM23.6755 34.6647C23.6864 34.6718 23.6974 34.6789 23.7084 34.6859C23.7164 35.7859 23.9267 37.1337 24.4697 38.3406C23.6354 38.7145 22.9622 38.8332 22.4227 38.7856C21.8607 38.736 21.4348 38.5052 21.1134 38.1769C20.4943 37.5446 20.2553 36.5408 20.2294 35.7572C21.2361 35.614 22.3794 35.266 23.6755 34.6647ZM19.9673 35.7902C19.4676 35.845 19.0027 35.8479 18.5707 35.8053C18.8002 37.0221 19.3946 38.596 20.4631 39.5876C21.02 40.1044 21.7037 40.4616 22.5337 40.5322C23.3308 40.5999 24.275 40.4042 25.3847 39.8118C25.0649 39.4361 24.7995 39.0178 24.5816 38.5776C23.7174 38.9655 22.9969 39.0994 22.3989 39.0466C21.7711 38.9912 21.2877 38.7306 20.9249 38.3601C20.2478 37.6685 19.9984 36.6035 19.9673 35.7902ZM25.5648 40.0125C24.3981 40.6459 23.3846 40.8676 22.5108 40.7933C21.6131 40.717 20.8761 40.3295 20.2835 39.7795C19.1334 38.7121 18.5203 37.0277 18.297 35.7717C17.7953 35.6975 17.3411 35.5599 16.931 35.3704C16.8364 38.5189 18.2921 40.3682 20.0322 41.5411C20.4228 41.7516 20.8339 41.893 21.2558 41.9769C21.8286 42.0907 22.4219 42.0986 23.0111 42.0289C24.2919 41.8774 25.5448 41.3606 26.5069 40.7855C26.1538 40.566 25.8409 40.3046 25.5648 40.0125ZM26.6254 41.02C25.6719 41.5873 24.4393 42.1004 23.164 42.2736C23.2106 42.9595 23.461 43.836 24.0561 44.3983C24.3684 44.6933 24.7782 44.9047 25.313 44.9578C25.8247 45.0086 26.4575 44.9151 27.2352 44.6006C26.779 43.3601 26.6197 42.0403 26.6254 41.02ZM27.3294 44.8451C26.5253 45.1697 25.8503 45.2746 25.2864 45.2186C24.6915 45.1595 24.2278 44.922 23.8749 44.5886C23.2182 43.9681 22.9538 43.0259 22.9024 42.3042C22.3964 42.3537 21.8851 42.3473 21.3836 42.2662C21.5629 43.5482 21.9395 44.4814 22.4284 45.1487C22.9387 45.845 23.5759 46.2583 24.2546 46.4761C25.5552 46.8934 27.0175 46.5949 28.0234 46.1632C27.744 45.7511 27.5151 45.3049 27.3294 44.8451ZM15.5193 14.6131C16.7476 15.3186 17.5511 15.1689 17.8963 14.9982L18.0129 15.2329C17.5738 15.4499 16.6764 15.5805 15.3876 14.8402L15.5193 14.6131Z" fill="url(#paint1_linear_920_1632)"/>
<path d="M36.9442 70.0729C19.4932 60.7908 21.0686 43.1208 24.0377 35.4461C30.0365 28.1944 39.4891 33.4519 49.1236 35.4461C58.758 37.4403 74.0276 62.0961 74.0276 74.9678C74.0276 85.2653 66.3928 92.1906 62.5754 94.3661C61.3029 86.9331 58.758 81.6757 36.9442 70.0729Z" fill="url(#paint2_linear_920_1632)"/>
<path d="M28.1032 55.8294C25.3125 44.4824 35.8313 39.9151 41.4128 39.9864C59.0052 39.9864 60.8047 69.1745 60.0891 81.3065C56.0104 76.1682 31.5964 70.0327 28.1032 55.8294Z" fill="url(#paint3_linear_920_1632)"/>
<path d="M84.8064 66.6618C81.744 38.5329 66.4232 25.2393 59.1457 22.1086L43.7144 43.7374C50.1596 73.6123 73.1216 70.025 84.8064 66.6618Z" fill="url(#paint4_linear_920_1632)"/>
<path fill-rule="evenodd" clip-rule="evenodd" d="M61.2315 28.6297C61.2315 28.6296 61.233 28.6293 61.2355 28.6286L61.162 28.3769C61.1915 28.3684 61.2256 28.3671 61.2488 28.3666C61.2762 28.3659 61.3095 28.3664 61.3453 28.367C61.3535 28.3672 61.362 28.3674 61.3706 28.3675C61.4393 28.3688 61.5222 28.3704 61.6173 28.3685C61.8314 28.3642 62.1018 28.3425 62.3811 28.2621C62.9321 28.1035 63.5268 27.7155 63.7825 26.7446L64.0368 26.8116C63.7543 27.8844 63.0808 28.3336 62.4545 28.5139C62.1451 28.6029 61.8496 28.626 61.6231 28.6305C61.5226 28.6325 61.4346 28.6308 61.366 28.6295C61.3574 28.6294 61.3491 28.6292 61.3411 28.6291C61.3046 28.6284 61.2766 28.6281 61.2553 28.6285C61.238 28.6289 61.2316 28.6298 61.2315 28.6297ZM62.9296 30.1951C62.021 30.4485 61.1568 30.3067 60.6332 30.0949L60.7317 29.8521C61.2084 30.0449 62.0126 30.1785 62.8582 29.9427C63.6983 29.7085 64.5894 29.107 65.2453 27.8117L65.4801 27.9301C64.7925 29.288 63.8437 29.9402 62.9296 30.1951ZM66.3848 28.9613L66.4696 29.2522C66.4909 29.3252 66.5515 29.4149 66.6536 29.5162C66.7536 29.6154 66.8834 29.7159 67.0264 29.8119C67.3122 30.0037 67.6378 30.1688 67.8492 30.2614L67.7438 30.5013C67.5216 30.4039 67.1816 30.2317 66.8798 30.0291C66.729 29.9279 66.5844 29.817 66.4683 29.7018C66.4192 29.653 66.3731 29.6016 66.3334 29.5479C66.117 29.8642 65.8039 30.2223 65.3993 30.5612C65.7544 30.8838 66.3152 31.3001 66.958 31.6035C67.6723 31.9407 68.4679 32.1293 69.1909 31.9212L69.2643 32.173C68.4525 32.4066 67.5859 32.1896 66.8459 31.8403C66.158 31.5156 65.5623 31.0687 65.1919 30.7268C64.8295 31.0028 64.403 31.2592 63.9151 31.4598C64.4212 32.2883 65.8074 33.5225 68.1948 33.5553C68.6935 33.5621 69.2364 33.5166 69.8248 33.4036C69.883 33.3925 69.9417 33.3806 70.0009 33.3681C70.1157 33.3438 70.2323 33.3169 70.3505 33.2874L70.4149 33.5416C70.3574 33.556 70.3003 33.5697 70.2435 33.5829C70.5417 34.0097 71.1783 34.7731 71.9891 35.3204L71.8419 35.5372C70.9398 34.9283 70.2495 34.0687 69.9669 33.6429C69.9635 33.6435 69.9602 33.6442 69.9569 33.6449C69.6192 34.9543 69.1951 35.9972 68.707 36.8142C69.1704 37.3028 69.6028 37.5677 69.9942 37.6813C70.4023 37.7997 70.776 37.7566 71.1102 37.6164C71.7871 37.3326 72.3059 36.6479 72.5744 36.0924L72.8113 36.2065C72.5296 36.7894 71.9733 37.539 71.2127 37.858C70.8282 38.0192 70.3926 38.0697 69.9212 37.9329C69.4881 37.8072 69.0334 37.5261 68.5642 37.044C68.2717 37.4966 67.9578 37.8734 67.627 38.1823C68.2933 38.716 69.3349 39.2853 70.4309 39.3759C71.0091 39.4237 71.6006 39.3383 72.1625 39.0462C72.7243 38.7541 73.2649 38.2511 73.7344 37.4506L73.9615 37.5832C73.4714 38.4188 72.8971 38.9601 72.2845 39.2786C71.6719 39.597 71.0293 39.6883 70.4097 39.6371C69.2262 39.5392 68.1194 38.9215 67.4278 38.3585C67.0272 38.6937 66.605 38.9342 66.1698 39.0938C66.6629 39.7047 67.4473 40.3867 68.4375 40.8059C69.0319 41.0576 69.6994 41.2142 70.4227 41.2051C70.9221 41.1988 71.4495 41.1135 71.9992 40.9247C72.5171 40.7468 73.0559 40.4767 73.6104 40.0932C73.9565 39.8539 74.3088 39.5704 74.6659 39.2375L74.8457 39.429C74.5225 39.7304 74.202 39.9932 73.8852 40.2208C74.119 40.4607 74.4705 40.7833 74.8673 41.0762C75.3308 41.4183 75.8411 41.7086 76.2904 41.7916L76.243 42.0493C75.7331 41.9551 75.1832 41.6352 74.7111 41.2867C74.2848 40.972 73.9097 40.6248 73.667 40.3724C73.1936 40.6904 72.7288 40.9303 72.2758 41.1034C72.8483 41.6847 73.8785 42.525 75.0479 43.0238C75.7171 43.3092 76.4247 43.4797 77.1144 43.4318L77.2887 43.4197L77.2524 43.59C76.996 44.7924 76.2777 46.3702 74.9375 47.1497C73.5935 47.9314 71.6763 47.883 69.0835 45.9777C68.7273 46.2293 68.3618 46.4179 67.9916 46.5512C68.6619 47.3334 69.6763 48.1792 70.8805 48.6556C71.4096 48.8649 71.9741 49.0025 72.5616 49.0328C73.1212 49.0617 73.7029 48.9935 74.2964 48.7961C74.7214 48.6549 75.1533 48.4471 75.5882 48.1604C76.08 47.8362 76.576 47.4108 77.0701 46.8659C77.3898 46.5132 77.7087 46.1105 78.025 45.6529L78.2416 45.8019C77.9494 46.2247 77.654 46.6029 77.3567 46.9397C77.7446 47.2537 78.5495 47.8547 79.3588 48.3004L79.2319 48.5297C78.3981 48.0704 77.5732 47.453 77.1804 47.1343C76.7547 47.5922 76.3253 47.9672 75.8957 48.2687C76.3326 48.5543 76.9834 48.9379 77.6834 49.2698C78.4794 49.647 79.3222 49.9492 79.9832 49.9764L79.9729 50.2382C79.256 50.2087 78.3728 49.8865 77.5709 49.5064C76.8083 49.1449 76.1039 48.7236 75.6598 48.427C75.2863 48.6661 74.9133 48.8508 74.5431 48.9875C75.0209 49.6535 76.0147 50.6139 77.4056 51.1258C77.9177 51.3143 78.4834 51.4419 79.097 51.472C79.4464 51.4891 79.8116 51.4747 80.1917 51.4218L80.2287 51.6813C79.8652 51.7319 79.5143 51.7489 79.1767 51.7375C78.6642 52.9339 78.0307 53.7455 77.3334 54.2628C76.619 54.7928 75.845 55.008 75.0832 55.0177C73.6107 55.0364 72.1865 54.2881 71.2946 53.5748C70.9902 53.7892 70.6652 53.9761 70.3198 54.127C71.0774 54.824 72.1185 55.5501 73.2709 55.9954C73.8124 56.2047 74.3769 56.3513 74.9468 56.4045C75.405 56.4473 75.8665 56.4298 76.3229 56.3362C76.3803 56.3244 76.4377 56.3114 76.495 56.2972C76.9364 56.1875 77.3734 56.004 77.7978 55.7309C78.2963 55.4102 78.7792 54.9649 79.2325 54.3679C79.677 53.7823 80.0929 53.0507 80.4664 52.1482L80.7095 52.2485C80.3493 53.1189 79.948 53.8391 79.5157 54.4279C79.7314 54.6111 80.0455 54.8576 80.3785 55.0794C80.7671 55.3384 81.1629 55.551 81.4537 55.6047L81.4063 55.8623C81.0577 55.7979 80.6227 55.5571 80.2327 55.2972C79.8959 55.0728 79.5788 54.8247 79.3567 54.6368C78.9633 55.1353 78.5461 55.5304 78.1127 55.8354C78.1946 55.886 78.3 55.9509 78.4249 56.0254C78.6805 56.1777 79.0176 56.3699 79.4006 56.5603C80.1707 56.943 81.1112 57.3108 81.9434 57.3451L81.9331 57.6069C81.0432 57.5703 80.0614 57.1813 79.2837 56.7947C78.8928 56.6004 78.5496 56.4047 78.2903 56.2502C78.1606 56.1729 78.0519 56.1058 77.9688 56.0545L77.9573 56.0474C77.9234 56.0264 77.8949 56.0089 77.8718 55.9947C77.5136 56.2168 77.1464 56.38 76.7748 56.4922C77.306 57.0247 78.198 57.7531 79.2475 58.2847C79.8291 58.5792 80.4558 58.8117 81.0938 58.9182C81.4643 58.9801 81.8379 58.9994 82.2085 58.9641L82.2341 59.2249C81.8717 59.2594 81.5089 59.2449 81.1513 59.1924C80.2666 61.1259 78.9214 61.8489 77.586 61.945C76.2927 62.0381 75.0265 61.5422 74.22 61.0381C73.8534 61.399 73.4652 61.6748 73.0622 61.8761C73.6683 62.3419 74.5064 62.8088 75.4655 63.0768C75.9364 63.2084 76.4357 63.2918 76.9503 63.3041C77.5041 63.3172 78.076 63.248 78.6504 63.0675C79.0832 62.9315 79.5183 62.7321 79.9488 62.4562C80.3973 62.1688 80.8416 61.798 81.2735 61.3286C81.6915 60.8743 82.0982 60.3274 82.4858 59.6744L82.7122 59.8082C82.3449 60.4269 81.9593 60.9551 81.5608 61.4027C81.7285 61.536 81.96 61.7097 82.2044 61.8733C82.5091 62.0774 82.8215 62.2575 83.0521 62.3306L82.973 62.5803C82.7037 62.495 82.3646 62.2961 82.058 62.0907C81.8003 61.9181 81.5569 61.735 81.383 61.5963C81.0133 61.9861 80.6335 62.3091 80.248 62.5729C80.6099 62.8407 81.1196 63.2059 81.6245 63.5436C82.2081 63.9339 82.7713 64.2778 83.0948 64.4003L83.0019 64.6453C82.6453 64.5102 82.0574 64.1484 81.4783 63.7611C80.932 63.3957 80.3811 62.9991 80.0139 62.7255C79.6448 62.9542 79.2718 63.1305 78.899 63.2613C79.4162 63.9639 80.6831 65.2564 82.3437 65.7438L82.2699 65.9952C80.6026 65.5058 79.3269 64.2494 78.7513 63.5013C78.6435 63.9278 78.4756 64.5005 78.2601 65.0836C77.9938 65.8039 77.6504 66.5523 77.2505 67.058L77.0439 66.8956C77.4174 66.4232 77.7495 65.7064 78.0133 64.9925C78.235 64.393 78.4053 63.8042 78.5102 63.3814C78.0157 63.5141 77.5247 63.5705 77.0469 63.5676C76.6828 64.8426 76.1455 65.7358 75.5043 66.3337C74.8459 66.9477 74.0855 67.2431 73.3111 67.326C71.8061 67.4869 70.2494 66.8461 69.2489 66.195C67.963 66.9929 66.523 67.0458 65.1973 66.7417C63.8803 66.4395 62.6663 65.7832 61.8038 65.1385C61.2843 65.3693 60.8031 65.4783 60.4276 65.5004L60.4116 65.2388C60.7679 65.2179 61.2443 65.109 61.7648 64.868C62.2121 64.6609 62.6905 64.3568 63.1518 63.9291C63.4878 63.6176 63.8151 63.2403 64.1148 62.7866C64.6403 61.9912 65.0825 60.9594 65.3382 59.6337C64.9347 59.7122 64.5279 59.7403 64.1235 59.727C63.6753 61.1405 63.0817 62.1105 62.4047 62.7405C61.7106 63.3865 60.9351 63.669 60.1579 63.7095C58.6562 63.7879 57.1621 62.964 56.2163 62.1659C56.0095 62.3156 55.8179 62.4377 55.6525 62.5303L55.5234 62.3017C55.7 62.2029 55.9121 62.0661 56.1435 61.8936C56.5103 61.62 56.9233 61.2583 57.3182 60.8186C58.04 60.0149 58.6958 58.9571 58.9066 57.7058C58.3761 57.9012 57.8026 57.9973 57.1879 57.9628C56.6909 60.0381 54.9845 61.147 54.1737 61.4481L54.0815 61.2025C54.8348 60.9228 56.4403 59.8796 56.9227 57.94C56.4808 57.889 56.02 57.7709 55.5408 57.576C55.2602 58.7345 54.6035 59.3113 53.8747 59.5431C53.1261 59.7812 52.321 59.6497 51.8077 59.4582L51.8995 59.2128C52.3763 59.3907 53.1185 59.5084 53.7943 59.2935C54.4384 59.0886 55.0408 58.5761 55.2955 57.4702C54.3863 57.056 53.4126 56.3665 52.3757 55.3367C52.2704 55.7357 52.1186 56.2751 51.9502 56.8073C51.7488 57.4438 51.5199 58.0818 51.3151 58.4536L51.0846 58.3272C51.2753 57.9808 51.4976 57.3658 51.6994 56.728C51.8688 56.1929 52.0213 55.6498 52.1258 55.253C51.7071 55.3354 51.2541 55.3876 50.7643 55.4043C50.6438 55.7454 50.3856 56.4099 50.1092 56.9119L49.8787 56.7855C50.1225 56.3426 50.3547 55.7615 50.4828 55.41C50.0566 55.4126 49.6038 55.3893 49.1228 55.3369L49.1509 55.0764C49.6934 55.1355 50.1976 55.1567 50.666 55.145C51.2587 55.1303 51.7939 55.0628 52.2766 54.9529C52.9222 54.806 53.4745 54.583 53.9456 54.3079C54.42 54.0308 54.8131 53.7002 55.1365 53.3393C56.1197 52.2424 56.4616 50.8621 56.474 49.8596C56.0919 49.9345 55.7059 49.9583 55.3211 49.9399C54.9083 51.1351 54.0385 52.6664 52.7162 53.4636C52.0334 53.8752 51.2301 54.0906 50.313 53.9612C49.398 53.8321 48.3811 53.3613 47.2652 52.4211L47.16 52.3324L47.2534 52.2319C47.7113 51.7396 48.1013 51.2135 48.43 50.689C49.2455 49.3879 49.6806 48.103 49.842 47.3828C49.4638 47.4582 49.0615 47.497 48.6344 47.4929C48.3077 48.2138 47.568 49.7387 46.9508 50.6519L46.7326 50.5053C47.3103 49.6504 48.0052 48.2342 48.3494 47.4838C47.8266 47.456 47.2686 47.365 46.6739 47.2005C46.6268 47.3714 46.5585 47.6033 46.4808 47.8369C46.3875 48.1176 46.2778 48.4101 46.1727 48.601L45.9421 48.4746C46.0347 48.3064 46.1383 48.0338 46.2312 47.754C46.3079 47.5234 46.3754 47.2941 46.4214 47.1269C46.1788 47.0526 45.9304 46.9662 45.6759 46.8671L45.7712 46.6231C46.8062 47.0261 47.7305 47.2103 48.5526 47.2294C49.0671 47.2414 49.5422 47.1888 49.9801 47.0843C50.5972 46.937 51.1423 46.6863 51.6211 46.366C52.0676 46.0673 52.457 45.7077 52.7931 45.3144C53.6391 44.3248 54.1444 43.1261 54.3745 42.1653C53.9203 42.2514 53.456 42.285 52.9963 42.2785C52.7954 43.2026 52.227 44.4097 51.1331 45.1501C49.9862 45.9264 48.2916 46.1701 45.9098 45.0954L46.0178 44.8567C48.3384 45.9038 49.932 45.646 50.9851 44.9333C51.9892 44.2537 52.5287 43.1427 52.7287 42.2702C52.1655 42.2436 51.6122 42.1599 51.0955 42.0414C50.989 42.5072 50.6839 43.097 50.0791 43.5159C49.4085 43.9804 48.3875 44.2228 46.9012 43.881L46.9598 43.6257C48.3918 43.955 49.3326 43.7136 49.9287 43.3006C50.475 42.9222 50.7471 42.3895 50.8399 41.9793C50.3938 41.8647 49.979 41.7255 49.6139 41.5771L49.7128 41.3345C50.0988 41.4914 50.5435 41.6382 51.0231 41.7551C51.6099 41.8981 52.2475 41.9962 52.8928 42.0142C53.4387 42.0295 53.9888 41.9874 54.5178 41.8677C55.1048 41.7349 55.665 41.5067 56.1652 41.1553C56.5917 40.8556 56.9763 40.4652 57.2972 39.965C57.7854 39.2039 58.129 38.184 58.2439 36.835C57.9429 36.8819 57.6247 36.9141 57.2882 36.9297C56.9888 37.8112 56.3502 39.0035 55.3617 39.8205C54.3322 40.6716 52.9247 41.1121 51.1539 40.3777L51.2545 40.1358C52.9249 40.8286 54.2302 40.4151 55.1936 39.6187C56.1002 38.8693 56.7053 37.7779 57.0064 36.9387C56.7001 36.9444 56.3793 36.9367 56.0435 36.9145L56.0604 36.653C56.4579 36.6793 56.8329 36.6847 57.1866 36.6716C57.6091 36.6559 58.0011 36.6138 58.3645 36.5491C58.6398 36.5001 58.8987 36.4381 59.142 36.3649C59.6451 36.2135 60.0822 36.0138 60.4612 35.7804C60.9349 35.4885 61.3188 35.1431 61.6268 34.7715C62.434 33.798 62.7229 32.6417 62.7387 31.7975C62.3522 31.8637 61.9395 31.8926 61.5016 31.8737C61.3677 32.8289 60.8071 33.6608 60.1087 34.2845C59.3809 34.9346 58.4893 35.3715 57.7371 35.4897L57.6956 35.2309C58.3895 35.1218 59.236 34.7118 59.933 34.0892C60.5956 33.4974 61.1103 32.7252 61.2384 31.8568C60.8311 31.822 60.4036 31.7458 59.9564 31.6206L60.0271 31.3683C60.5083 31.5031 60.9641 31.5785 61.3938 31.6056C61.9154 31.6386 62.3991 31.6006 62.8438 31.5114C63.1395 31.452 63.4181 31.37 63.6792 31.2709C64.2408 31.0579 64.722 30.7659 65.1181 30.4516C65.6444 30.034 66.0182 29.5788 66.2302 29.2217L66.3848 28.9613ZM63.0023 31.7459C62.9977 32.6149 62.7181 33.808 61.9147 34.8332C62.3695 35.1626 63.1435 35.4805 63.9473 35.4212C64.7882 35.3591 65.6832 34.8828 66.2884 33.5127C64.9085 33.0619 64.0467 32.202 63.6663 31.5552C63.4554 31.6303 63.234 31.6947 63.0023 31.7459ZM66.542 33.5892C65.9018 35.0608 64.9209 35.6121 63.9673 35.6825C63.084 35.7477 62.2432 35.3991 61.7473 35.0355C61.4706 35.3521 61.1401 35.6484 60.7481 35.9085C61.71 36.738 62.5836 37.1534 63.3625 37.2844C64.1744 37.4209 64.8946 37.2504 65.5201 36.8998C66.7152 36.23 67.5639 34.9018 68.0034 33.8123C67.4674 33.7909 66.9807 33.7107 66.542 33.5892ZM68.2839 33.818C67.8443 34.952 66.9518 36.3983 65.6494 37.1283C64.9778 37.5047 64.1971 37.6904 63.3193 37.5428C62.4638 37.3989 61.527 36.9404 60.5158 36.054C60.1925 36.245 59.8316 36.4121 59.4296 36.5483C60.2047 37.2791 61.2206 38.0254 62.3218 38.5173C62.7854 38.7243 63.2629 38.8857 63.7429 38.9822C64.2447 39.0831 64.7483 39.1129 65.2417 39.0505C65.468 39.0218 65.6923 38.9737 65.9135 38.9041C66.4067 38.7488 66.8865 38.4857 67.3394 38.0883C67.725 37.7501 68.092 37.3137 68.4312 36.7621C68.9095 35.9841 69.3316 34.9779 69.6712 33.6978C69.1787 33.7812 68.7164 33.8185 68.2839 33.818ZM59.1437 36.6378C58.9426 36.6957 58.732 36.7462 58.5115 36.7885C58.4044 38.1472 58.0714 39.2016 57.5808 40.0073C58.1095 40.4234 58.9203 40.8245 59.7443 40.7782C60.5771 40.7314 61.4627 40.2244 62.099 38.7037C60.9596 38.1743 59.9213 37.3903 59.1437 36.6378ZM62.3393 38.8108C61.6742 40.3954 60.716 40.9861 59.7596 41.0398C58.8601 41.0904 57.9979 40.663 57.438 40.2284C57.1527 40.6453 56.8226 40.9874 56.4603 41.2645C57.304 41.8861 58.5955 42.4864 59.8974 42.4048C60.5816 42.3619 61.2705 42.1308 61.9046 41.6124C62.5146 41.1136 63.0796 40.3439 63.5382 39.2062C63.1316 39.1133 62.7299 38.9776 62.3393 38.8108ZM63.8 39.2598C63.3261 40.4521 62.7315 41.2755 62.0716 41.8151C61.392 42.3708 60.6495 42.6202 59.9144 42.6663C58.4936 42.7554 57.1079 42.0854 56.2367 41.4246C55.7978 41.7188 55.3197 41.9253 54.8234 42.0616C55.8572 42.9455 56.8051 43.5458 57.6698 43.9195C58.0748 44.0945 58.4613 44.2198 58.8297 44.3014C59.5922 44.4702 60.2793 44.4521 60.8953 44.298C61.0681 44.2548 61.2356 44.2008 61.3978 44.137C61.7371 44.0037 62.0537 43.8276 62.3481 43.6179C62.8993 43.2252 63.3725 42.715 63.7698 42.1489C64.395 41.2583 64.8285 40.235 65.0819 39.3305C64.6554 39.365 64.2256 39.337 63.8 39.2598ZM65.3635 39.2983C65.1174 40.216 64.6874 41.2663 64.058 42.1942C64.6423 42.6112 65.4964 43.0145 66.2894 42.9812C66.7045 42.9637 67.1018 42.827 67.441 42.5094C67.7663 42.2048 68.047 41.7255 68.2322 41.0023C67.2044 40.543 66.3998 39.819 65.9042 39.1809C65.7253 39.2327 65.5449 39.2715 65.3635 39.2983ZM68.4773 41.105C68.2832 41.8417 67.9865 42.3585 67.6212 42.7005C67.2302 43.0667 66.7703 43.2232 66.301 43.243C65.4264 43.2797 64.5159 42.8423 63.9074 42.4086C63.5505 42.8988 63.134 43.349 62.655 43.7174C63.5863 44.2996 65.0011 44.8459 66.4082 44.7186C67.1498 44.6515 67.8894 44.3974 68.5589 43.8622C69.196 43.3529 69.7758 42.5841 70.2319 41.4658C69.5994 41.4492 69.0107 41.3138 68.4773 41.105ZM70.5155 41.4652C70.0404 42.6698 69.4215 43.5089 68.7237 44.0667C68.0097 44.6375 67.2198 44.9083 66.4325 44.9795C64.9044 45.1178 63.3871 44.505 62.4271 43.883C62.192 44.0443 61.9428 44.1859 61.6793 44.3034C62.4252 45.0167 63.4337 45.7374 64.5461 46.1632C64.9714 46.3259 65.4108 46.4452 65.8558 46.5049C66.4767 46.5881 67.1084 46.5554 67.7287 46.3628C68.1608 46.2287 68.5892 46.0165 69.0061 45.7098C69.4483 45.3845 69.8786 44.952 70.2867 44.392C70.8561 43.6108 71.3818 42.5821 71.8358 41.2519C71.3806 41.3854 70.9394 41.4524 70.5155 41.4652ZM72.0983 41.2969C71.6535 42.6099 71.1369 43.6451 70.5709 44.4468C71.1832 44.9457 72.0771 45.4388 72.8946 45.4272C73.3175 45.4212 73.7201 45.2804 74.0608 44.9315C74.391 44.5934 74.6717 44.0509 74.8465 43.2218C73.6861 42.7056 72.6748 41.8799 72.0983 41.2969ZM75.0931 43.3258C74.9111 44.1584 74.6182 44.7369 74.2495 45.1145C73.8551 45.5183 73.3837 45.6823 72.8989 45.6892C71.9961 45.702 71.0487 45.1712 70.4161 44.6588C70.0615 45.1275 69.6887 45.5091 69.3031 45.8136C71.8146 47.6373 73.5957 47.6265 74.8047 46.9233C75.9949 46.231 76.6799 44.842 76.9573 43.7011C76.3239 43.7141 75.6896 43.5635 75.0931 43.3258ZM61.4141 44.4116C61.2897 44.4577 61.1624 44.4984 61.0321 44.5334C60.6348 45.8369 60.1494 46.8625 59.601 47.6544C60.2026 48.0896 61.1063 48.5119 61.9879 48.4712C62.4502 48.4498 62.9068 48.3014 63.3162 47.9591C63.7069 47.6323 64.0618 47.1228 64.3339 46.3612C63.1873 45.8989 62.1612 45.1442 61.4141 44.4116ZM64.5796 46.4551C64.2961 47.2462 63.9192 47.7972 63.4854 48.16C63.0275 48.5429 62.5141 48.7092 62.0006 48.7329C61.0383 48.7774 60.0774 48.322 59.448 47.8671C59.1879 48.2151 58.9147 48.5136 58.6309 48.7669C59.5162 49.5102 60.8644 50.2516 62.1815 50.2096C62.8638 50.1879 63.5407 49.9561 64.1484 49.3998C64.7362 48.8617 65.2659 48.0138 65.668 46.7418C65.2975 46.6812 64.9332 46.5826 64.5796 46.4551ZM65.9322 46.7783C65.5194 48.103 64.9645 49.0088 64.3265 49.5929C63.6695 50.1943 62.9315 50.4479 62.1904 50.4715C60.7638 50.517 59.3367 49.7113 58.4281 48.9387C58.0495 49.243 57.6545 49.4707 57.2493 49.6319C58.4154 50.7396 60.1941 51.8622 62.0126 51.9379C62.8962 51.9746 63.7907 51.7645 64.6351 51.1831C65.0257 50.9141 65.407 50.5647 65.7722 50.1213C66.4378 49.3131 67.0496 48.1928 67.5652 46.6805C67.0201 46.8155 66.4709 46.8389 65.9322 46.7783ZM67.8186 46.7523C67.3169 48.2275 66.7208 49.3488 66.063 50.1795C66.6615 50.5979 67.5509 50.998 68.4098 50.9488C68.8626 50.9229 69.3072 50.7724 69.7017 50.4324C70.0785 50.1077 70.417 49.6038 70.6695 48.8526C69.4839 48.3569 68.4893 47.5263 67.8186 46.7523ZM70.9145 48.9491C70.6513 49.7263 70.2923 50.2703 69.8739 50.6308C69.4309 51.0125 68.9295 51.1815 68.4255 51.2104C67.4778 51.2647 66.5224 50.8242 65.8961 50.3826C65.5832 50.7492 65.2572 51.0532 64.9218 51.301C65.8087 52.05 67.1751 52.7974 68.5507 52.7594C69.2671 52.7396 69.9891 52.507 70.6545 51.9453C71.2947 51.405 71.8885 50.5549 72.3709 49.2822C71.8635 49.2382 71.3754 49.1197 70.9145 48.9491ZM72.6457 49.2986C72.1474 50.6423 71.5209 51.5577 70.8247 52.1454C70.1112 52.7477 69.3311 53 68.5585 53.0214C67.0648 53.0626 65.6107 52.2415 64.6997 51.4561C64.2461 51.7547 63.7787 51.9543 63.3068 52.0716C64.5193 53.0745 65.6285 53.6887 66.6343 54.0073C67.3235 54.2257 67.9648 54.3055 68.5588 54.2765C69.0858 54.2508 69.5773 54.1394 70.0339 53.9613C70.4595 53.7953 70.8554 53.5712 71.2216 53.304C71.7089 52.9484 72.1433 52.5166 72.5243 52.0449C73.267 51.1254 73.8033 50.0584 74.1324 49.1202C73.6261 49.2607 73.1284 49.3142 72.6457 49.2986ZM74.3801 49.2089C74.0552 50.1344 73.5337 51.1825 72.8137 52.1033C73.3264 52.4728 74.1062 52.8435 74.9029 52.8523C75.3271 52.8569 75.7551 52.7592 76.1534 52.5052C76.525 52.2682 76.8776 51.8908 77.1774 51.3191C75.8485 50.7938 74.8841 49.8839 74.3801 49.2089ZM77.4259 51.4112C77.1057 52.0322 76.7187 52.4561 76.2954 52.726C75.8484 53.0111 75.3687 53.1194 74.9006 53.1143C74.0271 53.1046 73.1904 52.7005 72.6489 52.3075C72.3114 52.7128 71.9329 53.0892 71.5132 53.4134C72.3796 54.0909 73.7183 54.7729 75.0793 54.7557C75.7913 54.7466 76.5103 54.5464 77.1762 54.0524C77.8115 53.5811 78.4053 52.8373 78.8969 51.7215C78.3699 51.6789 77.8783 51.568 77.4259 51.4112ZM63.0391 52.1294C62.7244 52.1871 62.4084 52.2099 62.0939 52.2027C61.5987 53.3667 60.624 54.8551 59.2542 55.6165C58.5492 56.0083 57.7382 56.208 56.838 56.0687C55.9597 55.9327 55.0083 55.4759 53.9955 54.5818C53.577 54.8165 53.1014 55.0113 52.5626 55.1528C53.6199 56.2024 54.5995 56.8819 55.4991 57.2742C56.0625 57.5198 56.5945 57.6528 57.095 57.6938C57.7923 57.7508 58.4329 57.6295 59.0174 57.3794C59.523 57.1632 59.9879 56.8499 60.4111 56.4703C60.7833 56.1364 61.1226 55.7518 61.428 55.3382C62.175 54.3266 62.7153 53.1473 63.0391 52.1294ZM54.2326 54.4409C55.1934 55.2737 56.0788 55.686 56.8778 55.8097C57.712 55.9389 58.4643 55.7552 59.1258 55.3876C60.3912 54.6842 61.3197 53.3092 61.8135 52.1883C61.3222 52.1496 60.837 52.0407 60.3677 51.8811C59.5532 53.5717 58.5171 54.2241 57.5315 54.3213C56.6161 54.4117 55.7772 54.0194 55.248 53.6065C54.9607 53.9117 54.6243 54.1943 54.2326 54.4409ZM55.4231 53.4106C55.916 53.791 56.6834 54.1417 57.505 54.0606C58.3709 53.9751 59.3344 53.4059 60.1191 51.7912C58.8815 51.3183 57.7703 50.5081 56.9739 49.7308C56.8953 49.756 56.8164 49.7789 56.7373 49.7996C56.738 50.8259 56.4076 52.2514 55.4231 53.4106ZM60.7355 44.602C60.1725 44.7114 59.5599 44.7145 58.8972 44.5832C58.5545 45.8639 58.0564 46.7412 57.4626 47.3073C56.848 47.8933 56.1392 48.1377 55.4188 48.1574C54.0284 48.1954 52.6009 47.3973 51.685 46.6381C51.2642 46.9087 50.7952 47.1288 50.2753 47.2778C51.1016 48.0255 52.2076 48.7885 53.4079 49.2492C54.0038 49.478 54.6208 49.6314 55.2369 49.6726C55.686 49.7027 56.1345 49.6731 56.5742 49.5698C56.7055 49.539 56.8361 49.5015 56.9658 49.4571C57.4402 49.2946 57.9036 49.0381 58.3451 48.6669C58.6817 48.3839 59.0062 48.0336 59.3131 47.6065C59.8512 46.8577 60.3351 45.873 60.7355 44.602ZM50.0927 47.4662C50.9135 48.2099 52.0075 48.9717 53.2049 49.451C52.9729 50.3318 52.6493 50.9099 52.2855 51.2706C51.9096 51.6433 51.4837 51.791 51.0484 51.7955C50.2024 51.8043 49.3089 51.2709 48.7105 50.7356C49.4956 49.4564 49.9244 48.2021 50.0927 47.4662ZM48.5689 50.9604C48.2738 51.4172 47.9323 51.8741 47.5398 52.3085C48.5871 53.1675 49.5243 53.5853 50.3494 53.7017C51.2 53.8218 51.9428 53.6232 52.5797 53.2393C53.8048 52.5008 54.6382 51.0749 55.0494 49.92C54.5078 49.8667 53.9707 49.7335 53.452 49.5453C53.213 50.4396 52.8745 51.0567 52.4711 51.4565C52.0438 51.8802 51.5513 52.0524 51.0517 52.0575C50.1264 52.0671 49.1888 51.505 48.5689 50.9604ZM51.9112 46.4846C52.8056 47.2099 54.141 47.9301 55.4111 47.8954C56.0723 47.8774 56.7172 47.655 57.2807 47.1178C57.8277 46.5962 58.3057 45.7704 58.6402 44.5261C58.3366 44.4515 58.0232 44.349 57.6998 44.2164C57.4491 44.9778 57.1078 45.5101 56.7095 45.862C56.286 46.2361 55.806 46.3991 55.3233 46.4225C54.4187 46.4663 53.5085 46.0211 52.9117 45.5785C52.6177 45.9096 52.2851 46.2171 51.9112 46.4846ZM53.0822 45.3786C53.6522 45.7979 54.4963 46.2002 55.31 46.1607C55.739 46.1399 56.1604 45.9966 56.5349 45.6657C56.8934 45.349 57.2162 44.854 57.4572 44.1121C56.586 43.7201 55.6437 43.1111 54.6273 42.2388C54.3963 43.1963 53.9027 44.378 53.0822 45.3786ZM59.1666 57.7453C58.955 59.0081 58.3137 60.0746 57.6052 60.8907C58.0988 61.2735 58.8671 61.627 59.6892 61.5477C60.5351 61.4661 61.4739 60.9223 62.2475 59.3908C61.0649 59.0165 59.9838 58.3824 59.1666 57.7453ZM62.5034 59.4672C61.6972 61.0871 60.6821 61.7153 59.715 61.8085C58.7991 61.8969 57.9596 61.5015 57.4298 61.0863C57.0945 61.4484 56.7499 61.7561 56.4316 62.0042C57.3534 62.7682 58.7599 63.52 60.1436 63.4478C60.862 63.4104 61.5781 63.1509 62.2251 62.5488C62.8498 61.9674 63.4158 61.0609 63.8522 59.712C63.3952 59.6765 62.9428 59.5905 62.5034 59.4672ZM59.3179 57.5308C60.1492 58.1809 61.2623 58.8278 62.4707 59.1851C62.9806 59.3359 63.5064 59.4348 64.0343 59.4611C64.5154 59.4851 64.9982 59.4487 65.4725 59.3366C65.9749 59.2178 66.469 59.0137 66.943 58.7048C67.3895 58.4138 67.8193 58.029 68.222 57.5327C68.855 56.7525 69.4211 55.6963 69.8767 54.2965C69.4912 54.4235 69.0831 54.5058 68.6524 54.5337C67.4446 57.1508 65.8288 58.0854 64.2755 58.1526C62.7753 58.2176 61.3701 57.4712 60.5005 56.7416C60.1379 57.0553 59.7436 57.3248 59.3179 57.5308ZM60.6972 56.5643C61.5375 57.2604 62.8668 57.9513 64.2635 57.8908C65.6722 57.8299 67.187 57.0023 68.357 54.5442C67.8264 54.5476 67.2647 54.4691 66.6723 54.293C66.3297 55.135 65.9153 55.7122 65.4606 56.0836C64.984 56.4729 64.4694 56.6306 63.9641 56.6349C63.0236 56.6428 62.1279 56.1202 61.5522 55.6105C61.2914 55.952 61.0064 56.2741 60.6972 56.5643ZM61.7089 55.399C62.2572 55.8903 63.1016 56.3801 63.9613 56.3729C64.4095 56.3691 64.8654 56.2305 65.2937 55.8808C65.7024 55.547 66.0914 55.016 66.4209 54.213C65.4417 53.881 64.382 53.2846 63.2415 52.3572C62.9172 53.3301 62.4047 54.4315 61.7089 55.399ZM70.1448 54.3223C69.6968 55.7161 69.138 56.7904 68.5039 57.6006C69.0673 58.0933 69.9174 58.5717 70.7553 58.5366C71.1921 58.5184 71.6304 58.3607 72.032 57.9841C72.4187 57.6216 72.7765 57.0511 73.0607 56.194C71.9197 55.7324 70.8963 55.013 70.1448 54.3223ZM73.3064 56.2887C73.0136 57.167 72.638 57.7761 72.2124 58.1752C71.7636 58.5959 71.2649 58.7776 70.7669 58.7984C69.8374 58.8373 68.9277 58.3168 68.3385 57.8041C67.9908 58.2154 67.6224 58.5516 67.2391 58.8213C68.2066 59.5452 69.6654 60.2562 71.0781 60.1891C71.8157 60.154 72.5417 59.907 73.185 59.3364C73.8057 58.7858 74.3568 57.9271 74.7623 56.6481C74.2654 56.5872 73.7765 56.4607 73.3064 56.2887ZM75.0297 56.6744C74.6128 58.0141 74.034 58.9344 73.36 59.5323C72.6676 60.1465 71.8828 60.4132 71.0912 60.4508C69.5559 60.5238 67.9993 59.7362 67.0079 58.9749C66.6052 59.2268 66.1888 59.4087 65.7655 59.5308C66.5888 60.2882 67.6737 61.0602 68.8433 61.5475C69.2474 61.7158 69.6607 61.8498 70.0761 61.9376C70.6957 62.0686 71.3188 62.0966 71.9229 61.9839C72.2072 61.9309 72.4877 61.8465 72.7621 61.7268C73.2301 61.5226 73.6825 61.2144 74.1069 60.7792C74.4432 60.4344 74.7624 60.0094 75.0579 59.4923C75.4864 58.7424 75.8644 57.7998 76.1715 56.6301C75.7905 56.6904 75.4083 56.7023 75.0297 56.6744ZM76.4573 56.5755C76.156 57.7568 75.7826 58.7227 75.3537 59.5025C75.828 59.7308 76.5238 59.931 77.2031 59.8586C77.9041 59.7838 78.596 59.4189 79.0198 58.4621C77.9186 57.8848 76.999 57.1085 76.4837 56.5695C76.4749 56.5715 76.4661 56.5736 76.4573 56.5755ZM79.2549 58.5808C78.7906 59.6184 78.018 60.0353 77.2316 60.1191C76.4828 60.199 75.7296 59.9772 75.2235 59.7305C74.9683 60.1617 74.6948 60.5314 74.4063 60.8452C75.1824 61.3191 76.3696 61.7698 77.5665 61.6836C78.7872 61.5958 80.0364 60.9491 80.883 59.1458C80.3179 59.0329 79.768 58.8301 79.2549 58.5808ZM65.5885 59.7242C66.3978 60.4685 67.4568 61.2291 68.6086 61.7322C68.0038 62.8056 67.183 63.2011 66.3981 63.2668C65.6368 63.3306 64.8975 63.0845 64.4097 62.8148C64.9169 62.0139 65.338 60.9988 65.5885 59.7242ZM64.265 63.0342C64.0065 63.4109 63.729 63.7358 63.4432 64.0146C64.1757 64.5574 65.3107 65.0786 66.481 64.9975C67.6744 64.9148 68.9379 64.203 69.8643 62.1584C69.5224 62.077 69.184 61.9667 68.8528 61.8343C68.2044 63.0027 67.2995 63.4544 66.4206 63.5279C65.5863 63.5978 64.7871 63.3266 64.265 63.0342ZM70.1271 62.2152C69.1677 64.3675 67.8193 65.1675 66.4997 65.2589C65.2262 65.3472 64.0118 64.7728 63.2485 64.1963C62.8583 64.5449 62.4574 64.8114 62.0716 65.0101C62.9026 65.6108 64.0366 66.2066 65.2558 66.4863C66.5599 66.7855 67.951 66.7212 69.1786 65.9288C69.6546 65.6215 70.1088 65.2031 70.5255 64.6497C70.9874 64.0361 71.4036 63.2559 71.7515 62.2767C71.2129 62.3486 70.6665 62.3194 70.1271 62.2152ZM72.0475 62.2266C71.7024 63.2342 71.2852 64.0492 70.8153 64.6996C71.3084 65.0373 72.0667 65.3444 72.8609 65.2591C73.6758 65.1716 74.558 64.6676 75.2447 63.2852C74.2554 62.9846 73.4004 62.486 72.7937 61.9984C72.5487 62.0997 72.2994 62.1749 72.0475 62.2266ZM75.5019 63.358C74.7809 64.8365 73.8201 65.4198 72.8896 65.5197C72.0113 65.614 71.1872 65.2744 70.6576 64.9092C70.2935 65.3738 69.9007 65.7456 69.4879 66.0367C70.461 66.647 71.9064 67.2126 73.2825 67.0654C74.0067 66.988 74.712 66.7133 75.3245 66.1422C75.9124 65.5939 76.4216 64.7659 76.7754 63.5596C76.3353 63.5364 75.9083 63.4646 75.5019 63.358ZM53.4804 39.1762C53.4308 39.1879 53.3886 39.1979 53.3558 39.2073L53.2824 38.9555C53.3245 38.9434 53.3741 38.9312 53.4293 38.9177C53.8724 38.8092 54.6756 38.6125 54.8542 37.6342L55.1129 37.6816C54.9014 38.8404 53.9114 39.0743 53.4804 39.1762Z" fill="url(#paint5_linear_920_1632)"/>
<path d="M48.1565 42.8196C42.6225 42.7001 38.2664 44.5096 36.8242 45.4409C36.0438 43.9184 33.1814 40.1888 28.328 37.5453C22.2613 34.2408 17.8217 26.2971 21.6833 17.5557C25.5448 8.8143 34.9059 5.48077 46.6619 8.60784L46.8385 8.65482C58.5945 11.7819 65.0251 19.316 63.971 28.8041C62.9168 38.2923 55.074 42.9689 48.1565 42.8196Z" fill="url(#paint6_linear_920_1632)"/>
<path d="M40.8414 12.7094L40.3669 12.8701C40.4202 13.0283 40.5493 13.1491 40.711 13.1921C40.8726 13.235 41.0454 13.1943 41.1713 13.0837L40.8414 12.7094ZM39.9493 11.6309L40.3669 12.8701L41.3159 12.5486L40.8983 11.3094L39.9493 11.6309ZM41.1713 13.0837L42.1576 12.2173L41.4977 11.4686L40.5114 12.335L41.1713 13.0837Z" fill="white"/>
<path d="M43.6519 13.4589L43.1774 13.6197C43.2307 13.7779 43.3599 13.8987 43.5215 13.9416C43.6832 13.9845 43.856 13.9439 43.9819 13.8333L43.6519 13.4589ZM42.7599 12.3804L43.1774 13.6197L44.1264 13.2982L43.7089 12.0589L42.7599 12.3804ZM43.9819 13.8333L44.9682 12.9668L44.3083 12.2181L43.322 13.0846L43.9819 13.8333Z" fill="white"/>
<path d="M46.8121 14.301L46.3376 14.4617C46.3909 14.6199 46.52 14.7408 46.6817 14.7837C46.8434 14.8266 47.0161 14.786 47.142 14.6754L46.8121 14.301ZM45.92 13.2225L46.3376 14.4617L47.2866 14.1403L46.869 12.901L45.92 13.2225ZM47.142 14.6754L48.1283 13.8089L47.4684 13.0602L46.4821 13.9266L47.142 14.6754Z" fill="white"/>
<path d="M47.5562 17.1274L47.0817 17.2881C47.135 17.4463 47.2642 17.5672 47.4258 17.6101C47.5875 17.653 47.7603 17.6124 47.8862 17.5017L47.5562 17.1274ZM46.6642 16.0489L47.0817 17.2881L48.0307 16.9666L47.6132 15.7274L46.6642 16.0489ZM47.8862 17.5017L48.8725 16.6353L48.2125 15.8866L47.2263 16.753L47.8862 17.5017Z" fill="white"/>
<path d="M44.5718 16.3315L44.0973 16.4923C44.1507 16.6505 44.2798 16.7713 44.4415 16.8143C44.6031 16.8572 44.7759 16.8165 44.9018 16.7059L44.5718 16.3315ZM43.6798 15.253L44.0973 16.4923L45.0463 16.1708L44.6288 14.9316L43.6798 15.253ZM44.9018 16.7059L45.8881 15.8395L45.2282 15.0907L44.2419 15.9572L44.9018 16.7059Z" fill="white"/>
<path d="M41.5875 15.5362L41.113 15.697C41.1663 15.8552 41.2954 15.976 41.4571 16.0189C41.6187 16.0618 41.7915 16.0212 41.9174 15.9106L41.5875 15.5362ZM40.6954 14.4577L41.113 15.697L42.062 15.3755L41.6444 14.1362L40.6954 14.4577ZM41.9174 15.9106L42.9037 15.0441L42.2438 14.2954L41.2575 15.1619L41.9174 15.9106Z" fill="white"/>
<path d="M42.1441 19.063L41.6696 19.2237C41.7229 19.3819 41.852 19.5027 42.0137 19.5457C42.1754 19.5886 42.3481 19.5479 42.4741 19.4373L42.1441 19.063ZM41.2521 17.9845L41.6696 19.2237L42.6186 18.9022L42.2011 17.663L41.2521 17.9845ZM42.4741 19.4373L43.4604 18.5709L42.8004 17.8222L41.8141 18.6886L42.4741 19.4373Z" fill="white"/>
<path d="M45.3043 19.9048L44.8298 20.0655C44.8831 20.2237 45.0122 20.3446 45.1739 20.3875C45.3355 20.4304 45.5083 20.3898 45.6342 20.2792L45.3043 19.9048ZM44.4122 18.8263L44.8298 20.0655L45.7788 19.7441L45.3612 18.5048L44.4122 18.8263ZM45.6342 20.2792L46.6205 19.4127L45.9606 18.664L44.9743 19.5304L45.6342 20.2792Z" fill="white"/>
<path d="M42.9703 22.2855L42.4958 22.4462C42.5491 22.6044 42.6782 22.7253 42.8399 22.7682C43.0016 22.8111 43.1743 22.7705 43.3002 22.6599L42.9703 22.2855ZM42.0782 21.207L42.4958 22.4462L43.4448 22.1248L43.0272 20.8855L42.0782 21.207ZM43.3002 22.6599L44.2865 21.7934L43.6266 21.0447L42.6403 21.9111L43.3002 22.6599Z" fill="white"/>
<path d="M49.6226 15.05L49.1481 15.2108C49.2014 15.369 49.3306 15.4898 49.4922 15.5327C49.6539 15.5757 49.8267 15.535 49.9526 15.4244L49.6226 15.05ZM48.7306 13.9715L49.1481 15.2108L50.0971 14.8893L49.6796 13.6501L48.7306 13.9715ZM49.9526 15.4244L50.9389 14.558L50.2789 13.8092L49.2927 14.6757L49.9526 15.4244Z" fill="white"/>
<path d="M59.2527 33.7515C61.7505 28.4004 58.2268 24.3322 56.1527 22.9671C53.5811 22.2842 47.93 21.6858 45.8983 24.755C43.3587 28.5914 43.3192 33.4412 45.8613 36.0221C48.3683 38.5673 56.1304 40.4405 59.2527 33.7515Z" fill="url(#paint7_linear_920_1632)"/>
<path d="M53.8073 31.2461C56.9599 28.1991 54.768 24.7543 53.4876 23.6206C52.3355 22.2564 49.4991 20.6171 46.6297 24.7766C43.0429 29.9761 49.7805 35.1381 53.8073 31.2461Z" fill="#FFF9F1"/>
<path d="M51.526 25.2905L53.8848 28.9964L49.7505 30.0272L47.4943 26.4824L51.526 25.2905Z" fill="url(#paint8_linear_920_1632)"/>
<path d="M49.8038 29.3038C50.5549 28.8948 51.7842 27.2226 51.4077 25.823C50.5063 26.3137 49.5775 27.8223 49.8038 29.3038Z" fill="#FEFFFA"/>
<path d="M59.6733 15.4681C53.5689 15.8022 46.8772 21.0934 46.1665 23.7245C50.8854 22.7217 61.7458 20.0413 63.8729 19.403C65.9999 18.7647 67.5424 14.8633 68.0478 12.9923C67.7998 13.6784 65.7778 15.1341 59.6733 15.4681Z" fill="url(#paint9_linear_920_1632)"/>
<path d="M60.3831 17.7234C52.172 17.4985 47.155 21.9207 45.6729 24.1599L57.4491 23.7142C66.6617 26.913 70.614 19.7508 71.4386 15.7699C71.1747 16.5147 68.5943 17.9482 60.3831 17.7234Z" fill="url(#paint10_linear_920_1632)"/>
<path d="M56.3089 18.8867C49.4488 18.1179 44.7638 24.2817 43.2788 27.4597C45.426 25.7737 48.7677 23.8408 56.1624 24.3003C61.7085 24.645 65.178 20.6151 66.0595 18.2796C65.6676 18.8023 63.169 19.6555 56.3089 18.8867Z" fill="url(#paint11_linear_920_1632)"/>
<path d="M23.2475 24.1687C23.7815 18.296 28.8842 16.5185 31.3688 16.3639C33.9404 17.0468 39.1367 19.3288 39.3493 22.9939C39.6151 27.5753 37.2047 31.7955 33.7017 32.7712C30.2474 33.7334 22.58 31.5094 23.2475 24.1687Z" fill="url(#paint12_linear_920_1632)"/>
<path d="M27.2722 23.3493C26.1411 19.3702 29.5847 17.5725 31.1767 17.2433C32.7734 16.6646 35.8835 16.6506 36.2508 21.4096C36.7101 27.3583 28.717 28.4319 27.2722 23.3493Z" fill="#FFF9F1"/>
<path d="M32.6301 19.7572L28.5332 20.6178L30.559 24.0742L34.4778 23.251L32.6301 19.7572Z" fill="url(#paint13_linear_920_1632)"/>
<path d="M31.0191 23.5641C30.8027 22.7889 31.1368 20.8574 32.3463 20.1857C32.6059 21.116 32.1853 22.7373 31.0191 23.5641Z" fill="#FEFFFA"/>
<path d="M32.4772 8.22093C37.5961 11.5352 40.7249 19.4342 40.0142 22.0652C36.4324 18.8583 28.3768 11.155 26.8563 9.5481C25.3357 7.94124 25.9663 3.79763 26.4717 1.92668C26.3407 2.64381 27.3583 4.90664 32.4772 8.22093Z" fill="url(#paint14_linear_920_1632)"/>
<path d="M30.7267 9.81874C37.952 13.6934 40.0686 20.01 40.2237 22.684L30.2484 16.4618C20.6566 14.6667 20.8433 6.50449 22.1356 2.64776C21.9887 3.42366 23.5013 5.94411 30.7267 9.81874Z" fill="url(#paint15_linear_920_1632)"/>
<path d="M33.6776 12.8542C40.0069 15.5879 40.9578 23.2483 40.6421 26.7369C39.6322 24.2125 37.7122 20.8823 31.0756 17.6158C26.0982 15.1659 25.1244 9.9562 25.5382 7.49649C25.6141 8.14337 27.3482 10.1206 33.6776 12.8542Z" fill="url(#paint16_linear_920_1632)"/>
<path d="M38.8241 37.6998L40.9043 29.9904C42.3833 30.3835 42.802 32.7482 41.9308 34.0189C41.2338 35.0354 39.5692 36.8964 38.8241 37.6998Z" fill="#00151C"/>
<path d="M38.8163 37.696L40.8965 29.9866C39.4175 29.5934 37.8641 31.4339 37.9789 32.9666C38.0708 34.1929 38.5754 36.6305 38.8163 37.696Z" fill="#FBC471"/>
<path d="M47.3666 74.0424C50.5083 74.6751 51.0053 76.2522 50.8611 76.9617C49.8977 76.5214 47.7184 76.8825 47.3219 78.8335C46.8893 80.9618 48.842 81.7151 49.8545 81.9143C49.2254 82.9426 48.1585 83.6176 46.4206 83.2675C42.7078 82.5197 42.4994 79.4007 42.8593 77.9347L44.3734 70.4855C47.0289 71.3158 47.4754 73.2027 47.3666 74.0424Z" fill="url(#paint17_linear_920_1632)"/>
<path d="M53.3647 77.0275C56.5064 77.6603 57.0034 79.2374 56.8592 79.9468C55.8957 79.5066 53.7165 79.8677 53.3199 81.8187C52.8873 83.947 54.8401 84.7002 55.8525 84.8995C55.2235 85.9277 54.1566 86.6027 52.4187 86.2527C48.7058 85.5049 48.4974 82.3859 48.8573 80.9198L50.3714 73.4707C53.027 74.3009 53.4734 76.1878 53.3647 77.0275Z" fill="url(#paint18_linear_920_1632)"/>
<defs>
<linearGradient id="paint0_linear_920_1632" x1="45.995" y1="25.3534" x2="-2.8682" y2="37.87" gradientUnits="userSpaceOnUse">
<stop stop-color="#011015"/>
<stop offset="1" stop-color="#134454"/>
</linearGradient>
<linearGradient id="paint1_linear_920_1632" x1="64.1887" y1="98.4582" x2="95.2338" y2="71.1188" gradientUnits="userSpaceOnUse">
<stop stop-color="#DBCD4C"/>
<stop offset="1" stop-color="#FFB200"/>
</linearGradient>
<linearGradient id="paint2_linear_920_1632" x1="28.5822" y1="11.1529" x2="59.5201" y2="94.4207" gradientUnits="userSpaceOnUse">
<stop stop-color="#FF4E00"/>
<stop offset="1" stop-color="#DA160A"/>
</linearGradient>
<linearGradient id="paint3_linear_920_1632" x1="34.9726" y1="35.9187" x2="63.6218" y2="86.2971" gradientUnits="userSpaceOnUse">
<stop offset="0.161537" stop-color="#FFC9B9"/>
<stop offset="1" stop-color="white"/>
</linearGradient>
<linearGradient id="paint4_linear_920_1632" x1="42.7023" y1="22.1198" x2="102.599" y2="92.0377" gradientUnits="userSpaceOnUse">
<stop stop-color="#011015"/>
<stop offset="1" stop-color="#134454"/>
</linearGradient>
<linearGradient id="paint5_linear_920_1632" x1="85.2419" y1="68.8023" x2="87.1333" y2="27.6172" gradientUnits="userSpaceOnUse">
<stop stop-color="#DBCD4C"/>
<stop offset="1" stop-color="#FFB200"/>
</linearGradient>
<linearGradient id="paint6_linear_920_1632" x1="46.7502" y1="8.63134" x2="36.95" y2="45.4744" gradientUnits="userSpaceOnUse">
<stop offset="0.078125" stop-color="#FF4E00"/>
<stop offset="1" stop-color="#DA160A"/>
</linearGradient>
<linearGradient id="paint7_linear_920_1632" x1="52.0775" y1="24.1404" x2="59.8194" y2="43.6427" gradientUnits="userSpaceOnUse">
<stop offset="0.212083" stop-color="#04232E"/>
<stop offset="0.799119" stop-color="#043343"/>
</linearGradient>
<linearGradient id="paint8_linear_920_1632" x1="52.2334" y1="27.4132" x2="46.4869" y2="27.8469" gradientUnits="userSpaceOnUse">
<stop offset="0.212083" stop-color="#04232E"/>
<stop offset="0.799119" stop-color="#043343"/>
</linearGradient>
<linearGradient id="paint9_linear_920_1632" x1="46.4334" y1="23.3869" x2="70.161" y2="16.3168" gradientUnits="userSpaceOnUse">
<stop stop-color="#E6BB57"/>
<stop offset="1" stop-color="#FFB200"/>
</linearGradient>
<linearGradient id="paint10_linear_920_1632" x1="45.9709" y1="23.8629" x2="71.186" y2="12.2931" gradientUnits="userSpaceOnUse">
<stop stop-color="#F7D075"/>
<stop offset="1" stop-color="#FFC338"/>
</linearGradient>
<linearGradient id="paint11_linear_920_1632" x1="66.761" y1="18.4659" x2="39.2271" y2="30.4643" gradientUnits="userSpaceOnUse">
<stop stop-color="#DBAB3C"/>
<stop offset="1" stop-color="#FFB200"/>
</linearGradient>
<linearGradient id="paint12_linear_920_1632" x1="34.3071" y1="19.3995" x2="17.8028" y2="32.4955" gradientUnits="userSpaceOnUse">
<stop offset="0.212083" stop-color="#04232E"/>
<stop offset="0.799119" stop-color="#043343"/>
</linearGradient>
<linearGradient id="paint13_linear_920_1632" x1="30.7088" y1="20.6824" x2="34.1707" y2="24.8594" gradientUnits="userSpaceOnUse">
<stop offset="0.212083" stop-color="#04232E"/>
<stop offset="0.799119" stop-color="#043343"/>
</linearGradient>
<linearGradient id="paint14_linear_920_1632" x1="39.9531" y1="21.6405" x2="23.0348" y2="3.69367" gradientUnits="userSpaceOnUse">
<stop stop-color="#E6BB57"/>
<stop offset="1" stop-color="#FFB200"/>
</linearGradient>
<linearGradient id="paint15_linear_920_1632" x1="40.1152" y1="22.2791" x2="24.1422" y2="-0.263535" gradientUnits="userSpaceOnUse">
<stop stop-color="#F7D075"/>
<stop offset="1" stop-color="#FFC338"/>
</linearGradient>
<linearGradient id="paint16_linear_920_1632" x1="24.8366" y1="7.31019" x2="42.5912" y2="31.3809" gradientUnits="userSpaceOnUse">
<stop stop-color="#DBAB3C"/>
<stop offset="1" stop-color="#FFB200"/>
</linearGradient>
<linearGradient id="paint17_linear_920_1632" x1="49.2924" y1="83.7314" x2="42.2102" y2="70.9568" gradientUnits="userSpaceOnUse">
<stop stop-color="#F7D075"/>
<stop offset="1" stop-color="#FFC338"/>
</linearGradient>
<linearGradient id="paint18_linear_920_1632" x1="55.2904" y1="86.7165" x2="48.2082" y2="73.9419" gradientUnits="userSpaceOnUse">
<stop stop-color="#F7D075"/>
<stop offset="1" stop-color="#FFC338"/>
</linearGradient>
</defs>
</svg>
