<svg width="60" height="65" viewBox="0 0 60 65" fill="none" xmlns="http://www.w3.org/2000/svg">
<path d="M23.1614 64.406C23.5677 64.443 24.6732 64.5625 25.6099 64.6698C29.1124 65.0567 32.6436 65.1037 36.1537 64.8101C37.3187 64.7021 38.4766 64.5291 39.6218 64.2919C39.9897 64.1937 40.3657 64.128 40.7453 64.0957C41.1736 64.0503 41.6165 63.9922 41.7248 63.9604C43.1124 63.5864 43.5262 63.5536 43.9007 63.7921C44.3756 64.0906 44.6824 64.0016 44.3991 63.5886C44.2069 63.3327 44.2383 63.3191 45.5723 62.9583C46.3268 62.7517 47.2756 62.5032 47.6812 62.4185C48.0748 62.3234 48.4632 62.208 48.8447 62.0728C49.0736 61.985 49.6096 61.7861 50.0331 61.6344C51.3358 61.0944 52.6095 60.4879 53.8493 59.8173C54.0426 59.6953 54.2677 59.6326 54.4968 59.6372C54.6314 59.6733 54.7325 59.6065 54.7753 59.4467C54.9248 59.1761 55.137 58.945 55.3942 58.7728C55.8623 58.4341 55.9879 58.3794 56.1463 58.5544C56.391 58.7802 56.632 58.5022 56.5174 58.1014C56.4532 57.8853 56.5012 57.8098 56.8005 57.6248C57.063 57.4504 57.2603 57.1945 57.3618 56.8968C57.4278 56.6917 57.5247 56.4979 57.649 56.3218C57.6949 56.2954 57.8685 56.4138 58.0387 56.5865C58.3099 56.858 58.3655 56.8785 58.5039 56.7553C58.6278 56.6449 58.5743 56.4924 58.3255 56.1164C57.9939 55.6353 57.9929 55.6184 58.249 55.2838C58.5063 54.8858 58.7204 54.4617 58.8876 54.0185C59.155 53.4226 59.2974 52.7784 59.3062 52.1252L59.3722 50.9054C59.4372 49.7516 59.3827 49.5823 58.3444 47.7628C57.7045 46.5912 56.9729 45.4715 56.1565 44.4142C56.0671 44.3129 55.4062 43.6939 54.6836 43.0362C52.2478 40.82 51.0012 40.0883 46.5728 38.2885C45.9826 38.0474 44.9151 37.5791 44.2121 37.2416C43.0728 36.7098 42.4806 36.5179 39.1555 35.6325C36.8983 35.0277 35.0698 34.6041 34.5935 34.5593C34.1172 34.5145 33.2685 34.4308 32.6224 34.3571C31.2418 34.2081 29.1585 34.2797 28.7001 34.4994C28.4292 34.6202 28.3812 34.6957 28.4378 34.8987C28.5378 35.2294 28.787 35.3348 29.303 35.2521C31.3084 34.9331 34.5661 35.3862 39.1102 36.6093C41.999 37.3833 42.6454 37.6008 43.804 38.1432C44.5395 38.4839 45.6574 38.9713 46.2904 39.2183C48.4398 40.0594 51.0801 41.3469 50.708 41.3688C50.4698 41.3878 50.4602 41.5896 50.6931 41.652C51.0296 41.8128 51.3495 42.0058 51.6484 42.2284C52.0546 42.5141 52.4867 42.8066 52.5858 42.8719C53.3362 43.4912 53.9843 44.2242 54.5063 45.0438C55.1239 46.0203 55.5002 47.1285 55.6042 48.2771C55.6896 50.0292 55.3178 50.5262 52.7483 52.4122C51.4003 53.4783 49.9141 54.3585 48.3295 55.0291C46.8826 55.6247 44.5455 56.457 43.7285 56.669C43.3344 56.7733 42.9295 56.8968 42.817 56.944C42.5134 57.0452 42.2029 57.1245 41.8878 57.1812C41.496 57.2601 41.11 57.3652 40.7326 57.496C39.7194 57.7953 38.6801 57.9996 37.6283 58.1061C37.4563 58.0899 37.283 58.1053 37.1167 58.1513C35.9335 58.4254 30.8219 58.3265 28.9558 57.9811C28.7953 57.9381 28.2955 57.8981 27.8762 57.8686C27.0816 57.8104 26.401 57.6999 22.7991 57.0607C20.2898 56.566 17.8165 55.9033 15.396 55.077C15.0498 54.9401 14.384 54.7119 13.9519 54.5851C13.4302 54.4229 12.9322 54.1928 12.4706 53.9009C12.1984 53.7014 11.9051 53.532 11.5961 53.3959C11.3091 53.2663 11.0352 53.1096 10.7781 52.9281C10.4788 52.7144 10.1513 52.5429 9.80488 52.4187C9.15327 52.1621 8.53205 51.8345 7.95258 51.4417C7.77243 51.3272 7.3255 50.9865 6.95864 50.6782C6.59178 50.37 6.09378 49.9714 5.84979 49.7845C5.16783 49.2647 3.5338 47.1419 3.42099 46.631L3.29578 45.9179C3.20297 45.5395 3.2496 45.2205 3.51271 44.28C3.85385 43.0069 4.33818 42.1312 4.87872 41.7291L6.31638 40.6503C7.7026 39.6185 8.08091 39.3663 8.78952 39.1031C9.0981 38.9869 9.5903 38.7652 9.89439 38.6036C10.0859 38.4803 10.2975 38.3912 10.5198 38.3403C10.7923 38.3007 11.0591 38.2294 11.3147 38.1279C11.7884 37.9637 12.2714 37.8274 12.7613 37.72C13.0364 37.6739 13.3065 37.602 13.5679 37.5052C13.8793 37.3846 14.1988 37.2856 14.524 37.2089C15.0148 37.0752 15.506 36.9196 15.6237 36.8738C17.3857 36.4202 19.1899 36.1466 21.0084 36.057C21.746 36.0171 22.4642 35.9665 22.6116 35.9342C23.2138 35.8912 23.8184 35.8908 24.4209 35.9328L24.9703 35.953L25.0621 36.5631C25.1128 36.8916 25.19 37.7631 25.2317 38.498C25.2534 38.9953 25.3059 39.491 25.3889 39.982C25.5733 41.0354 25.7035 42.0974 25.7793 43.1638C25.7948 43.4007 25.7541 43.6377 25.6605 43.8557C25.6166 43.9304 25.5916 44.0147 25.5877 44.1012C25.5839 44.1878 25.6012 44.274 25.6383 44.3525C25.8195 44.7325 25.8222 45.0537 25.6358 45.0037C25.4495 44.9538 25.26 44.6047 25.3781 44.5369C25.4961 44.4691 25.3142 44.3817 25.1396 44.2465C24.965 44.1113 24.8321 43.9652 24.8459 43.9137C24.8597 43.8621 24.7469 43.7656 24.5947 43.6917C24.2347 43.5234 22.7609 43.9296 22.425 44.2926C22.0711 44.8848 21.952 45.5877 22.091 46.2638C22.2128 46.9483 22.8502 47.5721 24.0019 48.1403C25.9961 49.1056 29.3022 49.6268 30.5271 49.1761C30.7885 49.0874 31.0617 49.0378 31.3379 49.0287C31.6551 49.0253 31.7638 48.9716 31.7638 48.8058C31.7639 48.6401 31.9913 48.4746 32.4694 48.2436C33.0083 48.0336 33.4524 47.6365 33.7199 47.1254C33.9874 46.6143 34.0601 46.0237 33.9248 45.4624C33.8455 45.1132 33.6938 44.7842 33.4794 44.4965C33.265 44.2088 32.9928 43.9688 32.6801 43.792C31.8221 43.3054 30.8765 42.992 29.8976 42.8696C29.541 42.8956 29.4454 42.8589 29.3046 42.6389C29.0435 42.0203 28.912 41.3552 28.9183 40.6846C28.8914 40.3294 28.8442 39.8637 28.8124 39.6508C28.6779 38.7032 28.5845 37.7887 28.5639 37.2031C28.5369 36.7144 28.4821 36.2275 28.3997 35.7448C28.0914 34.3231 27.8956 32.8797 27.8141 31.4279C27.808 30.9765 27.7416 30.5277 27.6169 30.0934C27.5516 30.0262 27.5399 29.9457 27.5976 29.9169C27.6681 29.3153 27.6284 28.7056 27.4804 28.1177C27.4404 27.9333 27.4293 27.744 27.4477 27.5564C27.4655 27.0489 27.415 26.5411 27.2973 26.0466C27.2433 25.7496 27.2163 25.4483 27.2167 25.1466C27.2112 24.8357 27.1664 24.216 27.1202 23.7672C27.0774 23.455 27.0598 23.1399 27.0675 22.825C27.0799 22.6005 27.0638 22.3753 27.0196 22.1547C26.971 21.8599 26.8958 21.2708 26.8596 20.8467C26.8234 20.4227 26.7416 19.8373 26.6851 19.5514C26.6285 19.2655 26.5312 18.5931 26.4668 18.0675L26.3454 17.1124L26.9118 16.6344C27.138 16.4592 27.34 16.2552 27.5128 16.0275C27.6472 15.799 27.8066 15.586 27.9881 15.3925C28.1675 15.218 28.3058 15.006 28.393 14.7717C28.372 14.7053 28.4441 14.581 28.5767 14.5005C28.7307 14.3875 28.8585 14.2427 28.9512 14.076C29.0303 13.926 29.304 13.4634 29.5602 13.0459C29.8163 12.6284 30.0997 12.1297 30.1964 11.9346C30.3832 11.5482 30.4694 11.5161 30.6213 11.7778C30.7731 12.0395 31.3074 11.8677 31.2854 11.6187C31.274 11.5162 31.3295 11.4538 31.371 11.4649C31.4124 11.476 31.4511 11.1659 31.4301 10.7681C31.3958 10.4244 31.4047 10.0779 31.4568 9.73659C31.5092 9.58397 31.5112 9.4186 31.4627 9.26449C31.4142 9.11039 31.3176 8.97563 31.1869 8.87985C30.9014 8.3693 30.7517 7.79472 30.7519 7.21084C30.773 7.07663 30.7663 6.9395 30.7323 6.80782C30.6574 6.45381 30.607 6.09514 30.5815 5.73435C30.5898 5.70342 30.5446 5.43718 30.4919 5.15786C30.4391 4.87854 30.4074 4.58276 30.4098 4.51159L30.4005 4.19417C30.2893 2.10369 30.2955 1.95622 30.583 1.44214C30.7353 1.18461 30.7229 1.06529 30.5365 0.766752L30.3019 0.399997L29.8493 0.908548C29.5966 1.18889 29.4227 1.42404 29.4641 1.43513C29.5055 1.44623 29.4434 1.51243 29.3446 1.59095C29.2459 1.66946 29.1741 1.77176 29.2045 1.82409C29.1283 2.03845 28.9987 2.22996 28.8279 2.38064C28.069 3.23788 27.3977 4.1684 26.824 5.15845C26.7097 5.39853 26.5133 5.82097 26.3738 6.09297C26.2344 6.36498 26.0417 6.79403 25.9416 7.04343C25.4949 8.17228 25.2974 8.3293 24.6582 8.06411C24.3594 7.93313 24.0337 7.8749 23.7082 7.89431C23.3826 7.91372 23.0665 8.0102 22.7862 8.17571C22.6724 8.22381 22.5702 8.29535 22.4862 8.38558C22.4022 8.47581 22.3383 8.58268 22.2986 8.6993C22.259 8.81592 22.2446 8.93961 22.2562 9.06229C22.2679 9.18496 22.3054 9.3039 22.3663 9.41124C22.6637 10.1649 22.3828 9.92943 21.7199 8.86234C21.4945 8.46455 21.2205 8.09608 20.9041 7.76536C20.8642 7.75322 20.8305 7.72612 20.8102 7.68976C20.7899 7.65339 20.7846 7.6106 20.7954 7.57047C20.4276 6.80853 19.9564 6.10041 19.395 5.46604C19.266 5.32649 19.1914 5.19053 19.2242 5.17169C19.1122 4.92205 18.9575 4.69365 18.767 4.49671C17.9027 3.41159 17.0937 2.28392 16.343 1.11805C15.7491 0.124702 15.6011 -0.0475189 15.4026 0.00979407C15.2042 0.067107 15.2366 0.153142 15.2956 0.533567C15.3345 0.775443 15.3359 1.02174 15.2996 1.26387C15.2296 1.77576 15.242 2.29569 15.3364 2.80404C15.4237 3.22959 15.4158 3.66885 15.3135 4.09063C15.2966 4.40713 15.3315 4.72439 15.4169 5.02992C15.5908 5.78918 15.5863 5.82667 15.3174 6.064C15.2127 6.14557 15.133 6.25451 15.0869 6.37875C15.0409 6.50299 15.0304 6.63764 15.0567 6.76761C15.0776 6.94865 15.0551 7.13195 14.9911 7.30248C14.9617 7.52755 14.988 7.75644 15.0677 7.96932C15.1547 8.24335 15.1868 8.53169 15.1621 8.81783C15.0983 9.01188 15.1098 9.22289 15.1944 9.40922C15.2791 9.59554 15.4307 9.74363 15.6194 9.82426C16.4192 10.5228 17.1395 11.3068 17.7673 12.1621C17.8227 12.2434 17.8995 12.3079 17.9892 12.3487C18.1699 12.4929 18.3261 12.6654 18.4516 12.8593C19.1829 13.7844 19.9726 14.6621 20.816 15.4872C20.8455 15.4985 20.8716 15.5175 20.8913 15.5422C20.911 15.5669 20.9237 15.5965 20.9281 15.6277C21.1696 15.9798 21.4438 16.3085 21.747 16.6095C23.1299 18.1789 23.2068 18.3266 23.2419 19.3138C23.2564 19.7983 23.2932 20.3441 23.3177 20.5219C23.3422 20.6998 23.3701 20.9061 23.3729 20.9787C23.3849 21.5344 23.6611 24.0447 23.7563 24.4349C23.7882 24.6022 23.7837 24.7743 23.7432 24.9396C23.7195 25.2813 23.7491 25.6247 23.8311 25.9576C23.9109 26.3063 23.9644 26.6604 23.9911 27.017C24.0176 27.4429 24.0708 27.8667 24.1504 28.2861C24.2442 28.8019 24.3029 29.3234 24.3259 29.8469C24.3338 30.1694 24.3949 30.4178 24.4681 30.3932C24.5412 30.3686 24.5509 30.4154 24.4684 30.537C24.3196 30.7402 24.3147 31.794 24.4474 32.6859C24.5302 33.2053 24.6203 33.3455 24.9099 33.3623C25.0393 33.397 24.972 33.5447 24.7818 33.6539C24.5916 33.7632 24.642 33.8651 24.7058 34.186C24.8686 34.9865 24.8161 35.0167 23.4093 34.8828C20.8722 34.6394 18.3444 34.6305 17.3941 34.8842C16.4755 35.1162 15.544 35.2946 14.6043 35.4184C12.7158 35.7762 10.8527 36.255 9.02654 36.8518C7.53885 37.5076 6.13099 38.3295 4.82998 39.3018C4.56478 39.514 4.31686 39.7469 4.08853 39.9981C3.8662 40.2673 3.62733 40.5225 3.3733 40.7622C2.94429 41.1918 2.55818 41.6619 2.22036 42.1659C2.04927 42.4579 1.85267 42.7343 1.63283 42.9918C1.42297 43.2148 1.23383 43.4563 1.06774 43.7133C0.720474 44.237 0.486728 44.8272 0.381409 45.4464C0.105515 46.4944 -0.0218121 47.576 0.00312646 48.6598C0.0282986 48.8765 0.0409893 49.5539 0.0260813 50.1687C-0.00233553 51.2273 0.0197503 51.3105 0.423863 51.8111C0.655769 52.1052 1.00984 52.5647 1.21207 52.8454C1.65597 53.4469 2.17103 53.993 2.74607 54.4719C2.77172 54.4772 2.79436 54.4921 2.80927 54.5136C2.82418 54.5351 2.83022 54.5615 2.82613 54.5872C2.78884 54.7264 3.67646 55.5554 4.29043 55.9354C4.96101 56.3526 6.09094 57.147 6.56961 57.5349C6.83905 57.7465 7.1231 57.9389 7.41964 58.1108C7.68884 58.2658 8.20376 58.5805 8.55889 58.8083C9.57276 59.4195 10.6222 59.9701 11.7016 60.4569C12.2241 60.7019 12.8264 61.0014 13.039 61.1191C13.2516 61.2369 14.1562 61.6505 15.0545 62.0459C16.5123 62.6721 18.0236 63.1658 19.5699 63.521C21.13 63.9942 22.7549 64.391 23.1614 64.406ZM57.912 49.6247C57.93 49.5577 57.9939 49.5472 58.0449 49.6051C58.096 49.6629 58.1391 49.7297 58.1309 49.7607C58.1226 49.7916 58.0653 49.7984 57.998 49.7803C57.9663 49.7704 57.9396 49.7487 57.9236 49.7197C57.9076 49.6907 57.9035 49.6566 57.912 49.6247ZM23.0886 44.9842C23.08 44.8714 23.1204 44.8656 23.2488 44.9663C23.3772 45.067 23.5953 45.247 23.8044 45.4191C24.1868 45.7315 24.3718 46.0351 24.1492 45.9755C23.7246 45.7298 23.3618 45.3907 23.0886 44.9842ZM25.287 46.6782C25.9089 47.2149 26.1678 47.5329 25.8882 47.458C25.3364 47.1026 24.8351 46.6747 24.398 46.1858C24.3242 45.9229 24.6241 46.1083 25.2898 46.6678L25.287 46.6782ZM24.2094 47.1794C23.6683 46.9046 23.2047 46.4992 22.8607 46.0004C22.7231 45.748 22.7248 45.7209 22.9395 45.7066C23.0981 45.7123 23.2504 45.7706 23.3723 45.8723L24.4459 46.7732C25.5617 47.724 25.4688 47.9257 24.2122 47.1691L24.2094 47.1794ZM27.9383 48.0073C27.2803 47.6234 26.6551 47.1861 26.0691 46.6999C25.5808 46.2652 25.5629 46.2493 24.4992 45.2903C24.2219 45.08 23.9787 44.8284 23.778 44.5446C23.7566 44.2516 24.3233 44.5802 24.9693 45.234C25.2009 45.4813 25.4482 45.7137 25.7096 45.9296C25.7458 45.9393 26.259 46.364 26.845 46.8691C27.7896 47.6305 28.1896 48.0636 27.9411 47.997L27.9383 48.0073ZM29.8804 48.3178C29.693 48.3338 28.9741 47.8484 27.9515 47.0054C26.5017 45.8103 26.3699 45.6811 26.4883 45.5084C26.4991 45.4895 26.5136 45.473 26.5309 45.4597C26.5482 45.4464 26.568 45.4367 26.5891 45.431C26.6102 45.4254 26.6322 45.424 26.6539 45.4269C26.6756 45.4297 26.6965 45.4368 26.7154 45.4477C26.7796 45.498 27.4201 46.0067 28.1352 46.5684C29.6972 47.8212 30.1631 48.2775 29.8987 48.3116L29.8804 48.3178ZM30.9905 47.5711C31.03 47.5885 31.0614 47.62 31.0786 47.6594C31.0958 47.6988 31.0975 47.7432 31.0833 47.7838C31.0308 47.9796 30.4993 47.8925 30.421 47.6671C30.4027 47.6242 30.3752 47.5858 30.3404 47.5545C30.3057 47.5232 30.2645 47.4999 30.2198 47.4861C29.7363 47.1651 29.2747 46.8125 28.8379 46.4308C28.4214 46.0602 27.9847 45.7126 27.53 45.3897C27.5152 45.385 27.5014 45.3775 27.4896 45.3676C27.4777 45.3576 27.4679 45.3454 27.4608 45.3317C27.4536 45.318 27.4493 45.303 27.4479 45.2876C27.4466 45.2722 27.4483 45.2568 27.453 45.242C27.5082 45.0359 28.0038 45.257 28.6509 45.7619C29.7346 46.6047 29.9755 46.824 30.4079 47.1774C30.5843 47.3316 30.7813 47.4606 30.9933 47.5607L30.9905 47.5711ZM32.0822 47.4106C32.0171 47.4146 31.9519 47.4043 31.8912 47.3803C31.8304 47.3564 31.7757 47.3195 31.7309 47.2722C31.6194 47.1705 31.1311 46.8187 30.6462 46.4954C29.7033 45.8726 28.8377 45.1269 29.1045 45.1873C29.2934 45.2735 29.4711 45.3824 29.6336 45.5114C29.7994 45.6487 29.9841 45.7614 30.182 45.8462C30.3481 45.9288 30.4927 46.0489 30.6041 46.1969C30.7565 46.3709 30.9358 46.5197 31.1352 46.6375C31.703 46.9001 32.2299 47.3562 32.085 47.4002L32.0822 47.4106ZM32.3833 46.2869C32.7309 46.4187 32.9134 46.545 32.8872 46.6429C32.8112 46.9264 32.561 46.8869 32.1223 46.5153C31.7773 46.2408 31.4148 45.9887 31.0373 45.7605C30.3729 45.3615 29.9954 44.9896 30.4972 45.229C30.6105 45.2805 30.7211 45.3378 30.8285 45.4007C30.8785 45.4257 30.9332 45.4404 30.989 45.4437C31.164 45.5201 31.3232 45.6283 31.4584 45.7628C31.7453 45.9778 32.0611 46.1517 32.3964 46.2793L32.3833 46.2869ZM32.0728 45.0435C32.2758 45.1878 32.4951 45.3077 32.7261 45.4009C32.7945 45.4274 32.8553 45.4701 32.9034 45.5254C32.9514 45.5806 32.9852 45.6467 33.0019 45.7178C33.075 46.0247 33.056 46.1578 32.9483 46.0626C32.5187 45.6644 32.0606 45.2979 31.5775 44.9661C31.5102 44.948 31.5019 44.8961 31.5548 44.8439C31.6076 44.7918 31.8223 44.8604 32.0859 45.036L32.0728 45.0435ZM30.2305 9.61242C30.3737 9.92702 30.3574 10.2984 30.2 10.3888C30.0987 10.5181 30.0188 10.6626 29.9632 10.817C29.4371 11.8551 28.8258 12.848 28.1357 13.7857C28.0297 13.9097 27.9361 14.0438 27.8564 14.186C27.4678 14.7311 27.0258 15.2363 26.5367 15.6942C26.2416 15.9466 26.213 15.9499 26.1322 15.7128C26.057 15.5109 26.0351 15.2932 26.0687 15.0806C26.1024 14.8681 26.1904 14.6678 26.3242 14.4992C26.4758 14.2856 26.8158 13.7414 27.0854 13.2943C27.6634 12.237 28.3601 11.2486 29.1622 10.3482L30.0849 9.28611L30.2305 9.61242ZM30.025 7.06578C30.1772 7.71977 30.0173 8.12996 29.3166 8.88138C29.0807 9.12327 28.8572 9.37687 28.6469 9.64116C28.5136 9.84132 28.3678 10.0329 28.2102 10.2147C27.9068 10.5355 27.6714 10.9139 27.5181 11.3275C27.5112 11.3533 27.408 11.4693 27.2544 11.5662C27.1602 11.6264 27.0816 11.7079 27.0249 11.8041C26.9683 11.9002 26.9353 12.0084 26.9285 12.1198C26.8947 12.3703 26.8332 12.4754 26.7349 12.4491C26.6365 12.4227 26.4946 12.6002 26.3897 12.8262C25.9899 13.6969 25.9519 13.7143 25.8768 13.0423C25.8368 12.6946 25.8572 12.3907 25.9186 12.3685C26.1137 12.1417 26.2721 11.8859 26.3881 11.6103C26.5549 11.259 26.7593 10.9266 26.9977 10.619C27.1219 10.4912 27.2219 10.3421 27.2932 10.1789C27.3346 10.0243 28.9571 7.77961 29.6319 6.93839L29.9236 6.57456L30.025 7.06578ZM23.2002 9.19822C23.1744 8.94269 23.4522 8.71328 23.9099 8.62046C24.2164 8.55342 24.2941 8.57423 24.4742 8.77166C24.5272 8.82555 24.5689 8.88939 24.5968 8.95948C24.6247 9.02957 24.6382 9.10452 24.6367 9.17985C24.5759 9.40665 24.1497 9.4858 23.8598 9.32525C23.7925 9.28763 23.7179 9.2649 23.641 9.25861C23.5642 9.25233 23.487 9.26258 23.4146 9.28877C23.2741 9.37819 23.2302 9.35542 23.2133 9.19068L23.2002 9.19822ZM25.8036 9.52563C26.0618 8.40386 26.4904 7.32825 27.0745 6.33594C27.3651 5.78955 27.6658 5.18512 27.7366 4.9831C27.8185 4.76307 27.9441 4.56185 28.106 4.3915C28.3018 4.19455 28.4741 3.97557 28.6193 3.739C28.7733 3.49166 28.9639 3.26897 29.1847 3.0784L29.4898 2.85076L29.5512 3.24291C29.5702 3.39901 29.6053 3.5528 29.6557 3.70185C29.7855 3.98679 29.8337 4.30179 29.7947 4.61195C29.7775 4.6662 29.7715 4.72347 29.7773 4.78014C29.7832 4.83681 29.8006 4.89166 29.8285 4.94141C29.9973 5.11922 29.8419 5.4091 29.1785 6.18708C28.9277 6.46402 28.7012 6.76188 28.5016 7.07744C28.4603 7.17883 28.3868 7.26393 28.2924 7.31973C28.1284 7.41392 27.7684 7.90857 26.2626 10.0906C25.5346 11.1717 25.4504 11.0718 25.8167 9.51809L25.8036 9.52563ZM22.6051 16.5964C22.5131 16.4348 22.3883 16.294 22.2386 16.1833C21.8723 15.8982 21.5596 15.5506 21.3151 15.1569C20.7644 14.4222 20.1411 13.7443 19.4546 13.1336C19.4384 13.13 19.423 13.1231 19.4095 13.1134C19.3959 13.1037 19.3845 13.0914 19.3758 13.0773C19.3672 13.0631 19.3615 13.0473 19.3592 13.0309C19.3568 13.0145 19.3578 12.9977 19.3621 12.9817C19.3703 12.9512 19.3664 12.9186 19.3511 12.8908C19.3358 12.863 19.3103 12.8422 19.28 12.8326C18.9915 12.5754 18.734 12.2858 18.5125 11.9696C17.8054 11.0674 16.542 9.50795 16.3591 9.32083C16.2612 9.13499 16.2025 8.93125 16.1865 8.72215L16.1252 8.24715L16.6967 8.76493C16.9302 8.96544 17.1529 9.17818 17.3638 9.40222C17.9715 10.1783 18.1668 10.4019 18.26 10.4269C18.3567 10.4858 18.4322 10.5737 18.4757 10.678C18.5892 10.8619 18.7329 11.0256 18.9009 11.1621C19.1938 11.4472 19.451 11.7666 19.667 12.1132C19.9526 12.6385 20.3053 13.1249 20.7164 13.56C21.1971 14.0743 21.7422 14.5248 22.3381 14.9006C22.5763 14.9644 22.5615 14.3362 22.3185 14.0004C22.0069 13.6351 21.6762 13.2865 21.3277 12.956C20.9391 12.588 20.5844 12.186 20.2679 11.7549C20.0575 11.4341 19.8215 11.1307 19.5622 10.8476C19.322 10.5843 19.0221 10.2333 18.8934 10.0717C18.6592 9.80878 18.4115 9.55802 18.1514 9.32045C17.3892 8.66152 16.8235 7.80652 16.5164 6.8493C16.366 6.00242 16.3963 5.97189 16.788 6.51881C16.911 6.71557 17.0702 6.8875 17.257 7.02564C17.4168 7.14947 17.547 7.30703 17.6384 7.48693C18.014 8.04859 18.447 8.57011 18.9304 9.04306C19.1285 9.25635 19.8384 10.1482 20.1438 10.5615C20.2698 10.7333 20.5255 11.0836 20.706 11.3419C21.1104 11.9033 21.6157 12.0884 21.6765 11.6959C21.6838 11.46 21.6084 11.2288 21.4632 11.0421C21.1299 10.53 20.7417 10.0555 20.3054 9.62692C20.2537 9.61305 20.1726 9.48082 20.1294 9.33115C20.0023 9.08112 19.8259 8.85913 19.6107 8.67842C19.2982 8.38369 19.0132 8.06133 18.759 7.71539C18.5327 7.4006 18.2138 7.01682 18.0557 6.81978C17.1574 5.84431 16.363 4.62603 16.2526 4.04399C16.2005 3.79515 16.1736 3.54174 16.1723 3.28766C16.1754 3.07753 16.1454 2.86817 16.0833 2.66718C16.0198 2.40709 15.9867 2.19931 16.0178 2.20763C16.1588 2.3741 16.2814 2.55516 16.3836 2.74764C16.4998 2.97124 16.6662 3.16521 16.8698 3.31439C16.9211 3.33359 16.966 3.36656 16.9995 3.40969C17.033 3.45283 17.0538 3.5044 17.0596 3.5586C17.4668 4.26453 17.9559 4.92035 18.517 5.51253C18.7221 5.77461 18.9034 6.05429 19.0588 6.34827C19.2173 6.66409 19.4271 6.95176 19.6796 7.19966C20.0949 7.74495 20.457 8.3285 20.7607 8.94232C21.5199 10.2507 21.7504 10.6329 21.9327 10.6154C22.1149 10.5979 22.1736 10.5032 22.1885 10.3027C22.2033 10.1023 22.2631 10.0244 22.3562 10.0493C22.5615 10.7091 22.6526 11.3986 22.6256 12.0883C22.6205 12.2336 22.6357 12.379 22.6707 12.5203C22.725 12.8173 22.7576 13.1177 22.7683 13.4193C22.7733 13.6777 22.8067 13.935 22.868 14.1863C23.0051 14.7449 23.0678 15.319 23.0542 15.8936C23.0597 16.2044 23.08 16.5634 23.0976 16.6841C23.1152 16.8049 23.0423 16.8903 22.8819 16.8473C22.8216 16.8262 22.7667 16.792 22.7211 16.7474C22.6755 16.7027 22.6404 16.6485 22.6182 16.5888L22.6051 16.5964ZM25.1464 31.9617C25.141 31.6508 25.1196 31.2749 25.1075 31.1336C25.0955 30.9922 25.0779 30.6229 25.0776 30.3135C25.0208 29.2888 24.8936 28.269 24.6969 27.2613C24.5699 26.6072 24.512 25.9418 24.5242 25.2759C24.5051 24.5797 24.441 23.8852 24.3322 23.1969C24.2408 22.6484 24.1797 22.0953 24.1491 21.5402C24.1531 21.3109 24.1248 21.082 24.0649 20.8603C23.9466 19.9773 23.9181 19.0849 23.9796 18.1967C23.9732 17.9775 23.9462 17.7595 23.8989 17.5453C23.8461 17.2612 23.8193 16.9729 23.8189 16.6841C23.8207 15.8246 23.7266 14.9675 23.5383 14.1283C23.474 14.0189 23.4477 13.8914 23.4634 13.7658C23.4764 13.5408 23.4546 13.315 23.3986 13.0965C23.3373 12.8106 23.3131 12.5182 23.3266 12.2264C23.3414 12.026 23.358 11.5498 23.3536 11.1729C23.3404 10.9407 23.3471 10.7077 23.3737 10.4767C23.8107 10.4378 24.2497 10.4245 24.6883 10.4367C24.6883 10.4367 24.7932 11.2051 24.9011 12.1069C25.0091 13.0087 25.1587 14.0653 25.2281 14.4485C25.2925 14.7165 25.3269 14.9907 25.3308 15.2661C25.373 16.121 25.4848 16.9713 25.665 17.8085C25.7185 18.0269 25.7593 18.2481 25.7871 18.471C25.7981 18.6861 25.8203 18.9004 25.8537 19.1131C25.9006 19.4351 25.9492 19.8128 25.9613 19.9541L26.0578 20.6706C26.124 21.1689 26.3209 23.0227 26.3168 23.121C26.3084 23.887 26.3497 24.6528 26.4404 25.4137C26.5063 26.0169 26.569 26.7354 26.5673 27.0111C26.5798 27.4646 26.6217 27.9169 26.6927 28.3652C26.8412 29.2853 26.9203 30.2151 26.9296 31.1467C26.9099 31.3952 26.9309 31.6452 26.992 31.8871C27.0432 32.0256 27.0605 32.1742 27.0423 32.3205C27.0395 32.5988 27.0713 32.8764 27.1371 33.147C27.2007 33.4025 27.2367 33.664 27.2444 33.927C27.2821 34.6274 27.3936 35.322 27.5769 35.9995C27.6581 36.2758 27.7047 36.5611 27.7155 36.8487C27.7472 37.476 27.9834 39.4729 28.0383 39.7859C28.0743 39.9191 28.0806 40.0584 28.0565 40.1941C28.0471 40.5074 28.0748 40.8208 28.1392 41.1278C28.2054 41.5046 28.248 41.885 28.2668 42.2669C28.2661 42.4767 28.2847 42.8628 28.3078 43.1287C28.328 43.3722 28.401 43.6085 28.5217 43.8213C28.6798 44.0183 28.6691 44.0376 28.3529 44.1407C27.8604 44.3015 26.9461 44.1726 26.8343 43.9271C26.711 43.5261 26.609 43.1188 26.5286 42.7072C26.4182 42.1251 26.243 41.7025 26.1929 41.7444C26.1428 41.7862 26.1173 41.7572 26.2026 41.7083C26.2878 41.6593 26.2896 41.1349 26.1437 40.2506C26.1011 39.9759 26.0789 39.6986 26.0775 39.4207C26.086 39.2503 26.0721 39.0794 26.0362 38.9124C25.9973 38.7471 25.9811 38.5774 25.9882 38.4079C25.9699 37.9948 25.9225 37.5833 25.8465 37.1766C25.4916 35.1258 25.1478 32.6194 25.1337 31.9472L25.1464 31.9617ZM21.5294 62.8969C20.8094 62.809 20.7735 62.7773 19.5453 61.2935C18.3171 59.8098 17.1393 57.8479 17.9849 58.6269C18.154 58.7827 18.2189 58.7891 18.3145 58.66C18.5071 58.3967 19.2671 58.6666 19.4855 59.0732C19.5744 59.2137 19.6268 59.3739 19.638 59.5394C19.6187 59.6116 19.7653 59.789 19.9672 59.926C20.1691 60.063 20.3006 60.2142 20.2571 60.2523C20.4591 60.6912 20.7237 61.0989 21.0426 61.4627C22.2645 63.0939 22.2249 62.9728 21.5166 62.8825L21.5294 62.8969ZM24.9794 63.523C24.8914 63.4994 24.676 63.4749 24.5048 63.4511C23.3434 63.3333 23.262 63.3059 22.8755 62.9261C22.6591 62.719 22.4948 62.5037 22.5086 62.4522C22.5224 62.4006 22.4262 62.3251 22.2967 62.2904C22.2338 62.2761 22.1761 62.2444 22.1304 62.1989C22.0847 62.1534 22.0527 62.096 22.0382 62.0333C21.9673 61.8473 21.8456 61.6846 21.6869 61.5635C21.3266 61.2515 20.0647 59.1897 20.1906 59.113C20.3166 59.0362 20.4029 59.1698 20.5624 59.2789C20.7218 59.3879 20.9427 59.5576 21.061 59.6335C21.1794 59.7094 21.254 59.7625 21.0735 59.5871C20.7912 59.2739 20.941 59.1704 21.4625 59.3157C21.984 59.4609 22.0164 59.4641 22.8277 60.6814C23.2705 61.3961 23.7875 62.0624 24.3703 62.6692C25.1755 63.5369 25.1868 63.5565 24.9666 63.5086L24.9794 63.523ZM26.7051 63.7092C26.4702 63.7195 26.2359 63.6754 26.0206 63.5804C25.8054 63.4853 25.6151 63.3419 25.4647 63.1614C25.2858 63.0003 25.1299 62.8153 25.0016 62.6119C24.9004 62.44 24.7679 62.2883 24.611 62.1647C24.4225 61.9983 24.2592 61.8057 24.1261 61.5928C23.9961 61.3796 23.8343 61.1872 23.6464 61.0223C23.2105 60.5971 22.8749 60.0807 22.6643 59.5106C22.6919 59.4075 23.0905 59.4314 24.1798 59.5907C24.7724 59.6777 24.9105 59.7423 25.1682 60.0434C25.5862 60.5406 25.9596 61.0732 26.2843 61.6352C26.3885 61.846 26.5234 62.0404 26.6846 62.2121C26.8129 62.3182 26.9194 62.4481 26.9983 62.5945C27.1965 62.878 27.4184 63.1445 27.6616 63.3909C28.1568 63.8827 28.1451 63.8851 26.6924 63.6947L26.7051 63.7092ZM30.4513 63.934C30.2695 63.9337 30.0881 63.9183 29.9088 63.8881C29.8104 63.8617 29.5156 63.8435 29.2533 63.8285C28.7052 63.8032 28.4509 63.6135 27.9056 62.9149C27.7841 62.7313 27.6292 62.5717 27.4491 62.4445C27.4058 62.4263 27.3682 62.3968 27.3402 62.3592C27.3123 62.3215 27.2949 62.2772 27.29 62.2306C27.1184 61.9018 26.898 61.6005 26.636 61.3372C26.3948 61.0994 26.189 60.8284 26.0248 60.5326C26.0387 60.4811 25.9721 60.419 25.8737 60.3927C25.6511 60.333 25.5113 59.7984 25.7315 59.8463C25.8144 59.8685 25.9852 59.9143 26.1271 59.9026C27.8511 60.1159 27.7865 60.0876 28.3404 60.8161C28.6192 61.1836 29.0303 61.7412 29.2542 62.0443C29.616 62.579 30.0451 63.0653 30.5311 63.4913C30.8755 63.6554 30.8037 63.9235 30.4386 63.9196L30.4513 63.934ZM32.6171 63.7409C32.4523 63.7925 32.2793 63.8136 32.1067 63.803C31.649 63.813 31.56 63.7725 31.121 63.34L30.2403 62.4853C29.5393 61.7734 28.9265 60.9804 28.415 60.1234C28.4247 60.0873 28.6225 60.074 28.851 60.091C29.0263 60.1087 29.196 60.1636 29.3484 60.2521C29.5008 60.3406 29.6325 60.4606 29.7345 60.604L30.5082 61.4025C30.6856 61.5846 30.8506 61.7783 31.002 61.9823C31.0981 62.1268 31.2147 62.2566 31.3482 62.3678C31.6043 62.5987 31.8436 62.8475 32.0643 63.1121C32.265 63.2949 32.4469 63.4973 32.6071 63.7161L32.6171 63.7409ZM33.8027 63.7271C33.5525 63.7706 33.4165 63.7397 33.3627 63.6092C33.3089 63.5219 33.227 63.4551 33.1304 63.4199C32.8848 63.243 32.6646 63.0335 32.4761 62.7971C32.1538 62.4304 31.8094 62.0835 31.4449 61.7584C31.1122 61.459 30.8064 61.1312 30.5311 60.7788C30.1252 60.2225 30.1252 60.2225 30.977 60.274C31.1103 60.2756 31.2407 60.3126 31.355 60.3811C31.4693 60.4496 31.5632 60.5471 31.6273 60.6637C32.1763 61.3788 32.7657 62.0624 33.3925 62.7112C33.5798 62.8899 33.7503 63.0854 33.9018 63.2951L34.1627 63.6468L33.8027 63.7271ZM16.5182 56.6042C16.3943 56.466 16.3985 56.4506 16.5486 56.4908C16.6003 56.5027 16.6489 56.5255 16.691 56.5578C16.7331 56.59 16.7677 56.6309 16.7926 56.6777C16.8537 56.8432 16.6984 56.8016 16.5054 56.5897L16.5182 56.6042ZM35.8757 63.487C36.0824 63.7303 36.1087 63.7152 35.4246 63.7418C35.1878 63.7557 33.8328 62.8899 33.8646 62.7714C33.8694 62.7429 33.863 62.7136 33.8467 62.6896C33.8303 62.6657 33.8054 62.649 33.777 62.6429C33.6449 62.56 33.5345 62.4471 33.4546 62.3135C33.3428 62.1509 32.9773 61.6718 32.6305 61.2474C32.3876 60.9723 32.1823 60.6665 32.0197 60.3379C32.0391 60.2657 32.2296 60.2174 32.5254 60.2524C32.9796 60.2968 33.098 60.3727 33.5538 60.8871C33.7385 61.1172 33.9519 61.3229 34.1888 61.4992C34.2196 61.5074 34.2459 61.5271 34.2624 61.5542C34.279 61.5813 34.2844 61.6136 34.2775 61.6445C34.261 61.7064 34.3945 61.8913 34.5778 62.0564C34.7151 62.1734 34.8378 62.3065 34.9432 62.4527C35.0194 62.574 35.1136 62.6831 35.2228 62.7762C35.3482 62.889 35.4636 63.0124 35.5679 63.1449C35.6465 63.1826 35.7753 63.3441 35.8757 63.487ZM57.8498 50.4367C57.8878 50.4193 57.9969 50.5093 58.0962 50.6354C58.1956 50.7614 58.2526 50.8595 58.0752 50.8175C57.8978 50.7755 57.7294 50.4928 57.854 50.4213L57.8498 50.4367ZM57.5325 52.0975C57.2581 51.9411 57.0648 51.5854 57.2091 51.5026C57.3534 51.4197 57.4114 51.6175 57.5352 51.8385C57.7533 52.1842 57.7489 52.2217 57.5366 52.082L57.5325 52.0975ZM57.2035 52.5176C57.3191 52.6038 57.5427 52.7632 57.706 52.8787C57.8692 52.9943 57.9731 53.1658 57.9344 53.3101C57.8958 53.4544 57.875 53.5317 57.561 53.1713C57.394 52.9664 57.1928 52.7025 57.1193 52.5834C57.0458 52.4643 57.0226 52.3642 57.2076 52.5021L57.2035 52.5176ZM56.5911 53.7678C56.8696 53.7429 56.871 53.7378 56.6926 53.5132C56.568 53.3674 56.4042 53.2602 56.2204 53.2044C55.9098 53.1212 55.8332 52.9515 56.0006 52.7201C56.168 52.4887 56.341 52.5682 56.9 53.2981C57.3114 53.8337 57.4042 54.0464 57.3486 54.3575C57.2778 54.8081 57.1556 54.8085 56.6959 54.3704C56.2362 53.9324 56.2594 53.7839 56.5952 53.7523L56.5911 53.7678ZM55.16 54.6771C55.5276 54.7756 55.5262 54.5321 55.1545 54.2833C54.7828 54.0346 54.789 53.97 55.1062 53.7179C55.3182 53.5482 55.3517 53.5682 55.9401 54.2507C56.2731 54.6438 56.6199 55.0683 56.7076 55.1967C56.8843 55.4485 56.8846 55.4265 56.5874 55.8937L56.3689 56.233L55.8585 55.715C55.6008 55.4598 55.3581 55.1901 55.1317 54.907C54.9194 54.6016 54.9156 54.595 55.1641 54.6616L55.16 54.6771ZM53.8284 54.9666C53.6838 54.74 53.6914 54.6703 53.8433 54.6005C53.9951 54.5307 54.0652 54.5384 55.4732 56.0758C55.721 56.3522 55.8749 56.6475 55.8528 56.73C55.7368 57.163 55.6094 57.162 55.1504 56.7628C54.9715 56.6381 54.8256 56.472 54.7253 56.2787C54.7391 56.2272 54.6828 56.1679 54.6 56.1457C54.4509 56.055 54.3226 55.934 54.2235 55.7907C54.0261 55.5334 54.0257 55.4725 54.2021 55.4148C54.3785 55.3571 54.3775 55.3403 54.1977 55.2866C54.0455 55.213 53.9185 55.0963 53.8325 54.9512L53.8284 54.9666ZM52.0787 55.9674C52.2302 55.9196 52.2399 55.8835 52.1353 55.756C52.0308 55.6285 52.0867 55.5441 52.5064 55.303C52.6989 55.1753 52.9118 55.081 53.136 55.0242C53.1981 55.0408 53.1988 55.0797 53.1529 55.1061C53.107 55.1324 53.606 55.9622 54.0467 56.3676C54.2974 56.6131 54.5312 56.8751 54.7466 57.1518C55.1338 57.6533 55.1362 57.665 54.8597 57.8064C54.7011 57.8857 54.5625 57.9996 54.4541 58.1397C54.2156 58.5122 53.9633 58.3562 52.9459 57.1831C52.1653 56.3275 51.9431 55.9973 52.0829 55.9519L52.0787 55.9674ZM50.1299 56.7379C50.249 56.7698 50.3453 56.6796 50.3364 56.5888C50.3274 56.498 50.4965 56.3224 50.7168 56.2046L51.1075 55.9888L51.6541 56.5994C51.9478 56.9322 52.4789 57.5386 52.8285 57.9527L53.4721 58.6776L53.0238 58.9221C52.641 59.1289 52.5499 59.1376 52.3863 58.9612C52.2991 58.8614 52.1924 58.7802 52.0729 58.7226C51.4358 58.2934 50.856 57.7853 50.3473 57.2105C50.0181 56.824 49.9653 56.7104 50.1341 56.7225L50.1299 56.7379ZM48.1222 57.3767L48.4611 57.2299C49.4151 56.8171 49.3775 56.8125 49.822 57.3902C50.1869 57.8165 50.5882 58.2105 51.0213 58.5678C51.5665 59.0178 51.795 59.2834 51.7629 59.424C51.7308 59.5645 51.6559 59.6163 51.5989 59.601C51.542 59.5858 51.4329 59.6615 51.3583 59.7741C51.0224 60.3029 50.2777 59.8105 48.6878 58.0199L48.1222 57.3767ZM47.1633 57.7661C47.4853 57.6204 47.4995 57.6297 48.0551 58.1653C48.3623 58.4686 48.6808 58.7915 48.7557 58.9055C49.0677 59.2663 49.4084 59.6014 49.7744 59.9077C50.2245 60.299 50.2241 60.4038 49.7806 60.506C49.3371 60.6081 48.7452 60.2286 47.8959 59.5259C46.6193 58.3883 46.4895 58.0441 47.1633 57.7661ZM45.3063 58.7326C45.5548 58.7163 45.5693 58.7036 45.3967 58.6021C45.2242 58.5006 45.2356 58.4374 45.2822 58.367C45.4047 58.1788 46.0122 58.314 46.1771 58.5681C46.8137 59.2649 47.5147 59.9004 48.2709 60.4661C48.3806 60.5132 48.4684 60.5999 48.5166 60.7087C48.5894 60.8719 48.4987 60.9415 48.0013 61.0789L47.4021 61.2443L46.6001 60.5101C46.1754 60.1219 45.7794 59.7037 45.415 59.2589C45.0381 58.7601 45.0278 58.7574 45.3063 58.7326ZM43.6234 58.8009L44.2874 58.6419L44.626 59.1801C44.8477 59.5273 45.116 59.8427 45.4235 60.1175C45.6942 60.3528 45.949 60.6056 46.1862 60.8743C46.3055 61.0387 46.4572 61.1772 46.6321 61.281C46.6646 61.2882 46.6931 61.3077 46.7115 61.3353C46.73 61.3629 46.737 61.3965 46.7311 61.4291C46.7227 61.4606 46.7021 61.4874 46.6738 61.5036C46.6455 61.5199 46.6119 61.5242 46.5803 61.5158C46.3531 61.5261 46.129 61.5723 45.9165 61.6528C45.6906 61.7327 45.4527 61.7735 45.2128 61.7736C44.8363 61.5688 44.4947 61.3057 44.2009 60.9943C44.1229 60.9126 43.8503 60.6462 43.6018 60.4139C43.3423 60.1624 43.1012 59.8929 42.8802 59.6073C42.5327 59.144 42.619 59.029 43.6078 58.7968L43.6234 58.8009ZM39.0676 60.1271C38.5499 59.9883 38.7322 59.7223 39.4332 59.6118L40.9981 59.3626L41.8803 59.2178L42.2724 59.6598C42.9221 60.3926 43.617 61.0844 44.353 61.7311C44.6605 61.9295 44.6032 62.0191 44.0889 62.1576C43.8945 62.2039 43.708 62.2787 43.5356 62.3795C43.2985 62.5811 41.2883 60.4127 41.3836 60.057C41.4347 59.8663 40.9598 59.5678 40.6837 59.6043C40.284 59.6464 40.4441 59.96 41.5174 61.2144C42.1196 61.9282 42.6106 62.5183 42.6065 62.5338C42.1873 62.7106 41.7349 62.7965 41.2794 62.7859C40.79 62.7487 40.6757 62.6573 39.6425 61.502C38.9171 60.6889 38.8495 60.5271 39.197 60.4932C39.5446 60.4592 39.3834 60.2117 39.0521 60.1229L39.0676 60.1271ZM36.5946 60.3483C36.7551 60.3913 36.8145 60.3354 36.8135 60.1529C36.8125 59.9703 36.8825 59.8951 37.2998 59.8909C37.8576 59.8802 37.852 59.9008 38.8887 61.2503C39.0402 61.4511 39.4153 61.8942 39.7335 62.2391C39.9325 62.4563 40.1131 62.6895 40.2736 62.9363C40.0814 63.005 39.8824 63.0535 39.6799 63.081C39.0062 63.1933 38.8074 63.1069 38.2173 62.4516C38.0092 62.2135 37.6548 61.8589 37.4408 61.6634C37.1748 61.4059 36.9346 61.1232 36.7237 60.8194C36.4262 60.3971 36.3989 60.3125 36.575 60.3596L36.5946 60.3483ZM35.0681 60.1437L35.6314 60.1123L36.1663 60.8081C36.5005 61.2439 36.8621 61.6581 37.2489 62.0484C37.4574 62.2449 37.6533 62.4543 37.8355 62.6752C37.9118 62.8017 38.0009 62.92 38.1016 63.0283L38.3249 63.2925L37.6187 63.4016C36.9484 63.5424 36.9329 63.5383 36.4884 63.2092C36.1823 62.9745 35.8976 62.7134 35.6377 62.4288C35.493 62.2467 35.3262 62.0833 35.141 61.9422C35.0117 61.8356 34.9092 61.7002 34.8419 61.5471C34.7721 61.3947 34.6673 61.2606 34.5361 61.1558C34.5075 61.1453 34.4841 61.1242 34.4707 61.097C34.4573 61.0697 34.455 61.0384 34.4643 61.0095C34.4809 60.9477 34.5724 60.9169 34.6707 60.9433C34.9658 61.0223 34.9199 60.8001 34.5866 60.5119C34.2532 60.2237 34.2666 60.1942 35.0525 60.1396L35.0681 60.1437ZM1.77063 45.3767C1.8024 45.2581 1.84002 45.2627 1.94665 45.4239C1.98656 45.4832 2.01415 45.5499 2.02778 45.6199C2.0414 45.69 2.04079 45.7621 2.02599 45.8318C2.00972 45.8813 2.00402 45.9336 2.00924 45.9854C2.01447 46.0373 2.03051 46.0874 2.05633 46.1328C2.1433 46.2224 2.18225 46.719 2.10459 46.6982C1.91729 46.2777 1.79927 45.8301 1.7551 45.3725L1.77063 45.3767ZM1.09146 51.0176C0.886823 50.7252 1.01666 50.1578 1.27378 50.3372C1.40525 50.4763 1.4917 50.6516 1.52188 50.8401C1.57052 51.0521 1.6668 51.2104 1.73859 51.191C1.81039 51.1716 1.85248 51.2215 1.82072 51.3401C1.81889 51.536 1.87558 51.7281 1.98357 51.892C2.39421 52.6373 1.88242 52.1245 1.09146 51.0176ZM3.93617 54.0891C3.37574 53.2815 1.73038 50.559 1.75248 50.4765C1.71795 50.3122 1.65489 50.1551 1.56615 50.0123C1.47651 49.8719 1.41662 49.7149 1.39017 49.5508C1.41613 49.5098 1.43317 49.4639 1.4402 49.4159C1.44723 49.368 1.44409 49.3191 1.43099 49.2724C1.41789 49.2257 1.39511 49.1822 1.36414 49.1448C1.33316 49.1073 1.29467 49.0767 1.25114 49.055C0.966756 48.8738 0.907764 48.5762 0.996212 47.7492C1.01403 47.52 1.04366 47.2919 1.08499 47.0658C1.08499 47.0658 1.23751 47.3663 1.4059 47.7319C1.57429 48.0974 1.66296 48.4085 1.56114 48.4364C1.45932 48.4644 1.50037 48.6632 1.67152 49.0185L2.29473 50.213C2.489 50.5855 2.61737 50.8519 2.57078 50.8394C2.52418 50.827 2.58664 50.9873 2.71984 51.1943C2.80894 51.3579 2.93428 51.4992 3.08634 51.6074C3.15882 51.6268 3.17883 51.6764 3.1274 51.7234C3.07597 51.7704 3.35168 52.3359 3.62398 52.5415C3.74785 52.6528 3.8291 52.8034 3.8538 52.9677C3.90278 53.3233 4.07668 53.7511 4.19058 53.7816C4.33519 53.9324 4.45368 54.106 4.54119 54.2954C4.65937 54.5273 4.81449 54.7387 5.00052 54.9212C5.16514 55.0316 5.21791 55.311 5.0626 55.2694C4.62681 54.9378 4.24659 54.5394 3.93617 54.0891ZM6.50693 56.2364C6.2318 56.0302 5.99325 55.7796 5.80119 55.4949L5.35017 54.7553C5.26627 54.5979 5.14696 54.4619 5.00161 54.358C4.93431 54.34 4.92603 54.2881 4.97884 54.2359C4.76584 53.6039 4.47454 53.0006 4.11169 52.4401C2.71066 49.9654 2.72204 49.985 2.94983 50.046C3.31117 50.304 3.64063 50.6037 3.93133 50.9388C4.33488 51.3735 4.76417 51.7836 5.21687 52.1672C5.46126 52.3572 5.65996 52.5992 5.79837 52.8755C6.17744 53.7295 6.60475 54.5615 7.07824 55.3675C7.26528 55.7049 7.63797 56.302 7.89955 56.6925C8.16113 57.083 8.32504 57.4031 8.2681 57.3879C7.66485 57.042 7.08358 56.6593 6.52764 56.242L6.50693 56.2364ZM10.2163 58.5452C9.76195 58.2911 9.39685 57.9039 9.17065 57.4364C9.00346 57.1241 8.79269 56.837 8.54464 56.5836C8.41004 56.5475 8.31238 56.3943 7.60255 55.171C7.16222 54.4121 7.06355 53.9934 7.37968 54.2218C7.57122 54.356 7.63613 54.1966 7.49327 53.9428C7.3504 53.6891 7.54022 53.7676 8.11761 54.1599C8.38155 54.3303 8.59753 54.565 8.74501 54.8418C8.81327 55.0258 8.89744 55.2036 8.99657 55.3732C9.07726 55.4909 9.15001 55.6137 9.21432 55.7409C9.2685 55.8494 9.41377 56.1148 9.53386 56.3293C9.65912 56.5452 10.0898 57.2573 10.4928 57.9067C10.8959 58.5561 11.134 59.0342 11.018 58.97C10.9021 58.9058 10.549 58.7117 10.237 58.5508L10.2163 58.5452ZM13.6279 60.288C12.5715 59.8613 12.0265 59.3065 11.1931 57.923C11.0542 57.6692 10.8969 57.4258 10.7225 57.1947C10.5893 57.0288 10.4716 56.8512 10.3708 56.6641C10.2648 56.4603 10.1274 56.2743 9.96359 56.113C9.917 56.1005 9.84107 55.9697 9.79277 55.8186C9.71238 55.5595 9.73965 55.5613 10.6436 55.8532L11.5771 56.1586L12.161 57.1272C12.4775 57.665 13.0793 58.6494 13.4872 59.3222L14.2322 60.5384L13.6279 60.288ZM15.3208 60.9074C14.5511 59.9485 13.8675 58.9242 13.2778 57.8463C12.7009 56.852 12.6353 56.641 13.0743 57.1564C13.2924 57.4193 13.2976 57.4207 13.3007 57.1398C13.3038 56.8588 13.3194 56.863 13.9851 57.0911L14.665 57.3285L15.4622 58.7023C15.9101 59.4742 16.4992 60.4442 16.7759 60.8609C16.9681 61.1167 17.1324 61.3923 17.2659 61.6827C17.2483 61.8106 15.5965 61.1415 15.3263 60.8868L15.3208 60.9074ZM18.6216 62.173C18.1121 61.894 17.7071 61.4578 17.4676 60.9302C17.2685 60.5811 17.0374 60.251 16.7774 59.9442C16.7256 59.9303 16.6221 59.7368 16.5452 59.5063C16.4682 59.2757 16.3595 59.0808 16.3078 59.067C16.141 58.8998 16.0055 58.7045 15.9074 58.4901L15.6159 57.9424L15.9613 57.9576C16.6485 57.9816 16.7835 58.0785 17.3146 58.9335C17.8716 59.8913 18.4928 60.8109 19.1739 61.6857C19.3714 61.9133 19.5514 62.1554 19.7123 62.41C19.7026 62.529 19.1093 62.4032 18.6271 62.1524L18.6216 62.173Z" fill="#F6C8F9"/>
<path d="M17.0032 48.9333C16.6584 48.6255 16.2574 48.2584 16.1059 48.1405C15.9615 48.0089 15.8378 47.8566 15.7387 47.6885C15.6863 47.5704 15.5899 47.4773 15.4699 47.4286C15.2197 47.2722 14.9967 47.0763 14.8097 46.8484C13.7354 45.6601 14.0179 43.8188 15.4687 42.5667C15.9064 42.1384 16.4233 41.7985 16.9909 41.5658C17.0228 41.5741 17.0564 41.573 17.0877 41.5628C17.1189 41.5526 17.1466 41.5336 17.1673 41.5081C17.7996 41.1888 18.4668 40.9431 19.1557 40.7758C19.7948 40.684 20.4396 40.6371 21.0855 40.6354C21.7389 40.6335 22.3916 40.5963 23.0407 40.524C23.2804 40.4761 23.5254 40.46 23.7694 40.4761C24.1007 40.5649 24.3175 40.17 24.3759 39.3514C24.4182 39.0407 24.4051 38.7249 24.3373 38.4185C24.2666 38.289 23.9857 38.2193 23.2087 38.1161C22.0214 37.9232 20.8113 37.9178 19.623 38.1L18.6393 38.2508C18.4145 38.2815 18.1916 38.3251 17.9718 38.3813C17.8634 38.413 17.3878 38.49 16.8904 38.5445C16.0152 38.6655 15.1677 38.9355 14.3849 39.3427C14.2737 39.4103 14.1487 39.4523 14.0191 39.4657C13.7136 39.3838 12.3477 41.2719 11.9541 42.3266C11.6878 43.3615 11.5699 44.4292 11.6038 45.4977C11.6341 45.7987 11.6596 46.1591 11.6613 46.2976C11.6875 46.5286 11.7402 46.7559 11.8183 46.975C12.1999 48.22 12.8281 49.3765 13.6658 50.3763C14.5035 51.376 15.5337 52.1986 16.6953 52.7954C19.2182 54.1067 20.0261 54.384 24.0173 55.3098C27.7562 56.1624 31.3484 56.7548 31.8602 56.6047C31.9203 56.5876 32.6158 56.5806 33.3968 56.5855C34.5167 56.6131 35.6371 56.5795 36.7531 56.4849C36.8977 56.4628 37.2466 56.4237 37.5317 56.3952C38.6955 56.2504 39.8482 56.0296 40.9826 55.7343C41.2575 55.6065 41.5458 55.5096 41.8424 55.4453C43.0329 55.08 44.1267 54.4561 45.0452 53.6186C45.5773 53.0097 46.0136 52.3238 46.3393 51.5843C47.1217 49.5343 47.1984 48.7096 46.7827 46.8856C46.5672 45.7843 46.0466 44.7645 45.2799 43.9416C44.5843 42.9564 43.654 42.1584 42.5728 41.6197C40.6952 40.8782 38.7805 40.2343 36.8363 39.6904C34.7344 39.1272 32.0858 38.7821 31.0283 38.9186C30.2769 39.01 29.776 39.4504 29.9924 39.8233C30.0911 39.9934 29.9475 40.3637 29.7825 40.3582C29.6175 40.3526 29.6986 40.402 29.8215 40.4404C29.9444 40.4789 30.0106 40.5629 29.9913 40.6351C29.972 40.7072 30.3519 40.8422 31.3653 41.0364C34.1852 41.6075 36.9579 42.3911 39.6596 43.3804C40.7004 43.8038 41.654 44.4152 42.4723 45.1837C43.1365 45.6808 43.622 46.3782 43.8564 47.1718C44.0908 47.9654 44.0614 48.8127 43.7727 49.5872C43.5337 50.4223 43.0445 51.1642 42.3705 51.7141C42.1717 51.8356 41.9804 51.9689 41.7975 52.113C41.5155 52.2688 41.2149 52.3887 40.9028 52.47C40.6012 52.5498 40.3073 52.6559 40.0244 52.7871C39.4778 52.986 38.9175 53.146 38.348 53.266C37.4212 53.5104 36.4676 53.6408 35.5084 53.6542C34.8143 53.6561 34.142 53.6804 34.0129 53.7065C33.8306 53.7306 33.6453 53.7185 33.4676 53.6709C32.8135 53.5625 32.149 53.5328 31.4882 53.5825C30.402 53.5632 29.3199 53.4416 28.2563 53.2192C27.6978 53.1083 26.6959 52.9337 26.036 52.8287C24.6121 52.5757 23.2193 52.171 21.8816 51.6216C20.1376 50.9573 18.4954 50.0523 17.0032 48.9333ZM29.4796 55.1768C29.4712 55.2082 29.4505 55.235 29.4222 55.2513C29.394 55.2675 29.3603 55.2719 29.3288 55.2634C29.3104 55.2624 29.2925 55.2574 29.2764 55.2486C29.2603 55.2399 29.2463 55.2277 29.2355 55.2129C29.2247 55.1981 29.2173 55.1811 29.214 55.1631C29.2106 55.1451 29.2113 55.1266 29.2161 55.1089C29.2208 55.0913 29.2294 55.0749 29.2413 55.061C29.2532 55.0471 29.2681 55.0361 29.2849 55.0286C29.3016 55.0212 29.3198 55.0176 29.3382 55.0181C29.3565 55.0186 29.3745 55.0232 29.3909 55.0315C29.4216 55.0397 29.448 55.0594 29.4645 55.0865C29.481 55.1135 29.4864 55.1459 29.4796 55.1768ZM45.4328 50.3911C45.4347 50.2683 45.4669 50.1479 45.5267 50.0406C45.5785 49.9716 45.5836 50.0559 45.5284 50.2621C45.4731 50.4682 45.4024 50.5045 45.4328 50.3911Z" fill="white"/>
</svg>
