<svg width="32" height="32" viewBox="0 0 32 32" fill="none" xmlns="http://www.w3.org/2000/svg">
<mask id="mask0_915_9130" style="mask-type:alpha" maskUnits="userSpaceOnUse" x="5" y="2" width="22" height="27">
<path fill-rule="evenodd" clip-rule="evenodd" d="M13.9689 2.34933C13.9689 2.34933 13.9689 2.35185 16.0007 2.35185C18.0324 2.35185 18.0324 2.34933 18.0324 2.34933L18.0324 2.34701L18.0324 2.34291L18.0323 2.33688C18.0323 2.33382 18.0323 2.33334 18.0323 2.33334C18.0323 2.33334 18.0325 2.34337 18.0331 2.35886C18.0344 2.38991 18.0373 2.44781 18.0442 2.52867C18.058 2.69114 18.0873 2.9414 18.1484 3.24945C18.2721 3.87246 18.5173 4.68631 18.9934 5.48567C19.8659 6.95038 22.2378 8.7474 26.6673 8.7474L26.6673 13.0111C23.025 13.0111 19.8908 12.0142 18.0324 10.5687L18.0324 29L13.9689 29L13.9689 10.5687C12.1105 12.0142 8.97626 13.0111 5.33399 13.0111L5.33399 8.7474C9.76354 8.7474 12.1354 6.95038 13.0079 5.48567C13.484 4.6863 13.7292 3.87246 13.8529 3.24945C13.914 2.9414 13.9433 2.69114 13.9571 2.52867C13.964 2.44781 13.967 2.38991 13.9682 2.35886C13.9688 2.34337 13.969 2.33334 13.969 2.33334C13.969 2.33334 13.969 2.33382 13.969 2.33688L13.9689 2.34291L13.9689 2.34701L13.9689 2.34933Z" fill="url(#paint0_linear_915_9130)"/>
</mask>
<g mask="url(#mask0_915_9130)">
<path fill-rule="evenodd" clip-rule="evenodd" d="M28.482 1.96356L27.1595 1.24601L27.6223 1.10877L30.3287 2.08768L29.9034 2.2415L29.3444 2.03931L30.667 2.75686L30.2041 2.89411L28.1028 2.13405L30.66 3.40583L30.2041 3.54671L27.1451 2.44026L30.6532 4.05521L30.2041 4.19932L26.189 2.74702L30.6489 4.70587L30.2041 4.85193L25.2336 3.05406L30.6459 5.35718L30.2041 5.50453L24.2786 3.36127L30.6437 6.00886L30.2041 6.15714L23.324 3.66858L30.642 6.66077L30.2041 6.80975L22.3696 3.97597L30.6407 7.31283L30.2041 7.46235L21.4153 4.2834L30.6396 7.96501L30.2041 8.11496L20.4611 4.59088L30.6387 8.61726L30.2041 8.76757L19.5069 4.89837L30.638 9.26957L30.2041 9.42017L18.5529 5.2059L30.6373 9.92193L30.2041 10.0728L17.5989 5.51343L30.6368 10.5743L30.2041 10.7254L16.9629 5.93601L30.6365 11.2268L30.2053 11.3784L16.0961 6.33118L30.635 11.8789L30.2064 12.0314L15.5478 6.84216L30.6338 12.531L30.2087 12.6848L15.0881 7.44356L30.6316 13.1828L30.2087 13.3374L15.0881 8.09617L30.6316 13.8354L30.2087 13.99L15.0881 8.74877L30.6316 14.488L30.2111 14.6435L14.9479 9.4678L30.6294 15.1398L30.2136 15.2969L14.8093 10.1895L30.6272 15.7916L30.2161 15.9503L14.6722 10.9137L30.6248 16.4434L30.2188 16.6038L14.5368 11.6406L30.6225 17.0952L30.2201 17.2568L14.4697 12.3314L30.6212 17.7474L30.2243 17.9107L14.2712 13.1022L30.6174 18.3987L30.2272 18.5642L14.141 13.8367L30.6148 19.0505L30.2301 19.2176L14.0127 14.5738L30.6121 19.7023L30.2332 19.8711L13.8864 15.3134L30.6093 20.354L30.2364 20.5246L13.762 16.0555L30.6064 21.0058L30.2396 21.1781L13.6397 16.8L30.6034 21.6575L30.243 21.8315L13.5195 17.5469L30.6004 22.3093L30.2464 22.485L13.4014 18.2962L30.5972 22.961L30.25 23.1385L13.2857 19.0478L30.594 23.6127L30.2536 23.792L13.1722 19.8018L30.5906 24.2645L30.2574 24.4455L13.061 20.558L30.5871 24.9162L30.2613 25.0989L12.9523 21.3164L30.5836 25.5679L30.2653 25.7524L12.8462 22.0771L30.5799 26.2197L30.2694 26.4058L12.7426 22.8399L30.5762 26.8714L30.2736 27.0593L12.6416 23.6048L30.5723 27.5232L30.2779 27.7127L12.5435 24.3718L30.5683 28.1749L30.2823 28.3661L11.5177 24.9725L30.2647 28.8269L29.9805 29.0185L12.117 25.7539L29.6635 29.3708L29.3813 29.5628L15.1547 27.0176L28.7563 29.6961L28.4853 29.8902L12.2601 27.1514L27.2497 30.0218L26.9862 30.2172L14.1209 28.1369L25.1385 30.1294L24.8898 30.3273L15.5329 28.9388L22.7233 30.1278L22.4936 30.3286L12.0245 28.9222L19.7107 30.1269L19.4961 30.3299L9.26142 29.0959L16.0983 30.1263L15.8984 30.3311L8.08908 29.5072L12.4831 30.1253L12.3052 30.3326L5.99188 29.7952L8.27581 30.1257L8.10515 30.3333L3.59448 30.007L3.71242 29.7937L5.01141 29.8877L2.03821 29.4575L2.21877 29.2507L8.26213 29.765L1.43948 28.8053L1.63267 28.5995L10.8706 29.5741L1.43281 28.1517L1.64356 27.9481L13.1441 29.3347L1.42891 27.4985L1.65318 27.2968L14.9982 29.0896L1.42345 26.845L1.66261 26.6455L17.6358 29.0158L1.41399 26.082L1.6712 25.8854L18.9775 28.6839L1.40777 25.3195L1.67564 25.1248L19.9438 28.2083L1.40468 24.5575L1.68179 24.3645L20.4592 27.7239L1.39958 23.7951L1.68408 23.6035L19.3049 26.8238L1.39987 23.1426L1.68295 22.9507L22.2047 26.6621L1.39695 22.2718L1.68738 22.0814L22.1321 25.9329L1.39297 21.4008L1.69169 21.2121L22.0575 25.2022L1.3891 20.5298L1.6959 20.3428L21.9808 24.4699L1.38533 19.6588L1.69999 19.4735L21.9022 23.736L1.38167 18.7878L1.70397 18.6042L21.8218 23.0005L1.37811 17.9168L1.70785 17.7349L21.7393 22.2633L1.37466 17.0458L1.71162 16.8656L21.6551 21.5244L1.3713 16.1748L1.71528 15.9964L21.5692 20.7838L1.36804 15.3037L1.71883 15.1271L21.4816 20.0415L1.36489 14.4327L1.72229 14.2578L21.3922 19.2974L1.36182 13.5617L1.72564 13.3886L21.3013 18.5515L1.35884 12.6907L1.7289 12.5193L21.2088 17.8037L1.35596 11.8197L1.73206 11.65L21.1149 17.0542L1.35316 10.9487L1.73512 10.7807L21.0194 16.3027L1.35045 10.0777L1.7381 9.91145L20.9225 15.5494L1.34782 9.20674L1.74098 9.04217L21.8675 15.1087L1.34403 8.22658L1.74514 8.06454L19.3121 13.5581L1.3428 7.46479L1.74649 7.30359L20.6238 13.278L1.34041 6.59383L1.74912 6.43429L20.5217 12.517L1.33809 5.72287L1.75167 5.56498L20.4183 11.7541L1.33584 4.85193L1.75414 4.69566L20.3138 10.9891L1.33366 3.98099L1.75653 3.82634L16.8771 9.06761L1.33366 3.32838L1.75653 3.17374L16.8771 8.415L1.33366 2.67577L1.75653 2.52113L20.3133 8.95346L1.93288 2.02234L2.36023 1.86932L19.1617 7.81713L2.83379 1.58681L3.26349 1.43465L19.7267 7.32396L4.33591 1.36872L4.76822 1.21754L18.5763 6.21195L5.53843 1.15106L5.97107 1L19.4266 5.86688L7.34215 1.15085L7.77534 1L20.2768 5.5218L9.14579 1.1506L9.57961 1L21.127 5.17669L10.9493 1.1503L11.3839 1L21.977 4.83156L12.7527 1.14995L13.1881 1L22.827 4.48639L14.5559 1.14952L14.9924 1L23.6768 4.14116L16.3588 1.14898L16.7967 1L24.5265 3.79587L18.1614 1.14828L18.601 1L25.3758 3.45047L19.9635 1.14735L20.4052 1L26.2247 3.10491L21.7647 1.14605L22.2095 1L27.0728 2.75906L23.5647 1.14411L24.0138 1L27.9194 2.41266L25.3622 1.14088L25.818 1L28.482 1.96356Z" fill="white"/>
</g>
<defs>
<linearGradient id="paint0_linear_915_9130" x1="5.33399" y1="15.6667" x2="26.6673" y2="15.6667" gradientUnits="userSpaceOnUse">
<stop stop-color="#FFD87E"/>
<stop offset="1" stop-color="#FFB200"/>
</linearGradient>
</defs>
</svg>
