<svg width="32" height="32" viewBox="0 0 32 32" fill="none" xmlns="http://www.w3.org/2000/svg">
<mask id="mask0_127_13394" style="mask-type:alpha" maskUnits="userSpaceOnUse" x="5" y="3" width="22" height="27">
<path fill-rule="evenodd" clip-rule="evenodd" d="M18.0311 29.6507C18.0311 29.6507 18.0311 29.6482 15.9993 29.6482C13.9676 29.6482 13.9676 29.6507 13.9676 29.6507L13.9676 29.653L13.9676 29.6571L13.9677 29.6631C13.9677 29.6662 13.9677 29.6667 13.9677 29.6667C13.9677 29.6667 13.9675 29.6566 13.9669 29.6411C13.9657 29.6101 13.9627 29.5522 13.9558 29.4713C13.942 29.3089 13.9127 29.0586 13.8516 28.7505C13.7279 28.1275 13.4827 27.3137 13.0066 26.5143C12.1341 25.0496 9.76224 23.2526 5.33268 23.2526L5.33268 18.9889C8.97496 18.9889 12.1092 19.9858 13.9676 21.4313L13.9676 3L18.0311 3L18.0311 21.4313C19.8895 19.9858 23.0237 18.9889 26.666 18.9889L26.666 23.2526C22.2365 23.2526 19.8646 25.0496 18.9921 26.5143C18.516 27.3137 18.2708 28.1275 18.1471 28.7505C18.086 29.0586 18.0567 29.3089 18.0429 29.4713C18.036 29.5522 18.033 29.6101 18.0318 29.6411C18.0312 29.6566 18.031 29.6667 18.031 29.6667C18.031 29.6667 18.031 29.6662 18.031 29.6631L18.0311 29.6571L18.0311 29.653L18.0311 29.6507Z" fill="url(#paint0_linear_127_13394)"/>
</mask>
<g mask="url(#mask0_127_13394)">
<path fill-rule="evenodd" clip-rule="evenodd" d="M3.51701 30.0364L4.83956 30.754L4.37672 30.8912L1.67031 29.9123L2.09559 29.7585L2.65458 29.9607L1.33203 29.2431L1.79487 29.1059L3.8962 29.8659L1.33904 28.5942L1.79487 28.4533L4.8539 29.5597L1.34578 27.9448L1.79487 27.8007L5.81007 29.253L1.35011 27.2941L1.79487 27.1481L6.76546 28.9459L1.35311 26.6428L1.79487 26.4955L7.72039 28.6387L1.35532 25.9911L1.79487 25.8429L8.67502 28.3314L1.35701 25.3392L1.79487 25.1903L9.62946 28.024L1.35834 24.6872L1.79487 24.5376L10.5838 27.7166L1.35941 24.035L1.79487 23.885L11.538 27.4091L1.3603 23.3827L1.79487 23.2324L12.4921 27.1016L1.36105 22.7304L1.79487 22.5798L13.4461 26.7941L1.36169 22.0781L1.79487 21.9272L14.4001 26.4866L1.36224 21.4257L1.79487 21.2746L15.0361 26.064L1.36256 20.7732L1.7937 20.6216L15.9029 25.6688L1.364 20.1211L1.79257 19.9686L16.4513 25.1578L1.36522 19.469L1.7903 19.3152L16.9109 24.5564L1.36742 18.8172L1.7903 18.6626L16.9109 23.9038L1.36742 18.1646L1.7903 18.01L16.9109 23.2512L1.36742 17.512L1.78791 17.3565L17.0511 22.5322L1.3696 16.8602L1.78544 16.7031L17.1898 21.8105L1.37185 16.2084L1.78289 16.0497L17.3268 21.0863L1.37417 15.5566L1.78026 15.3962L17.4622 20.3594L1.37657 14.9048L1.77891 14.7432L17.5293 19.6686L1.37779 14.2526L1.77475 14.0893L17.7279 18.8978L1.38159 13.6013L1.77186 13.4358L17.858 18.1633L1.38422 12.9495L1.76889 12.7824L17.9863 17.4262L1.38693 12.2977L1.76582 12.1289L18.1127 16.6866L1.38973 11.646L1.76266 11.4754L18.237 15.9445L1.39261 10.9942L1.75941 10.8219L18.3593 15.2L1.39558 10.3425L1.75605 10.1685L18.4795 14.4531L1.39865 9.69075L1.7526 9.51497L18.5976 13.7038L1.40181 9.03901L1.74904 8.8615L18.7133 12.9522L1.40507 8.38728L1.74538 8.20802L18.8268 12.1982L1.40842 7.73554L1.74161 7.55455L18.938 11.442L1.41188 7.08381L1.73774 6.90108L19.0467 10.6836L1.41543 6.43207L1.73376 6.24762L19.1528 9.9229L1.41909 5.78033L1.72966 5.59416L19.2564 9.1601L1.42286 5.12859L1.72546 4.94072L19.3574 8.39519L1.42673 4.47684L1.72115 4.28728L19.4555 7.62818L1.43072 3.82509L1.71672 3.63386L20.4814 7.02746L1.73435 3.1731L2.01856 2.98146L19.8821 6.24609L2.33548 2.6292L2.61769 2.43721L16.8443 4.98243L3.24272 2.30392L3.51367 2.10983L19.739 4.84856L4.74937 1.97822L5.01279 1.78279L17.8781 3.86313L6.86056 1.87061L7.10918 1.67269L16.4661 3.06118L9.27572 1.87225L9.50544 1.67136L19.9745 3.07784L12.2883 1.87312L12.5029 1.67014L22.7376 2.9041L15.9007 1.87372L16.1006 1.66891L23.9099 2.49276L19.5159 1.8747L19.6938 1.66745L26.0071 2.20475L23.7232 1.87431L23.8939 1.66667L28.4045 1.99297L28.2866 2.20628L26.9876 2.11231L29.9608 2.54248L29.7803 2.74934L23.7369 2.23502L30.5595 3.1947L30.3664 3.40049L21.1285 2.42593L30.5662 3.84828L30.3555 4.05186L18.8549 2.66527L30.5701 4.50148L30.3458 4.70325L17.0008 2.91039L30.5756 5.15497L30.3364 5.35452L14.3632 2.98425L30.585 5.91798L30.3278 6.11456L13.0215 3.3161L30.5913 6.68051L30.3234 6.8752L12.0553 3.79166L30.5943 7.44249L30.3172 7.63551L11.5399 4.27612L30.5994 8.20489L30.3149 8.39647L12.6942 5.1762L30.5992 8.85744L30.3161 9.04928L9.79434 5.33791L30.6021 9.72819L30.3116 9.91861L9.86688 6.0671L30.6061 10.5992L30.3073 10.7879L9.94147 6.79781L30.6099 11.4702L30.3031 11.6572L10.0182 7.53011L30.6137 12.3412L30.299 12.5265L10.0968 8.264L30.6174 13.2122L30.2951 13.3958L10.1773 8.99951L30.6209 14.0832L30.2912 14.2651L10.2597 9.7367L30.6244 14.9542L30.2874 15.1344L10.3439 10.4756L30.6277 15.8252L30.2837 16.0036L10.4298 11.2162L30.631 16.6963L30.2802 16.8729L10.5175 11.9585L30.6341 17.5673L30.2767 17.7422L10.6068 12.7026L30.6372 18.4383L30.2734 18.6114L10.6977 13.4485L30.6402 19.3093L30.2701 19.4807L10.7902 14.1963L30.6431 20.1803L30.267 20.35L10.8842 14.9458L30.6459 21.0513L30.2639 21.2193L10.9796 15.6973L30.6486 21.9223L30.2609 22.0885L11.0765 16.4506L30.6512 22.7933L30.258 22.9578L10.1315 16.8913L30.655 23.7734L30.2539 23.9355L12.6869 18.4419L30.6562 24.5352L30.2525 24.6964L11.3752 18.722L30.6586 25.4062L30.2499 25.5657L11.4774 19.483L30.6609 26.2771L30.2474 26.435L11.5807 20.2459L30.6632 27.1481L30.2449 27.3043L11.6853 21.0109L30.6654 28.019L30.2425 28.1737L15.1219 22.9324L30.6654 28.6716L30.2425 28.8263L15.1219 23.585L30.6654 29.3242L30.2425 29.4789L11.6857 23.0465L30.0661 29.9777L29.6388 30.1307L12.8373 24.1829L29.1652 30.4132L28.7355 30.5654L12.2724 24.676L27.6631 30.6313L27.2308 30.7825L13.4227 25.788L26.4606 30.8489L26.028 31L12.5724 26.1331L24.6569 30.8492L24.2237 31L11.7222 26.4782L22.8532 30.8494L22.4194 31L10.8721 26.8233L21.0497 30.8497L20.6151 31L10.022 27.1684L19.2463 30.85L18.8109 31L9.17202 27.5136L17.4431 30.8505L17.0066 31L8.32219 27.8588L15.6402 30.851L15.2023 31L7.47255 28.2041L13.8376 30.8517L13.3981 31L6.62321 28.5495L12.0356 30.8526L11.5938 31L5.77433 28.8951L10.2343 30.8539L9.78953 31L4.92624 29.2409L8.43435 30.8559L7.98526 31L4.07967 29.5873L6.63682 30.8591L6.18099 31L3.51701 30.0364Z" fill="url(#paint1_linear_127_13394)"/>
</g>
<defs>
<linearGradient id="paint0_linear_127_13394" x1="26.666" y1="16.3333" x2="5.33268" y2="16.3333" gradientUnits="userSpaceOnUse">
<stop stop-color="#FFD87E"/>
<stop offset="1" stop-color="#FFB200"/>
</linearGradient>
<linearGradient id="paint1_linear_127_13394" x1="1.33203" y1="16.3333" x2="30.6654" y2="16.3333" gradientUnits="userSpaceOnUse">
<stop stop-color="#164554"/>
<stop offset="1" stop-color="#040C0F"/>
</linearGradient>
</defs>
</svg>
