<svg width="32" height="32" viewBox="0 0 32 32" fill="none" xmlns="http://www.w3.org/2000/svg">
<mask id="mask0_916_9134" style="mask-type:alpha" maskUnits="userSpaceOnUse" x="5" y="2" width="22" height="27">
<path fill-rule="evenodd" clip-rule="evenodd" d="M13.9689 2.34933C13.9689 2.34933 13.9689 2.35185 16.0007 2.35185C18.0324 2.35185 18.0324 2.34933 18.0324 2.34933L18.0324 2.34701L18.0324 2.34291L18.0323 2.33688C18.0323 2.33382 18.0323 2.33334 18.0323 2.33334C18.0323 2.33334 18.0325 2.34337 18.0331 2.35886C18.0344 2.38991 18.0373 2.44781 18.0442 2.52867C18.058 2.69114 18.0873 2.9414 18.1484 3.24945C18.2721 3.87246 18.5173 4.68631 18.9934 5.48567C19.8659 6.95038 22.2378 8.7474 26.6673 8.7474L26.6673 13.0111C23.025 13.0111 19.8908 12.0142 18.0324 10.5687L18.0324 29L13.9689 29L13.9689 10.5687C12.1105 12.0142 8.97626 13.0111 5.33399 13.0111L5.33399 8.7474C9.76354 8.7474 12.1354 6.95038 13.0079 5.48567C13.484 4.6863 13.7292 3.87246 13.8529 3.24945C13.914 2.9414 13.9433 2.69114 13.9571 2.52867C13.964 2.44781 13.967 2.38991 13.9682 2.35886C13.9688 2.34337 13.969 2.33334 13.969 2.33334C13.969 2.33334 13.969 2.33382 13.969 2.33688L13.9689 2.34291L13.9689 2.34701L13.9689 2.34933Z" fill="url(#paint0_linear_916_9134)"/>
</mask>
<g mask="url(#mask0_916_9134)">
<path fill-rule="evenodd" clip-rule="evenodd" d="M28.483 1.96356L27.1604 1.24601L27.6233 1.10877L30.3297 2.08768L29.9044 2.2415L29.3454 2.03931L30.668 2.75686L30.2051 2.89411L28.1038 2.13405L30.661 3.40583L30.2051 3.54671L27.1461 2.44026L30.6542 4.05521L30.2051 4.19932L26.1899 2.74702L30.6499 4.70587L30.2051 4.85193L25.2345 3.05406L30.6469 5.35718L30.2051 5.50453L24.2796 3.36127L30.6447 6.00886L30.2051 6.15714L23.325 3.66858L30.643 6.66077L30.2051 6.80975L22.3705 3.97597L30.6417 7.31283L30.2051 7.46235L21.4162 4.2834L30.6406 7.96501L30.2051 8.11496L20.462 4.59088L30.6397 8.61726L30.2051 8.76757L19.5079 4.89837L30.6389 9.26957L30.2051 9.42017L18.5539 5.2059L30.6383 9.92193L30.2051 10.0728L17.5999 5.51343L30.6378 10.5743L30.2051 10.7254L16.9639 5.93601L30.6374 11.2268L30.2063 11.3784L16.0971 6.33118L30.636 11.8789L30.2074 12.0314L15.5487 6.84216L30.6348 12.531L30.2097 12.6848L15.0891 7.44356L30.6326 13.1828L30.2097 13.3374L15.0891 8.09617L30.6326 13.8354L30.2097 13.99L15.0891 8.74877L30.6326 14.488L30.2121 14.6435L14.9489 9.4678L30.6304 15.1398L30.2146 15.2969L14.8102 10.1895L30.6281 15.7916L30.2171 15.9503L14.6732 10.9137L30.6258 16.4434L30.2197 16.6038L14.5378 11.6406L30.6234 17.0952L30.2211 17.2568L14.4707 12.3314L30.6222 17.7474L30.2253 17.9107L14.2721 13.1022L30.6184 18.3987L30.2281 18.5642L14.142 13.8367L30.6158 19.0505L30.2311 19.2176L14.0137 14.5738L30.6131 19.7023L30.2342 19.8711L13.8873 15.3134L30.6103 20.354L30.2373 20.5246L13.763 16.0555L30.6074 21.0058L30.2406 21.1781L13.6407 16.8L30.6044 21.6575L30.2439 21.8315L13.5205 17.5469L30.6013 22.3093L30.2474 22.485L13.4024 18.2962L30.5982 22.961L30.251 23.1385L13.2867 19.0478L30.5949 23.6127L30.2546 23.792L13.1732 19.8018L30.5916 24.2645L30.2584 24.4455L13.062 20.558L30.5881 24.9162L30.2623 25.0989L12.9533 21.3164L30.5846 25.5679L30.2662 25.7524L12.8472 22.0771L30.5809 26.2197L30.2703 26.4058L12.7436 22.8399L30.5771 26.8714L30.2745 27.0593L12.6426 23.6048L30.5733 27.5232L30.2789 27.7127L12.5445 24.3718L30.5693 28.1749L30.2833 28.3661L11.5186 24.9725L30.2657 28.8269L29.9814 29.0185L12.1179 25.7539L29.6645 29.3708L29.3823 29.5628L15.1557 27.0176L28.7573 29.6961L28.4863 29.8902L12.261 27.1514L27.2506 30.0218L26.9872 30.2172L14.1219 28.1369L25.1394 30.1294L24.8908 30.3273L15.5339 28.9388L22.7243 30.1278L22.4946 30.3286L12.0255 28.9222L19.7117 30.1269L19.4971 30.3299L9.2624 29.0959L16.0993 30.1263L15.8994 30.3311L8.09005 29.5072L12.4841 30.1253L12.3062 30.3326L5.99286 29.7952L8.27678 30.1257L8.10613 30.3333L3.59545 30.007L3.7134 29.7937L5.01239 29.8877L2.03919 29.4575L2.21975 29.2507L8.26311 29.765L1.44045 28.8053L1.63365 28.5995L10.8715 29.5741L1.43379 28.1517L1.64454 27.9481L13.1451 29.3347L1.42988 27.4985L1.65415 27.2968L14.9992 29.0896L1.42443 26.845L1.66358 26.6455L17.6368 29.0158L1.41496 26.082L1.67218 25.8854L18.9785 28.6839L1.40875 25.3195L1.67661 25.1248L19.9447 28.2083L1.40566 24.5575L1.68277 24.3645L20.4601 27.7239L1.40056 23.7951L1.68506 23.6035L19.3058 26.8238L1.40085 23.1426L1.68393 22.9507L22.2057 26.6621L1.39793 22.2718L1.68836 22.0814L22.1331 25.9329L1.39394 21.4008L1.69267 21.2121L22.0585 25.2022L1.39007 20.5298L1.69688 20.3428L21.9818 24.4699L1.3863 19.6588L1.70097 19.4735L21.9032 23.736L1.38264 18.7878L1.70495 18.6042L21.8227 23.0005L1.37909 17.9168L1.70883 17.7349L21.7403 22.2633L1.37563 17.0458L1.71259 16.8656L21.6561 21.5244L1.37228 16.1748L1.71625 15.9964L21.5702 20.7838L1.36902 15.3037L1.71981 15.1271L21.4825 20.0415L1.36586 14.4327L1.72327 14.2578L21.3932 19.2974L1.36279 13.5617L1.72662 13.3886L21.3023 18.5515L1.35982 12.6907L1.72987 12.5193L21.2098 17.8037L1.35694 11.8197L1.73303 11.65L21.1158 17.0542L1.35414 10.9487L1.7361 10.7807L21.0204 16.3027L1.35143 10.0777L1.73907 9.91145L20.9235 15.5494L1.3488 9.20674L1.74196 9.04217L21.8685 15.1087L1.345 8.22658L1.74612 8.06454L19.3131 13.5581L1.34378 7.46479L1.74747 7.30359L20.6248 13.278L1.34138 6.59383L1.7501 6.43429L20.5226 12.517L1.33906 5.72287L1.75265 5.56498L20.4193 11.7541L1.33681 4.85193L1.75512 4.69566L20.3147 10.9891L1.33463 3.98099L1.75751 3.82634L16.8781 9.06761L1.33463 3.32838L1.75751 3.17374L16.8781 8.415L1.33463 2.67577L1.75751 2.52113L20.3143 8.95346L1.93385 2.02234L2.36121 1.86932L19.1627 7.81713L2.83476 1.58681L3.26446 1.43465L19.7276 7.32396L4.33689 1.36872L4.7692 1.21754L18.5773 6.21195L5.53941 1.15106L5.97205 1L19.4276 5.86688L7.34313 1.15085L7.77632 1L20.2778 5.5218L9.14676 1.1506L9.58059 1L21.1279 5.17669L10.9503 1.1503L11.3849 1L21.978 4.83156L12.7537 1.14995L13.1891 1L22.828 4.48639L14.5569 1.14952L14.9934 1L23.6778 4.14116L16.3598 1.14898L16.7977 1L24.5274 3.79587L18.1624 1.14828L18.6019 1L25.3768 3.45047L19.9644 1.14735L20.4062 1L26.2257 3.10491L21.7657 1.14605L22.2105 1L27.0738 2.75906L23.5657 1.14411L24.0147 1L27.9203 2.41266L25.3632 1.14088L25.819 1L28.483 1.96356Z" fill="url(#paint1_linear_916_9134)"/>
</g>
<defs>
<linearGradient id="paint0_linear_916_9134" x1="5.33399" y1="15.6667" x2="26.6673" y2="15.6667" gradientUnits="userSpaceOnUse">
<stop stop-color="#FFD87E"/>
<stop offset="1" stop-color="#FFB200"/>
</linearGradient>
<linearGradient id="paint1_linear_916_9134" x1="30.668" y1="15.6667" x2="1.33463" y2="15.6667" gradientUnits="userSpaceOnUse">
<stop stop-color="#164554"/>
<stop offset="1" stop-color="#040C0F"/>
</linearGradient>
</defs>
</svg>
