<svg width="32" height="32" viewBox="0 0 32 32" fill="none" xmlns="http://www.w3.org/2000/svg">
<mask id="mask0_915_9126" style="mask-type:alpha" maskUnits="userSpaceOnUse" x="5" y="3" width="22" height="27">
<path fill-rule="evenodd" clip-rule="evenodd" d="M13.9679 3.01608C13.9679 3.01608 13.9679 3.01859 15.9997 3.01859C18.0314 3.01859 18.0314 3.01608 18.0314 3.01608L18.0314 3.01376L18.0314 3.00966L18.0314 3.00363C18.0313 3.00057 18.0313 3.00008 18.0313 3.00008C18.0313 3.00008 18.0315 3.01012 18.0321 3.02561C18.0334 3.05666 18.0363 3.11456 18.0432 3.19542C18.057 3.35789 18.0863 3.60815 18.1474 3.9162C18.2711 4.53921 18.5163 5.35305 18.9924 6.15242C19.8649 7.61712 22.2368 9.41415 26.6663 9.41415L26.6663 13.6779C23.0241 13.6779 19.8898 12.6809 18.0314 11.2354L18.0314 29.6667L13.9679 29.6667L13.9679 11.2354C12.1095 12.6809 8.97529 13.6779 5.33301 13.6779L5.33301 9.41415C9.76257 9.41415 12.1345 7.61712 13.0069 6.15242C13.4831 5.35305 13.7282 4.53921 13.8519 3.9162C13.9131 3.60815 13.9423 3.35789 13.9561 3.19542C13.963 3.11456 13.966 3.05666 13.9672 3.02561C13.9678 3.01012 13.968 3.00008 13.968 3.00008C13.968 3.00008 13.968 3.00057 13.968 3.00362L13.9679 3.00966L13.9679 3.01376L13.9679 3.01608Z" fill="url(#paint0_linear_915_9126)"/>
</mask>
<g mask="url(#mask0_915_9126)">
<path fill-rule="evenodd" clip-rule="evenodd" d="M3.51799 30.0364L4.84054 30.754L4.3777 30.8912L1.67129 29.9123L2.09656 29.7585L2.65556 29.9607L1.33301 29.2431L1.79585 29.1059L3.89717 29.8659L1.34002 28.5942L1.79585 28.4533L4.85487 29.5597L1.34676 27.9448L1.79585 27.8007L5.81105 29.253L1.35109 27.2941L1.79585 27.1481L6.76644 28.9459L1.35409 26.6428L1.79585 26.4955L7.72136 28.6387L1.3563 25.9911L1.79585 25.8429L8.67599 28.3314L1.35798 25.3392L1.79585 25.1903L9.63043 28.024L1.35931 24.6872L1.79585 24.5376L10.5847 27.7166L1.36039 24.035L1.79585 23.885L11.5389 27.4091L1.36128 23.3827L1.79585 23.2324L12.4931 27.1016L1.36203 22.7304L1.79585 22.5798L13.4471 26.7941L1.36266 22.0781L1.79585 21.9272L14.4011 26.4866L1.36321 21.4257L1.79585 21.2746L15.0371 26.064L1.36354 20.7732L1.79467 20.6216L15.9039 25.6688L1.36497 20.1211L1.79355 19.9686L16.4522 25.1578L1.3662 19.469L1.79128 19.3152L16.9119 24.5564L1.3684 18.8172L1.79128 18.6626L16.9119 23.9038L1.3684 18.1646L1.79128 18.01L16.9119 23.2512L1.3684 17.512L1.78888 17.3565L17.0521 22.5322L1.37058 16.8602L1.78641 16.7031L17.1907 21.8105L1.37283 16.2084L1.78386 16.0497L17.3278 21.0863L1.37515 15.5566L1.78123 15.3962L17.4632 20.3594L1.37755 14.9048L1.77989 14.7432L17.5303 19.6686L1.37877 14.2526L1.77573 14.0893L17.7288 18.8978L1.38257 13.6013L1.77284 13.4358L17.859 18.1633L1.3852 12.9495L1.76987 12.7824L17.9873 17.4262L1.38791 12.2977L1.7668 12.1289L18.1136 16.6866L1.3907 11.646L1.76364 11.4754L18.238 15.9445L1.39359 10.9942L1.76039 10.8219L18.3603 15.2L1.39656 10.3425L1.75703 10.1685L18.4805 14.4531L1.39963 9.69075L1.75358 9.51498L18.5986 13.7038L1.40279 9.03901L1.75002 8.8615L18.7143 12.9522L1.40604 8.38728L1.74636 8.20802L18.8278 12.1982L1.4094 7.73554L1.74259 7.55455L18.939 11.442L1.41285 7.08381L1.73872 6.90108L19.0477 10.6836L1.41641 6.43207L1.73473 6.24762L19.1538 9.9229L1.42007 5.78033L1.73064 5.59416L19.2574 9.1601L1.42384 5.12859L1.72644 4.94072L19.3584 8.39519L1.42771 4.47685L1.72212 4.28728L19.4565 7.62819L1.4317 3.8251L1.7177 3.63386L20.4823 7.02746L1.73532 3.1731L2.01954 2.98146L19.883 6.24609L2.33646 2.6292L2.61867 2.43721L16.8453 4.98243L3.24369 2.30392L3.51465 2.10983L19.7399 4.84856L4.75034 1.97822L5.01377 1.78279L17.8791 3.86313L6.86154 1.87061L7.11016 1.6727L16.4671 3.06118L9.27669 1.87225L9.50642 1.67136L19.9755 3.07784L12.2893 1.87312L12.5039 1.67014L22.7386 2.9041L15.9017 1.87372L16.1016 1.66891L23.9109 2.49277L19.5169 1.8747L19.6948 1.66745L26.0081 2.20475L23.7242 1.87431L23.8948 1.66667L28.4055 1.99297L28.2876 2.20628L26.9886 2.11231L29.9618 2.54248L29.7812 2.74934L23.7379 2.23502L30.5605 3.1947L30.3673 3.40049L21.1294 2.42593L30.5672 3.84828L30.3564 4.05187L18.8559 2.66527L30.5711 4.50148L30.3468 4.70325L17.0018 2.91039L30.5766 5.15497L30.3374 5.35452L14.3642 2.98425L30.586 5.91798L30.3288 6.11456L13.0225 3.3161L30.5922 6.68051L30.3244 6.87521L12.0562 3.79166L30.5953 7.44249L30.3182 7.63551L11.5408 4.27613L30.6004 8.20489L30.3159 8.39647L12.6951 5.1762L30.6001 8.85744L30.317 9.04928L9.79531 5.33791L30.603 9.72819L30.3126 9.91861L9.86785 6.0671L30.607 10.5992L30.3083 10.7879L9.94245 6.79781L30.6109 11.4702L30.3041 11.6572L10.0192 7.53011L30.6147 12.3412L30.3 12.5265L10.0978 8.264L30.6183 13.2122L30.296 13.3958L10.1782 8.99951L30.6219 14.0832L30.2922 14.2651L10.2607 9.7367L30.6253 14.9542L30.2884 15.1344L10.3449 10.4756L30.6287 15.8252L30.2847 16.0036L10.4308 11.2162L30.632 16.6963L30.2812 16.8729L10.5184 11.9585L30.6351 17.5673L30.2777 17.7422L10.6078 12.7026L30.6382 18.4383L30.2744 18.6114L10.6987 13.4485L30.6412 19.3093L30.2711 19.4807L10.7912 14.1963L30.644 20.1803L30.2679 20.35L10.8851 14.9458L30.6468 21.0513L30.2649 21.2193L10.9806 15.6973L30.6495 21.9223L30.2619 22.0885L11.0775 16.4506L30.6522 22.7933L30.259 22.9578L10.1325 16.8913L30.656 23.7734L30.2549 23.9355L12.6879 18.4419L30.6572 24.5352L30.2535 24.6964L11.3762 18.722L30.6596 25.4062L30.2509 25.5657L11.4783 19.483L30.6619 26.2771L30.2483 26.435L11.5817 20.2459L30.6642 27.1481L30.2459 27.3043L11.6862 21.0109L30.6663 28.019L30.2435 28.1737L15.1229 22.9324L30.6663 28.6716L30.2435 28.8263L15.1229 23.585L30.6663 29.3242L30.2435 29.4789L11.6867 23.0465L30.0671 29.9777L29.6398 30.1307L12.8383 24.1829L29.1662 30.4132L28.7365 30.5654L12.2733 24.676L27.6641 30.6313L27.2318 30.7825L13.4237 25.788L26.4616 30.8489L26.0289 31L12.5734 26.1331L24.6578 30.8492L24.2247 31L11.7232 26.4782L22.8542 30.8494L22.4204 31L10.873 26.8233L21.0507 30.8497L20.6161 31L10.023 27.1684L19.2473 30.85L18.8119 31L9.173 27.5136L17.4441 30.8505L17.0076 31L8.32317 27.8588L15.6412 30.851L15.2033 31L7.47353 28.2041L13.8386 30.8517L13.399 31L6.62419 28.5495L12.0365 30.8526L11.5948 31L5.77531 28.8951L10.2353 30.8539L9.7905 31L4.92721 29.2409L8.43533 30.8559L7.98623 31L4.08064 29.5873L6.6378 30.8591L6.18197 31L3.51799 30.0364Z" fill="#89989D"/>
</g>
<defs>
<linearGradient id="paint0_linear_915_9126" x1="5.33301" y1="16.3334" x2="26.6663" y2="16.3334" gradientUnits="userSpaceOnUse">
<stop stop-color="#FFD87E"/>
<stop offset="1" stop-color="#FFB200"/>
</linearGradient>
</defs>
</svg>
