<svg width="66" height="81" viewBox="0 0 66 81" fill="none" xmlns="http://www.w3.org/2000/svg">
<path d="M65.0382 61.1132C60.9864 62.6726 52.1815 59.7743 48.4727 56.9926C35.6584 47.381 40.2541 46.2003 40.4159 46.1565C42.4748 45.5998 47.4399 53.1196 48.7675 59.7017C50.6851 69.209 39.4133 79.6057 23.3962 75.7684C6.5634 71.7358 9.02049 52.5227 14.7197 32.4272C18.7073 18.3669 8.12079 3.03772 1.07812 0.766602M42.8609 75.5928C36.463 82.3864 12.4727 83.3814 7.97465 63.4804M1.07812 0.766602C4.14605 1.32268 9.3638 3.9053 12.9629 3.95662C5.78045 4.43022 2.77444 11.7513 2.36387 12.9583C3.0772 7.07082 1.93017 2.04602 1.07812 0.766602ZM15.9714 14.7232C17.4708 18.3717 19.47 28.0569 15.4716 37.6093" stroke="url(#paint0_linear_920_2196)" stroke-linecap="round"/>
<defs>
<linearGradient id="paint0_linear_920_2196" x1="33.0582" y1="0.766602" x2="33.0582" y2="79.9999" gradientUnits="userSpaceOnUse">
<stop stop-color="#164554"/>
<stop offset="1" stop-color="#040C0F"/>
</linearGradient>
</defs>
</svg>
