<svg width="232" height="146" viewBox="0 0 232 146" fill="none" xmlns="http://www.w3.org/2000/svg">
<path d="M162.959 110.436C179.165 110.436 182.208 120.419 181.704 125.41H22.675C4.7767 125.41 0.100571 115.427 -0.000213623 110.436H162.959Z" fill="url(#paint0_linear_41_5239)"/>
<path d="M231.192 37.1803H178.035L170.786 47.76V81.9174C215.728 90.623 229.783 55.72 231.192 37.1803Z" fill="url(#paint1_linear_41_5239)"/>
<path d="M224.246 38.9938C224.649 39.5984 225.757 40.5052 228.173 40.5052M220.018 38.9938C220.393 39.5783 221.111 40.3945 222.132 41.133M228.173 42.9234C227.968 42.9348 227.767 42.9395 227.569 42.9381M216.998 38.9938C216.441 39.6961 215.65 40.466 214.671 41.133M201.292 38.9938C202.171 39.8735 203.04 40.5785 203.893 41.133M197.97 38.9938C197.479 39.6946 196.778 40.4604 195.9 41.133M182.566 38.9938C183.283 39.7118 183.989 40.3174 184.68 40.8227M194.647 38.9938C193.036 40.0014 189.211 41.412 186.794 38.9938M205.218 38.9938C206.527 40.0014 209.93 41.412 213.071 38.9938M222.132 41.133C221.185 42.6742 218.367 44.8319 214.671 41.133M222.132 41.133C222.88 41.674 223.792 42.1733 224.85 42.509M214.671 41.133C213.836 41.7016 212.866 42.1955 211.789 42.509M224.85 42.509C223.089 45.1039 218.011 48.7368 211.789 42.509M224.85 42.509C225.67 42.7689 226.579 42.9308 227.569 42.9381M211.789 42.509C210.12 42.9948 208.195 43.0471 206.124 42.2728M227.569 42.9381C226.723 44.3121 225.474 45.8454 223.944 47.0532M209.447 42.9381C210.758 44.9293 212.076 46.3688 213.373 47.3632M208.541 42.9381C207.597 44.3525 206.208 45.939 204.536 47.1553M190.419 42.9963C189.378 42.9673 188.265 42.7347 187.096 42.228M190.419 42.9963C191.706 45.0511 193.027 46.5068 194.345 47.4851M190.419 42.9963C191.392 43.0235 192.302 42.8729 193.137 42.6023M189.211 42.9963C188.494 44.4168 187.161 46.2207 185.321 47.4851M175.015 47.1553C176.066 47.8536 177.074 48.3334 178.035 48.633M175.015 47.1553C173.965 46.457 174.169 46.5507 173.203 45.3416M175.015 47.1553C174.612 47.9614 173.384 49.8153 171.693 50.7826M184.68 40.8227C183.371 42.5305 179.968 45.0394 176.827 41.412M184.68 40.8227C185.508 41.4278 186.315 41.8892 187.096 42.228M187.096 42.228C185.284 44.7773 180.452 48.7271 175.619 44.1325M213.373 47.3632C213.373 47.7599 209.592 53.1777 204.536 47.1553M213.373 47.3632C214.293 48.0677 215.202 48.5488 216.092 48.8445M204.536 47.1553C203.039 48.2442 201.315 49.0364 199.48 49.143M194.345 47.4851C192.994 49.1438 189.298 51.4659 185.321 47.4851M194.345 47.4851C195.227 48.1399 196.108 48.5809 196.977 48.8445M185.321 47.4851C184.752 47.8759 184.134 48.2152 183.472 48.4757M216.092 48.8445C214.339 52.0273 208.924 56.4832 201.292 48.8445M216.092 48.8445C216.916 49.1186 217.724 49.2333 218.508 49.2189M196.977 48.8445C194.489 52.0837 188.305 56.5448 183.472 48.4757M196.977 48.8445C197.826 49.1022 198.664 49.1903 199.48 49.143M183.472 48.4757C182.636 48.8045 181.727 49.0077 180.754 49.0303M178.035 48.633C177.331 49.6518 175.378 51.9917 173.203 53.2009M178.035 48.633C178.989 48.9303 179.897 49.0502 180.754 49.0303M180.754 49.0303C181.518 50.6546 182.754 52.4866 184.378 53.845M180.754 49.0303C180.197 50.131 178.821 52.1952 176.827 53.9237M173.807 55.9214C174.012 55.8256 174.213 55.7238 174.411 55.6166M199.48 49.143C200.774 51.1728 202.093 52.6487 203.406 53.6765M199.48 49.143C197.979 51.1424 196.533 52.6222 195.153 53.6765M184.378 53.845C183.17 55.7244 179.968 58.3712 176.827 53.9237M184.378 53.845C185.272 54.5929 186.284 55.1972 187.398 55.5442M176.827 53.9237C176.101 54.5535 175.292 55.1387 174.411 55.6166M174.411 55.6166C176.425 58.4895 181.841 62.4972 187.398 55.5442M187.398 55.5442C188.067 55.7523 188.773 55.8678 189.513 55.8663M189.513 55.8663C189.809 55.8656 190.111 55.8462 190.419 55.8064M189.513 55.8663C188.926 57.2997 187.74 59.1412 185.962 60.489M175.015 60.7578C175.856 61.2031 176.661 61.5421 177.431 61.7883M177.431 61.7883C177.431 62.2509 176.888 63.4178 174.713 64.3851M177.431 61.7883C178.507 62.132 179.514 62.2946 180.452 62.3128M180.452 62.3128C180.553 62.3148 180.654 62.3151 180.754 62.3137M180.452 62.3128C180.196 63.4094 179.031 65.6511 176.334 67.0467M174.713 67.7102C175.306 67.5247 175.845 67.2996 176.334 67.0467M223.944 47.0532C224.347 47.7925 225.455 49.3922 226.663 49.8758M223.944 47.0532C223.13 47.6966 222.235 48.2476 221.28 48.633M221.28 48.633C222.168 49.8534 224.307 52.4149 225.757 52.8986M221.28 48.633C220.495 48.9499 219.668 49.1547 218.81 49.2069M218.81 49.2069C218.71 49.213 218.609 49.217 218.508 49.2189M218.81 49.2069C219.491 50.359 220.991 52.5137 222.618 53.9237M224.246 55.0145C223.706 54.7743 223.155 54.3897 222.618 53.9237M218.508 49.2189C217.469 50.7889 215.901 52.5598 214.001 53.845M214.001 53.845C215.827 55.5643 220.106 57.9871 222.618 53.9237M214.001 53.845C213.305 54.3161 212.564 54.7219 211.789 55.0286M211.789 55.0286C213.525 57.7444 218.266 61.9669 223.34 57.1305M211.789 55.0286C210.944 55.3627 210.059 55.5793 209.145 55.6349M209.145 55.6349C208.945 55.647 208.743 55.6515 208.541 55.6478M209.145 55.6349C209.614 56.9823 210.952 59.0739 213.373 60.489M220.32 61.9669C219.905 61.9956 219.502 62.0067 219.112 62.0018M208.541 55.6478C207.751 55.6333 206.943 55.4948 206.124 55.2053M208.541 55.6478C207.625 57.1978 206.239 58.9453 204.536 60.2524M190.419 55.8064C191.114 55.7163 191.836 55.5221 192.582 55.2053M190.419 55.8064C191.73 57.8609 193.048 59.3428 194.345 60.3632M203.406 53.6765C202.132 55.4102 198.699 57.8372 195.153 53.6765M203.406 53.6765C204.319 54.3907 205.228 54.8885 206.124 55.2053M195.153 53.6765C194.268 54.353 193.41 54.8544 192.582 55.2053M206.124 55.2053C204.144 58.2917 198.663 62.6126 192.582 55.2053M213.373 60.489C211.811 62.3576 207.856 64.9263 204.536 60.2524M213.373 60.489C214.084 60.9042 214.887 61.2611 215.79 61.5239M204.536 60.2524C203.81 60.8095 203.027 61.2866 202.198 61.6343M215.79 61.5239C213.607 64.8757 207.834 69.5902 202.198 61.6343M215.79 61.5239C216.777 61.8115 217.882 61.9864 219.112 62.0018M202.198 61.6343C201.429 61.957 200.62 62.1683 199.782 62.2285M219.112 62.0018C217.69 64.5019 215.075 67.4997 211.789 68.5157M199.782 62.2285C199.682 62.2357 199.581 62.2408 199.48 62.2436M199.782 62.2285C201.213 64.2831 202.63 65.7828 204.01 66.8317M199.48 62.2436C198.618 62.2676 197.727 62.1298 196.816 61.7883M199.48 62.2436C198.533 63.8814 197.035 65.741 195.153 67.0467M180.754 62.3137C181.793 62.2994 182.745 62.107 183.61 61.7883M180.754 62.3137C182.189 64.3471 183.607 65.8168 184.987 66.8317M194.345 60.3632C192.783 62.4315 188.92 65.3522 185.962 60.489M194.345 60.3632C195.18 61.0192 196.006 61.4844 196.816 61.7883M185.962 60.489C185.268 61.0153 184.484 61.4663 183.61 61.7883M196.816 61.7883C194.574 65.0539 188.794 69.6256 183.61 61.7883M204.01 66.8317C202.636 69.1682 198.94 72.4822 195.153 67.0467M204.01 66.8317C204.83 67.4546 205.637 67.9186 206.427 68.2453M195.153 67.0467C194.36 67.5966 193.499 68.0482 192.582 68.3437M206.427 68.2453C203.741 71.5121 197.213 76.1052 192.582 68.3437M206.427 68.2453C207.359 68.6314 208.268 68.826 209.145 68.8649M192.582 68.3437C191.799 68.5963 190.974 68.7348 190.117 68.7232M184.987 66.8317C183.549 68.9997 179.805 72.0779 176.334 67.0467M184.987 66.8317C185.806 67.4344 186.612 67.8766 187.398 68.1814M187.398 68.1814C185.486 71.0471 180.452 75.5694 175.619 70.733M187.398 68.1814C188.334 68.5436 189.242 68.7114 190.117 68.7232M190.117 68.7232C191.026 70.4521 192.483 72.4155 194.345 73.8028M190.117 68.7232C189.277 70.2885 187.826 72.2806 185.943 73.8028M175.015 74.3603C175.941 75.0137 176.85 75.4647 177.733 75.7463M209.145 68.8649C209.346 69.4876 210.051 70.9143 211.259 71.6398M209.145 68.8649C210.064 68.9058 210.948 68.7756 211.789 68.5157M209.145 68.8649C206.604 73.8028 202.802 75.3533 199.178 75.6109M211.789 68.5157C212.015 68.9525 212.648 69.8866 213.373 70.1284M199.178 75.6109C199.077 76.3024 198.634 77.9272 197.668 78.8945M199.178 75.6109C198.412 75.5914 197.677 75.4502 196.977 75.214M181.056 76.0561C181.684 77.506 183.417 80.5872 185.321 81.3127M181.056 76.0561C180.856 76.0819 180.655 76.1001 180.452 76.11M181.056 76.0561C181.9 75.947 182.708 75.7002 183.472 75.3533M180.452 76.11C180.049 77.2397 178.821 79.7408 177.129 80.7081M180.452 76.11C179.578 76.1527 178.67 76.0445 177.733 75.7463M177.733 75.7463C177.029 76.6949 175.257 78.7736 173.807 79.499M183.472 75.3533C185.629 78.4127 191.35 82.668 196.977 75.214M183.472 75.3533C184.358 74.9514 185.185 74.4151 185.943 73.8028M196.977 75.214C196.032 74.8951 195.151 74.4028 194.345 73.8028M194.345 73.8028C193.073 75.8337 189.611 78.6769 185.943 73.8028M195.9 41.133C196.813 42.7528 199.691 45.0207 203.893 41.133M195.9 41.133C195.113 41.7355 194.184 42.2632 193.137 42.6023M203.893 41.133C204.651 41.6264 205.397 42.0007 206.124 42.2728M206.124 42.2728C204.187 45.2984 198.877 49.6001 193.137 42.6023" stroke="url(#paint2_linear_41_5239)" stroke-width="0.7"/>
<path d="M151.456 105.495C180.451 90.0182 177.833 60.5562 172.9 47.7597C162.933 35.6686 147.227 44.4347 131.22 47.7597C115.212 51.0848 89.8412 92.1946 89.8412 113.656C89.8412 130.826 102.527 142.373 108.869 146C110.984 133.607 115.212 124.841 151.456 105.495Z" fill="url(#paint3_linear_41_5239)"/>
<path d="M166.145 81.7457C170.781 62.8264 153.304 55.2111 144.03 55.33C114.8 55.33 111.81 103.997 112.999 124.225C119.776 115.658 160.341 105.428 166.145 81.7457Z" fill="url(#paint4_linear_41_5239)"/>
<path d="M87.7269 117.888C79.5116 71.4585 97.7946 43.125 107.963 34.762L142.697 62.2692C146.321 113.052 107.963 117.888 87.7269 117.888Z" fill="url(#paint5_linear_41_5239)"/>
<path d="M107.661 45.9463C107.359 45.9463 104.339 47.4577 102.526 44.4349M109.171 48.0622C107.762 49.1706 104.097 50.4805 100.714 46.8531M97.9959 51.9918C98.6 51.4881 99.8081 50.2991 99.8081 49.5736C100.334 50.0667 101.166 50.637 102.224 51.0725M110.983 50.1782C110.265 50.6234 109.558 50.9607 108.869 51.2074M116.42 55.3169C114.004 55.6192 110.077 54.2073 108.869 51.2074M108.869 51.2074C108.033 51.507 107.224 51.6731 106.453 51.7366M106.453 51.7366C105.94 51.7789 105.445 51.7758 104.97 51.7366M106.453 51.7366C106.832 53.1527 107.872 55.0614 109.775 56.3564M119.742 56.8283C119.113 57.0558 118.509 57.2395 117.93 57.3833M104.97 51.7366C103.949 51.6523 103.022 51.4007 102.224 51.0725M104.97 51.7366C104.642 53.3287 102.981 56.2268 98.902 57.4638M95.2776 58.0374C95.4828 58.0301 95.6842 58.0192 95.8817 58.005M102.224 51.0725C101.419 52.4873 99.1436 55.3169 96.4857 55.3169M109.775 56.3564C108.668 57.9685 104.97 60.4556 101.62 56.3564M109.775 56.3564C110.459 56.822 111.255 57.2083 112.172 57.4638M98.902 57.4638C101.305 60.6984 107.324 65.2269 112.172 57.4638M98.902 57.4638C98.0936 57.709 97.1904 57.8889 96.1837 57.9804M112.172 57.4638C112.905 57.6681 113.715 57.7888 114.608 57.7996M125.179 59.2465C124.575 59.2465 122.763 59.5488 121.856 57.7351M117.93 57.3833C119.642 59.9188 124.273 64.0225 129.105 60.1533M117.93 57.3833C117.238 57.5552 116.583 57.6702 115.961 57.7351M132.126 61.3625C131.574 61.7981 130.923 62.2439 130.202 62.6573M115.961 57.7351C115.49 57.7843 115.039 57.8048 114.608 57.7996M115.961 57.7351C116.798 60.0063 117.877 61.5943 119.091 62.6573M114.608 57.7996C113.695 59.4263 112.335 61.2529 110.675 62.6573M96.1837 57.9804C96.084 57.9895 95.9834 57.9977 95.8817 58.005M96.1837 57.9804C97.3883 60.0342 98.6038 61.5619 99.8081 62.6573M95.8817 58.005C95.6803 58.7211 94.9756 60.5161 93.7674 61.967M92.8613 63.4784C94.2708 65.0469 97.6335 67.0786 99.8081 62.6573M99.8081 62.6573C100.621 63.3965 101.429 63.9388 102.224 64.313M119.091 62.6573C117.794 64.6003 114.294 67.3204 110.675 62.6573M119.091 62.6573C119.858 63.3287 120.679 63.7907 121.527 64.083M110.675 62.6573C110.02 63.2108 109.319 63.6987 108.581 64.083M121.527 64.083C119.431 67.005 113.907 71.0958 108.581 64.083M121.527 64.083C122.521 64.4255 123.551 64.5351 124.575 64.4759M108.581 64.083C107.808 64.4847 106.995 64.7731 106.151 64.9047M102.224 64.313C100.614 66.7553 96.2441 70.5517 91.6532 66.1989M102.224 64.313C103.16 64.7528 104.079 64.9604 104.97 64.9825M106.151 64.9047C105.763 64.965 105.37 64.9924 104.97 64.9825M106.151 64.9047C106.994 66.3266 108.241 67.9056 109.775 69.1397M124.575 64.4759C125.497 64.4226 126.414 64.2322 127.293 63.9518M124.575 64.4759C125.378 65.9911 126.828 67.8607 128.803 69.1618M124.575 64.4759C123.25 66.5598 121.924 68.0868 120.622 69.1618M104.97 64.9825C104.489 66.2668 103.498 67.8959 101.967 69.1397M91.0491 69.524C91.7836 69.8966 92.4882 70.1924 93.1634 70.4196M109.775 69.1397C108.295 71.1276 104.661 73.9106 101.967 69.1397M109.775 69.1397C110.689 69.8746 111.704 70.4871 112.795 70.8715M101.967 69.1397C101.115 69.833 100.094 70.4066 98.902 70.7342M112.795 70.8715C110.379 73.7481 104.218 77.748 98.902 70.7342M112.795 70.8715C113.379 71.0769 113.984 71.2172 114.608 71.2761M98.902 70.7342C98.0785 70.9604 97.173 71.0693 96.1837 71.0192M93.1634 70.4196C92.66 71.4309 91.2908 73.6349 89.841 74.3604M93.1634 70.4196C94.2454 70.7837 95.2517 70.972 96.1837 71.0192M130.202 62.6573C130.843 64.0393 133.213 66.1989 137.562 63.7807M130.202 62.6573C129.319 63.1629 128.332 63.6203 127.293 63.9518M127.293 63.9518C128.703 66.716 133.152 70.854 139.676 65.2921M140.884 68.0126C139.402 69.1474 137.988 69.8811 136.656 70.2992M139.676 68.9194C139.978 69.4232 140.703 70.5517 141.187 71.0353M136.656 70.2992C137.461 71.2499 139.435 73.4536 140.884 74.6627M136.656 70.2992C135.822 70.5608 135.02 70.6988 134.252 70.7342M128.803 69.1618C127.376 71.157 123.742 73.9503 120.622 69.1618M128.803 69.1618C129.538 69.6459 130.346 70.0513 131.219 70.3305M120.622 69.1618C120.047 69.6365 119.476 70.023 118.912 70.3305M131.219 70.3305C129.055 73.6221 123.564 78.2304 118.912 70.3305M131.219 70.3305C132.157 70.6299 133.17 70.784 134.252 70.7342M118.912 70.3305C117.745 70.9673 116.605 71.2647 115.514 71.3031M134.252 70.7342C134.765 71.7654 136.136 73.8414 138.253 75.7338M134.252 70.7342C133.269 72.4164 131.76 74.3294 129.907 75.7338M115.514 71.3031C115.208 71.3138 114.906 71.3043 114.608 71.2761M115.514 71.3031C116.824 73.3291 118.141 74.8007 119.44 75.8224M114.608 71.2761C113.739 72.8561 112.385 74.6327 110.675 75.9256M96.1837 71.0192C97.6227 73.1348 99.0394 74.6689 100.412 75.7338M96.1837 71.0192C95.5906 72.2099 94.2469 74.2576 92.4407 75.7338M103.13 77.2852C96.6065 85.9123 91.1498 80.9452 89.237 77.3832C90.4055 77.1326 91.4875 76.5128 92.4407 75.7338M103.13 77.2852C102.249 76.9595 101.341 76.454 100.412 75.7338M103.13 77.2852C103.962 77.5922 104.769 77.7392 105.547 77.7553M100.412 75.7338C98.9236 78.0052 95.2454 81.1853 92.4407 75.7338M138.253 75.7338C139.031 76.4295 139.91 77.1004 140.884 77.6855C135.569 85.6656 129.496 80.7436 127.125 77.2852M138.253 75.7338C136.846 78.106 133.206 81.4271 129.907 75.7338M129.907 75.7338C129.048 76.3848 128.114 76.9264 127.125 77.2852M127.125 77.2852C126.403 77.5467 125.651 77.711 124.877 77.7494M121.527 77.1015C119.408 80.4335 113.876 85.0982 108.698 77.1015M121.527 77.1015C120.839 76.7956 120.142 76.3747 119.44 75.8224M121.527 77.1015C122.429 77.503 123.316 77.7065 124.177 77.7494M108.698 77.1015C109.398 76.7933 110.059 76.3907 110.675 75.9256M108.698 77.1015C107.719 77.5318 106.663 77.7785 105.547 77.7553M119.44 75.8224C117.926 77.8899 114.052 80.8051 110.675 75.9256M124.877 77.7494C124.645 77.7609 124.412 77.7611 124.177 77.7494M124.877 77.7494C125.321 79.4202 126.552 81.6779 128.803 83.0868M139.374 83.1265C138.527 83.4744 137.722 83.7438 136.958 83.9435M124.177 77.7494C122.848 80.1498 120.419 83.0082 117.35 84.0333M105.547 77.7553C107.166 80.1367 108.763 81.7745 110.305 82.8308M105.547 77.7553C104.854 79.4017 103.562 81.4035 101.718 82.8308M88.6329 81.3128C89.3581 81.9049 90.063 82.4082 90.7471 82.8308M90.7471 82.8308C90.3444 83.4332 89.237 84.9401 88.0288 86.1492M90.7471 82.8308C91.804 83.4837 92.8113 83.9442 93.7674 84.2426M93.7674 84.2426C92.66 85.5834 89.9014 88.4465 87.7268 89.172M93.7674 84.2426C94.6132 84.5065 95.419 84.6435 96.1837 84.6747M110.305 82.8308C108.784 84.8482 104.938 87.6726 101.718 82.8308M110.305 82.8308C111.11 83.3826 111.9 83.7757 112.67 84.0333M101.718 82.8308C100.954 83.422 100.096 83.9146 99.1459 84.2426M112.67 84.0333C110.559 87.3971 104.898 92.1483 99.1459 84.2426M112.67 84.0333C114.339 84.5912 115.915 84.5129 117.35 84.0333M99.1459 84.2426C98.2406 84.5552 97.2522 84.7183 96.1837 84.6747M96.1837 84.6747C97.1675 86.1349 98.6321 87.7734 100.412 89.0183M96.1837 84.6747C95.7915 85.9751 94.61 88.1962 92.4407 89.7928M88.0288 91.5902C88.6744 91.4979 89.278 91.3496 89.841 91.1568M134.252 84.3848C134.953 85.5775 136.596 88.2047 137.562 89.172M134.252 84.3848C135.091 84.3374 135.991 84.1963 136.958 83.9435M134.252 84.3848C132.987 86.7472 131.659 88.4158 130.313 89.5338M134.252 84.3848C133.131 84.4482 132.123 84.344 131.219 84.115M136.958 83.9435C137.26 84.3765 138.045 85.4238 138.77 86.1492M136.958 90.9857C135.549 92.033 132.246 93.2088 130.313 89.5338M130.313 89.5338C129.511 90.2004 128.702 90.6713 127.897 90.9767M134.252 95.2176C132.839 95.1108 129.588 94.1133 127.897 90.9767M127.897 90.9767C126.774 91.4026 125.658 91.5069 124.575 91.3718M132.428 97.6358C132.089 97.5565 131.677 97.4324 131.219 97.2599M124.575 91.3718C123.639 91.2551 122.727 90.9597 121.856 90.5387M124.575 91.3718C125.492 93.5068 127.162 95.0369 128.803 96.0616M124.575 91.3718C123.533 92.8898 121.957 94.5957 120.044 95.8194M105.389 90.9767C104.611 90.9053 103.856 90.7243 103.13 90.4595M105.389 90.9767C106.224 91.0534 107.085 91.0041 107.963 90.7968M105.389 90.9767C106.86 93.22 108.359 94.7862 109.843 95.8194M105.389 90.9767C104.496 92.5301 103.088 94.3325 101.318 95.6794M87.7268 92.7993C88.7535 94.0838 89.772 95.0767 90.7725 95.8221M103.13 90.4595C101.016 93.5703 95.3984 98.0648 89.841 91.1568M103.13 90.4595C102.165 90.1073 101.254 89.6068 100.412 89.0183M89.841 91.1568C90.83 90.8182 91.6939 90.3425 92.4407 89.7928M100.412 89.0183C99.125 90.7933 95.7286 93.4332 92.4407 89.7928M119.667 89.172C117.96 87.8648 116.518 86.184 115.514 84.6747C114.014 86.901 112.489 88.4434 110.983 89.4486M119.667 89.172C118.383 91.3716 114.849 94.5063 110.983 89.4486M119.667 89.172C120.357 89.7007 121.091 90.1683 121.856 90.5387M110.983 89.4486C109.964 90.1289 108.953 90.5632 107.963 90.7968M121.856 90.5387C119.843 93.6853 114.245 98.1423 107.963 90.7968M128.803 83.0868C127.595 84.9113 124.152 87.4143 120.044 82.8308M128.803 83.0868C129.507 83.527 130.31 83.8843 131.219 84.115M117.35 84.0333C119.96 87.312 126.387 91.9186 131.219 84.115M131.219 97.2599C129.007 100.703 123.191 105.471 117.628 97.004M131.219 97.2599C130.494 96.9865 129.652 96.5916 128.803 96.0616M117.628 97.004C118.478 96.7123 119.287 96.3036 120.044 95.8194M117.628 97.004C116.853 97.2699 116.045 97.4387 115.212 97.4788M128.803 96.0616C127.595 97.8944 124.152 100.412 120.044 95.8194M126.085 104.588C125.476 104.726 124.637 104.771 123.669 104.621M115.212 97.4788C114.329 97.5213 113.42 97.4194 112.493 97.1357M115.212 97.4788C116.283 99.659 117.543 101.221 118.836 102.323M115.212 97.4788C114.234 99.1756 112.767 101.089 110.983 102.522M96.4857 97.6747C96.3855 97.6825 96.2848 97.6883 96.1837 97.692M96.4857 97.6747C97.2823 97.6124 98.049 97.4223 98.7789 97.1357M96.4857 97.6747C97.5857 99.5613 98.699 101.006 99.8081 102.082M96.1837 97.692C95.4035 97.7207 94.5959 97.6252 93.7674 97.3767M96.1837 97.692C95.623 98.8038 94.4504 100.591 92.8535 102.082M88.3309 104.588C88.9605 104.47 89.5666 104.26 90.1445 103.984M93.7674 97.3767C93.4654 97.6747 90.7471 100.961 88.0288 101.868M93.7674 97.3767C92.7946 97.0849 91.7929 96.5823 90.7725 95.8221M90.7725 95.8221C90.2607 96.6282 88.9953 98.3613 88.0288 98.8449M109.843 95.8194C108.512 98.0426 104.943 101.127 101.318 95.6794M109.843 95.8194C110.735 96.4402 111.621 96.8685 112.493 97.1357M101.318 95.6794C100.538 96.2736 99.6867 96.7793 98.7789 97.1357M112.493 97.1357C110.096 100.496 103.996 105.199 98.7789 97.1357M118.836 102.323C117.527 103.757 114.124 105.804 110.983 102.522M118.836 102.323C119.54 102.922 120.253 103.385 120.95 103.736M110.983 102.522C110.407 102.985 109.798 103.397 109.162 103.736M120.95 103.736C119.132 106.295 114.228 109.876 109.162 103.736M120.95 103.736C121.908 104.219 122.836 104.492 123.669 104.621M109.162 103.736C108.212 104.242 107.202 104.585 106.151 104.686M123.669 104.621C121.546 107.492 117.096 111.176 112.289 109.727M106.151 104.686C105.656 104.734 105.152 104.728 104.641 104.66M106.151 104.686C107.241 106.257 108.356 107.427 109.473 108.266M104.641 104.66C103.768 104.545 102.875 104.251 101.971 103.736M104.641 104.66C103.88 105.777 102.662 107.065 101.095 108.035M88.0288 105.797C88.9622 106.673 89.8786 107.37 90.7725 107.914M99.8081 102.082C98.4941 103.362 95.2635 105.155 92.8535 102.082M99.8081 102.082C100.533 102.785 101.255 103.329 101.971 103.736M92.8535 102.082C92.05 102.832 91.139 103.507 90.1445 103.984M101.971 103.736C99.9423 106.101 94.7366 109.462 90.1445 103.984M90.7725 107.914C90.3613 108.518 89.3578 109.848 88.6329 110.331M90.7725 107.914C91.6961 108.475 92.5957 108.872 93.4654 109.131M93.4654 109.131C92.5593 110.337 90.5055 112.931 89.539 113.657M93.4654 109.131C94.3002 109.379 95.1073 109.501 95.8817 109.52M95.8817 109.52C95.479 110.798 94.0091 113.777 91.3512 115.47M95.8817 109.52C96.5864 110.798 98.4187 113.657 100.11 114.866M95.8817 109.52C96.9094 109.545 97.8793 109.388 98.7789 109.105M112.289 109.727C109.761 112.738 103.519 116.83 98.7789 109.105M112.289 109.727C111.359 109.446 110.416 108.974 109.473 108.266M98.7789 109.105C99.6147 108.843 100.39 108.471 101.095 108.035M109.473 108.266C108.217 109.942 104.782 112.244 101.095 108.035" stroke="url(#paint6_linear_41_5239)" stroke-width="0.7"/>
<path d="M126.082 56.5257C135.022 58.7021 141.235 63.4781 143.148 65.5941C145.061 63.4781 151.274 58.7021 160.214 56.5257C171.389 53.8052 181.96 42.9232 179.544 27.2048C177.128 11.4864 163.536 2.11575 143.3 2.11575H142.996C122.76 2.11575 109.168 11.4864 106.752 27.2048C104.336 42.9232 114.907 53.8052 126.082 56.5257Z" fill="url(#paint7_linear_41_5239)"/>
<path d="M150.851 11.1842L151.267 11.4614C151.175 11.6006 151.018 11.6842 150.851 11.6842C150.684 11.6842 150.528 11.6006 150.435 11.4614L150.851 11.1842ZM152.476 9.64776L151.267 11.4614L150.435 10.9069L151.643 9.09327L152.476 9.64776ZM150.435 11.4614L149.227 9.64776L150.059 9.09327L151.267 10.9069L150.435 11.4614Z" fill="white"/>
<path d="M146.018 11.1842L146.434 11.4614C146.342 11.6006 146.185 11.6842 146.018 11.6842C145.851 11.6842 145.695 11.6006 145.602 11.4614L146.018 11.1842ZM147.643 9.64776L146.434 11.4614L145.602 10.9069L146.81 9.09327L147.643 9.64776ZM145.602 11.4614L144.394 9.64776L145.226 9.09327L146.434 10.9069L145.602 11.4614Z" fill="white"/>
<path d="M140.583 11.1842L140.999 11.4614C140.906 11.6006 140.75 11.6842 140.583 11.6842C140.415 11.6842 140.259 11.6006 140.166 11.4614L140.583 11.1842ZM142.207 9.64776L140.999 11.4614L140.166 10.9069L141.375 9.09327L142.207 9.64776ZM140.166 11.4614L138.958 9.64776L139.79 9.09327L140.999 10.9069L140.166 11.4614Z" fill="white"/>
<path d="M138.167 15.4162L138.583 15.6935C138.49 15.8326 138.334 15.9162 138.167 15.9162C137.999 15.9162 137.843 15.8326 137.75 15.6935L138.167 15.4162ZM139.791 13.8798L138.583 15.6935L137.75 15.139L138.959 13.3253L139.791 13.8798ZM137.75 15.6935L136.542 13.8798L137.374 13.3253L138.583 15.139L137.75 15.6935Z" fill="white"/>
<path d="M143.3 15.4162L143.716 15.6935C143.624 15.8326 143.468 15.9162 143.3 15.9162C143.133 15.9162 142.977 15.8326 142.884 15.6935L143.3 15.4162ZM144.925 13.8798L143.716 15.6935L142.884 15.139L144.093 13.3253L144.925 13.8798ZM142.884 15.6935L141.676 13.8798L142.508 13.3253L143.716 15.139L142.884 15.6935Z" fill="white"/>
<path d="M148.435 15.4162L148.851 15.6935C148.758 15.8326 148.602 15.9162 148.435 15.9162C148.268 15.9162 148.112 15.8326 148.019 15.6935L148.435 15.4162ZM150.06 13.8798L148.851 15.6935L148.019 15.139L149.227 13.3253L150.06 13.8798ZM148.019 15.6935L146.811 13.8798L147.643 13.3253L148.851 15.139L148.019 15.6935Z" fill="white"/>
<path d="M146.018 20.8571L146.434 21.1344C146.342 21.2735 146.185 21.3571 146.018 21.3571C145.851 21.3571 145.695 21.2735 145.602 21.1344L146.018 20.8571ZM147.643 19.3207L146.434 21.1344L145.602 20.5799L146.81 18.7662L147.643 19.3207ZM145.602 21.1344L144.394 19.3207L145.226 18.7662L146.434 20.5799L145.602 21.1344Z" fill="white"/>
<path d="M140.583 20.8571L140.999 21.1344C140.906 21.2735 140.75 21.3571 140.583 21.3571C140.415 21.3571 140.259 21.2735 140.166 21.1344L140.583 20.8571ZM142.207 19.3207L140.999 21.1344L140.166 20.5799L141.375 18.7662L142.207 19.3207ZM140.166 21.1344L138.958 19.3207L139.79 18.7662L140.999 20.5799L140.166 21.1344Z" fill="white"/>
<path d="M143.3 25.6939L143.716 25.9711C143.624 26.1103 143.468 26.1939 143.3 26.1939C143.133 26.1939 142.977 26.1103 142.884 25.9711L143.3 25.6939ZM144.925 24.1574L143.716 25.9711L142.884 25.4166L144.093 23.6029L144.925 24.1574ZM142.884 25.9711L141.676 24.1574L142.508 23.6029L143.716 25.4166L142.884 25.9711Z" fill="white"/>
<path d="M135.751 11.1842L136.167 11.4614C136.074 11.6006 135.918 11.6842 135.751 11.6842C135.583 11.6842 135.427 11.6006 135.334 11.4614L135.751 11.1842ZM137.375 9.64776L136.167 11.4614L135.334 10.9069L136.543 9.09327L137.375 9.64776ZM135.334 11.4614L134.126 9.64776L134.958 9.09327L136.167 10.9069L135.334 11.4614Z" fill="white"/>
<path d="M112.192 37.1801C110.501 27.5072 117.931 22.4693 121.857 21.1594C126.287 21.1594 135.63 22.6103 137.563 28.4141C139.979 35.6687 137.937 43.4854 132.73 46.5507C127.596 49.5735 114.306 49.2712 112.192 37.1801Z" fill="url(#paint8_linear_41_5239)"/>
<path d="M122.808 34.7617C119.262 28.8454 124.017 24.4843 126.433 23.2752C128.748 21.663 133.742 20.3129 136.4 27.8093C139.722 37.18 127.339 42.3187 122.808 34.7617Z" fill="#FFF9F1"/>
<path d="M131.568 27.507H124.621L126.735 33.8549H133.38L131.568 27.507Z" fill="url(#paint9_linear_41_5239)"/>
<path d="M127.655 33.1748C127.568 31.8342 128.766 28.7938 130.956 28.1118C131.062 29.7205 129.829 32.2247 127.655 33.1748Z" fill="#FEFFFA"/>
<path d="M119.438 7.55694C129.103 10.7006 137.56 22.0663 137.56 26.6004C130.411 22.9731 114.122 14.0257 110.981 12.0911C107.84 10.1565 107.054 3.2243 107.054 0C107.155 1.20911 109.773 4.41326 119.438 7.55694Z" fill="url(#paint10_linear_41_5239)"/>
<path d="M117.324 10.8819C130.613 14.0256 136.755 23.2753 138.164 27.5072L119.438 21.7639C103.249 22.973 100.007 9.77358 100.41 3.02271C100.511 4.33258 104.034 7.73824 117.324 10.8819Z" fill="url(#paint11_linear_41_5239)"/>
<path d="M123.365 14.5093C134.722 16.202 139.574 28.1118 140.581 33.855C137.863 30.2277 133.332 25.6935 121.251 23.2753C112.19 21.4617 108.364 13.5017 107.962 9.37054C108.364 10.3781 112.009 12.8165 123.365 14.5093Z" fill="url(#paint12_linear_41_5239)"/>
<path d="M174.162 37.1801C175.854 27.5072 168.424 22.4693 164.497 21.1594C160.068 21.1594 150.725 22.6103 148.792 28.4141C146.375 35.6687 148.418 43.4854 153.624 46.5507C158.759 49.5735 172.048 49.2712 174.162 37.1801Z" fill="url(#paint13_linear_41_5239)"/>
<path d="M163.838 34.7617C167.385 28.8454 162.63 24.4843 160.214 23.2752C157.898 21.663 152.905 20.3129 150.247 27.8093C146.924 37.18 159.308 42.3187 163.838 34.7617Z" fill="#FFF9F1"/>
<path d="M155.08 27.507H162.026L159.912 33.8549H153.267L155.08 27.507Z" fill="url(#paint14_linear_41_5239)"/>
<path d="M158.992 33.175C159.08 31.8344 157.882 28.794 155.691 28.112C155.586 29.7207 156.819 32.2249 158.992 33.175Z" fill="#FEFFFA"/>
<path d="M166.224 7.55694C156.559 10.7006 148.103 22.0663 148.103 26.6004C155.251 22.9731 171.54 14.0257 174.681 12.0911C177.823 10.1565 178.608 3.2243 178.608 0C178.507 1.20911 175.89 4.41326 166.224 7.55694Z" fill="url(#paint15_linear_41_5239)"/>
<path d="M168.338 10.8819C155.049 14.0256 148.908 23.2753 147.498 27.5072L166.224 21.7639C182.413 22.973 185.655 9.77358 185.252 3.02271C185.151 4.33258 181.628 7.73824 168.338 10.8819Z" fill="url(#paint16_linear_41_5239)"/>
<path d="M162.297 14.5093C150.94 16.202 146.088 28.1118 145.081 33.855C147.799 30.2277 152.33 25.6935 164.411 23.2753C173.472 21.4617 177.298 13.5017 177.701 9.37054C177.298 10.3781 173.653 12.8165 162.297 14.5093Z" fill="url(#paint17_linear_41_5239)"/>
<path d="M143.301 52.2942V38.994C140.748 38.994 139.047 42.6214 139.898 45.0396C140.578 46.9742 142.45 50.6821 143.301 52.2942Z" fill="#00151C"/>
<path d="M143.301 52.2942V38.994C145.853 38.994 147.555 42.6214 146.704 45.0396C146.023 46.9742 144.152 50.6821 143.301 52.2942Z" fill="#FBC471"/>
<defs>
<linearGradient id="paint0_linear_41_5239" x1="-6.73187" y1="110.436" x2="-0.12795" y2="158.437" gradientUnits="userSpaceOnUse">
<stop stop-color="#DBAB3C"/>
<stop offset="1" stop-color="#FFB200"/>
</linearGradient>
<linearGradient id="paint1_linear_41_5239" x1="175.316" y1="30.5302" x2="235.166" y2="89.1235" gradientUnits="userSpaceOnUse">
<stop stop-color="#011015"/>
<stop offset="1" stop-color="#134454"/>
</linearGradient>
<linearGradient id="paint2_linear_41_5239" x1="88.0298" y1="120.911" x2="65.9716" y2="55.8182" gradientUnits="userSpaceOnUse">
<stop stop-color="#DBCD4C"/>
<stop offset="1" stop-color="#FFB200"/>
</linearGradient>
<linearGradient id="paint3_linear_41_5239" x1="165.349" y1="7.25452" x2="113.628" y2="145.973" gradientUnits="userSpaceOnUse">
<stop stop-color="#FF4E00"/>
<stop offset="1" stop-color="#DA160A"/>
</linearGradient>
<linearGradient id="paint4_linear_41_5239" x1="154.731" y1="48.5476" x2="106.877" y2="132.402" gradientUnits="userSpaceOnUse">
<stop offset="0.161537" stop-color="#FFC9B9"/>
<stop offset="1" stop-color="white"/>
</linearGradient>
<linearGradient id="paint5_linear_41_5239" x1="134.24" y1="27.205" x2="70.7277" y2="166.516" gradientUnits="userSpaceOnUse">
<stop stop-color="#011015"/>
<stop offset="1" stop-color="#134454"/>
</linearGradient>
<linearGradient id="paint6_linear_41_5239" x1="88.0288" y1="121.516" x2="65.9706" y2="56.4228" gradientUnits="userSpaceOnUse">
<stop stop-color="#DBCD4C"/>
<stop offset="1" stop-color="#FFB200"/>
</linearGradient>
<linearGradient id="paint7_linear_41_5239" x1="143.148" y1="2.11575" x2="143.148" y2="65.5941" gradientUnits="userSpaceOnUse">
<stop offset="0.078125" stop-color="#FF4E00"/>
<stop offset="1" stop-color="#DA160A"/>
</linearGradient>
<linearGradient id="paint8_linear_41_5239" x1="127.898" y1="24.7867" x2="107.036" y2="52.8823" gradientUnits="userSpaceOnUse">
<stop offset="0.212083" stop-color="#04232E"/>
<stop offset="0.799119" stop-color="#043343"/>
</linearGradient>
<linearGradient id="paint9_linear_41_5239" x1="128.133" y1="28.36" x2="132.377" y2="36.3565" gradientUnits="userSpaceOnUse">
<stop offset="0.212083" stop-color="#04232E"/>
<stop offset="0.799119" stop-color="#043343"/>
</linearGradient>
<linearGradient id="paint10_linear_41_5239" x1="137.277" y1="25.9436" x2="102.267" y2="4.35899" gradientUnits="userSpaceOnUse">
<stop stop-color="#E6BB57"/>
<stop offset="1" stop-color="#FFB200"/>
</linearGradient>
<linearGradient id="paint11_linear_41_5239" x1="137.814" y1="26.9026" x2="102.366" y2="-2.50791" gradientUnits="userSpaceOnUse">
<stop stop-color="#F7D075"/>
<stop offset="1" stop-color="#FFC338"/>
</linearGradient>
<linearGradient id="paint12_linear_41_5239" x1="106.753" y1="9.37054" x2="145.74" y2="40.4743" gradientUnits="userSpaceOnUse">
<stop stop-color="#DBAB3C"/>
<stop offset="1" stop-color="#FFB200"/>
</linearGradient>
<linearGradient id="paint13_linear_41_5239" x1="158.457" y1="24.7867" x2="179.319" y2="52.8823" gradientUnits="userSpaceOnUse">
<stop offset="0.212083" stop-color="#04232E"/>
<stop offset="0.799119" stop-color="#043343"/>
</linearGradient>
<linearGradient id="paint14_linear_41_5239" x1="158.515" y1="28.36" x2="154.27" y2="36.3565" gradientUnits="userSpaceOnUse">
<stop offset="0.212083" stop-color="#04232E"/>
<stop offset="0.799119" stop-color="#043343"/>
</linearGradient>
<linearGradient id="paint15_linear_41_5239" x1="148.385" y1="25.9436" x2="183.395" y2="4.35899" gradientUnits="userSpaceOnUse">
<stop stop-color="#E6BB57"/>
<stop offset="1" stop-color="#FFB200"/>
</linearGradient>
<linearGradient id="paint16_linear_41_5239" x1="147.848" y1="26.9026" x2="183.296" y2="-2.50791" gradientUnits="userSpaceOnUse">
<stop stop-color="#F7D075"/>
<stop offset="1" stop-color="#FFC338"/>
</linearGradient>
<linearGradient id="paint17_linear_41_5239" x1="178.909" y1="9.37054" x2="139.922" y2="40.4743" gradientUnits="userSpaceOnUse">
<stop stop-color="#DBAB3C"/>
<stop offset="1" stop-color="#FFB200"/>
</linearGradient>
</defs>
</svg>
