<svg width="20" height="17" viewBox="0 0 20 17" fill="none" xmlns="http://www.w3.org/2000/svg">
<mask id="mask0_845_24" style="mask-type:alpha" maskUnits="userSpaceOnUse" x="0" y="0" width="20" height="17">
<path fill-rule="evenodd" clip-rule="evenodd" d="M19.988 6.97619C19.988 6.97619 19.9861 6.97619 19.9861 8.5C19.9861 10.0238 19.988 10.0238 19.988 10.0238L19.9897 10.0238L19.9928 10.0238L19.9973 10.0238C19.9996 10.0237 20 10.0237 20 10.0237C20 10.0237 19.9925 10.0239 19.9809 10.0243C19.9576 10.0253 19.9141 10.0275 19.8535 10.0327C19.7316 10.043 19.5439 10.065 19.3129 10.1108C18.8457 10.2036 18.2353 10.3875 17.6357 10.7446C16.5372 11.3989 15.1895 13.1778 15.1895 16.5H11.9917C11.9917 13.7683 12.7394 11.4176 13.8235 10.0238L0 10.0238L0 6.97619L13.8235 6.97619C12.7394 5.58238 11.9917 3.23171 11.9917 0.5L15.1895 0.5C15.1895 3.82217 16.5372 5.60109 17.6357 6.25543C18.2353 6.61254 18.8457 6.7964 19.3129 6.88917C19.5439 6.93505 19.7316 6.95698 19.8535 6.96735C19.9141 6.97251 19.9576 6.97473 19.9809 6.97565C19.9925 6.97611 20 6.97627 20 6.97627C20 6.97627 19.9996 6.97626 19.9973 6.97624L19.9928 6.97621L19.9897 6.97619L19.988 6.97619Z" fill="url(#paint0_linear_845_24)"/>
</mask>
<g mask="url(#mask0_845_24)">
<path fill-rule="evenodd" clip-rule="evenodd" d="M20.2773 17.8613L20.8155 16.8694L20.9184 17.2165L20.1842 19.2463L20.0689 18.9273L20.2205 18.5081L19.6824 19.5L19.5794 19.1529L20.1495 17.5769L19.1956 19.4947L19.09 19.1529L19.9198 16.8586L18.7086 19.4897L18.6005 19.1529L19.6897 16.1415L18.2206 19.4864L18.1111 19.1529L19.4595 15.4249L17.7321 19.4842L17.6216 19.1529L19.229 14.7087L17.2434 19.4825L17.1321 19.1529L18.9986 13.9928L16.7544 19.4813L16.6427 19.1529L18.768 13.2769L16.2654 19.4803L16.1532 19.1529L18.5374 12.5612L15.7762 19.4795L15.6638 19.1529L18.3068 11.8456L15.2871 19.4788L15.1743 19.1529L18.0762 11.13L14.7978 19.4782L14.6849 19.1529L17.8456 10.4144L14.3086 19.4778L14.1954 19.1529L17.6149 9.69891L13.8193 19.4773L13.706 19.1529L17.298 9.22193L13.3299 19.4771L13.2162 19.1538L17.0016 8.57185L12.8409 19.476L12.7264 19.1546L16.6184 8.16058L12.3517 19.4751L12.2364 19.1563L16.1673 7.81584L11.8629 19.4735L11.7469 19.1563L15.6779 7.81584L11.3735 19.4735L11.2575 19.1563L15.1884 7.81584L10.884 19.4735L10.7674 19.1581L14.6491 7.71071L10.3951 19.4718L10.2773 19.1599L14.1079 7.60671L9.90629 19.4701L9.78724 19.1619L13.5647 7.50392L9.41744 19.4684L9.29716 19.1638L13.0195 7.40238L8.92861 19.4666L8.80738 19.1648L12.5015 7.35206L8.43946 19.4657L8.31697 19.168L11.9234 7.20313L7.95094 19.4628L7.82687 19.1701L11.3724 7.10552L7.46212 19.4609L7.33677 19.1724L10.8196 7.00931L6.9733 19.4588L6.84666 19.1747L10.2649 6.91453L6.48449 19.4567L6.35656 19.177L9.70837 6.82128L5.99567 19.4546L5.86645 19.1795L9.15 6.72954L5.50687 19.4523L5.37634 19.182L8.58982 6.63937L5.01806 19.45L4.88623 19.1846L8.02786 6.55084L4.52926 19.4477L4.39612 19.1872L7.46413 6.46402L4.04046 19.4452L3.90602 19.19L6.89867 6.3789L3.55165 19.4427L3.41591 19.1928L6.33152 6.2955L3.06285 19.4401L2.92581 19.1957L5.76268 6.21401L2.57405 19.4374L2.43571 19.1987L5.19217 6.13444L2.08525 19.4347L1.94562 19.2018L4.62007 6.05673L1.59644 19.4319L1.45554 19.2049L4.04639 5.98099L1.10763 19.429L0.965462 19.2082L3.47114 5.90741L0.61882 19.426L0.475393 19.2115L3.02059 5.138L0.129822 19.1983L-0.0139065 18.9851L2.43457 5.58747L-0.278103 18.7474L-0.422094 18.5358L1.48682 7.8658L-0.522059 18.067L-0.667627 17.8638L1.38642 5.6948L-0.766335 16.937L-0.912905 16.7394L0.647347 7.09047L-0.847042 15.3536L-0.995478 15.1671L0.0458822 8.14942L-0.845816 13.5422L-0.99648 13.3699L0.0583808 5.51812L-0.845158 11.2828L-0.997395 11.1218L-0.0719256 3.44582L-0.844708 8.57347L-0.998321 8.42358L-0.380428 2.56657L-0.843978 5.86207L-0.999416 5.72867L-0.596439 0.993668L-0.844268 2.70661L-1 2.57862L-0.755274 -0.804384L-0.595289 -0.715923L-0.665766 0.258316L-0.343143 -1.97158L-0.187994 -1.83616L-0.57374 2.69635L0.146023 -2.42063L0.300365 -2.27574L-0.430557 4.65267L0.636206 -2.42563L0.788897 -2.26757L-0.251044 6.35786L1.12611 -2.42856L1.27743 -2.26036L-0.0672084 7.74844L1.61623 -2.43265L1.76589 -2.25329L-0.011815 9.72664L2.18848 -2.43975L2.33592 -2.24684L0.237077 10.7329L2.76038 -2.44441L2.9064 -2.24351L0.593742 11.4576L3.33186 -2.44673L3.47663 -2.2389L0.957094 11.8441L3.90367 -2.45056L4.04735 -2.23718L1.63215 10.9784L4.39308 -2.45034L4.53696 -2.23803L1.75343 13.1533L5.04614 -2.45253L5.18895 -2.23471L2.30032 13.0989L5.69939 -2.45552L5.84094 -2.23147L2.84836 13.0429L6.35264 -2.45842L6.49292 -2.22832L3.39758 12.9854L7.00589 -2.46125L7.14489 -2.22525L3.948 12.9264L7.65915 -2.46399L7.79685 -2.22226L4.49963 12.8661L8.31241 -2.46666L8.44881 -2.21936L5.05252 12.8043L8.96567 -2.46925L9.10077 -2.21653L5.60669 12.7411L9.61893 -2.47177L9.75272 -2.21378L6.16213 12.6766L10.2722 -2.47421L10.4047 -2.21112L6.71888 12.6109L10.9255 -2.47658L11.0566 -2.20853L7.27698 12.5439L11.5787 -2.47888L11.7086 -2.20601L7.83641 12.4757L12.232 -2.48111L12.3605 -2.20357L8.39721 12.4064L12.8852 -2.48327L13.0125 -2.2012L8.95938 12.3359L13.5385 -2.48537L13.6644 -2.1989L9.52295 12.2643L14.1917 -2.48741L14.3164 -2.19667L10.0879 12.1917L14.8449 -2.48938L14.9684 -2.19451L10.4185 12.9004L15.5801 -2.49222L15.7016 -2.19138L11.5814 10.9838L16.1514 -2.49314L16.2723 -2.19037L11.7915 11.9676L16.8046 -2.49494L16.9243 -2.1884L12.3622 11.891L17.4578 -2.49668L17.5763 -2.18649L12.9344 11.8135L18.1111 -2.49837L18.2282 -2.18464L13.5081 11.7351L18.7643 -2.5L18.8802 -2.18284L14.9493 9.15762L19.2537 -2.5L19.3697 -2.18284L15.4387 9.15762L19.7432 -2.5L19.8592 -2.18284L15.0349 11.7347L20.2332 -2.05058L20.348 -1.73007L15.8871 10.871L20.5599 -1.3749L20.674 -1.05263L16.257 11.2948L20.7235 -0.248312L20.8368 0.0759239L17.091 10.432L20.8867 0.65358L21 0.97806L17.3498 11.0697L20.8869 2.00637L21 2.33126L17.6087 11.7074L20.8871 3.3591L21 3.68446L17.8675 12.345L20.8873 4.71174L21 5.03767L18.1263 12.9825L20.8875 6.06427L21 6.39087L18.3852 13.62L20.8879 7.41667L21 7.74407L18.6441 14.2574L20.8883 8.76887L21 9.09727L18.9031 14.8946L20.8888 10.1208L21 10.4505L19.1621 15.5316L20.8895 11.4724L21 11.8037L19.4213 16.1683L20.8905 12.8233L21 13.1569L19.6807 16.8043L20.8919 14.1733L21 14.5101L19.9405 17.4393L20.8943 15.5214L21 15.8633L20.2773 17.8613Z" fill="url(#paint1_linear_845_24)"/>
</g>
<defs>
<linearGradient id="paint0_linear_845_24" x1="10" y1="0.5" x2="10" y2="16.5" gradientUnits="userSpaceOnUse">
<stop stop-color="#FFD87E"/>
<stop offset="1" stop-color="#FFB200"/>
</linearGradient>
<linearGradient id="paint1_linear_845_24" x1="10" y1="19.5" x2="10" y2="-2.5" gradientUnits="userSpaceOnUse">
<stop stop-color="#FFD87E"/>
<stop offset="1" stop-color="#FFB200"/>
</linearGradient>
</defs>
</svg>
