<svg width="83" height="87" viewBox="0 0 83 87" fill="none" xmlns="http://www.w3.org/2000/svg">
<path d="M6.78944 30.9474L7.12162 31.3211L6.58637 30.4905L6.78944 30.9474ZM1.10522 36L0.773043 35.6263L1.30829 36.4569L1.10522 36ZM6.78944 33.4737L7.16108 33.8082L6.58637 33.0168L6.78944 33.4737ZM1.10522 39.7895L0.733578 39.455L1.30829 40.2464L1.10522 39.7895ZM6.78944 37.2632L7.16108 37.5976L6.58637 36.8063L6.78944 37.2632ZM1.10522 43.5789L0.733578 43.2445L1.34805 44.016L1.10522 43.5789ZM6.78944 40.4211L7.17641 40.7377L6.54661 39.984L6.78944 40.4211ZM1.10522 47.3684L0.718246 47.0518L1.34805 47.8055L1.10522 47.3684ZM6.78944 44.2105L7.17641 44.5271L6.54661 43.7734L6.78944 44.2105ZM1.10522 51.1579L0.718246 50.8413L1.34805 51.595L1.10522 51.1579ZM6.78944 48L7.17641 48.3166L6.54661 47.5629L6.78944 48ZM1.10522 54.9474L0.718246 54.6307L1.34805 55.3844L1.10522 54.9474ZM6.78944 51.7895L7.17641 52.1061L6.54661 51.3524L6.78944 51.7895ZM1.10522 58.7368L0.718246 58.4202L1.34805 59.1739L1.10522 58.7368ZM6.78944 55.5789L7.17641 55.8956L6.54661 55.1419L6.78944 55.5789ZM1.10522 62.5263L0.718246 62.2097L1.38257 62.9423L1.10522 62.5263ZM6.78944 58.7368L7.18944 59.0368L6.51209 58.3208L6.78944 58.7368ZM1.10522 66.3158L0.705225 66.0158L1.38257 66.7318L1.10522 66.3158ZM6.78944 62.5263L7.18944 62.8263L6.51209 62.1103L6.78944 62.5263ZM1.10522 70.1053L0.705225 69.8053L1.38257 70.5213L1.10522 70.1053ZM6.78944 66.3158L7.18944 66.6158L6.51209 65.8998L6.78944 66.3158ZM1.10522 73.8947L0.705225 73.5947L1.38257 74.3108L1.10522 73.8947ZM6.78944 70.1053L7.18944 70.4053L6.51209 69.6892L6.78944 70.1053ZM1.10522 77.6842L0.705225 77.3842L1.38257 78.1002L1.10522 77.6842ZM6.78944 73.8947L7.19905 74.1815L6.51209 73.4787L6.78944 73.8947ZM2.36838 80.2105L1.95877 79.9238L2.64573 80.6265L2.36838 80.2105ZM8.05259 76.4211L8.47442 76.6895L7.77524 76.005L8.05259 76.4211ZM3.63154 83.3684L3.20971 83.1L3.94389 83.7589L3.63154 83.3684ZM9.94733 78.3158L10.3863 78.5552L9.63498 77.9254L9.94733 78.3158ZM6.15786 85.2632L5.71891 85.0237L6.4702 85.6536L6.15786 85.2632ZM12.4736 80.2105L12.9306 80.4136L12.1613 79.8201L12.4736 80.2105ZM9.94733 85.8947L9.49042 85.6917L10.2543 86.2894L9.94733 85.8947ZM15.6315 81.4737L16.0911 81.6706L15.3246 81.079L15.6315 81.4737ZM13.7368 85.8947L13.2772 85.6978L14.0438 86.2894L13.7368 85.8947ZM19.421 81.4737L19.8806 81.6706L19.114 81.079L19.421 81.4737ZM17.5263 85.8947L17.0667 85.6978L17.8332 86.2894L17.5263 85.8947ZM23.2105 81.4737L23.6701 81.6706L22.9035 81.079L23.2105 81.4737ZM21.3158 85.8947L20.8562 85.6978L21.6227 86.2894L21.3158 85.8947ZM27 81.4737L27.4595 81.6706L26.693 81.079L27 81.4737ZM25.1052 85.8947L24.6457 85.6978L25.392 86.3044L25.1052 85.8947ZM31.421 81.4737L31.9018 81.611L31.1343 81.0641L31.421 81.4737ZM30.1579 85.8947L29.6771 85.7574L30.4446 86.3044L30.1579 85.8947ZM36.4736 81.4737L36.9544 81.611L36.1869 81.0641L36.4736 81.4737ZM35.2105 85.8947L34.7297 85.7574L35.4972 86.3044L35.2105 85.8947ZM41.5263 81.4737L41.9859 81.6706L41.2395 81.0641L41.5263 81.4737ZM39.6315 85.8947L39.172 85.6978L39.9 86.3166L39.6315 85.8947ZM46.5789 81.4737L47.0597 81.611L46.3105 81.0518L46.5789 81.4737ZM45.3158 85.8947L44.835 85.7574L45.6025 86.3044L45.3158 85.8947ZM51.6315 81.4737L52.1123 81.611L51.3448 81.0641L51.6315 81.4737ZM50.3684 85.8947L49.8876 85.7574L50.6754 86.2894L50.3684 85.8947ZM56.0526 81.4737L56.5476 81.5444L55.7456 81.079L56.0526 81.4737ZM55.421 85.8947L54.926 85.824L55.728 86.2894L55.421 85.8947ZM61.1052 81.4737L61.6002 81.5444L60.7983 81.079L61.1052 81.4737ZM60.4736 85.8947L59.9787 85.824L60.7806 86.2894L60.4736 85.8947ZM66.1579 81.4737L66.6528 81.5444L65.8509 81.079L66.1579 81.4737ZM65.5263 85.8947L65.0313 85.824L65.813 86.3044L65.5263 85.8947ZM71.8421 81.4737L72.3228 81.611L71.5553 81.0641L71.8421 81.4737ZM70.5789 85.8947L70.0982 85.7574L70.8656 86.3044L70.5789 85.8947ZM76.8947 81.4737H77.3947L76.608 81.0641L76.8947 81.4737ZM76.8947 85.8947H76.3947L77.2017 86.2894L76.8947 85.8947ZM6.78944 12L7.16108 12.3345L6.58637 11.5431L6.78944 12ZM1.10522 18.3158L0.733578 17.9813L1.30829 18.7727L1.10522 18.3158ZM6.78944 15.7895L7.16108 16.124L6.58637 15.3326L6.78944 15.7895ZM1.10522 22.1053L0.733578 21.7708L1.34805 22.5423L1.10522 22.1053ZM6.78944 18.9474L7.17641 19.264L6.54661 18.5103L6.78944 18.9474ZM1.10522 25.8947L0.718246 25.5781L1.34805 26.3318L1.10522 25.8947ZM6.78944 22.7368L7.17641 23.0535L6.54661 22.2998L6.78944 22.7368ZM1.10522 29.6842L0.718246 29.3676L1.34805 30.1213L1.10522 29.6842ZM6.78944 26.5263L7.17641 26.8429L6.54661 26.0892L6.78944 26.5263ZM1.10522 33.4737L0.718246 33.1571L1.30829 33.9306L1.10522 33.4737ZM1.10522 6.31579L0.733578 5.98131L1.30829 6.7727L1.10522 6.31579ZM6.78944 3.78947L7.16108 4.12396L6.58637 3.33257L6.78944 3.78947ZM1.10522 10.1053L0.733578 9.77078L1.30829 10.5622L1.10522 10.1053ZM6.78944 7.57895L7.17641 7.89557L6.58637 7.12204L6.78944 7.57895ZM1.10522 14.5263L0.718246 14.2097L1.30829 14.9832L1.10522 14.5263ZM6.45725 30.5737L0.773043 35.6263L1.43741 36.3737L7.12162 31.3211L6.45725 30.5737ZM1.30829 36.4569L6.9925 33.9306L6.58637 33.0168L0.902155 35.5431L1.30829 36.4569ZM6.41779 33.1392L0.733578 39.455L1.47687 40.124L7.16108 33.8082L6.41779 33.1392ZM1.30829 40.2464L6.9925 37.7201L6.58637 36.8063L0.902155 39.3326L1.30829 40.2464ZM6.41779 36.9287L0.733578 43.2445L1.47687 43.9134L7.16108 37.5976L6.41779 36.9287ZM1.34805 44.016L7.03226 40.8581L6.54661 39.984L0.862403 43.1419L1.34805 44.016ZM6.40246 40.1044L0.718246 47.0518L1.4922 47.685L7.17641 40.7377L6.40246 40.1044ZM1.34805 47.8055L7.03226 44.6476L6.54661 43.7734L0.862403 46.9313L1.34805 47.8055ZM6.40246 43.8939L0.718246 50.8413L1.4922 51.4745L7.17641 44.5271L6.40246 43.8939ZM1.34805 51.595L7.03226 48.4371L6.54661 47.5629L0.862403 50.7208L1.34805 51.595ZM6.40246 47.6834L0.718246 54.6307L1.4922 55.264L7.17641 48.3166L6.40246 47.6834ZM1.34805 55.3844L7.03226 52.2266L6.54661 51.3524L0.862403 54.5103L1.34805 55.3844ZM6.40246 51.4729L0.718246 58.4202L1.4922 59.0535L7.17641 52.1061L6.40246 51.4729ZM1.34805 59.1739L7.03226 56.016L6.54661 55.1419L0.862403 58.2998L1.34805 59.1739ZM6.40246 55.2623L0.718246 62.2097L1.4922 62.8429L7.17641 55.8956L6.40246 55.2623ZM1.38257 62.9423L7.06679 59.1529L6.51209 58.3208L0.827875 62.1103L1.38257 62.9423ZM6.38944 58.4368L0.705225 66.0158L1.50522 66.6158L7.18944 59.0368L6.38944 58.4368ZM1.38257 66.7318L7.06679 62.9423L6.51209 62.1103L0.827875 65.8998L1.38257 66.7318ZM6.38944 62.2263L0.705225 69.8053L1.50522 70.4053L7.18944 62.8263L6.38944 62.2263ZM1.38257 70.5213L7.06679 66.7318L6.51209 65.8998L0.827875 69.6892L1.38257 70.5213ZM6.38944 66.0158L0.705225 73.5947L1.50522 74.1947L7.18944 66.6158L6.38944 66.0158ZM1.38257 74.3108L7.06679 70.5213L6.51209 69.6892L0.827875 73.4787L1.38257 74.3108ZM6.38944 69.8053L0.705225 77.3842L1.50522 77.9842L7.18944 70.4053L6.38944 69.8053ZM1.38257 78.1002L7.06679 74.3108L6.51209 73.4787L0.827875 77.2682L1.38257 78.1002ZM6.37982 73.608L1.95877 79.9238L2.778 80.4973L7.19905 74.1815L6.37982 73.608ZM2.64573 80.6265L8.32994 76.8371L7.77524 76.005L2.09103 79.7945L2.64573 80.6265ZM7.63076 76.1526L3.20971 83.1L4.05337 83.6369L8.47442 76.6895L7.63076 76.1526ZM3.94389 83.7589L10.2597 78.7062L9.63498 77.9254L3.31919 82.978L3.94389 83.7589ZM9.50838 78.0764L5.71891 85.0237L6.5968 85.5026L10.3863 78.5552L9.50838 78.0764ZM6.4702 85.6536L12.786 80.601L12.1613 79.8201L5.84551 84.8727L6.4702 85.6536ZM12.0167 80.0075L9.49042 85.6917L10.4042 86.0978L12.9306 80.4136L12.0167 80.0075ZM10.2543 86.2894L15.9385 81.8684L15.3246 81.079L9.64036 85.5001L10.2543 86.2894ZM15.172 81.2767L13.2772 85.6978L14.1964 86.0917L16.0911 81.6706L15.172 81.2767ZM14.0438 86.2894L19.728 81.8684L19.114 81.079L13.4298 85.5001L14.0438 86.2894ZM18.9614 81.2767L17.0667 85.6978L17.9859 86.0917L19.8806 81.6706L18.9614 81.2767ZM17.8332 86.2894L23.5175 81.8684L22.9035 81.079L17.2193 85.5001L17.8332 86.2894ZM22.7509 81.2767L20.8562 85.6978L21.7753 86.0917L23.6701 81.6706L22.7509 81.2767ZM21.6227 86.2894L27.3069 81.8684L26.693 81.079L21.0088 85.5001L21.6227 86.2894ZM26.5404 81.2767L24.6457 85.6978L25.5648 86.0917L27.4595 81.6706L26.5404 81.2767ZM25.392 86.3044L31.7077 81.8833L31.1343 81.0641L24.8185 85.4851L25.392 86.3044ZM30.9403 81.3363L29.6771 85.7574L30.6386 86.0321L31.9018 81.611L30.9403 81.3363ZM30.4446 86.3044L36.7604 81.8833L36.1869 81.0641L29.8711 85.4851L30.4446 86.3044ZM35.9929 81.3363L34.7297 85.7574L35.6912 86.0321L36.9544 81.611L35.9929 81.3363ZM35.4972 86.3044L41.813 81.8833L41.2395 81.0641L34.9238 85.4851L35.4972 86.3044ZM41.0667 81.2767L39.172 85.6978L40.0911 86.0917L41.9859 81.6706L41.0667 81.2767ZM39.9 86.3166L46.8473 81.8955L46.3105 81.0518L39.3631 85.4729L39.9 86.3166ZM46.0981 81.3363L44.835 85.7574L45.7965 86.0321L47.0597 81.611L46.0981 81.3363ZM45.6025 86.3044L51.9183 81.8833L51.3448 81.0641L45.029 85.4851L45.6025 86.3044ZM51.1508 81.3363L49.8876 85.7574L50.8491 86.0321L52.1123 81.611L51.1508 81.3363ZM50.6754 86.2894L56.3596 81.8684L55.7456 81.079L50.0614 85.5001L50.6754 86.2894ZM55.5576 81.403L54.926 85.824L55.916 85.9654L56.5476 81.5444L55.5576 81.403ZM55.728 86.2894L61.4122 81.8684L60.7983 81.079L55.114 85.5001L55.728 86.2894ZM60.6103 81.403L59.9787 85.824L60.9686 85.9654L61.6002 81.5444L60.6103 81.403ZM60.7806 86.2894L66.4648 81.8684L65.8509 81.079L60.1667 85.5001L60.7806 86.2894ZM65.6629 81.403L65.0313 85.824L66.0213 85.9654L66.6528 81.5444L65.6629 81.403ZM65.813 86.3044L72.1288 81.8833L71.5553 81.0641L65.2395 85.4851L65.813 86.3044ZM71.3613 81.3363L70.0982 85.7574L71.0597 86.0321L72.3228 81.611L71.3613 81.3363ZM70.8656 86.3044L77.1814 81.8833L76.608 81.0641L70.2922 85.4851L70.8656 86.3044ZM76.3947 81.4737V85.8947H77.3947V81.4737H76.3947ZM77.2017 86.2894L82.8859 81.8684L82.2719 81.079L76.5877 85.5001L77.2017 86.2894ZM6.41779 11.6655L0.733578 17.9813L1.47687 18.6503L7.16108 12.3345L6.41779 11.6655ZM1.30829 18.7727L6.9925 16.2464L6.58637 15.3326L0.902155 17.8589L1.30829 18.7727ZM6.41779 15.455L0.733578 21.7708L1.47687 22.4397L7.16108 16.124L6.41779 15.455ZM1.34805 22.5423L7.03226 19.3844L6.54661 18.5103L0.862403 21.6682L1.34805 22.5423ZM6.40246 18.6307L0.718246 25.5781L1.4922 26.2114L7.17641 19.264L6.40246 18.6307ZM1.34805 26.3318L7.03226 23.1739L6.54661 22.2998L0.862403 25.4577L1.34805 26.3318ZM6.40246 22.4202L0.718246 29.3676L1.4922 30.0008L7.17641 23.0535L6.40246 22.4202ZM1.34805 30.1213L7.03226 26.9634L6.54661 26.0892L0.862403 29.2471L1.34805 30.1213ZM6.40246 26.2097L0.718246 33.1571L1.4922 33.7903L7.17641 26.8429L6.40246 26.2097ZM1.30829 33.9306L6.9925 31.4043L6.58637 30.4905L0.902155 33.0168L1.30829 33.9306ZM6.41779 -0.334482L0.733578 5.98131L1.47687 6.65027L7.16108 0.334482L6.41779 -0.334482ZM1.30829 6.7727L6.9925 4.24638L6.58637 3.33257L0.902155 5.85888L1.30829 6.7727ZM6.41779 3.45499L0.733578 9.77078L1.47687 10.4397L7.16108 4.12396L6.41779 3.45499ZM1.30829 10.5622L6.9925 8.03585L6.58637 7.12204L0.902155 9.64836L1.30829 10.5622ZM6.40246 7.26233L0.718246 14.2097L1.4922 14.8429L7.17641 7.89557L6.40246 7.26233ZM1.30829 14.9832L6.9925 12.4569L6.58637 11.5431L0.902155 14.0694L1.30829 14.9832Z" fill="white"/>
</svg>
