<svg width="133" height="89" viewBox="0 0 133 89" fill="none" xmlns="http://www.w3.org/2000/svg">
<path d="M132.306 0.549242L1.00039 24.5532L94.2044 11.124L26.4536 23.2147L95.4764 15.7071L50.1164 24.3475L73.9359 21.9962C72.6543 22.3117 68.6743 24.1447 66.1388 26.6134C61.6123 31.0208 60.58 37.4754 60.3583 41.7232C60.3465 41.9486 60.3358 42.1699 60.326 42.3872M60.326 42.3872C59.7021 56.2634 63.0782 53.8934 63.2288 53.7877L63.2306 53.7864C64.5728 52.8469 63.11 47.0695 60.326 42.3872ZM60.326 42.3872C59.8053 41.5115 59.2383 40.674 58.6349 39.9137C53.1032 32.944 38.2422 35.344 32.559 48.2105C22.6059 70.744 44.8778 106.248 104.661 76.1128M104.661 76.1128C106.796 75.0364 108.98 73.8763 111.211 72.6289M104.661 76.1128C105.994 78.9358 106.002 81.8662 105.965 82.571C107.364 77.3249 110.051 73.4331 111.211 72.6289M104.661 76.1128C103.793 74.275 102.364 72.4827 100.019 71.3794C103.097 72.5359 109.864 73.2724 111.211 72.6289M44.0617 34.6573C37.4167 36.7557 25.0361 46.0586 28.6734 66.4832" stroke="url(#paint0_linear_2_1937)"/>
<defs>
<linearGradient id="paint0_linear_2_1937" x1="65.0505" y1="6.7766" x2="87.5083" y2="87.6934" gradientUnits="userSpaceOnUse">
<stop stop-color="#FFD87E"/>
<stop offset="1" stop-color="#FFB200"/>
</linearGradient>
</defs>
</svg>
